<?xml version="1.0" encoding="utf-8" standalone="no"?>
<!DOCTYPE svg PUBLIC "-//W3C//DTD SVG 1.1//EN"
  "http://www.w3.org/Graphics/SVG/1.1/DTD/svg11.dtd">
<svg xmlns:xlink="http://www.w3.org/1999/xlink" width="218.495978pt" height="147.4pt" viewBox="0 0 218.495978 147.4" xmlns="http://www.w3.org/2000/svg" version="1.1">
 <metadata>
  <rdf:RDF xmlns:dc="http://purl.org/dc/elements/1.1/" xmlns:cc="http://creativecommons.org/ns#" xmlns:rdf="http://www.w3.org/1999/02/22-rdf-syntax-ns#">
   <cc:Work>
    <dc:type rdf:resource="http://purl.org/dc/dcmitype/StillImage"/>
    <dc:date>normalized</dc:date>
    <dc:format>image/svg+xml</dc:format>
    <dc:creator>
     <cc:Agent>
      <dc:title>Matplotlib v3.10.9, https://matplotlib.org/</dc:title>
     </cc:Agent>
    </dc:creator>
   </cc:Work>
  </rdf:RDF>
 </metadata>
 <defs>
  <style type="text/css">*{stroke-linejoin: round; stroke-linecap: butt}</style>
 </defs>
 <g id="figure_1">
  <g id="patch_1">
   <path d="M 0 147.4
L 218.495978 147.4
L 218.495978 0
L 0 0
L 0 147.4
z
" style="fill: none"/>
  </g>
  <g id="axes_1">
   <g id="patch_2">
    <path d="M 189.588 47.68
L 189.876316 47.689246
L 190.163447 47.716945
L 190.448214 47.762984
L 190.729446 47.827173
L 191.005987 47.909249
L 191.276702 48.008875
L 191.540477 48.12564
L 191.796229 48.259066
L 192.042907 48.408604
L 192.279497 48.573639
L 192.505028 48.753493
L 192.718571 48.947428
L 192.919251 49.154646
L 193.106242 49.374296
L 193.278775 49.605475
L 193.436142 49.847233
L 193.577697 50.098578
L 193.702857 50.358475
L 193.811108 50.625857
L 193.902005 50.899626
L 193.975176 51.178656
L 194.030318 51.4618
L 194.067206 51.747896
L 194.085688 52.035768
L 194.085688 52.324232
L 194.067206 52.612104
L 194.030318 52.8982
L 193.975176 53.181344
L 193.902005 53.460374
L 193.811108 53.734143
L 193.702857 54.001525
L 193.577697 54.261422
L 193.436142 54.512767
L 193.278775 54.754525
L 193.106242 54.985704
L 192.919251 55.205354
L 192.718571 55.412572
L 192.505028 55.606507
L 192.279497 55.786361
L 192.042907 55.951396
L 191.796229 56.100934
L 191.540477 56.23436
L 191.276702 56.351125
L 191.005987 56.450751
L 190.729446 56.532827
L 190.448214 56.597016
L 190.163447 56.643055
L 189.876316 56.670754
L 189.588 56.68
" clip-path="url(#pNORMALIZED)" style="fill: none; stroke: #f8fafc; stroke-width: 2; stroke-linejoin: miter"/>
   </g>
   <g id="patch_3">
    <path d="M 189.588 56.68
L 189.876316 56.689246
L 190.163447 56.716945
L 190.448214 56.762984
L 190.729446 56.827173
L 191.005987 56.909249
L 191.276702 57.008875
L 191.540477 57.12564
L 191.796229 57.259066
L 192.042907 57.408604
L 192.279497 57.573639
L 192.505028 57.753493
L 192.718571 57.947428
L 192.919251 58.154646
L 193.106242 58.374296
L 193.278775 58.605475
L 193.436142 58.847233
L 193.577697 59.098578
L 193.702857 59.358475
L 193.811108 59.625857
L 193.902005 59.899626
L 193.975176 60.178656
L 194.030318 60.4618
L 194.067206 60.747896
L 194.085688 61.035768
L 194.085688 61.324232
L 194.067206 61.612104
L 194.030318 61.8982
L 193.975176 62.181344
L 193.902005 62.460374
L 193.811108 62.734143
L 193.702857 63.001525
L 193.577697 63.261422
L 193.436142 63.512767
L 193.278775 63.754525
L 193.106242 63.985704
L 192.919251 64.205354
L 192.718571 64.412572
L 192.505028 64.606507
L 192.279497 64.786361
L 192.042907 64.951396
L 191.796229 65.100934
L 191.540477 65.23436
L 191.276702 65.351125
L 191.005987 65.450751
L 190.729446 65.532827
L 190.448214 65.597016
L 190.163447 65.643055
L 189.876316 65.670754
L 189.588 65.68
" clip-path="url(#pNORMALIZED)" style="fill: none; stroke: #f8fafc; stroke-width: 2; stroke-linejoin: miter"/>
   </g>
   <g id="patch_4">
    <path d="M 189.588 65.68
L 189.876316 65.689246
L 190.163447 65.716945
L 190.448214 65.762984
L 190.729446 65.827173
L 191.005987 65.909249
L 191.276702 66.008875
L 191.540477 66.12564
L 191.796229 66.259066
L 192.042907 66.408604
L 192.279497 66.573639
L 192.505028 66.753493
L 192.718571 66.947428
L 192.919251 67.154646
L 193.106242 67.374296
L 193.278775 67.605475
L 193.436142 67.847233
L 193.577697 68.098578
L 193.702857 68.358475
L 193.811108 68.625857
L 193.902005 68.899626
L 193.975176 69.178656
L 194.030318 69.4618
L 194.067206 69.747896
L 194.085688 70.035768
L 194.085688 70.324232
L 194.067206 70.612104
L 194.030318 70.8982
L 193.975176 71.181344
L 193.902005 71.460374
L 193.811108 71.734143
L 193.702857 72.001525
L 193.577697 72.261422
L 193.436142 72.512767
L 193.278775 72.754525
L 193.106242 72.985704
L 192.919251 73.205354
L 192.718571 73.412572
L 192.505028 73.606507
L 192.279497 73.786361
L 192.042907 73.951396
L 191.796229 74.100934
L 191.540477 74.23436
L 191.276702 74.351125
L 191.005987 74.450751
L 190.729446 74.532827
L 190.448214 74.597016
L 190.163447 74.643055
L 189.876316 74.670754
L 189.588 74.68
" clip-path="url(#pNORMALIZED)" style="fill: none; stroke: #f8fafc; stroke-width: 2; stroke-linejoin: miter"/>
   </g>
   <g id="patch_5">
    <path d="M 189.588 74.68
L 189.876316 74.689246
L 190.163447 74.716945
L 190.448214 74.762984
L 190.729446 74.827173
L 191.005987 74.909249
L 191.276702 75.008875
L 191.540477 75.12564
L 191.796229 75.259066
L 192.042907 75.408604
L 192.279497 75.573639
L 192.505028 75.753493
L 192.718571 75.947428
L 192.919251 76.154646
L 193.106242 76.374296
L 193.278775 76.605475
L 193.436142 76.847233
L 193.577697 77.098578
L 193.702857 77.358475
L 193.811108 77.625857
L 193.902005 77.899626
L 193.975176 78.178656
L 194.030318 78.4618
L 194.067206 78.747896
L 194.085688 79.035768
L 194.085688 79.324232
L 194.067206 79.612104
L 194.030318 79.8982
L 193.975176 80.181344
L 193.902005 80.460374
L 193.811108 80.734143
L 193.702857 81.001525
L 193.577697 81.261422
L 193.436142 81.512767
L 193.278775 81.754525
L 193.106242 81.985704
L 192.919251 82.205354
L 192.718571 82.412572
L 192.505028 82.606507
L 192.279497 82.786361
L 192.042907 82.951396
L 191.796229 83.100934
L 191.540477 83.23436
L 191.276702 83.351125
L 191.005987 83.450751
L 190.729446 83.532827
L 190.448214 83.597016
L 190.163447 83.643055
L 189.876316 83.670754
L 189.588 83.68
" clip-path="url(#pNORMALIZED)" style="fill: none; stroke: #f8fafc; stroke-width: 2; stroke-linejoin: miter"/>
   </g>
   <g id="line2d_1">
    <path d="M 27.588 11.68
L 54.588 11.68
L 81.588 11.68
" clip-path="url(#pNORMALIZED)" style="fill: none; stroke: #f8fafc; stroke-width: 2; stroke-linecap: round"/>
   </g>
   <g id="line2d_2">
    <path d="M 81.588 11.68
L 135.588 11.68
L 189.588 11.68
" clip-path="url(#pNORMALIZED)" style="fill: none; stroke: #f8fafc; stroke-width: 2; stroke-linecap: round"/>
   </g>
   <g id="line2d_3">
    <path d="M 81.588 11.68
L 81.588 62.44
M 90.588 62.44
L 72.588 62.44
M 90.588 68.92
L 72.588 68.92
M 81.588 68.92
L 81.588 119.68
" clip-path="url(#pNORMALIZED)" style="fill: none; stroke: #f8fafc; stroke-width: 2; stroke-linecap: round"/>
   </g>
   <g id="line2d_4">
    <path d="M 189.588 11.68
L 189.588 47.68
M 189.588 83.68
L 189.588 119.68
" clip-path="url(#pNORMALIZED)" style="fill: none; stroke: #f8fafc; stroke-width: 2; stroke-linecap: round"/>
   </g>
   <g id="line2d_5">
    <path d="M 81.588 119.68
L 135.588 119.68
L 189.588 119.68
" clip-path="url(#pNORMALIZED)" style="fill: none; stroke: #f8fafc; stroke-width: 2; stroke-linecap: round"/>
   </g>
   <g id="line2d_6">
    <path d="M 135.588 119.68
L 135.588 134.08
L 126.588 134.08
L 144.588 134.08
M 129.288 138.4
L 141.888 138.4
M 133.788 142.72
L 137.388 142.72
" clip-path="url(#pNORMALIZED)" style="fill: none; stroke: #f8fafc; stroke-width: 2; stroke-linecap: round"/>
   </g>
   <g id="text_1">
    <!-- $C_{r}$ -->
    <g style="fill: #f8fafc" transform="translate(54.708 69.543125) scale(0.14 -0.14)">
     <defs>
      <path id="DejaVuSans-Oblique-43" d="M 4447 4306
L 4319 3641
Q 4019 3944 3683 4091
Q 3347 4238 2956 4238
Q 2422 4238 2017 3981
Q 1613 3725 1319 3200
Q 1131 2863 1032 2486
Q 934 2109 934 1728
Q 934 1091 1264 756
Q 1594 422 2222 422
Q 2656 422 3056 561
Q 3456 700 3834 978
L 3688 231
Q 3316 72 2936 -9
Q 2556 -91 2175 -91
Q 1278 -91 773 396
Q 269 884 269 1753
Q 269 2309 461 2846
Q 653 3384 1013 3828
Q 1394 4300 1883 4525
Q 2372 4750 3022 4750
Q 3422 4750 3780 4639
Q 4138 4528 4447 4306
z
" transform="scale(0.015625)"/>
      <path id="DejaVuSans-Oblique-72" d="M 2853 2969
Q 2766 3016 2653 3041
Q 2541 3066 2413 3066
Q 1953 3066 1609 2717
Q 1266 2369 1153 1784
L 800 0
L 225 0
L 909 3500
L 1484 3500
L 1375 2956
Q 1603 3259 1920 3421
Q 2238 3584 2597 3584
Q 2691 3584 2781 3573
Q 2872 3563 2963 3538
L 2853 2969
z
" transform="scale(0.015625)"/>
     </defs>
     <use xlink:href="#DejaVuSans-Oblique-43" transform="translate(0 0.78125)"/>
     <use xlink:href="#DejaVuSans-Oblique-72" transform="translate(69.824219 -15.625) scale(0.7)"/>
    </g>
   </g>
   <g id="text_2">
    <!-- $L_{r}$ -->
    <g style="fill: #f8fafc" transform="translate(197.687978 69.543125) scale(0.14 -0.14)">
     <defs>
      <path id="DejaVuSans-Oblique-4c" d="M 1075 4666
L 1709 4666
L 909 525
L 3181 525
L 3078 0
L 172 0
L 1075 4666
z
" transform="scale(0.015625)"/>
     </defs>
     <use xlink:href="#DejaVuSans-Oblique-4c" transform="translate(0 0.09375)"/>
     <use xlink:href="#DejaVuSans-Oblique-72" transform="translate(55.712891 -16.3125) scale(0.7)"/>
    </g>
   </g>
   <g id="patch_6">
    <path d="M 27.588 15.28
C 28.542731 15.28 29.458488 14.900681 30.133584 14.225584
C 30.808681 13.550488 31.188 12.634731 31.188 11.68
C 31.188 10.725269 30.808681 9.809512 30.133584 9.134416
C 29.458488 8.459319 28.542731 8.08 27.588 8.08
C 26.633269 8.08 25.717512 8.459319 25.042416 9.134416
C 24.367319 9.809512 23.988 10.725269 23.988 11.68
C 23.988 12.634731 24.367319 13.550488 25.042416 14.225584
C 25.717512 14.900681 26.633269 15.28 27.588 15.28
z
" clip-path="url(#pNORMALIZED)" style="fill: #ffffff; stroke: #f8fafc; stroke-width: 2; stroke-linejoin: miter"/>
   </g>
   <g id="text_3">
    <!-- $P_1$ -->
    <g style="fill: #f8fafc" transform="translate(5.268 15.543125) scale(0.14 -0.14)">
     <defs>
      <path id="DejaVuSans-Oblique-50" d="M 1081 4666
L 2541 4666
Q 3178 4666 3512 4369
Q 3847 4072 3847 3500
Q 3847 2731 3353 2303
Q 2859 1875 1966 1875
L 1172 1875
L 806 0
L 172 0
L 1081 4666
z
M 1613 4147
L 1275 2394
L 2069 2394
Q 2606 2394 2893 2669
Q 3181 2944 3181 3456
Q 3181 3784 2986 3965
Q 2791 4147 2438 4147
L 1613 4147
z
" transform="scale(0.015625)"/>
      <path id="DejaVuSans-31" d="M 794 531
L 1825 531
L 1825 4091
L 703 3866
L 703 4441
L 1819 4666
L 2450 4666
L 2450 531
L 3481 531
L 3481 0
L 794 0
L 794 531
z
" transform="scale(0.015625)"/>
     </defs>
     <use xlink:href="#DejaVuSans-Oblique-50" transform="translate(0 0.09375)"/>
     <use xlink:href="#DejaVuSans-31" transform="translate(60.302734 -16.3125) scale(0.7)"/>
    </g>
   </g>
   <g id="patch_7">
    <path d="M 81.588 15.28
C 82.542731 15.28 83.458488 14.900681 84.133584 14.225584
C 84.808681 13.550488 85.188 12.634731 85.188 11.68
C 85.188 10.725269 84.808681 9.809512 84.133584 9.134416
C 83.458488 8.459319 82.542731 8.08 81.588 8.08
C 80.633269 8.08 79.717512 8.459319 79.042416 9.134416
C 78.367319 9.809512 77.988 10.725269 77.988 11.68
C 77.988 12.634731 78.367319 13.550488 79.042416 14.225584
C 79.717512 14.900681 80.633269 15.28 81.588 15.28
z
" clip-path="url(#pNORMALIZED)" style="fill: #f8fafc; stroke: #f8fafc; stroke-width: 2; stroke-linejoin: miter"/>
   </g>
   <g id="patch_8">
    <path d="M 189.588 15.28
C 190.542731 15.28 191.458488 14.900681 192.133584 14.225584
C 192.808681 13.550488 193.188 12.634731 193.188 11.68
C 193.188 10.725269 192.808681 9.809512 192.133584 9.134416
C 191.458488 8.459319 190.542731 8.08 189.588 8.08
C 188.633269 8.08 187.717512 8.459319 187.042416 9.134416
C 186.367319 9.809512 185.988 10.725269 185.988 11.68
C 185.988 12.634731 186.367319 13.550488 187.042416 14.225584
C 187.717512 14.900681 188.633269 15.28 189.588 15.28
z
" clip-path="url(#pNORMALIZED)" style="fill: #f8fafc; stroke: #f8fafc; stroke-width: 2; stroke-linejoin: miter"/>
   </g>
  </g>
 </g>
 <defs>
  <clipPath id="pNORMALIZED">
   <rect x="0" y="-0" width="218.495978" height="147.4"/>
  </clipPath>
 </defs>
</svg>
