<?xml version="1.0" encoding="utf-8" standalone="no"?>
<!DOCTYPE svg PUBLIC "-//W3C//DTD SVG 1.1//EN"
  "http://www.w3.org/Graphics/SVG/1.1/DTD/svg11.dtd">
<svg xmlns:xlink="http://www.w3.org/1999/xlink" width="171.743978pt" height="144pt" viewBox="0 0 171.743978 144" xmlns="http://www.w3.org/2000/svg" version="1.1">
 <metadata>
  <rdf:RDF xmlns:dc="http://purl.org/dc/elements/1.1/" xmlns:cc="http://creativecommons.org/ns#" xmlns:rdf="http://www.w3.org/1999/02/22-rdf-syntax-ns#">
   <cc:Work>
    <dc:type rdf:resource="http://purl.org/dc/dcmitype/StillImage"/>
    <dc:date>normalized</dc:date>
    <dc:format>image/svg+xml</dc:format>
    <dc:creator>
     <cc:Agent>
      <dc:title>Matplotlib v3.10.9, https://matplotlib.org/</dc:title>
     </cc:Agent>
    </dc:creator>
   </cc:Work>
  </rdf:RDF>
 </metadata>
 <defs>
  <style type="text/css">*{stroke-linejoin: round; stroke-linecap: butt}</style>
 </defs>
 <g id="figure_1">
  <g id="patch_1">
   <path d="M 0 144
L 171.743978 144
L 171.743978 0
L 0 0
L 0 144
z
" style="fill: none"/>
  </g>
  <g id="axes_1">
   <g id="patch_2">
    <path d="M 142.836 44.28
L 143.124316 44.289246
L 143.411447 44.316945
L 143.696214 44.362984
L 143.977446 44.427173
L 144.253987 44.509249
L 144.524702 44.608875
L 144.788477 44.72564
L 145.044229 44.859066
L 145.290907 45.008604
L 145.527497 45.173639
L 145.753028 45.353493
L 145.966571 45.547428
L 146.167251 45.754646
L 146.354242 45.974296
L 146.526775 46.205475
L 146.684142 46.447233
L 146.825697 46.698578
L 146.950857 46.958475
L 147.059108 47.225857
L 147.150005 47.499626
L 147.223176 47.778656
L 147.278318 48.0618
L 147.315206 48.347896
L 147.333688 48.635768
L 147.333688 48.924232
L 147.315206 49.212104
L 147.278318 49.4982
L 147.223176 49.781344
L 147.150005 50.060374
L 147.059108 50.334143
L 146.950857 50.601525
L 146.825697 50.861422
L 146.684142 51.112767
L 146.526775 51.354525
L 146.354242 51.585704
L 146.167251 51.805354
L 145.966571 52.012572
L 145.753028 52.206507
L 145.527497 52.386361
L 145.290907 52.551396
L 145.044229 52.700934
L 144.788477 52.83436
L 144.524702 52.951125
L 144.253987 53.050751
L 143.977446 53.132827
L 143.696214 53.197016
L 143.411447 53.243055
L 143.124316 53.270754
L 142.836 53.28
" clip-path="url(#pNORMALIZED)" style="fill: none; stroke: #111827; stroke-width: 2; stroke-linejoin: miter"/>
   </g>
   <g id="patch_3">
    <path d="M 142.836 53.28
L 143.124316 53.289246
L 143.411447 53.316945
L 143.696214 53.362984
L 143.977446 53.427173
L 144.253987 53.509249
L 144.524702 53.608875
L 144.788477 53.72564
L 145.044229 53.859066
L 145.290907 54.008604
L 145.527497 54.173639
L 145.753028 54.353493
L 145.966571 54.547428
L 146.167251 54.754646
L 146.354242 54.974296
L 146.526775 55.205475
L 146.684142 55.447233
L 146.825697 55.698578
L 146.950857 55.958475
L 147.059108 56.225857
L 147.150005 56.499626
L 147.223176 56.778656
L 147.278318 57.0618
L 147.315206 57.347896
L 147.333688 57.635768
L 147.333688 57.924232
L 147.315206 58.212104
L 147.278318 58.4982
L 147.223176 58.781344
L 147.150005 59.060374
L 147.059108 59.334143
L 146.950857 59.601525
L 146.825697 59.861422
L 146.684142 60.112767
L 146.526775 60.354525
L 146.354242 60.585704
L 146.167251 60.805354
L 145.966571 61.012572
L 145.753028 61.206507
L 145.527497 61.386361
L 145.290907 61.551396
L 145.044229 61.700934
L 144.788477 61.83436
L 144.524702 61.951125
L 144.253987 62.050751
L 143.977446 62.132827
L 143.696214 62.197016
L 143.411447 62.243055
L 143.124316 62.270754
L 142.836 62.28
" clip-path="url(#pNORMALIZED)" style="fill: none; stroke: #111827; stroke-width: 2; stroke-linejoin: miter"/>
   </g>
   <g id="patch_4">
    <path d="M 142.836 62.28
L 143.124316 62.289246
L 143.411447 62.316945
L 143.696214 62.362984
L 143.977446 62.427173
L 144.253987 62.509249
L 144.524702 62.608875
L 144.788477 62.72564
L 145.044229 62.859066
L 145.290907 63.008604
L 145.527497 63.173639
L 145.753028 63.353493
L 145.966571 63.547428
L 146.167251 63.754646
L 146.354242 63.974296
L 146.526775 64.205475
L 146.684142 64.447233
L 146.825697 64.698578
L 146.950857 64.958475
L 147.059108 65.225857
L 147.150005 65.499626
L 147.223176 65.778656
L 147.278318 66.0618
L 147.315206 66.347896
L 147.333688 66.635768
L 147.333688 66.924232
L 147.315206 67.212104
L 147.278318 67.4982
L 147.223176 67.781344
L 147.150005 68.060374
L 147.059108 68.334143
L 146.950857 68.601525
L 146.825697 68.861422
L 146.684142 69.112767
L 146.526775 69.354525
L 146.354242 69.585704
L 146.167251 69.805354
L 145.966571 70.012572
L 145.753028 70.206507
L 145.527497 70.386361
L 145.290907 70.551396
L 145.044229 70.700934
L 144.788477 70.83436
L 144.524702 70.951125
L 144.253987 71.050751
L 143.977446 71.132827
L 143.696214 71.197016
L 143.411447 71.243055
L 143.124316 71.270754
L 142.836 71.28
" clip-path="url(#pNORMALIZED)" style="fill: none; stroke: #111827; stroke-width: 2; stroke-linejoin: miter"/>
   </g>
   <g id="patch_5">
    <path d="M 142.836 71.28
L 143.124316 71.289246
L 143.411447 71.316945
L 143.696214 71.362984
L 143.977446 71.427173
L 144.253987 71.509249
L 144.524702 71.608875
L 144.788477 71.72564
L 145.044229 71.859066
L 145.290907 72.008604
L 145.527497 72.173639
L 145.753028 72.353493
L 145.966571 72.547428
L 146.167251 72.754646
L 146.354242 72.974296
L 146.526775 73.205475
L 146.684142 73.447233
L 146.825697 73.698578
L 146.950857 73.958475
L 147.059108 74.225857
L 147.150005 74.499626
L 147.223176 74.778656
L 147.278318 75.0618
L 147.315206 75.347896
L 147.333688 75.635768
L 147.333688 75.924232
L 147.315206 76.212104
L 147.278318 76.4982
L 147.223176 76.781344
L 147.150005 77.060374
L 147.059108 77.334143
L 146.950857 77.601525
L 146.825697 77.861422
L 146.684142 78.112767
L 146.526775 78.354525
L 146.354242 78.585704
L 146.167251 78.805354
L 145.966571 79.012572
L 145.753028 79.206507
L 145.527497 79.386361
L 145.290907 79.551396
L 145.044229 79.700934
L 144.788477 79.83436
L 144.524702 79.951125
L 144.253987 80.050751
L 143.977446 80.132827
L 143.696214 80.197016
L 143.411447 80.243055
L 143.124316 80.270754
L 142.836 80.28
" clip-path="url(#pNORMALIZED)" style="fill: none; stroke: #111827; stroke-width: 2; stroke-linejoin: miter"/>
   </g>
   <g id="line2d_1">
    <path d="M 34.836 8.28
L 88.836 8.28
L 142.836 8.28
" clip-path="url(#pNORMALIZED)" style="fill: none; stroke: #111827; stroke-width: 2; stroke-linecap: round"/>
   </g>
   <g id="line2d_2">
    <path d="M 34.836 8.28
L 34.836 59.04
M 43.836 59.04
L 25.836 59.04
M 43.836 65.52
L 25.836 65.52
M 34.836 65.52
L 34.836 116.28
" clip-path="url(#pNORMALIZED)" style="fill: none; stroke: #111827; stroke-width: 2; stroke-linecap: round"/>
   </g>
   <g id="line2d_3">
    <path d="M 142.836 8.28
L 142.836 44.28
M 142.836 80.28
L 142.836 116.28
" clip-path="url(#pNORMALIZED)" style="fill: none; stroke: #111827; stroke-width: 2; stroke-linecap: round"/>
   </g>
   <g id="line2d_4">
    <path d="M 34.836 116.28
L 88.836 116.28
L 142.836 116.28
" clip-path="url(#pNORMALIZED)" style="fill: none; stroke: #111827; stroke-width: 2; stroke-linecap: round"/>
   </g>
   <g id="line2d_5">
    <path d="M 88.836 116.28
L 88.836 130.68
L 79.836 130.68
L 97.836 130.68
M 82.536 135
L 95.136 135
M 87.036 139.32
L 90.636 139.32
" clip-path="url(#pNORMALIZED)" style="fill: none; stroke: #111827; stroke-width: 2; stroke-linecap: round"/>
   </g>
   <g id="text_1">
    <!-- $C_r$ -->
    <g style="fill: #111827" transform="translate(7.956 66.143125) scale(0.14 -0.14)">
     <defs>
      <path id="DejaVuSans-Oblique-43" d="M 4447 4306
L 4319 3641
Q 4019 3944 3683 4091
Q 3347 4238 2956 4238
Q 2422 4238 2017 3981
Q 1613 3725 1319 3200
Q 1131 2863 1032 2486
Q 934 2109 934 1728
Q 934 1091 1264 756
Q 1594 422 2222 422
Q 2656 422 3056 561
Q 3456 700 3834 978
L 3688 231
Q 3316 72 2936 -9
Q 2556 -91 2175 -91
Q 1278 -91 773 396
Q 269 884 269 1753
Q 269 2309 461 2846
Q 653 3384 1013 3828
Q 1394 4300 1883 4525
Q 2372 4750 3022 4750
Q 3422 4750 3780 4639
Q 4138 4528 4447 4306
z
" transform="scale(0.015625)"/>
      <path id="DejaVuSans-Oblique-72" d="M 2853 2969
Q 2766 3016 2653 3041
Q 2541 3066 2413 3066
Q 1953 3066 1609 2717
Q 1266 2369 1153 1784
L 800 0
L 225 0
L 909 3500
L 1484 3500
L 1375 2956
Q 1603 3259 1920 3421
Q 2238 3584 2597 3584
Q 2691 3584 2781 3573
Q 2872 3563 2963 3538
L 2853 2969
z
" transform="scale(0.015625)"/>
     </defs>
     <use xlink:href="#DejaVuSans-Oblique-43" transform="translate(0 0.78125)"/>
     <use xlink:href="#DejaVuSans-Oblique-72" transform="translate(69.824219 -15.625) scale(0.7)"/>
    </g>
   </g>
   <g id="text_2">
    <!-- $L_r$ -->
    <g style="fill: #111827" transform="translate(150.935978 66.143125) scale(0.14 -0.14)">
     <defs>
      <path id="DejaVuSans-Oblique-4c" d="M 1075 4666
L 1709 4666
L 909 525
L 3181 525
L 3078 0
L 172 0
L 1075 4666
z
" transform="scale(0.015625)"/>
     </defs>
     <use xlink:href="#DejaVuSans-Oblique-4c" transform="translate(0 0.09375)"/>
     <use xlink:href="#DejaVuSans-Oblique-72" transform="translate(55.712891 -16.3125) scale(0.7)"/>
    </g>
   </g>
   <g id="patch_6">
    <path d="M 34.836 11.88
C 35.790731 11.88 36.706488 11.500681 37.381584 10.825584
C 38.056681 10.150488 38.436 9.234731 38.436 8.28
C 38.436 7.325269 38.056681 6.409512 37.381584 5.734416
C 36.706488 5.059319 35.790731 4.68 34.836 4.68
C 33.881269 4.68 32.965512 5.059319 32.290416 5.734416
C 31.615319 6.409512 31.236 7.325269 31.236 8.28
C 31.236 9.234731 31.615319 10.150488 32.290416 10.825584
C 32.965512 11.500681 33.881269 11.88 34.836 11.88
z
" clip-path="url(#pNORMALIZED)" style="fill: #111827; stroke: #111827; stroke-width: 2; stroke-linejoin: miter"/>
   </g>
   <g id="patch_7">
    <path d="M 142.836 11.88
C 143.790731 11.88 144.706488 11.500681 145.381584 10.825584
C 146.056681 10.150488 146.436 9.234731 146.436 8.28
C 146.436 7.325269 146.056681 6.409512 145.381584 5.734416
C 144.706488 5.059319 143.790731 4.68 142.836 4.68
C 141.881269 4.68 140.965512 5.059319 140.290416 5.734416
C 139.615319 6.409512 139.236 7.325269 139.236 8.28
C 139.236 9.234731 139.615319 10.150488 140.290416 10.825584
C 140.965512 11.500681 141.881269 11.88 142.836 11.88
z
" clip-path="url(#pNORMALIZED)" style="fill: #111827; stroke: #111827; stroke-width: 2; stroke-linejoin: miter"/>
   </g>
  </g>
 </g>
 <defs>
  <clipPath id="pNORMALIZED">
   <rect x="0" y="0" width="171.743978" height="144"/>
  </clipPath>
 </defs>
</svg>
