<?xml version="1.0" encoding="utf-8" standalone="no"?>
<!DOCTYPE svg PUBLIC "-//W3C//DTD SVG 1.1//EN"
  "http://www.w3.org/Graphics/SVG/1.1/DTD/svg11.dtd">
<svg xmlns:xlink="http://www.w3.org/1999/xlink" width="497.376pt" height="212.899978pt" viewBox="0 0 497.376 212.899978" xmlns="http://www.w3.org/2000/svg" version="1.1">
 <metadata>
  <rdf:RDF xmlns:dc="http://purl.org/dc/elements/1.1/" xmlns:cc="http://creativecommons.org/ns#" xmlns:rdf="http://www.w3.org/1999/02/22-rdf-syntax-ns#">
   <cc:Work>
    <dc:type rdf:resource="http://purl.org/dc/dcmitype/StillImage"/>
    <dc:date>normalized</dc:date>
    <dc:format>image/svg+xml</dc:format>
    <dc:creator>
     <cc:Agent>
      <dc:title>Matplotlib v3.10.9, https://matplotlib.org/</dc:title>
     </cc:Agent>
    </dc:creator>
   </cc:Work>
  </rdf:RDF>
 </metadata>
 <defs>
  <style type="text/css">*{stroke-linejoin: round; stroke-linecap: butt}</style>
 </defs>
 <g id="figure_1">
  <g id="patch_1">
   <path d="M 0 212.899978
L 497.376 212.899978
L 497.376 0
L 0 0
L 0 212.899978
z
" style="fill: none"/>
  </g>
  <g id="axes_1">
   <g id="patch_2">
    <path d="M 172.692 26.779978
L 172.701246 26.491662
L 172.728945 26.20453
L 172.774984 25.919764
L 172.839173 25.638532
L 172.921249 25.361991
L 173.020875 25.091276
L 173.13764 24.827501
L 173.271066 24.571749
L 173.420604 24.325071
L 173.585639 24.08848
L 173.765493 23.86295
L 173.959428 23.649406
L 174.166646 23.448727
L 174.386296 23.261736
L 174.617475 23.089203
L 174.859233 22.931835
L 175.110578 22.790281
L 175.370475 22.665121
L 175.637857 22.55687
L 175.911626 22.465972
L 176.190656 22.392802
L 176.4738 22.33766
L 176.759896 22.300772
L 177.047768 22.28229
L 177.336232 22.28229
L 177.624104 22.300772
L 177.9102 22.33766
L 178.193344 22.392802
L 178.472374 22.465972
L 178.746143 22.55687
L 179.013525 22.665121
L 179.273422 22.790281
L 179.524767 22.931835
L 179.766525 23.089203
L 179.997704 23.261736
L 180.217354 23.448727
L 180.424572 23.649406
L 180.618507 23.86295
L 180.798361 24.08848
L 180.963396 24.325071
L 181.112934 24.571749
L 181.24636 24.827501
L 181.363125 25.091276
L 181.462751 25.361991
L 181.544827 25.638532
L 181.609016 25.919764
L 181.655055 26.20453
L 181.682754 26.491662
L 181.692 26.779978
" clip-path="url(#pNORMALIZED)" style="fill: none; stroke: #111827; stroke-width: 2; stroke-linejoin: miter"/>
   </g>
   <g id="patch_3">
    <path d="M 181.692 26.779978
L 181.701246 26.491662
L 181.728945 26.20453
L 181.774984 25.919764
L 181.839173 25.638532
L 181.921249 25.361991
L 182.020875 25.091276
L 182.13764 24.827501
L 182.271066 24.571749
L 182.420604 24.325071
L 182.585639 24.08848
L 182.765493 23.86295
L 182.959428 23.649406
L 183.166646 23.448727
L 183.386296 23.261736
L 183.617475 23.089203
L 183.859233 22.931835
L 184.110578 22.790281
L 184.370475 22.665121
L 184.637857 22.55687
L 184.911626 22.465972
L 185.190656 22.392802
L 185.4738 22.33766
L 185.759896 22.300772
L 186.047768 22.28229
L 186.336232 22.28229
L 186.624104 22.300772
L 186.9102 22.33766
L 187.193344 22.392802
L 187.472374 22.465972
L 187.746143 22.55687
L 188.013525 22.665121
L 188.273422 22.790281
L 188.524767 22.931835
L 188.766525 23.089203
L 188.997704 23.261736
L 189.217354 23.448727
L 189.424572 23.649406
L 189.618507 23.86295
L 189.798361 24.08848
L 189.963396 24.325071
L 190.112934 24.571749
L 190.24636 24.827501
L 190.363125 25.091276
L 190.462751 25.361991
L 190.544827 25.638532
L 190.609016 25.919764
L 190.655055 26.20453
L 190.682754 26.491662
L 190.692 26.779978
" clip-path="url(#pNORMALIZED)" style="fill: none; stroke: #111827; stroke-width: 2; stroke-linejoin: miter"/>
   </g>
   <g id="patch_4">
    <path d="M 190.692 26.779978
L 190.701246 26.491662
L 190.728945 26.20453
L 190.774984 25.919764
L 190.839173 25.638532
L 190.921249 25.361991
L 191.020875 25.091276
L 191.13764 24.827501
L 191.271066 24.571749
L 191.420604 24.325071
L 191.585639 24.08848
L 191.765493 23.86295
L 191.959428 23.649406
L 192.166646 23.448727
L 192.386296 23.261736
L 192.617475 23.089203
L 192.859233 22.931835
L 193.110578 22.790281
L 193.370475 22.665121
L 193.637857 22.55687
L 193.911626 22.465972
L 194.190656 22.392802
L 194.4738 22.33766
L 194.759896 22.300772
L 195.047768 22.28229
L 195.336232 22.28229
L 195.624104 22.300772
L 195.9102 22.33766
L 196.193344 22.392802
L 196.472374 22.465972
L 196.746143 22.55687
L 197.013525 22.665121
L 197.273422 22.790281
L 197.524767 22.931835
L 197.766525 23.089203
L 197.997704 23.261736
L 198.217354 23.448727
L 198.424572 23.649406
L 198.618507 23.86295
L 198.798361 24.08848
L 198.963396 24.325071
L 199.112934 24.571749
L 199.24636 24.827501
L 199.363125 25.091276
L 199.462751 25.361991
L 199.544827 25.638532
L 199.609016 25.919764
L 199.655055 26.20453
L 199.682754 26.491662
L 199.692 26.779978
" clip-path="url(#pNORMALIZED)" style="fill: none; stroke: #111827; stroke-width: 2; stroke-linejoin: miter"/>
   </g>
   <g id="patch_5">
    <path d="M 199.692 26.779978
L 199.701246 26.491662
L 199.728945 26.20453
L 199.774984 25.919764
L 199.839173 25.638532
L 199.921249 25.361991
L 200.020875 25.091276
L 200.13764 24.827501
L 200.271066 24.571749
L 200.420604 24.325071
L 200.585639 24.08848
L 200.765493 23.86295
L 200.959428 23.649406
L 201.166646 23.448727
L 201.386296 23.261736
L 201.617475 23.089203
L 201.859233 22.931835
L 202.110578 22.790281
L 202.370475 22.665121
L 202.637857 22.55687
L 202.911626 22.465972
L 203.190656 22.392802
L 203.4738 22.33766
L 203.759896 22.300772
L 204.047768 22.28229
L 204.336232 22.28229
L 204.624104 22.300772
L 204.9102 22.33766
L 205.193344 22.392802
L 205.472374 22.465972
L 205.746143 22.55687
L 206.013525 22.665121
L 206.273422 22.790281
L 206.524767 22.931835
L 206.766525 23.089203
L 206.997704 23.261736
L 207.217354 23.448727
L 207.424572 23.649406
L 207.618507 23.86295
L 207.798361 24.08848
L 207.963396 24.325071
L 208.112934 24.571749
L 208.24636 24.827501
L 208.363125 25.091276
L 208.462751 25.361991
L 208.544827 25.638532
L 208.609016 25.919764
L 208.655055 26.20453
L 208.682754 26.491662
L 208.692 26.779978
" clip-path="url(#pNORMALIZED)" style="fill: none; stroke: #111827; stroke-width: 2; stroke-linejoin: miter"/>
   </g>
   <g id="patch_6">
    <path d="M 172.692 145.579978
L 172.701246 145.291662
L 172.728945 145.00453
L 172.774984 144.719764
L 172.839173 144.438532
L 172.921249 144.161991
L 173.020875 143.891276
L 173.13764 143.627501
L 173.271066 143.371749
L 173.420604 143.125071
L 173.585639 142.88848
L 173.765493 142.66295
L 173.959428 142.449406
L 174.166646 142.248727
L 174.386296 142.061736
L 174.617475 141.889203
L 174.859233 141.731835
L 175.110578 141.590281
L 175.370475 141.465121
L 175.637857 141.35687
L 175.911626 141.265972
L 176.190656 141.192802
L 176.4738 141.13766
L 176.759896 141.100772
L 177.047768 141.08229
L 177.336232 141.08229
L 177.624104 141.100772
L 177.9102 141.13766
L 178.193344 141.192802
L 178.472374 141.265972
L 178.746143 141.35687
L 179.013525 141.465121
L 179.273422 141.590281
L 179.524767 141.731835
L 179.766525 141.889203
L 179.997704 142.061736
L 180.217354 142.248727
L 180.424572 142.449406
L 180.618507 142.66295
L 180.798361 142.88848
L 180.963396 143.125071
L 181.112934 143.371749
L 181.24636 143.627501
L 181.363125 143.891276
L 181.462751 144.161991
L 181.544827 144.438532
L 181.609016 144.719764
L 181.655055 145.00453
L 181.682754 145.291662
L 181.692 145.579978
" clip-path="url(#pNORMALIZED)" style="fill: none; stroke: #111827; stroke-width: 2; stroke-linejoin: miter"/>
   </g>
   <g id="patch_7">
    <path d="M 181.692 145.579978
L 181.701246 145.291662
L 181.728945 145.00453
L 181.774984 144.719764
L 181.839173 144.438532
L 181.921249 144.161991
L 182.020875 143.891276
L 182.13764 143.627501
L 182.271066 143.371749
L 182.420604 143.125071
L 182.585639 142.88848
L 182.765493 142.66295
L 182.959428 142.449406
L 183.166646 142.248727
L 183.386296 142.061736
L 183.617475 141.889203
L 183.859233 141.731835
L 184.110578 141.590281
L 184.370475 141.465121
L 184.637857 141.35687
L 184.911626 141.265972
L 185.190656 141.192802
L 185.4738 141.13766
L 185.759896 141.100772
L 186.047768 141.08229
L 186.336232 141.08229
L 186.624104 141.100772
L 186.9102 141.13766
L 187.193344 141.192802
L 187.472374 141.265972
L 187.746143 141.35687
L 188.013525 141.465121
L 188.273422 141.590281
L 188.524767 141.731835
L 188.766525 141.889203
L 188.997704 142.061736
L 189.217354 142.248727
L 189.424572 142.449406
L 189.618507 142.66295
L 189.798361 142.88848
L 189.963396 143.125071
L 190.112934 143.371749
L 190.24636 143.627501
L 190.363125 143.891276
L 190.462751 144.161991
L 190.544827 144.438532
L 190.609016 144.719764
L 190.655055 145.00453
L 190.682754 145.291662
L 190.692 145.579978
" clip-path="url(#pNORMALIZED)" style="fill: none; stroke: #111827; stroke-width: 2; stroke-linejoin: miter"/>
   </g>
   <g id="patch_8">
    <path d="M 190.692 145.579978
L 190.701246 145.291662
L 190.728945 145.00453
L 190.774984 144.719764
L 190.839173 144.438532
L 190.921249 144.161991
L 191.020875 143.891276
L 191.13764 143.627501
L 191.271066 143.371749
L 191.420604 143.125071
L 191.585639 142.88848
L 191.765493 142.66295
L 191.959428 142.449406
L 192.166646 142.248727
L 192.386296 142.061736
L 192.617475 141.889203
L 192.859233 141.731835
L 193.110578 141.590281
L 193.370475 141.465121
L 193.637857 141.35687
L 193.911626 141.265972
L 194.190656 141.192802
L 194.4738 141.13766
L 194.759896 141.100772
L 195.047768 141.08229
L 195.336232 141.08229
L 195.624104 141.100772
L 195.9102 141.13766
L 196.193344 141.192802
L 196.472374 141.265972
L 196.746143 141.35687
L 197.013525 141.465121
L 197.273422 141.590281
L 197.524767 141.731835
L 197.766525 141.889203
L 197.997704 142.061736
L 198.217354 142.248727
L 198.424572 142.449406
L 198.618507 142.66295
L 198.798361 142.88848
L 198.963396 143.125071
L 199.112934 143.371749
L 199.24636 143.627501
L 199.363125 143.891276
L 199.462751 144.161991
L 199.544827 144.438532
L 199.609016 144.719764
L 199.655055 145.00453
L 199.682754 145.291662
L 199.692 145.579978
" clip-path="url(#pNORMALIZED)" style="fill: none; stroke: #111827; stroke-width: 2; stroke-linejoin: miter"/>
   </g>
   <g id="patch_9">
    <path d="M 199.692 145.579978
L 199.701246 145.291662
L 199.728945 145.00453
L 199.774984 144.719764
L 199.839173 144.438532
L 199.921249 144.161991
L 200.020875 143.891276
L 200.13764 143.627501
L 200.271066 143.371749
L 200.420604 143.125071
L 200.585639 142.88848
L 200.765493 142.66295
L 200.959428 142.449406
L 201.166646 142.248727
L 201.386296 142.061736
L 201.617475 141.889203
L 201.859233 141.731835
L 202.110578 141.590281
L 202.370475 141.465121
L 202.637857 141.35687
L 202.911626 141.265972
L 203.190656 141.192802
L 203.4738 141.13766
L 203.759896 141.100772
L 204.047768 141.08229
L 204.336232 141.08229
L 204.624104 141.100772
L 204.9102 141.13766
L 205.193344 141.192802
L 205.472374 141.265972
L 205.746143 141.35687
L 206.013525 141.465121
L 206.273422 141.590281
L 206.524767 141.731835
L 206.766525 141.889203
L 206.997704 142.061736
L 207.217354 142.248727
L 207.424572 142.449406
L 207.618507 142.66295
L 207.798361 142.88848
L 207.963396 143.125071
L 208.112934 143.371749
L 208.24636 143.627501
L 208.363125 143.891276
L 208.462751 144.161991
L 208.544827 144.438532
L 208.609016 144.719764
L 208.655055 145.00453
L 208.682754 145.291662
L 208.692 145.579978
" clip-path="url(#pNORMALIZED)" style="fill: none; stroke: #111827; stroke-width: 2; stroke-linejoin: miter"/>
   </g>
   <g id="line2d_1">
    <path d="M 101.592 26.779978
L 119.412 26.779978
L 137.232 26.779978
" clip-path="url(#pNORMALIZED)" style="fill: none; stroke: #111827; stroke-width: 2; stroke-linecap: round"/>
   </g>
   <g id="line2d_2">
    <path d="M 351.072 26.779978
L 368.892 26.779978
L 386.712 26.779978
" clip-path="url(#pNORMALIZED)" style="fill: none; stroke: #111827; stroke-width: 2; stroke-linecap: round"/>
   </g>
   <g id="line2d_3">
    <path d="M 101.592 145.579978
L 119.412 145.579978
L 137.232 145.579978
" clip-path="url(#pNORMALIZED)" style="fill: none; stroke: #111827; stroke-width: 2; stroke-linecap: round"/>
   </g>
   <g id="line2d_4">
    <path d="M 351.072 145.579978
L 368.892 145.579978
L 386.712 145.579978
" clip-path="url(#pNORMALIZED)" style="fill: none; stroke: #111827; stroke-width: 2; stroke-linecap: round"/>
   </g>
   <g id="line2d_5">
    <path d="M 137.232 26.779978
L 172.692 26.779978
M 208.692 26.779978
L 244.152 26.779978
" clip-path="url(#pNORMALIZED)" style="fill: none; stroke: #111827; stroke-width: 2; stroke-linecap: round"/>
   </g>
   <g id="line2d_6">
    <path d="M 244.152 26.779978
L 297.612 26.779978
L 351.072 26.779978
" clip-path="url(#pNORMALIZED)" style="fill: none; stroke: #111827; stroke-width: 2; stroke-linecap: round"/>
   </g>
   <g id="line2d_7">
    <path d="M 137.232 145.579978
L 172.692 145.579978
M 208.692 145.579978
L 244.152 145.579978
" clip-path="url(#pNORMALIZED)" style="fill: none; stroke: #111827; stroke-width: 2; stroke-linecap: round"/>
   </g>
   <g id="line2d_8">
    <path d="M 244.152 145.579978
L 297.612 145.579978
L 351.072 145.579978
" clip-path="url(#pNORMALIZED)" style="fill: none; stroke: #111827; stroke-width: 2; stroke-linecap: round"/>
   </g>
   <g id="line2d_9">
    <path d="M 351.072 26.779978
L 351.072 43.339978
M 360.072 43.339978
L 342.072 43.339978
M 360.072 49.819978
L 342.072 49.819978
M 351.072 49.819978
L 351.072 66.379978
" clip-path="url(#pNORMALIZED)" style="fill: none; stroke: #111827; stroke-width: 2; stroke-linecap: round"/>
   </g>
   <g id="line2d_10">
    <path d="M 351.072 66.379978
L 351.072 80.779978
L 342.072 80.779978
L 360.072 80.779978
M 344.772 85.099978
L 357.372 85.099978
M 349.272 89.419978
L 352.872 89.419978
" clip-path="url(#pNORMALIZED)" style="fill: none; stroke: #111827; stroke-width: 2; stroke-linecap: round"/>
   </g>
   <g id="line2d_11">
    <path d="M 351.072 145.579978
L 351.072 162.139978
M 360.072 162.139978
L 342.072 162.139978
M 360.072 168.619978
L 342.072 168.619978
M 351.072 168.619978
L 351.072 185.179978
" clip-path="url(#pNORMALIZED)" style="fill: none; stroke: #111827; stroke-width: 2; stroke-linecap: round"/>
   </g>
   <g id="line2d_12">
    <path d="M 351.072 185.179978
L 351.072 199.579978
L 342.072 199.579978
L 360.072 199.579978
M 344.772 203.899978
L 357.372 203.899978
M 349.272 208.219978
L 352.872 208.219978
" clip-path="url(#pNORMALIZED)" style="fill: none; stroke: #111827; stroke-width: 2; stroke-linecap: round"/>
   </g>
   <g id="line2d_13">
    <path d="M 263.3976 41.035978
L 263.3976 86.179978
L 263.3976 131.323978
" clip-path="url(#pNORMALIZED)" style="fill: none; stroke-dasharray: 7.4,3.2; stroke-dashoffset: 0; stroke: #111827; stroke-width: 2"/>
   </g>
   <g id="line2d_14">
    <path d="M 306.1656 26.779978
L 306.1656 82.939978
M 315.1656 82.939978
L 297.1656 82.939978
M 315.1656 89.419978
L 297.1656 89.419978
M 306.1656 89.419978
L 306.1656 145.579978
" clip-path="url(#pNORMALIZED)" style="fill: none; stroke: #111827; stroke-width: 2; stroke-linecap: round"/>
   </g>
   <g id="text_1">
    <!-- $L_{A}$ -->
    <g style="fill: #111827" transform="translate(183.202 15.768437) scale(0.14 -0.14)">
     <defs>
      <path id="DejaVuSans-Oblique-4c" d="M 1075 4666
L 1709 4666
L 909 525
L 3181 525
L 3078 0
L 172 0
L 1075 4666
z
" transform="scale(0.015625)"/>
      <path id="DejaVuSans-Oblique-41" d="M 2356 4666
L 3072 4666
L 3938 0
L 3278 0
L 3084 1197
L 984 1197
L 325 0
L -341 0
L 2356 4666
z
M 2584 4044
L 1275 1722
L 2988 1722
L 2584 4044
z
" transform="scale(0.015625)"/>
     </defs>
     <use xlink:href="#DejaVuSans-Oblique-4c" transform="translate(0 0.09375)"/>
     <use xlink:href="#DejaVuSans-Oblique-41" transform="translate(55.712891 -16.3125) scale(0.7)"/>
    </g>
   </g>
   <g id="text_2">
    <!-- $L_{B}$ -->
    <g style="fill: #111827" transform="translate(183.202 159.81779) scale(0.14 -0.14)">
     <defs>
      <path id="DejaVuSans-Oblique-42" d="M 1081 4666
L 2694 4666
Q 3350 4666 3675 4422
Q 4000 4178 4000 3688
Q 4000 3238 3720 2911
Q 3441 2584 2988 2516
Q 3375 2428 3569 2181
Q 3763 1934 3763 1522
Q 3763 819 3242 409
Q 2722 0 1819 0
L 172 0
L 1081 4666
z
M 1234 2228
L 903 519
L 1919 519
Q 2491 519 2800 781
Q 3109 1044 3109 1522
Q 3109 1891 2904 2059
Q 2700 2228 2247 2228
L 1234 2228
z
M 1606 4147
L 1331 2741
L 2272 2741
Q 2775 2741 3058 2959
Q 3341 3178 3341 3566
Q 3341 3869 3150 4008
Q 2959 4147 2541 4147
L 1606 4147
z
" transform="scale(0.015625)"/>
     </defs>
     <use xlink:href="#DejaVuSans-Oblique-4c" transform="translate(0 0.09375)"/>
     <use xlink:href="#DejaVuSans-Oblique-42" transform="translate(55.712891 -16.3125) scale(0.7)"/>
    </g>
   </g>
   <g id="text_3">
    <!-- $C_{A}$ -->
    <g style="fill: #111827" transform="translate(363.672 50.443103) scale(0.14 -0.14)">
     <defs>
      <path id="DejaVuSans-Oblique-43" d="M 4447 4306
L 4319 3641
Q 4019 3944 3683 4091
Q 3347 4238 2956 4238
Q 2422 4238 2017 3981
Q 1613 3725 1319 3200
Q 1131 2863 1032 2486
Q 934 2109 934 1728
Q 934 1091 1264 756
Q 1594 422 2222 422
Q 2656 422 3056 561
Q 3456 700 3834 978
L 3688 231
Q 3316 72 2936 -9
Q 2556 -91 2175 -91
Q 1278 -91 773 396
Q 269 884 269 1753
Q 269 2309 461 2846
Q 653 3384 1013 3828
Q 1394 4300 1883 4525
Q 2372 4750 3022 4750
Q 3422 4750 3780 4639
Q 4138 4528 4447 4306
z
" transform="scale(0.015625)"/>
     </defs>
     <use xlink:href="#DejaVuSans-Oblique-43" transform="translate(0 0.78125)"/>
     <use xlink:href="#DejaVuSans-Oblique-41" transform="translate(69.824219 -15.625) scale(0.7)"/>
    </g>
   </g>
   <g id="text_4">
    <!-- $C_{B}$ -->
    <g style="fill: #111827" transform="translate(363.672 169.243103) scale(0.14 -0.14)">
     <use xlink:href="#DejaVuSans-Oblique-43" transform="translate(0 0.78125)"/>
     <use xlink:href="#DejaVuSans-Oblique-42" transform="translate(69.824219 -15.625) scale(0.7)"/>
    </g>
   </g>
   <g id="text_5">
    <!-- $M_{AB}$ -->
    <g style="fill: #111827" transform="translate(233.8976 90.043103) scale(0.14 -0.14)">
     <defs>
      <path id="DejaVuSans-Oblique-4d" d="M 1081 4666
L 2028 4666
L 2572 1522
L 4378 4666
L 5350 4666
L 4441 0
L 3828 0
L 4622 4091
L 2791 897
L 2175 897
L 1581 4103
L 788 0
L 172 0
L 1081 4666
z
" transform="scale(0.015625)"/>
     </defs>
     <use xlink:href="#DejaVuSans-Oblique-4d" transform="translate(0 0.09375)"/>
     <use xlink:href="#DejaVuSans-Oblique-41" transform="translate(86.279297 -16.3125) scale(0.7)"/>
     <use xlink:href="#DejaVuSans-Oblique-42" transform="translate(134.165039 -16.3125) scale(0.7)"/>
    </g>
   </g>
   <g id="text_6">
    <!-- $C_{AB}$ -->
    <g style="fill: #111827" transform="translate(318.7656 90.043103) scale(0.14 -0.14)">
     <use xlink:href="#DejaVuSans-Oblique-43" transform="translate(0 0.78125)"/>
     <use xlink:href="#DejaVuSans-Oblique-41" transform="translate(69.824219 -15.625) scale(0.7)"/>
     <use xlink:href="#DejaVuSans-Oblique-42" transform="translate(117.709961 -15.625) scale(0.7)"/>
    </g>
   </g>
   <g id="patch_10">
    <path d="M 101.592 30.379978
C 102.546731 30.379978 103.462488 30.000659 104.137584 29.325562
C 104.812681 28.650465 105.192 27.734709 105.192 26.779978
C 105.192 25.825247 104.812681 24.90949 104.137584 24.234393
C 103.462488 23.559296 102.546731 23.179978 101.592 23.179978
C 100.637269 23.179978 99.721512 23.559296 99.046416 24.234393
C 98.371319 24.90949 97.992 25.825247 97.992 26.779978
C 97.992 27.734709 98.371319 28.650465 99.046416 29.325562
C 99.721512 30.000659 100.637269 30.379978 101.592 30.379978
z
" clip-path="url(#pNORMALIZED)" style="fill: #ffffff; stroke: #111827; stroke-width: 2; stroke-linejoin: miter"/>
   </g>
   <g id="text_7">
    <!-- $A_{\mathrm{in}}$ -->
    <g style="fill: #111827" transform="translate(75.492 30.643103) scale(0.14 -0.14)">
     <defs>
      <path id="DejaVuSans-69" d="M 603 3500
L 1178 3500
L 1178 0
L 603 0
L 603 3500
z
M 603 4863
L 1178 4863
L 1178 4134
L 603 4134
L 603 4863
z
" transform="scale(0.015625)"/>
      <path id="DejaVuSans-6e" d="M 3513 2113
L 3513 0
L 2938 0
L 2938 2094
Q 2938 2591 2744 2837
Q 2550 3084 2163 3084
Q 1697 3084 1428 2787
Q 1159 2491 1159 1978
L 1159 0
L 581 0
L 581 3500
L 1159 3500
L 1159 2956
Q 1366 3272 1645 3428
Q 1925 3584 2291 3584
Q 2894 3584 3203 3211
Q 3513 2838 3513 2113
z
" transform="scale(0.015625)"/>
     </defs>
     <use xlink:href="#DejaVuSans-Oblique-41" transform="translate(0 0.09375)"/>
     <use xlink:href="#DejaVuSans-69" transform="translate(68.408203 -16.3125) scale(0.7)"/>
     <use xlink:href="#DejaVuSans-6e" transform="translate(87.856445 -16.3125) scale(0.7)"/>
    </g>
   </g>
   <g id="patch_11">
    <path d="M 386.712 30.379978
C 387.666731 30.379978 388.582488 30.000659 389.257584 29.325562
C 389.932681 28.650465 390.312 27.734709 390.312 26.779978
C 390.312 25.825247 389.932681 24.90949 389.257584 24.234393
C 388.582488 23.559296 387.666731 23.179978 386.712 23.179978
C 385.757269 23.179978 384.841512 23.559296 384.166416 24.234393
C 383.491319 24.90949 383.112 25.825247 383.112 26.779978
C 383.112 27.734709 383.491319 28.650465 384.166416 29.325562
C 384.841512 30.000659 385.757269 30.379978 386.712 30.379978
z
" clip-path="url(#pNORMALIZED)" style="fill: #ffffff; stroke: #111827; stroke-width: 2; stroke-linejoin: miter"/>
   </g>
   <g id="text_8">
    <!-- $A_{\mathrm{out}}$ -->
    <g style="fill: #111827" transform="translate(393.912 30.643103) scale(0.14 -0.14)">
     <defs>
      <path id="DejaVuSans-6f" d="M 1959 3097
Q 1497 3097 1228 2736
Q 959 2375 959 1747
Q 959 1119 1226 758
Q 1494 397 1959 397
Q 2419 397 2687 759
Q 2956 1122 2956 1747
Q 2956 2369 2687 2733
Q 2419 3097 1959 3097
z
M 1959 3584
Q 2709 3584 3137 3096
Q 3566 2609 3566 1747
Q 3566 888 3137 398
Q 2709 -91 1959 -91
Q 1206 -91 779 398
Q 353 888 353 1747
Q 353 2609 779 3096
Q 1206 3584 1959 3584
z
" transform="scale(0.015625)"/>
      <path id="DejaVuSans-75" d="M 544 1381
L 544 3500
L 1119 3500
L 1119 1403
Q 1119 906 1312 657
Q 1506 409 1894 409
Q 2359 409 2629 706
Q 2900 1003 2900 1516
L 2900 3500
L 3475 3500
L 3475 0
L 2900 0
L 2900 538
Q 2691 219 2414 64
Q 2138 -91 1772 -91
Q 1169 -91 856 284
Q 544 659 544 1381
z
M 1991 3584
L 1991 3584
z
" transform="scale(0.015625)"/>
      <path id="DejaVuSans-74" d="M 1172 4494
L 1172 3500
L 2356 3500
L 2356 3053
L 1172 3053
L 1172 1153
Q 1172 725 1289 603
Q 1406 481 1766 481
L 2356 481
L 2356 0
L 1766 0
Q 1100 0 847 248
Q 594 497 594 1153
L 594 3053
L 172 3053
L 172 3500
L 594 3500
L 594 4494
L 1172 4494
z
" transform="scale(0.015625)"/>
     </defs>
     <use xlink:href="#DejaVuSans-Oblique-41" transform="translate(0 0.09375)"/>
     <use xlink:href="#DejaVuSans-6f" transform="translate(68.408203 -16.3125) scale(0.7)"/>
     <use xlink:href="#DejaVuSans-75" transform="translate(111.235352 -16.3125) scale(0.7)"/>
     <use xlink:href="#DejaVuSans-74" transform="translate(155.600586 -16.3125) scale(0.7)"/>
    </g>
   </g>
   <g id="patch_12">
    <path d="M 101.592 149.179978
C 102.546731 149.179978 103.462488 148.800659 104.137584 148.125562
C 104.812681 147.450465 105.192 146.534709 105.192 145.579978
C 105.192 144.625247 104.812681 143.70949 104.137584 143.034393
C 103.462488 142.359296 102.546731 141.979978 101.592 141.979978
C 100.637269 141.979978 99.721512 142.359296 99.046416 143.034393
C 98.371319 143.70949 97.992 144.625247 97.992 145.579978
C 97.992 146.534709 98.371319 147.450465 99.046416 148.125562
C 99.721512 148.800659 100.637269 149.179978 101.592 149.179978
z
" clip-path="url(#pNORMALIZED)" style="fill: #ffffff; stroke: #111827; stroke-width: 2; stroke-linejoin: miter"/>
   </g>
   <g id="text_9">
    <!-- $B_{\mathrm{in}}$ -->
    <g style="fill: #111827" transform="translate(75.352 149.443103) scale(0.14 -0.14)">
     <use xlink:href="#DejaVuSans-Oblique-42" transform="translate(0 0.09375)"/>
     <use xlink:href="#DejaVuSans-69" transform="translate(68.603516 -16.3125) scale(0.7)"/>
     <use xlink:href="#DejaVuSans-6e" transform="translate(88.051758 -16.3125) scale(0.7)"/>
    </g>
   </g>
   <g id="patch_13">
    <path d="M 386.712 149.179978
C 387.666731 149.179978 388.582488 148.800659 389.257584 148.125562
C 389.932681 147.450465 390.312 146.534709 390.312 145.579978
C 390.312 144.625247 389.932681 143.70949 389.257584 143.034393
C 388.582488 142.359296 387.666731 141.979978 386.712 141.979978
C 385.757269 141.979978 384.841512 142.359296 384.166416 143.034393
C 383.491319 143.70949 383.112 144.625247 383.112 145.579978
C 383.112 146.534709 383.491319 147.450465 384.166416 148.125562
C 384.841512 148.800659 385.757269 149.179978 386.712 149.179978
z
" clip-path="url(#pNORMALIZED)" style="fill: #ffffff; stroke: #111827; stroke-width: 2; stroke-linejoin: miter"/>
   </g>
   <g id="text_10">
    <!-- $B_{\mathrm{out}}$ -->
    <g style="fill: #111827" transform="translate(393.912 149.443103) scale(0.14 -0.14)">
     <use xlink:href="#DejaVuSans-Oblique-42" transform="translate(0 0.09375)"/>
     <use xlink:href="#DejaVuSans-6f" transform="translate(68.603516 -16.3125) scale(0.7)"/>
     <use xlink:href="#DejaVuSans-75" transform="translate(111.430664 -16.3125) scale(0.7)"/>
     <use xlink:href="#DejaVuSans-74" transform="translate(155.795898 -16.3125) scale(0.7)"/>
    </g>
   </g>
   <g id="patch_14">
    <path d="M 137.232 30.379978
C 138.186731 30.379978 139.102488 30.000659 139.777584 29.325562
C 140.452681 28.650465 140.832 27.734709 140.832 26.779978
C 140.832 25.825247 140.452681 24.90949 139.777584 24.234393
C 139.102488 23.559296 138.186731 23.179978 137.232 23.179978
C 136.277269 23.179978 135.361512 23.559296 134.686416 24.234393
C 134.011319 24.90949 133.632 25.825247 133.632 26.779978
C 133.632 27.734709 134.011319 28.650465 134.686416 29.325562
C 135.361512 30.000659 136.277269 30.379978 137.232 30.379978
z
" clip-path="url(#pNORMALIZED)" style="fill: #111827; stroke: #111827; stroke-width: 2; stroke-linejoin: miter"/>
   </g>
   <g id="patch_15">
    <path d="M 244.152 30.379978
C 245.106731 30.379978 246.022488 30.000659 246.697584 29.325562
C 247.372681 28.650465 247.752 27.734709 247.752 26.779978
C 247.752 25.825247 247.372681 24.90949 246.697584 24.234393
C 246.022488 23.559296 245.106731 23.179978 244.152 23.179978
C 243.197269 23.179978 242.281512 23.559296 241.606416 24.234393
C 240.931319 24.90949 240.552 25.825247 240.552 26.779978
C 240.552 27.734709 240.931319 28.650465 241.606416 29.325562
C 242.281512 30.000659 243.197269 30.379978 244.152 30.379978
z
" clip-path="url(#pNORMALIZED)" style="fill: #111827; stroke: #111827; stroke-width: 2; stroke-linejoin: miter"/>
   </g>
   <g id="patch_16">
    <path d="M 351.072 30.379978
C 352.026731 30.379978 352.942488 30.000659 353.617584 29.325562
C 354.292681 28.650465 354.672 27.734709 354.672 26.779978
C 354.672 25.825247 354.292681 24.90949 353.617584 24.234393
C 352.942488 23.559296 352.026731 23.179978 351.072 23.179978
C 350.117269 23.179978 349.201512 23.559296 348.526416 24.234393
C 347.851319 24.90949 347.472 25.825247 347.472 26.779978
C 347.472 27.734709 347.851319 28.650465 348.526416 29.325562
C 349.201512 30.000659 350.117269 30.379978 351.072 30.379978
z
" clip-path="url(#pNORMALIZED)" style="fill: #111827; stroke: #111827; stroke-width: 2; stroke-linejoin: miter"/>
   </g>
   <g id="patch_17">
    <path d="M 137.232 149.179978
C 138.186731 149.179978 139.102488 148.800659 139.777584 148.125562
C 140.452681 147.450465 140.832 146.534709 140.832 145.579978
C 140.832 144.625247 140.452681 143.70949 139.777584 143.034393
C 139.102488 142.359296 138.186731 141.979978 137.232 141.979978
C 136.277269 141.979978 135.361512 142.359296 134.686416 143.034393
C 134.011319 143.70949 133.632 144.625247 133.632 145.579978
C 133.632 146.534709 134.011319 147.450465 134.686416 148.125562
C 135.361512 148.800659 136.277269 149.179978 137.232 149.179978
z
" clip-path="url(#pNORMALIZED)" style="fill: #111827; stroke: #111827; stroke-width: 2; stroke-linejoin: miter"/>
   </g>
   <g id="patch_18">
    <path d="M 244.152 149.179978
C 245.106731 149.179978 246.022488 148.800659 246.697584 148.125562
C 247.372681 147.450465 247.752 146.534709 247.752 145.579978
C 247.752 144.625247 247.372681 143.70949 246.697584 143.034393
C 246.022488 142.359296 245.106731 141.979978 244.152 141.979978
C 243.197269 141.979978 242.281512 142.359296 241.606416 143.034393
C 240.931319 143.70949 240.552 144.625247 240.552 145.579978
C 240.552 146.534709 240.931319 147.450465 241.606416 148.125562
C 242.281512 148.800659 243.197269 149.179978 244.152 149.179978
z
" clip-path="url(#pNORMALIZED)" style="fill: #111827; stroke: #111827; stroke-width: 2; stroke-linejoin: miter"/>
   </g>
   <g id="patch_19">
    <path d="M 351.072 149.179978
C 352.026731 149.179978 352.942488 148.800659 353.617584 148.125562
C 354.292681 147.450465 354.672 146.534709 354.672 145.579978
C 354.672 144.625247 354.292681 143.70949 353.617584 143.034393
C 352.942488 142.359296 352.026731 141.979978 351.072 141.979978
C 350.117269 141.979978 349.201512 142.359296 348.526416 143.034393
C 347.851319 143.70949 347.472 144.625247 347.472 145.579978
C 347.472 146.534709 347.851319 147.450465 348.526416 148.125562
C 349.201512 148.800659 350.117269 149.179978 351.072 149.179978
z
" clip-path="url(#pNORMALIZED)" style="fill: #111827; stroke: #111827; stroke-width: 2; stroke-linejoin: miter"/>
   </g>
  </g>
 </g>
 <defs>
  <clipPath id="pNORMALIZED">
   <rect x="0" y="0" width="497.376" height="212.899978"/>
  </clipPath>
 </defs>
</svg>
