<?xml version="1.0" encoding="utf-8" standalone="no"?>
<!DOCTYPE svg PUBLIC "-//W3C//DTD SVG 1.1//EN"
  "http://www.w3.org/Graphics/SVG/1.1/DTD/svg11.dtd">
<svg xmlns:xlink="http://www.w3.org/1999/xlink" width="494.834824pt" height="212.899978pt" viewBox="0 0 494.834824 212.899978" xmlns="http://www.w3.org/2000/svg" version="1.1">
 <metadata>
  <rdf:RDF xmlns:dc="http://purl.org/dc/elements/1.1/" xmlns:cc="http://creativecommons.org/ns#" xmlns:rdf="http://www.w3.org/1999/02/22-rdf-syntax-ns#">
   <cc:Work>
    <dc:type rdf:resource="http://purl.org/dc/dcmitype/StillImage"/>
    <dc:date>normalized</dc:date>
    <dc:format>image/svg+xml</dc:format>
    <dc:creator>
     <cc:Agent>
      <dc:title>Matplotlib v3.10.9, https://matplotlib.org/</dc:title>
     </cc:Agent>
    </dc:creator>
   </cc:Work>
  </rdf:RDF>
 </metadata>
 <defs>
  <style type="text/css">*{stroke-linejoin: round; stroke-linecap: butt}</style>
 </defs>
 <g id="figure_1">
  <g id="patch_1">
   <path d="M 0 212.899978
L 494.834824 212.899978
L 494.834824 0
L 0 0
L 0 212.899978
z
" style="fill: none"/>
  </g>
  <g id="axes_1">
   <g id="patch_2">
    <path d="M 171.421412 26.779978
L 171.430657 26.491662
L 171.458357 26.20453
L 171.504396 25.919764
L 171.568585 25.638532
L 171.650661 25.361991
L 171.750286 25.091276
L 171.867052 24.827501
L 172.000478 24.571749
L 172.150015 24.325071
L 172.31505 24.08848
L 172.494905 23.86295
L 172.68884 23.649406
L 172.896058 23.448727
L 173.115708 23.261736
L 173.346887 23.089203
L 173.588645 22.931835
L 173.839989 22.790281
L 174.099887 22.665121
L 174.367269 22.55687
L 174.641038 22.465972
L 174.920068 22.392802
L 175.203212 22.33766
L 175.489308 22.300772
L 175.77718 22.28229
L 176.065644 22.28229
L 176.353515 22.300772
L 176.639611 22.33766
L 176.922756 22.392802
L 177.201786 22.465972
L 177.475555 22.55687
L 177.742937 22.665121
L 178.002834 22.790281
L 178.254178 22.931835
L 178.495937 23.089203
L 178.727116 23.261736
L 178.946766 23.448727
L 179.153984 23.649406
L 179.347919 23.86295
L 179.527773 24.08848
L 179.692808 24.325071
L 179.842346 24.571749
L 179.975772 24.827501
L 180.092537 25.091276
L 180.192163 25.361991
L 180.274239 25.638532
L 180.338428 25.919764
L 180.384467 26.20453
L 180.412166 26.491662
L 180.421412 26.779978
" clip-path="url(#pNORMALIZED)" style="fill: none; stroke: #f8fafc; stroke-width: 2; stroke-linejoin: miter"/>
   </g>
   <g id="patch_3">
    <path d="M 180.421412 26.779978
L 180.430657 26.491662
L 180.458357 26.20453
L 180.504396 25.919764
L 180.568585 25.638532
L 180.650661 25.361991
L 180.750286 25.091276
L 180.867052 24.827501
L 181.000478 24.571749
L 181.150015 24.325071
L 181.31505 24.08848
L 181.494905 23.86295
L 181.68884 23.649406
L 181.896058 23.448727
L 182.115708 23.261736
L 182.346887 23.089203
L 182.588645 22.931835
L 182.839989 22.790281
L 183.099887 22.665121
L 183.367269 22.55687
L 183.641038 22.465972
L 183.920068 22.392802
L 184.203212 22.33766
L 184.489308 22.300772
L 184.77718 22.28229
L 185.065644 22.28229
L 185.353515 22.300772
L 185.639611 22.33766
L 185.922756 22.392802
L 186.201786 22.465972
L 186.475555 22.55687
L 186.742937 22.665121
L 187.002834 22.790281
L 187.254178 22.931835
L 187.495937 23.089203
L 187.727116 23.261736
L 187.946766 23.448727
L 188.153984 23.649406
L 188.347919 23.86295
L 188.527773 24.08848
L 188.692808 24.325071
L 188.842346 24.571749
L 188.975772 24.827501
L 189.092537 25.091276
L 189.192163 25.361991
L 189.274239 25.638532
L 189.338428 25.919764
L 189.384467 26.20453
L 189.412166 26.491662
L 189.421412 26.779978
" clip-path="url(#pNORMALIZED)" style="fill: none; stroke: #f8fafc; stroke-width: 2; stroke-linejoin: miter"/>
   </g>
   <g id="patch_4">
    <path d="M 189.421412 26.779978
L 189.430657 26.491662
L 189.458357 26.20453
L 189.504396 25.919764
L 189.568585 25.638532
L 189.650661 25.361991
L 189.750286 25.091276
L 189.867052 24.827501
L 190.000478 24.571749
L 190.150015 24.325071
L 190.31505 24.08848
L 190.494905 23.86295
L 190.68884 23.649406
L 190.896058 23.448727
L 191.115708 23.261736
L 191.346887 23.089203
L 191.588645 22.931835
L 191.839989 22.790281
L 192.099887 22.665121
L 192.367269 22.55687
L 192.641038 22.465972
L 192.920068 22.392802
L 193.203212 22.33766
L 193.489308 22.300772
L 193.77718 22.28229
L 194.065644 22.28229
L 194.353515 22.300772
L 194.639611 22.33766
L 194.922756 22.392802
L 195.201786 22.465972
L 195.475555 22.55687
L 195.742937 22.665121
L 196.002834 22.790281
L 196.254178 22.931835
L 196.495937 23.089203
L 196.727116 23.261736
L 196.946766 23.448727
L 197.153984 23.649406
L 197.347919 23.86295
L 197.527773 24.08848
L 197.692808 24.325071
L 197.842346 24.571749
L 197.975772 24.827501
L 198.092537 25.091276
L 198.192163 25.361991
L 198.274239 25.638532
L 198.338428 25.919764
L 198.384467 26.20453
L 198.412166 26.491662
L 198.421412 26.779978
" clip-path="url(#pNORMALIZED)" style="fill: none; stroke: #f8fafc; stroke-width: 2; stroke-linejoin: miter"/>
   </g>
   <g id="patch_5">
    <path d="M 198.421412 26.779978
L 198.430657 26.491662
L 198.458357 26.20453
L 198.504396 25.919764
L 198.568585 25.638532
L 198.650661 25.361991
L 198.750286 25.091276
L 198.867052 24.827501
L 199.000478 24.571749
L 199.150015 24.325071
L 199.31505 24.08848
L 199.494905 23.86295
L 199.68884 23.649406
L 199.896058 23.448727
L 200.115708 23.261736
L 200.346887 23.089203
L 200.588645 22.931835
L 200.839989 22.790281
L 201.099887 22.665121
L 201.367269 22.55687
L 201.641038 22.465972
L 201.920068 22.392802
L 202.203212 22.33766
L 202.489308 22.300772
L 202.77718 22.28229
L 203.065644 22.28229
L 203.353515 22.300772
L 203.639611 22.33766
L 203.922756 22.392802
L 204.201786 22.465972
L 204.475555 22.55687
L 204.742937 22.665121
L 205.002834 22.790281
L 205.254178 22.931835
L 205.495937 23.089203
L 205.727116 23.261736
L 205.946766 23.448727
L 206.153984 23.649406
L 206.347919 23.86295
L 206.527773 24.08848
L 206.692808 24.325071
L 206.842346 24.571749
L 206.975772 24.827501
L 207.092537 25.091276
L 207.192163 25.361991
L 207.274239 25.638532
L 207.338428 25.919764
L 207.384467 26.20453
L 207.412166 26.491662
L 207.421412 26.779978
" clip-path="url(#pNORMALIZED)" style="fill: none; stroke: #f8fafc; stroke-width: 2; stroke-linejoin: miter"/>
   </g>
   <g id="patch_6">
    <path d="M 171.421412 145.579978
L 171.430657 145.291662
L 171.458357 145.00453
L 171.504396 144.719764
L 171.568585 144.438532
L 171.650661 144.161991
L 171.750286 143.891276
L 171.867052 143.627501
L 172.000478 143.371749
L 172.150015 143.125071
L 172.31505 142.88848
L 172.494905 142.66295
L 172.68884 142.449406
L 172.896058 142.248727
L 173.115708 142.061736
L 173.346887 141.889203
L 173.588645 141.731835
L 173.839989 141.590281
L 174.099887 141.465121
L 174.367269 141.35687
L 174.641038 141.265972
L 174.920068 141.192802
L 175.203212 141.13766
L 175.489308 141.100772
L 175.77718 141.08229
L 176.065644 141.08229
L 176.353515 141.100772
L 176.639611 141.13766
L 176.922756 141.192802
L 177.201786 141.265972
L 177.475555 141.35687
L 177.742937 141.465121
L 178.002834 141.590281
L 178.254178 141.731835
L 178.495937 141.889203
L 178.727116 142.061736
L 178.946766 142.248727
L 179.153984 142.449406
L 179.347919 142.66295
L 179.527773 142.88848
L 179.692808 143.125071
L 179.842346 143.371749
L 179.975772 143.627501
L 180.092537 143.891276
L 180.192163 144.161991
L 180.274239 144.438532
L 180.338428 144.719764
L 180.384467 145.00453
L 180.412166 145.291662
L 180.421412 145.579978
" clip-path="url(#pNORMALIZED)" style="fill: none; stroke: #f8fafc; stroke-width: 2; stroke-linejoin: miter"/>
   </g>
   <g id="patch_7">
    <path d="M 180.421412 145.579978
L 180.430657 145.291662
L 180.458357 145.00453
L 180.504396 144.719764
L 180.568585 144.438532
L 180.650661 144.161991
L 180.750286 143.891276
L 180.867052 143.627501
L 181.000478 143.371749
L 181.150015 143.125071
L 181.31505 142.88848
L 181.494905 142.66295
L 181.68884 142.449406
L 181.896058 142.248727
L 182.115708 142.061736
L 182.346887 141.889203
L 182.588645 141.731835
L 182.839989 141.590281
L 183.099887 141.465121
L 183.367269 141.35687
L 183.641038 141.265972
L 183.920068 141.192802
L 184.203212 141.13766
L 184.489308 141.100772
L 184.77718 141.08229
L 185.065644 141.08229
L 185.353515 141.100772
L 185.639611 141.13766
L 185.922756 141.192802
L 186.201786 141.265972
L 186.475555 141.35687
L 186.742937 141.465121
L 187.002834 141.590281
L 187.254178 141.731835
L 187.495937 141.889203
L 187.727116 142.061736
L 187.946766 142.248727
L 188.153984 142.449406
L 188.347919 142.66295
L 188.527773 142.88848
L 188.692808 143.125071
L 188.842346 143.371749
L 188.975772 143.627501
L 189.092537 143.891276
L 189.192163 144.161991
L 189.274239 144.438532
L 189.338428 144.719764
L 189.384467 145.00453
L 189.412166 145.291662
L 189.421412 145.579978
" clip-path="url(#pNORMALIZED)" style="fill: none; stroke: #f8fafc; stroke-width: 2; stroke-linejoin: miter"/>
   </g>
   <g id="patch_8">
    <path d="M 189.421412 145.579978
L 189.430657 145.291662
L 189.458357 145.00453
L 189.504396 144.719764
L 189.568585 144.438532
L 189.650661 144.161991
L 189.750286 143.891276
L 189.867052 143.627501
L 190.000478 143.371749
L 190.150015 143.125071
L 190.31505 142.88848
L 190.494905 142.66295
L 190.68884 142.449406
L 190.896058 142.248727
L 191.115708 142.061736
L 191.346887 141.889203
L 191.588645 141.731835
L 191.839989 141.590281
L 192.099887 141.465121
L 192.367269 141.35687
L 192.641038 141.265972
L 192.920068 141.192802
L 193.203212 141.13766
L 193.489308 141.100772
L 193.77718 141.08229
L 194.065644 141.08229
L 194.353515 141.100772
L 194.639611 141.13766
L 194.922756 141.192802
L 195.201786 141.265972
L 195.475555 141.35687
L 195.742937 141.465121
L 196.002834 141.590281
L 196.254178 141.731835
L 196.495937 141.889203
L 196.727116 142.061736
L 196.946766 142.248727
L 197.153984 142.449406
L 197.347919 142.66295
L 197.527773 142.88848
L 197.692808 143.125071
L 197.842346 143.371749
L 197.975772 143.627501
L 198.092537 143.891276
L 198.192163 144.161991
L 198.274239 144.438532
L 198.338428 144.719764
L 198.384467 145.00453
L 198.412166 145.291662
L 198.421412 145.579978
" clip-path="url(#pNORMALIZED)" style="fill: none; stroke: #f8fafc; stroke-width: 2; stroke-linejoin: miter"/>
   </g>
   <g id="patch_9">
    <path d="M 198.421412 145.579978
L 198.430657 145.291662
L 198.458357 145.00453
L 198.504396 144.719764
L 198.568585 144.438532
L 198.650661 144.161991
L 198.750286 143.891276
L 198.867052 143.627501
L 199.000478 143.371749
L 199.150015 143.125071
L 199.31505 142.88848
L 199.494905 142.66295
L 199.68884 142.449406
L 199.896058 142.248727
L 200.115708 142.061736
L 200.346887 141.889203
L 200.588645 141.731835
L 200.839989 141.590281
L 201.099887 141.465121
L 201.367269 141.35687
L 201.641038 141.265972
L 201.920068 141.192802
L 202.203212 141.13766
L 202.489308 141.100772
L 202.77718 141.08229
L 203.065644 141.08229
L 203.353515 141.100772
L 203.639611 141.13766
L 203.922756 141.192802
L 204.201786 141.265972
L 204.475555 141.35687
L 204.742937 141.465121
L 205.002834 141.590281
L 205.254178 141.731835
L 205.495937 141.889203
L 205.727116 142.061736
L 205.946766 142.248727
L 206.153984 142.449406
L 206.347919 142.66295
L 206.527773 142.88848
L 206.692808 143.125071
L 206.842346 143.371749
L 206.975772 143.627501
L 207.092537 143.891276
L 207.192163 144.161991
L 207.274239 144.438532
L 207.338428 144.719764
L 207.384467 145.00453
L 207.412166 145.291662
L 207.421412 145.579978
" clip-path="url(#pNORMALIZED)" style="fill: none; stroke: #f8fafc; stroke-width: 2; stroke-linejoin: miter"/>
   </g>
   <g id="line2d_1">
    <path d="M 100.321412 26.779978
L 118.141412 26.779978
L 135.961412 26.779978
" clip-path="url(#pNORMALIZED)" style="fill: none; stroke: #f8fafc; stroke-width: 2; stroke-linecap: round"/>
   </g>
   <g id="line2d_2">
    <path d="M 349.801412 26.779978
L 367.621412 26.779978
L 385.441412 26.779978
" clip-path="url(#pNORMALIZED)" style="fill: none; stroke: #f8fafc; stroke-width: 2; stroke-linecap: round"/>
   </g>
   <g id="line2d_3">
    <path d="M 100.321412 145.579978
L 118.141412 145.579978
L 135.961412 145.579978
" clip-path="url(#pNORMALIZED)" style="fill: none; stroke: #f8fafc; stroke-width: 2; stroke-linecap: round"/>
   </g>
   <g id="line2d_4">
    <path d="M 349.801412 145.579978
L 367.621412 145.579978
L 385.441412 145.579978
" clip-path="url(#pNORMALIZED)" style="fill: none; stroke: #f8fafc; stroke-width: 2; stroke-linecap: round"/>
   </g>
   <g id="line2d_5">
    <path d="M 135.961412 26.779978
L 171.421412 26.779978
M 207.421412 26.779978
L 242.881412 26.779978
" clip-path="url(#pNORMALIZED)" style="fill: none; stroke: #f8fafc; stroke-width: 2; stroke-linecap: round"/>
   </g>
   <g id="line2d_6">
    <path d="M 242.881412 26.779978
L 296.341412 26.779978
L 349.801412 26.779978
" clip-path="url(#pNORMALIZED)" style="fill: none; stroke: #f8fafc; stroke-width: 2; stroke-linecap: round"/>
   </g>
   <g id="line2d_7">
    <path d="M 135.961412 145.579978
L 171.421412 145.579978
M 207.421412 145.579978
L 242.881412 145.579978
" clip-path="url(#pNORMALIZED)" style="fill: none; stroke: #f8fafc; stroke-width: 2; stroke-linecap: round"/>
   </g>
   <g id="line2d_8">
    <path d="M 242.881412 145.579978
L 296.341412 145.579978
L 349.801412 145.579978
" clip-path="url(#pNORMALIZED)" style="fill: none; stroke: #f8fafc; stroke-width: 2; stroke-linecap: round"/>
   </g>
   <g id="line2d_9">
    <path d="M 349.801412 26.779978
L 349.801412 43.339978
M 358.801412 43.339978
L 340.801412 43.339978
M 358.801412 49.819978
L 340.801412 49.819978
M 349.801412 49.819978
L 349.801412 66.379978
" clip-path="url(#pNORMALIZED)" style="fill: none; stroke: #f8fafc; stroke-width: 2; stroke-linecap: round"/>
   </g>
   <g id="line2d_10">
    <path d="M 349.801412 66.379978
L 349.801412 80.779978
L 340.801412 80.779978
L 358.801412 80.779978
M 343.501412 85.099978
L 356.101412 85.099978
M 348.001412 89.419978
L 351.601412 89.419978
" clip-path="url(#pNORMALIZED)" style="fill: none; stroke: #f8fafc; stroke-width: 2; stroke-linecap: round"/>
   </g>
   <g id="line2d_11">
    <path d="M 349.801412 145.579978
L 349.801412 162.139978
M 358.801412 162.139978
L 340.801412 162.139978
M 358.801412 168.619978
L 340.801412 168.619978
M 349.801412 168.619978
L 349.801412 185.179978
" clip-path="url(#pNORMALIZED)" style="fill: none; stroke: #f8fafc; stroke-width: 2; stroke-linecap: round"/>
   </g>
   <g id="line2d_12">
    <path d="M 349.801412 185.179978
L 349.801412 199.579978
L 340.801412 199.579978
L 358.801412 199.579978
M 343.501412 203.899978
L 356.101412 203.899978
M 348.001412 208.219978
L 351.601412 208.219978
" clip-path="url(#pNORMALIZED)" style="fill: none; stroke: #f8fafc; stroke-width: 2; stroke-linecap: round"/>
   </g>
   <g id="line2d_13">
    <path d="M 262.127012 41.035978
L 262.127012 86.179978
L 262.127012 131.323978
" clip-path="url(#pNORMALIZED)" style="fill: none; stroke-dasharray: 7.4,3.2; stroke-dashoffset: 0; stroke: #f8fafc; stroke-width: 2"/>
   </g>
   <g id="line2d_14">
    <path d="M 304.895012 26.779978
L 304.895012 82.939978
M 313.895012 82.939978
L 295.895012 82.939978
M 313.895012 89.419978
L 295.895012 89.419978
M 304.895012 89.419978
L 304.895012 145.579978
" clip-path="url(#pNORMALIZED)" style="fill: none; stroke: #f8fafc; stroke-width: 2; stroke-linecap: round"/>
   </g>
   <g id="text_1">
    <!-- $L_{A}$ -->
    <g style="fill: #f8fafc" transform="translate(181.931412 15.768437) scale(0.14 -0.14)">
     <defs>
      <path id="DejaVuSans-Oblique-4c" d="M 1075 4666
L 1709 4666
L 909 525
L 3181 525
L 3078 0
L 172 0
L 1075 4666
z
" transform="scale(0.015625)"/>
      <path id="DejaVuSans-Oblique-41" d="M 2356 4666
L 3072 4666
L 3938 0
L 3278 0
L 3084 1197
L 984 1197
L 325 0
L -341 0
L 2356 4666
z
M 2584 4044
L 1275 1722
L 2988 1722
L 2584 4044
z
" transform="scale(0.015625)"/>
     </defs>
     <use xlink:href="#DejaVuSans-Oblique-4c" transform="translate(0 0.09375)"/>
     <use xlink:href="#DejaVuSans-Oblique-41" transform="translate(55.712891 -16.3125) scale(0.7)"/>
    </g>
   </g>
   <g id="text_2">
    <!-- $L_{B}$ -->
    <g style="fill: #f8fafc" transform="translate(181.931412 159.81779) scale(0.14 -0.14)">
     <defs>
      <path id="DejaVuSans-Oblique-42" d="M 1081 4666
L 2694 4666
Q 3350 4666 3675 4422
Q 4000 4178 4000 3688
Q 4000 3238 3720 2911
Q 3441 2584 2988 2516
Q 3375 2428 3569 2181
Q 3763 1934 3763 1522
Q 3763 819 3242 409
Q 2722 0 1819 0
L 172 0
L 1081 4666
z
M 1234 2228
L 903 519
L 1919 519
Q 2491 519 2800 781
Q 3109 1044 3109 1522
Q 3109 1891 2904 2059
Q 2700 2228 2247 2228
L 1234 2228
z
M 1606 4147
L 1331 2741
L 2272 2741
Q 2775 2741 3058 2959
Q 3341 3178 3341 3566
Q 3341 3869 3150 4008
Q 2959 4147 2541 4147
L 1606 4147
z
" transform="scale(0.015625)"/>
     </defs>
     <use xlink:href="#DejaVuSans-Oblique-4c" transform="translate(0 0.09375)"/>
     <use xlink:href="#DejaVuSans-Oblique-42" transform="translate(55.712891 -16.3125) scale(0.7)"/>
    </g>
   </g>
   <g id="text_3">
    <!-- $C_{A}$ -->
    <g style="fill: #f8fafc" transform="translate(362.401412 50.443103) scale(0.14 -0.14)">
     <defs>
      <path id="DejaVuSans-Oblique-43" d="M 4447 4306
L 4319 3641
Q 4019 3944 3683 4091
Q 3347 4238 2956 4238
Q 2422 4238 2017 3981
Q 1613 3725 1319 3200
Q 1131 2863 1032 2486
Q 934 2109 934 1728
Q 934 1091 1264 756
Q 1594 422 2222 422
Q 2656 422 3056 561
Q 3456 700 3834 978
L 3688 231
Q 3316 72 2936 -9
Q 2556 -91 2175 -91
Q 1278 -91 773 396
Q 269 884 269 1753
Q 269 2309 461 2846
Q 653 3384 1013 3828
Q 1394 4300 1883 4525
Q 2372 4750 3022 4750
Q 3422 4750 3780 4639
Q 4138 4528 4447 4306
z
" transform="scale(0.015625)"/>
     </defs>
     <use xlink:href="#DejaVuSans-Oblique-43" transform="translate(0 0.78125)"/>
     <use xlink:href="#DejaVuSans-Oblique-41" transform="translate(69.824219 -15.625) scale(0.7)"/>
    </g>
   </g>
   <g id="text_4">
    <!-- $C_{B}$ -->
    <g style="fill: #f8fafc" transform="translate(362.401412 169.243103) scale(0.14 -0.14)">
     <use xlink:href="#DejaVuSans-Oblique-43" transform="translate(0 0.78125)"/>
     <use xlink:href="#DejaVuSans-Oblique-42" transform="translate(69.824219 -15.625) scale(0.7)"/>
    </g>
   </g>
   <g id="text_5">
    <!-- $M_{AB}$ -->
    <g style="fill: #f8fafc" transform="translate(232.627012 90.043103) scale(0.14 -0.14)">
     <defs>
      <path id="DejaVuSans-Oblique-4d" d="M 1081 4666
L 2028 4666
L 2572 1522
L 4378 4666
L 5350 4666
L 4441 0
L 3828 0
L 4622 4091
L 2791 897
L 2175 897
L 1581 4103
L 788 0
L 172 0
L 1081 4666
z
" transform="scale(0.015625)"/>
     </defs>
     <use xlink:href="#DejaVuSans-Oblique-4d" transform="translate(0 0.09375)"/>
     <use xlink:href="#DejaVuSans-Oblique-41" transform="translate(86.279297 -16.3125) scale(0.7)"/>
     <use xlink:href="#DejaVuSans-Oblique-42" transform="translate(134.165039 -16.3125) scale(0.7)"/>
    </g>
   </g>
   <g id="text_6">
    <!-- $C_{AB}$ -->
    <g style="fill: #f8fafc" transform="translate(317.495012 90.043103) scale(0.14 -0.14)">
     <use xlink:href="#DejaVuSans-Oblique-43" transform="translate(0 0.78125)"/>
     <use xlink:href="#DejaVuSans-Oblique-41" transform="translate(69.824219 -15.625) scale(0.7)"/>
     <use xlink:href="#DejaVuSans-Oblique-42" transform="translate(117.709961 -15.625) scale(0.7)"/>
    </g>
   </g>
   <g id="patch_10">
    <path d="M 100.321412 29.109389
C 100.939179 29.109389 101.531727 28.863948 101.968555 28.427121
C 102.405382 27.990293 102.650824 27.397745 102.650824 26.779978
C 102.650824 26.16221 102.405382 25.569662 101.968555 25.132835
C 101.531727 24.696007 100.939179 24.450566 100.321412 24.450566
C 99.703645 24.450566 99.111096 24.696007 98.674269 25.132835
C 98.237442 25.569662 97.992 26.16221 97.992 26.779978
C 97.992 27.397745 98.237442 27.990293 98.674269 28.427121
C 99.111096 28.863948 99.703645 29.109389 100.321412 29.109389
z
" clip-path="url(#pNORMALIZED)" style="fill: #ffffff; stroke: #f8fafc; stroke-width: 2; stroke-linejoin: miter"/>
   </g>
   <g id="text_7">
    <!-- $A_{\mathrm{in}}$ -->
    <g style="fill: #f8fafc" transform="translate(75.492 30.643103) scale(0.14 -0.14)">
     <defs>
      <path id="DejaVuSans-69" d="M 603 3500
L 1178 3500
L 1178 0
L 603 0
L 603 3500
z
M 603 4863
L 1178 4863
L 1178 4134
L 603 4134
L 603 4863
z
" transform="scale(0.015625)"/>
      <path id="DejaVuSans-6e" d="M 3513 2113
L 3513 0
L 2938 0
L 2938 2094
Q 2938 2591 2744 2837
Q 2550 3084 2163 3084
Q 1697 3084 1428 2787
Q 1159 2491 1159 1978
L 1159 0
L 581 0
L 581 3500
L 1159 3500
L 1159 2956
Q 1366 3272 1645 3428
Q 1925 3584 2291 3584
Q 2894 3584 3203 3211
Q 3513 2838 3513 2113
z
" transform="scale(0.015625)"/>
     </defs>
     <use xlink:href="#DejaVuSans-Oblique-41" transform="translate(0 0.09375)"/>
     <use xlink:href="#DejaVuSans-69" transform="translate(68.408203 -16.3125) scale(0.7)"/>
     <use xlink:href="#DejaVuSans-6e" transform="translate(87.856445 -16.3125) scale(0.7)"/>
    </g>
   </g>
   <g id="patch_11">
    <path d="M 385.441412 29.109389
C 386.059179 29.109389 386.651727 28.863948 387.088555 28.427121
C 387.525382 27.990293 387.770824 27.397745 387.770824 26.779978
C 387.770824 26.16221 387.525382 25.569662 387.088555 25.132835
C 386.651727 24.696007 386.059179 24.450566 385.441412 24.450566
C 384.823645 24.450566 384.231096 24.696007 383.794269 25.132835
C 383.357442 25.569662 383.112 26.16221 383.112 26.779978
C 383.112 27.397745 383.357442 27.990293 383.794269 28.427121
C 384.231096 28.863948 384.823645 29.109389 385.441412 29.109389
z
" clip-path="url(#pNORMALIZED)" style="fill: #ffffff; stroke: #f8fafc; stroke-width: 2; stroke-linejoin: miter"/>
   </g>
   <g id="text_8">
    <!-- $A_{\mathrm{out}}$ -->
    <g style="fill: #f8fafc" transform="translate(391.370824 30.643103) scale(0.14 -0.14)">
     <defs>
      <path id="DejaVuSans-6f" d="M 1959 3097
Q 1497 3097 1228 2736
Q 959 2375 959 1747
Q 959 1119 1226 758
Q 1494 397 1959 397
Q 2419 397 2687 759
Q 2956 1122 2956 1747
Q 2956 2369 2687 2733
Q 2419 3097 1959 3097
z
M 1959 3584
Q 2709 3584 3137 3096
Q 3566 2609 3566 1747
Q 3566 888 3137 398
Q 2709 -91 1959 -91
Q 1206 -91 779 398
Q 353 888 353 1747
Q 353 2609 779 3096
Q 1206 3584 1959 3584
z
" transform="scale(0.015625)"/>
      <path id="DejaVuSans-75" d="M 544 1381
L 544 3500
L 1119 3500
L 1119 1403
Q 1119 906 1312 657
Q 1506 409 1894 409
Q 2359 409 2629 706
Q 2900 1003 2900 1516
L 2900 3500
L 3475 3500
L 3475 0
L 2900 0
L 2900 538
Q 2691 219 2414 64
Q 2138 -91 1772 -91
Q 1169 -91 856 284
Q 544 659 544 1381
z
M 1991 3584
L 1991 3584
z
" transform="scale(0.015625)"/>
      <path id="DejaVuSans-74" d="M 1172 4494
L 1172 3500
L 2356 3500
L 2356 3053
L 1172 3053
L 1172 1153
Q 1172 725 1289 603
Q 1406 481 1766 481
L 2356 481
L 2356 0
L 1766 0
Q 1100 0 847 248
Q 594 497 594 1153
L 594 3053
L 172 3053
L 172 3500
L 594 3500
L 594 4494
L 1172 4494
z
" transform="scale(0.015625)"/>
     </defs>
     <use xlink:href="#DejaVuSans-Oblique-41" transform="translate(0 0.09375)"/>
     <use xlink:href="#DejaVuSans-6f" transform="translate(68.408203 -16.3125) scale(0.7)"/>
     <use xlink:href="#DejaVuSans-75" transform="translate(111.235352 -16.3125) scale(0.7)"/>
     <use xlink:href="#DejaVuSans-74" transform="translate(155.600586 -16.3125) scale(0.7)"/>
    </g>
   </g>
   <g id="patch_12">
    <path d="M 100.321412 147.909389
C 100.939179 147.909389 101.531727 147.663948 101.968555 147.227121
C 102.405382 146.790293 102.650824 146.197745 102.650824 145.579978
C 102.650824 144.96221 102.405382 144.369662 101.968555 143.932835
C 101.531727 143.496007 100.939179 143.250566 100.321412 143.250566
C 99.703645 143.250566 99.111096 143.496007 98.674269 143.932835
C 98.237442 144.369662 97.992 144.96221 97.992 145.579978
C 97.992 146.197745 98.237442 146.790293 98.674269 147.227121
C 99.111096 147.663948 99.703645 147.909389 100.321412 147.909389
z
" clip-path="url(#pNORMALIZED)" style="fill: #ffffff; stroke: #f8fafc; stroke-width: 2; stroke-linejoin: miter"/>
   </g>
   <g id="text_9">
    <!-- $B_{\mathrm{in}}$ -->
    <g style="fill: #f8fafc" transform="translate(75.352 149.443103) scale(0.14 -0.14)">
     <use xlink:href="#DejaVuSans-Oblique-42" transform="translate(0 0.09375)"/>
     <use xlink:href="#DejaVuSans-69" transform="translate(68.603516 -16.3125) scale(0.7)"/>
     <use xlink:href="#DejaVuSans-6e" transform="translate(88.051758 -16.3125) scale(0.7)"/>
    </g>
   </g>
   <g id="patch_13">
    <path d="M 385.441412 147.909389
C 386.059179 147.909389 386.651727 147.663948 387.088555 147.227121
C 387.525382 146.790293 387.770824 146.197745 387.770824 145.579978
C 387.770824 144.96221 387.525382 144.369662 387.088555 143.932835
C 386.651727 143.496007 386.059179 143.250566 385.441412 143.250566
C 384.823645 143.250566 384.231096 143.496007 383.794269 143.932835
C 383.357442 144.369662 383.112 144.96221 383.112 145.579978
C 383.112 146.197745 383.357442 146.790293 383.794269 147.227121
C 384.231096 147.663948 384.823645 147.909389 385.441412 147.909389
z
" clip-path="url(#pNORMALIZED)" style="fill: #ffffff; stroke: #f8fafc; stroke-width: 2; stroke-linejoin: miter"/>
   </g>
   <g id="text_10">
    <!-- $B_{\mathrm{out}}$ -->
    <g style="fill: #f8fafc" transform="translate(391.370824 149.443103) scale(0.14 -0.14)">
     <use xlink:href="#DejaVuSans-Oblique-42" transform="translate(0 0.09375)"/>
     <use xlink:href="#DejaVuSans-6f" transform="translate(68.603516 -16.3125) scale(0.7)"/>
     <use xlink:href="#DejaVuSans-75" transform="translate(111.430664 -16.3125) scale(0.7)"/>
     <use xlink:href="#DejaVuSans-74" transform="translate(155.795898 -16.3125) scale(0.7)"/>
    </g>
   </g>
   <g id="patch_14">
    <path d="M 135.961412 29.109389
C 136.579179 29.109389 137.171727 28.863948 137.608555 28.427121
C 138.045382 27.990293 138.290824 27.397745 138.290824 26.779978
C 138.290824 26.16221 138.045382 25.569662 137.608555 25.132835
C 137.171727 24.696007 136.579179 24.450566 135.961412 24.450566
C 135.343645 24.450566 134.751096 24.696007 134.314269 25.132835
C 133.877442 25.569662 133.632 26.16221 133.632 26.779978
C 133.632 27.397745 133.877442 27.990293 134.314269 28.427121
C 134.751096 28.863948 135.343645 29.109389 135.961412 29.109389
z
" clip-path="url(#pNORMALIZED)" style="fill: #f8fafc; stroke: #f8fafc; stroke-width: 2; stroke-linejoin: miter"/>
   </g>
   <g id="patch_15">
    <path d="M 242.881412 29.109389
C 243.499179 29.109389 244.091727 28.863948 244.528555 28.427121
C 244.965382 27.990293 245.210824 27.397745 245.210824 26.779978
C 245.210824 26.16221 244.965382 25.569662 244.528555 25.132835
C 244.091727 24.696007 243.499179 24.450566 242.881412 24.450566
C 242.263645 24.450566 241.671096 24.696007 241.234269 25.132835
C 240.797442 25.569662 240.552 26.16221 240.552 26.779978
C 240.552 27.397745 240.797442 27.990293 241.234269 28.427121
C 241.671096 28.863948 242.263645 29.109389 242.881412 29.109389
z
" clip-path="url(#pNORMALIZED)" style="fill: #f8fafc; stroke: #f8fafc; stroke-width: 2; stroke-linejoin: miter"/>
   </g>
   <g id="patch_16">
    <path d="M 349.801412 29.109389
C 350.419179 29.109389 351.011727 28.863948 351.448555 28.427121
C 351.885382 27.990293 352.130824 27.397745 352.130824 26.779978
C 352.130824 26.16221 351.885382 25.569662 351.448555 25.132835
C 351.011727 24.696007 350.419179 24.450566 349.801412 24.450566
C 349.183645 24.450566 348.591096 24.696007 348.154269 25.132835
C 347.717442 25.569662 347.472 26.16221 347.472 26.779978
C 347.472 27.397745 347.717442 27.990293 348.154269 28.427121
C 348.591096 28.863948 349.183645 29.109389 349.801412 29.109389
z
" clip-path="url(#pNORMALIZED)" style="fill: #f8fafc; stroke: #f8fafc; stroke-width: 2; stroke-linejoin: miter"/>
   </g>
   <g id="patch_17">
    <path d="M 135.961412 147.909389
C 136.579179 147.909389 137.171727 147.663948 137.608555 147.227121
C 138.045382 146.790293 138.290824 146.197745 138.290824 145.579978
C 138.290824 144.96221 138.045382 144.369662 137.608555 143.932835
C 137.171727 143.496007 136.579179 143.250566 135.961412 143.250566
C 135.343645 143.250566 134.751096 143.496007 134.314269 143.932835
C 133.877442 144.369662 133.632 144.96221 133.632 145.579978
C 133.632 146.197745 133.877442 146.790293 134.314269 147.227121
C 134.751096 147.663948 135.343645 147.909389 135.961412 147.909389
z
" clip-path="url(#pNORMALIZED)" style="fill: #f8fafc; stroke: #f8fafc; stroke-width: 2; stroke-linejoin: miter"/>
   </g>
   <g id="patch_18">
    <path d="M 242.881412 147.909389
C 243.499179 147.909389 244.091727 147.663948 244.528555 147.227121
C 244.965382 146.790293 245.210824 146.197745 245.210824 145.579978
C 245.210824 144.96221 244.965382 144.369662 244.528555 143.932835
C 244.091727 143.496007 243.499179 143.250566 242.881412 143.250566
C 242.263645 143.250566 241.671096 143.496007 241.234269 143.932835
C 240.797442 144.369662 240.552 144.96221 240.552 145.579978
C 240.552 146.197745 240.797442 146.790293 241.234269 147.227121
C 241.671096 147.663948 242.263645 147.909389 242.881412 147.909389
z
" clip-path="url(#pNORMALIZED)" style="fill: #f8fafc; stroke: #f8fafc; stroke-width: 2; stroke-linejoin: miter"/>
   </g>
   <g id="patch_19">
    <path d="M 349.801412 147.909389
C 350.419179 147.909389 351.011727 147.663948 351.448555 147.227121
C 351.885382 146.790293 352.130824 146.197745 352.130824 145.579978
C 352.130824 144.96221 351.885382 144.369662 351.448555 143.932835
C 351.011727 143.496007 350.419179 143.250566 349.801412 143.250566
C 349.183645 143.250566 348.591096 143.496007 348.154269 143.932835
C 347.717442 144.369662 347.472 144.96221 347.472 145.579978
C 347.472 146.197745 347.717442 146.790293 348.154269 147.227121
C 348.591096 147.663948 349.183645 147.909389 349.801412 147.909389
z
" clip-path="url(#pNORMALIZED)" style="fill: #f8fafc; stroke: #f8fafc; stroke-width: 2; stroke-linejoin: miter"/>
   </g>
  </g>
 </g>
 <defs>
  <clipPath id="pNORMALIZED">
   <rect x="0" y="0" width="494.834824" height="212.899978"/>
  </clipPath>
 </defs>
</svg>
