<?xml version="1.0" encoding="utf-8" standalone="no"?>
<!DOCTYPE svg PUBLIC "-//W3C//DTD SVG 1.1//EN"
  "http://www.w3.org/Graphics/SVG/1.1/DTD/svg11.dtd">
<svg xmlns:xlink="http://www.w3.org/1999/xlink" width="184.788pt" height="124.26pt" viewBox="0 0 184.788 124.26" xmlns="http://www.w3.org/2000/svg" version="1.1">
 <metadata>
  <rdf:RDF xmlns:dc="http://purl.org/dc/elements/1.1/" xmlns:cc="http://creativecommons.org/ns#" xmlns:rdf="http://www.w3.org/1999/02/22-rdf-syntax-ns#">
   <cc:Work>
    <dc:type rdf:resource="http://purl.org/dc/dcmitype/StillImage"/>
    <dc:date>normalized</dc:date>
    <dc:format>image/svg+xml</dc:format>
    <dc:creator>
     <cc:Agent>
      <dc:title>Matplotlib v3.10.9, https://matplotlib.org/</dc:title>
     </cc:Agent>
    </dc:creator>
   </cc:Work>
  </rdf:RDF>
 </metadata>
 <defs>
  <style type="text/css">*{stroke-linejoin: round; stroke-linecap: butt}</style>
 </defs>
 <g id="figure_1">
  <g id="patch_1">
   <path d="M 0 124.26
L 184.788 124.26
L 184.788 0
L 0 0
L 0 124.26
z
" style="fill: none"/>
  </g>
  <g id="axes_1">
   <g id="patch_2">
    <path d="M 127.908 56.28
C 129.101016 56.28 130.24639 55.805571 131.089981 54.961981
C 131.933571 54.11839 132.408 52.973016 132.408 51.78
C 132.408 50.586984 131.933571 49.44161 131.089981 48.598019
C 130.24639 47.754429 129.101016 47.28 127.908 47.28
" clip-path="url(#pNORMALIZED)" style="fill: none; stroke: #111827; stroke-width: 1.8; stroke-linejoin: miter"/>
   </g>
   <g id="patch_3">
    <path d="M 127.908 65.28
C 129.101016 65.28 130.24639 64.805571 131.089981 63.961981
C 131.933571 63.11839 132.408 61.973016 132.408 60.78
C 132.408 59.586984 131.933571 58.44161 131.089981 57.598019
C 130.24639 56.754429 129.101016 56.28 127.908 56.28
" clip-path="url(#pNORMALIZED)" style="fill: none; stroke: #111827; stroke-width: 1.8; stroke-linejoin: miter"/>
   </g>
   <g id="patch_4">
    <path d="M 127.908 74.28
C 129.101016 74.28 130.24639 73.805571 131.089981 72.961981
C 131.933571 72.11839 132.408 70.973016 132.408 69.78
C 132.408 68.586984 131.933571 67.44161 131.089981 66.598019
C 130.24639 65.754429 129.101016 65.28 127.908 65.28
" clip-path="url(#pNORMALIZED)" style="fill: none; stroke: #111827; stroke-width: 1.8; stroke-linejoin: miter"/>
   </g>
   <g id="patch_5">
    <path d="M 127.908 83.28
C 129.101016 83.28 130.24639 82.805571 131.089981 81.961981
C 131.933571 81.11839 132.408 79.973016 132.408 78.78
C 132.408 77.586984 131.933571 76.44161 131.089981 75.598019
C 130.24639 74.754429 129.101016 74.28 127.908 74.28
" clip-path="url(#pNORMALIZED)" style="fill: none; stroke: #111827; stroke-width: 1.8; stroke-linejoin: miter"/>
   </g>
   <g id="line2d_1">
    <path d="M 27.108 29.28
L 41.508 29.28
L 55.908 29.28
" clip-path="url(#pNORMALIZED)" style="fill: none; stroke: #111827; stroke-width: 1.8; stroke-linecap: round"/>
   </g>
   <g id="line2d_2">
    <path d="M 55.908 29.28
L 88.668 29.28
M 88.668 20.28
L 88.668 38.28
M 95.148 20.28
L 95.148 38.28
M 95.148 29.28
L 127.908 29.28
" clip-path="url(#pNORMALIZED)" style="fill: none; stroke: #111827; stroke-width: 1.8; stroke-linecap: round"/>
   </g>
   <g id="line2d_3">
    <path d="M 127.908 29.28
L 127.908 47.28
M 127.908 83.28
L 127.908 101.28
" clip-path="url(#pNORMALIZED)" style="fill: none; stroke: #111827; stroke-width: 1.8; stroke-linecap: round"/>
   </g>
   <g id="line2d_4">
    <path d="M 127.908 29.28
L 149.508 29.28
L 171.108 29.28
" clip-path="url(#pNORMALIZED)" style="fill: none; stroke: #111827; stroke-width: 1.8; stroke-linecap: round"/>
   </g>
   <g id="line2d_5">
    <path d="M 171.108 29.28
L 171.108 62.04
M 180.108 62.04
L 162.108 62.04
M 180.108 68.52
L 162.108 68.52
M 171.108 68.52
L 171.108 101.28
" clip-path="url(#pNORMALIZED)" style="fill: none; stroke: #111827; stroke-width: 1.8; stroke-linecap: round"/>
   </g>
   <g id="line2d_6">
    <path d="M 171.108 101.28
L 149.508 101.28
L 127.908 101.28
" clip-path="url(#pNORMALIZED)" style="fill: none; stroke: #111827; stroke-width: 1.8; stroke-linecap: round"/>
   </g>
   <g id="line2d_7">
    <path d="M 127.908 101.28
L 140.508 101.28
L 153.108 101.28
" clip-path="url(#pNORMALIZED)" style="fill: none; stroke: #111827; stroke-width: 1.8; stroke-linecap: round"/>
   </g>
   <g id="text_1">
    <!-- $C_{xy}$ -->
    <g style="fill: #111827" transform="translate(82.548 12.96) scale(0.12 -0.12)">
     <defs>
      <path id="DejaVuSans-Oblique-43" d="M 4447 4306
L 4319 3641
Q 4019 3944 3683 4091
Q 3347 4238 2956 4238
Q 2422 4238 2017 3981
Q 1613 3725 1319 3200
Q 1131 2863 1032 2486
Q 934 2109 934 1728
Q 934 1091 1264 756
Q 1594 422 2222 422
Q 2656 422 3056 561
Q 3456 700 3834 978
L 3688 231
Q 3316 72 2936 -9
Q 2556 -91 2175 -91
Q 1278 -91 773 396
Q 269 884 269 1753
Q 269 2309 461 2846
Q 653 3384 1013 3828
Q 1394 4300 1883 4525
Q 2372 4750 3022 4750
Q 3422 4750 3780 4639
Q 4138 4528 4447 4306
z
" transform="scale(0.015625)"/>
      <path id="DejaVuSans-Oblique-78" d="M 3841 3500
L 2234 1784
L 3219 0
L 2559 0
L 1819 1388
L 531 0
L -166 0
L 1556 1844
L 641 3500
L 1300 3500
L 1972 2234
L 3144 3500
L 3841 3500
z
" transform="scale(0.015625)"/>
      <path id="DejaVuSans-Oblique-79" d="M 1588 -325
Q 1188 -997 936 -1164
Q 684 -1331 294 -1331
L -159 -1331
L -63 -850
L 269 -850
Q 509 -850 678 -719
Q 847 -588 1056 -206
L 1234 128
L 459 3500
L 1069 3500
L 1650 819
L 3256 3500
L 3859 3500
L 1588 -325
z
" transform="scale(0.015625)"/>
     </defs>
     <use xlink:href="#DejaVuSans-Oblique-43" transform="translate(0 0.78125)"/>
     <use xlink:href="#DejaVuSans-Oblique-78" transform="translate(69.824219 -15.625) scale(0.7)"/>
     <use xlink:href="#DejaVuSans-Oblique-79" transform="translate(111.25 -15.625) scale(0.7)"/>
    </g>
   </g>
   <g id="text_2">
    <!-- $L_q$ -->
    <g style="fill: #111827" transform="translate(123.977989 113.64) scale(0.12 -0.12)">
     <defs>
      <path id="DejaVuSans-Oblique-4c" d="M 1075 4666
L 1709 4666
L 909 525
L 3181 525
L 3078 0
L 172 0
L 1075 4666
z
" transform="scale(0.015625)"/>
      <path id="DejaVuSans-Oblique-71" d="M 2669 525
Q 2438 222 2123 65
Q 1809 -91 1428 -91
Q 897 -91 595 267
Q 294 625 294 1253
Q 294 1759 480 2231
Q 666 2703 1013 3078
Q 1238 3322 1530 3453
Q 1822 3584 2144 3584
Q 2531 3584 2781 3431
Q 3031 3278 3144 2969
L 3244 3494
L 3822 3494
L 2888 -1319
L 2309 -1319
L 2669 525
z
M 891 1338
Q 891 875 1084 633
Q 1278 391 1644 391
Q 2188 391 2572 911
Q 2956 1431 2956 2175
Q 2956 2625 2757 2864
Q 2559 3103 2188 3103
Q 1916 3103 1684 2976
Q 1453 2850 1281 2606
Q 1100 2350 995 2006
Q 891 1663 891 1338
z
" transform="scale(0.015625)"/>
     </defs>
     <use xlink:href="#DejaVuSans-Oblique-4c" transform="translate(0 0.09375)"/>
     <use xlink:href="#DejaVuSans-Oblique-71" transform="translate(55.712891 -16.3125) scale(0.7)"/>
    </g>
   </g>
   <g id="text_3">
    <!-- $C_q$ -->
    <g style="fill: #111827" transform="translate(164.088 21.96) scale(0.12 -0.12)">
     <use xlink:href="#DejaVuSans-Oblique-43" transform="translate(0 0.78125)"/>
     <use xlink:href="#DejaVuSans-Oblique-71" transform="translate(69.824219 -15.625) scale(0.7)"/>
    </g>
   </g>
   <g id="patch_6">
    <path d="M 27.108 31.98
C 27.824048 31.98 28.510866 31.695511 29.017188 31.189188
C 29.523511 30.682866 29.808 29.996048 29.808 29.28
C 29.808 28.563952 29.523511 27.877134 29.017188 27.370812
C 28.510866 26.864489 27.824048 26.58 27.108 26.58
C 26.391952 26.58 25.705134 26.864489 25.198812 27.370812
C 24.692489 27.877134 24.408 28.563952 24.408 29.28
C 24.408 29.996048 24.692489 30.682866 25.198812 31.189188
C 25.705134 31.695511 26.391952 31.98 27.108 31.98
z
" clip-path="url(#pNORMALIZED)" style="fill: #ffffff; stroke: #111827; stroke-width: 1.8; stroke-linejoin: miter"/>
   </g>
   <g id="text_4">
    <!-- XY -->
    <g style="fill: #111827" transform="translate(5.258625 32.59125) scale(0.12 -0.12)">
     <defs>
      <path id="DejaVuSans-58" d="M 403 4666
L 1081 4666
L 2241 2931
L 3406 4666
L 4084 4666
L 2584 2425
L 4184 0
L 3506 0
L 2194 1984
L 872 0
L 191 0
L 1856 2491
L 403 4666
z
" transform="scale(0.015625)"/>
      <path id="DejaVuSans-59" d="M -13 4666
L 666 4666
L 1959 2747
L 3244 4666
L 3922 4666
L 2272 2222
L 2272 0
L 1638 0
L 1638 2222
L -13 4666
z
" transform="scale(0.015625)"/>
     </defs>
     <use xlink:href="#DejaVuSans-58"/>
     <use xlink:href="#DejaVuSans-59" transform="translate(68.505859 0)"/>
    </g>
   </g>
   <g id="patch_7">
    <path d="M 127.908 31.98
C 128.624048 31.98 129.310866 31.695511 129.817188 31.189188
C 130.323511 30.682866 130.608 29.996048 130.608 29.28
C 130.608 28.563952 130.323511 27.877134 129.817188 27.370812
C 129.310866 26.864489 128.624048 26.58 127.908 26.58
C 127.191952 26.58 126.505134 26.864489 125.998812 27.370812
C 125.492489 27.877134 125.208 28.563952 125.208 29.28
C 125.208 29.996048 125.492489 30.682866 125.998812 31.189188
C 126.505134 31.695511 127.191952 31.98 127.908 31.98
z
" clip-path="url(#pNORMALIZED)" style="fill: #111827; stroke: #111827; stroke-width: 1.8; stroke-linejoin: miter"/>
   </g>
   <g id="text_5">
    <!-- + -->
    <g style="fill: #111827" transform="translate(122.880188 20.484375) scale(0.12 -0.12)">
     <defs>
      <path id="DejaVuSans-2b" d="M 2944 4013
L 2944 2272
L 4684 2272
L 4684 1741
L 2944 1741
L 2944 0
L 2419 0
L 2419 1741
L 678 1741
L 678 2272
L 2419 2272
L 2419 4013
L 2944 4013
z
" transform="scale(0.015625)"/>
     </defs>
     <use xlink:href="#DejaVuSans-2b"/>
    </g>
   </g>
   <g id="patch_8">
    <path d="M 127.908 103.98
C 128.624048 103.98 129.310866 103.695511 129.817188 103.189188
C 130.323511 102.682866 130.608 101.996048 130.608 101.28
C 130.608 100.563952 130.323511 99.877134 129.817188 99.370812
C 129.310866 98.864489 128.624048 98.58 127.908 98.58
C 127.191952 98.58 126.505134 98.864489 125.998812 99.370812
C 125.492489 99.877134 125.208 100.563952 125.208 101.28
C 125.208 101.996048 125.492489 102.682866 125.998812 103.189188
C 126.505134 103.695511 127.191952 103.98 127.908 103.98
z
" clip-path="url(#pNORMALIZED)" style="fill: #111827; stroke: #111827; stroke-width: 1.8; stroke-linejoin: miter"/>
   </g>
   <g id="text_6">
    <!-- - -->
    <g style="fill: #111827" transform="translate(125.743312 116.698125) scale(0.12 -0.12)">
     <defs>
      <path id="DejaVuSans-2d" d="M 313 2009
L 1997 2009
L 1997 1497
L 313 1497
L 313 2009
z
" transform="scale(0.015625)"/>
     </defs>
     <use xlink:href="#DejaVuSans-2d"/>
    </g>
   </g>
   <g id="patch_9">
    <path d="M 153.108 103.98
C 153.824048 103.98 154.510866 103.695511 155.017188 103.189188
C 155.523511 102.682866 155.808 101.996048 155.808 101.28
C 155.808 100.563952 155.523511 99.877134 155.017188 99.370812
C 154.510866 98.864489 153.824048 98.58 153.108 98.58
C 152.391952 98.58 151.705134 98.864489 151.198812 99.370812
C 150.692489 99.877134 150.408 100.563952 150.408 101.28
C 150.408 101.996048 150.692489 102.682866 151.198812 103.189188
C 151.705134 103.695511 152.391952 103.98 153.108 103.98
z
" clip-path="url(#pNORMALIZED)" style="fill: #ffffff; stroke: #111827; stroke-width: 1.8; stroke-linejoin: miter"/>
   </g>
   <g id="text_7">
    <!-- $q_-$ -->
    <g style="fill: #111827" transform="translate(159.408 104.566875) scale(0.12 -0.12)">
     <defs>
      <path id="DejaVuSans-2212" d="M 678 2272
L 4684 2272
L 4684 1741
L 678 1741
L 678 2272
z
" transform="scale(0.015625)"/>
     </defs>
     <use xlink:href="#DejaVuSans-Oblique-71"/>
     <use xlink:href="#DejaVuSans-2212" transform="translate(77.114258 -16.40625) scale(0.7)"/>
    </g>
   </g>
  </g>
 </g>
 <defs>
  <clipPath id="pNORMALIZED">
   <rect x="0" y="0" width="184.788" height="124.26"/>
  </clipPath>
 </defs>
</svg>
