<?xml version="1.0" encoding="utf-8" standalone="no"?>
<!DOCTYPE svg PUBLIC "-//W3C//DTD SVG 1.1//EN"
  "http://www.w3.org/Graphics/SVG/1.1/DTD/svg11.dtd">
<svg xmlns:xlink="http://www.w3.org/1999/xlink" width="422.064pt" height="282.51pt" viewBox="0 0 422.064 282.51" xmlns="http://www.w3.org/2000/svg" version="1.1">
 <metadata>
  <rdf:RDF xmlns:dc="http://purl.org/dc/elements/1.1/" xmlns:cc="http://creativecommons.org/ns#" xmlns:rdf="http://www.w3.org/1999/02/22-rdf-syntax-ns#">
   <cc:Work>
    <dc:type rdf:resource="http://purl.org/dc/dcmitype/StillImage"/>
    <dc:date>normalized</dc:date>
    <dc:format>image/svg+xml</dc:format>
    <dc:creator>
     <cc:Agent>
      <dc:title>Matplotlib v3.10.9, https://matplotlib.org/</dc:title>
     </cc:Agent>
    </dc:creator>
   </cc:Work>
  </rdf:RDF>
 </metadata>
 <defs>
  <style type="text/css">*{stroke-linejoin: round; stroke-linecap: butt}</style>
 </defs>
 <g id="figure_1">
  <g id="patch_1">
   <path d="M 0 282.51
L 422.064 282.51
L 422.064 0
L 0 0
L 0 282.51
z
" style="fill: none"/>
  </g>
  <g id="axes_1">
   <g id="patch_2">
    <path d="M 169.8006 116.235
L 170.088916 116.244246
L 170.376047 116.271945
L 170.660814 116.317984
L 170.942046 116.382173
L 171.218587 116.464249
L 171.489302 116.563875
L 171.753077 116.68064
L 172.008829 116.814066
L 172.255507 116.963604
L 172.492097 117.128639
L 172.717628 117.308493
L 172.931171 117.502428
L 173.131851 117.709646
L 173.318842 117.929296
L 173.491375 118.160475
L 173.648742 118.402233
L 173.790297 118.653578
L 173.915457 118.913475
L 174.023708 119.180857
L 174.114605 119.454626
L 174.187776 119.733656
L 174.242918 120.0168
L 174.279806 120.302896
L 174.298288 120.590768
L 174.298288 120.879232
L 174.279806 121.167104
L 174.242918 121.4532
L 174.187776 121.736344
L 174.114605 122.015374
L 174.023708 122.289143
L 173.915457 122.556525
L 173.790297 122.816422
L 173.648742 123.067767
L 173.491375 123.309525
L 173.318842 123.540704
L 173.131851 123.760354
L 172.931171 123.967572
L 172.717628 124.161507
L 172.492097 124.341361
L 172.255507 124.506396
L 172.008829 124.655934
L 171.753077 124.78936
L 171.489302 124.906125
L 171.218587 125.005751
L 170.942046 125.087827
L 170.660814 125.152016
L 170.376047 125.198055
L 170.088916 125.225754
L 169.8006 125.235
" clip-path="url(#pNORMALIZED)" style="fill: none; stroke: #f8fafc; stroke-width: 2; stroke-linejoin: miter"/>
   </g>
   <g id="patch_3">
    <path d="M 169.8006 125.235
L 170.088916 125.244246
L 170.376047 125.271945
L 170.660814 125.317984
L 170.942046 125.382173
L 171.218587 125.464249
L 171.489302 125.563875
L 171.753077 125.68064
L 172.008829 125.814066
L 172.255507 125.963604
L 172.492097 126.128639
L 172.717628 126.308493
L 172.931171 126.502428
L 173.131851 126.709646
L 173.318842 126.929296
L 173.491375 127.160475
L 173.648742 127.402233
L 173.790297 127.653578
L 173.915457 127.913475
L 174.023708 128.180857
L 174.114605 128.454626
L 174.187776 128.733656
L 174.242918 129.0168
L 174.279806 129.302896
L 174.298288 129.590768
L 174.298288 129.879232
L 174.279806 130.167104
L 174.242918 130.4532
L 174.187776 130.736344
L 174.114605 131.015374
L 174.023708 131.289143
L 173.915457 131.556525
L 173.790297 131.816422
L 173.648742 132.067767
L 173.491375 132.309525
L 173.318842 132.540704
L 173.131851 132.760354
L 172.931171 132.967572
L 172.717628 133.161507
L 172.492097 133.341361
L 172.255507 133.506396
L 172.008829 133.655934
L 171.753077 133.78936
L 171.489302 133.906125
L 171.218587 134.005751
L 170.942046 134.087827
L 170.660814 134.152016
L 170.376047 134.198055
L 170.088916 134.225754
L 169.8006 134.235
" clip-path="url(#pNORMALIZED)" style="fill: none; stroke: #f8fafc; stroke-width: 2; stroke-linejoin: miter"/>
   </g>
   <g id="patch_4">
    <path d="M 169.8006 134.235
L 170.088916 134.244246
L 170.376047 134.271945
L 170.660814 134.317984
L 170.942046 134.382173
L 171.218587 134.464249
L 171.489302 134.563875
L 171.753077 134.68064
L 172.008829 134.814066
L 172.255507 134.963604
L 172.492097 135.128639
L 172.717628 135.308493
L 172.931171 135.502428
L 173.131851 135.709646
L 173.318842 135.929296
L 173.491375 136.160475
L 173.648742 136.402233
L 173.790297 136.653578
L 173.915457 136.913475
L 174.023708 137.180857
L 174.114605 137.454626
L 174.187776 137.733656
L 174.242918 138.0168
L 174.279806 138.302896
L 174.298288 138.590768
L 174.298288 138.879232
L 174.279806 139.167104
L 174.242918 139.4532
L 174.187776 139.736344
L 174.114605 140.015374
L 174.023708 140.289143
L 173.915457 140.556525
L 173.790297 140.816422
L 173.648742 141.067767
L 173.491375 141.309525
L 173.318842 141.540704
L 173.131851 141.760354
L 172.931171 141.967572
L 172.717628 142.161507
L 172.492097 142.341361
L 172.255507 142.506396
L 172.008829 142.655934
L 171.753077 142.78936
L 171.489302 142.906125
L 171.218587 143.005751
L 170.942046 143.087827
L 170.660814 143.152016
L 170.376047 143.198055
L 170.088916 143.225754
L 169.8006 143.235
" clip-path="url(#pNORMALIZED)" style="fill: none; stroke: #f8fafc; stroke-width: 2; stroke-linejoin: miter"/>
   </g>
   <g id="patch_5">
    <path d="M 169.8006 143.235
L 170.088916 143.244246
L 170.376047 143.271945
L 170.660814 143.317984
L 170.942046 143.382173
L 171.218587 143.464249
L 171.489302 143.563875
L 171.753077 143.68064
L 172.008829 143.814066
L 172.255507 143.963604
L 172.492097 144.128639
L 172.717628 144.308493
L 172.931171 144.502428
L 173.131851 144.709646
L 173.318842 144.929296
L 173.491375 145.160475
L 173.648742 145.402233
L 173.790297 145.653578
L 173.915457 145.913475
L 174.023708 146.180857
L 174.114605 146.454626
L 174.187776 146.733656
L 174.242918 147.0168
L 174.279806 147.302896
L 174.298288 147.590768
L 174.298288 147.879232
L 174.279806 148.167104
L 174.242918 148.4532
L 174.187776 148.736344
L 174.114605 149.015374
L 174.023708 149.289143
L 173.915457 149.556525
L 173.790297 149.816422
L 173.648742 150.067767
L 173.491375 150.309525
L 173.318842 150.540704
L 173.131851 150.760354
L 172.931171 150.967572
L 172.717628 151.161507
L 172.492097 151.341361
L 172.255507 151.506396
L 172.008829 151.655934
L 171.753077 151.78936
L 171.489302 151.906125
L 171.218587 152.005751
L 170.942046 152.087827
L 170.660814 152.152016
L 170.376047 152.198055
L 170.088916 152.225754
L 169.8006 152.235
" clip-path="url(#pNORMALIZED)" style="fill: none; stroke: #f8fafc; stroke-width: 2; stroke-linejoin: miter"/>
   </g>
   <g id="patch_6">
    <path d="M 216.3306 116.235
L 216.618916 116.244246
L 216.906047 116.271945
L 217.190814 116.317984
L 217.472046 116.382173
L 217.748587 116.464249
L 218.019302 116.563875
L 218.283077 116.68064
L 218.538829 116.814066
L 218.785507 116.963604
L 219.022097 117.128639
L 219.247628 117.308493
L 219.461171 117.502428
L 219.661851 117.709646
L 219.848842 117.929296
L 220.021375 118.160475
L 220.178742 118.402233
L 220.320297 118.653578
L 220.445457 118.913475
L 220.553708 119.180857
L 220.644605 119.454626
L 220.717776 119.733656
L 220.772918 120.0168
L 220.809806 120.302896
L 220.828288 120.590768
L 220.828288 120.879232
L 220.809806 121.167104
L 220.772918 121.4532
L 220.717776 121.736344
L 220.644605 122.015374
L 220.553708 122.289143
L 220.445457 122.556525
L 220.320297 122.816422
L 220.178742 123.067767
L 220.021375 123.309525
L 219.848842 123.540704
L 219.661851 123.760354
L 219.461171 123.967572
L 219.247628 124.161507
L 219.022097 124.341361
L 218.785507 124.506396
L 218.538829 124.655934
L 218.283077 124.78936
L 218.019302 124.906125
L 217.748587 125.005751
L 217.472046 125.087827
L 217.190814 125.152016
L 216.906047 125.198055
L 216.618916 125.225754
L 216.3306 125.235
" clip-path="url(#pNORMALIZED)" style="fill: none; stroke: #f8fafc; stroke-width: 2; stroke-linejoin: miter"/>
   </g>
   <g id="patch_7">
    <path d="M 216.3306 125.235
L 216.618916 125.244246
L 216.906047 125.271945
L 217.190814 125.317984
L 217.472046 125.382173
L 217.748587 125.464249
L 218.019302 125.563875
L 218.283077 125.68064
L 218.538829 125.814066
L 218.785507 125.963604
L 219.022097 126.128639
L 219.247628 126.308493
L 219.461171 126.502428
L 219.661851 126.709646
L 219.848842 126.929296
L 220.021375 127.160475
L 220.178742 127.402233
L 220.320297 127.653578
L 220.445457 127.913475
L 220.553708 128.180857
L 220.644605 128.454626
L 220.717776 128.733656
L 220.772918 129.0168
L 220.809806 129.302896
L 220.828288 129.590768
L 220.828288 129.879232
L 220.809806 130.167104
L 220.772918 130.4532
L 220.717776 130.736344
L 220.644605 131.015374
L 220.553708 131.289143
L 220.445457 131.556525
L 220.320297 131.816422
L 220.178742 132.067767
L 220.021375 132.309525
L 219.848842 132.540704
L 219.661851 132.760354
L 219.461171 132.967572
L 219.247628 133.161507
L 219.022097 133.341361
L 218.785507 133.506396
L 218.538829 133.655934
L 218.283077 133.78936
L 218.019302 133.906125
L 217.748587 134.005751
L 217.472046 134.087827
L 217.190814 134.152016
L 216.906047 134.198055
L 216.618916 134.225754
L 216.3306 134.235
" clip-path="url(#pNORMALIZED)" style="fill: none; stroke: #f8fafc; stroke-width: 2; stroke-linejoin: miter"/>
   </g>
   <g id="patch_8">
    <path d="M 216.3306 134.235
L 216.618916 134.244246
L 216.906047 134.271945
L 217.190814 134.317984
L 217.472046 134.382173
L 217.748587 134.464249
L 218.019302 134.563875
L 218.283077 134.68064
L 218.538829 134.814066
L 218.785507 134.963604
L 219.022097 135.128639
L 219.247628 135.308493
L 219.461171 135.502428
L 219.661851 135.709646
L 219.848842 135.929296
L 220.021375 136.160475
L 220.178742 136.402233
L 220.320297 136.653578
L 220.445457 136.913475
L 220.553708 137.180857
L 220.644605 137.454626
L 220.717776 137.733656
L 220.772918 138.0168
L 220.809806 138.302896
L 220.828288 138.590768
L 220.828288 138.879232
L 220.809806 139.167104
L 220.772918 139.4532
L 220.717776 139.736344
L 220.644605 140.015374
L 220.553708 140.289143
L 220.445457 140.556525
L 220.320297 140.816422
L 220.178742 141.067767
L 220.021375 141.309525
L 219.848842 141.540704
L 219.661851 141.760354
L 219.461171 141.967572
L 219.247628 142.161507
L 219.022097 142.341361
L 218.785507 142.506396
L 218.538829 142.655934
L 218.283077 142.78936
L 218.019302 142.906125
L 217.748587 143.005751
L 217.472046 143.087827
L 217.190814 143.152016
L 216.906047 143.198055
L 216.618916 143.225754
L 216.3306 143.235
" clip-path="url(#pNORMALIZED)" style="fill: none; stroke: #f8fafc; stroke-width: 2; stroke-linejoin: miter"/>
   </g>
   <g id="patch_9">
    <path d="M 216.3306 143.235
L 216.618916 143.244246
L 216.906047 143.271945
L 217.190814 143.317984
L 217.472046 143.382173
L 217.748587 143.464249
L 218.019302 143.563875
L 218.283077 143.68064
L 218.538829 143.814066
L 218.785507 143.963604
L 219.022097 144.128639
L 219.247628 144.308493
L 219.461171 144.502428
L 219.661851 144.709646
L 219.848842 144.929296
L 220.021375 145.160475
L 220.178742 145.402233
L 220.320297 145.653578
L 220.445457 145.913475
L 220.553708 146.180857
L 220.644605 146.454626
L 220.717776 146.733656
L 220.772918 147.0168
L 220.809806 147.302896
L 220.828288 147.590768
L 220.828288 147.879232
L 220.809806 148.167104
L 220.772918 148.4532
L 220.717776 148.736344
L 220.644605 149.015374
L 220.553708 149.289143
L 220.445457 149.556525
L 220.320297 149.816422
L 220.178742 150.067767
L 220.021375 150.309525
L 219.848842 150.540704
L 219.661851 150.760354
L 219.461171 150.967572
L 219.247628 151.161507
L 219.022097 151.341361
L 218.785507 151.506396
L 218.538829 151.655934
L 218.283077 151.78936
L 218.019302 151.906125
L 217.748587 152.005751
L 217.472046 152.087827
L 217.190814 152.152016
L 216.906047 152.198055
L 216.618916 152.225754
L 216.3306 152.235
" clip-path="url(#pNORMALIZED)" style="fill: none; stroke: #f8fafc; stroke-width: 2; stroke-linejoin: miter"/>
   </g>
   <g id="line2d_1">
    <path d="M 65.658 81.36
L 46.623 81.36
L 27.588 81.36
" clip-path="url(#pNORMALIZED)" style="fill: none; stroke: #f8fafc; stroke-width: 2; stroke-linecap: round"/>
   </g>
   <g id="line2d_2">
    <path d="M 65.658 81.36
L 65.658 65.52
L 56.658 62.52
L 74.658 56.52
L 56.658 50.52
L 74.658 44.52
L 56.658 38.52
L 74.658 32.52
L 65.658 29.52
L 65.658 13.68
" clip-path="url(#pNORMALIZED)" style="fill: none; stroke: #f8fafc; stroke-width: 2; stroke-linecap: round"/>
   </g>
   <g id="line2d_3">
    <path d="M 65.658 13.68
L 80.058 13.68
L 80.058 22.68
L 80.058 4.68
M 84.378 19.98
L 84.378 7.38
M 88.698 15.48
L 88.698 11.88
" clip-path="url(#pNORMALIZED)" style="fill: none; stroke: #f8fafc; stroke-width: 2; stroke-linecap: round"/>
   </g>
   <g id="line2d_4">
    <path d="M 65.658 187.11
L 46.623 187.11
L 27.588 187.11
" clip-path="url(#pNORMALIZED)" style="fill: none; stroke: #f8fafc; stroke-width: 2; stroke-linecap: round"/>
   </g>
   <g id="line2d_5">
    <path d="M 65.658 187.11
L 65.658 202.95
L 74.658 205.95
L 56.658 211.95
L 74.658 217.95
L 56.658 223.95
L 74.658 229.95
L 56.658 235.95
L 65.658 238.95
L 65.658 254.79
" clip-path="url(#pNORMALIZED)" style="fill: none; stroke: #f8fafc; stroke-width: 2; stroke-linecap: round"/>
   </g>
   <g id="line2d_6">
    <path d="M 65.658 254.79
L 65.658 269.19
L 56.658 269.19
L 74.658 269.19
M 59.358 273.51
L 71.958 273.51
M 63.858 277.83
L 67.458 277.83
" clip-path="url(#pNORMALIZED)" style="fill: none; stroke: #f8fafc; stroke-width: 2; stroke-linecap: round"/>
   </g>
   <g id="line2d_7">
    <path d="M 353.298 134.235
L 372.333 134.235
L 391.368 134.235
" clip-path="url(#pNORMALIZED)" style="fill: none; stroke: #f8fafc; stroke-width: 2; stroke-linecap: round"/>
   </g>
   <g id="line2d_8">
    <path d="M 353.298 134.235
L 353.298 150.075
L 362.298 153.075
L 344.298 159.075
L 362.298 165.075
L 344.298 171.075
L 362.298 177.075
L 344.298 183.075
L 353.298 186.075
L 353.298 201.915
" clip-path="url(#pNORMALIZED)" style="fill: none; stroke: #f8fafc; stroke-width: 2; stroke-linecap: round"/>
   </g>
   <g id="line2d_9">
    <path d="M 353.298 201.915
L 353.298 216.315
L 344.298 216.315
L 362.298 216.315
M 346.998 220.635
L 359.598 220.635
M 351.498 224.955
L 355.098 224.955
" clip-path="url(#pNORMALIZED)" style="fill: none; stroke: #f8fafc; stroke-width: 2; stroke-linecap: round"/>
   </g>
   <g id="line2d_10">
    <path d="M 65.658 81.36
L 84.693 81.36
L 103.728 81.36
" clip-path="url(#pNORMALIZED)" style="fill: none; stroke: #f8fafc; stroke-width: 2; stroke-linecap: round"/>
   </g>
   <g id="line2d_11">
    <path d="M 65.658 187.11
L 84.693 187.11
L 103.728 187.11
" clip-path="url(#pNORMALIZED)" style="fill: none; stroke: #f8fafc; stroke-width: 2; stroke-linecap: round"/>
   </g>
   <g id="line2d_12">
    <path d="M 315.228 134.235
L 334.263 134.235
L 353.298 134.235
" clip-path="url(#pNORMALIZED)" style="fill: none; stroke: #f8fafc; stroke-width: 2; stroke-linecap: round"/>
   </g>
   <g id="line2d_13">
    <path d="M 103.728 81.36
L 171.408 81.36
L 239.088 81.36
" clip-path="url(#pNORMALIZED)" style="fill: none; stroke: #f8fafc; stroke-width: 2; stroke-linecap: round"/>
   </g>
   <g id="line2d_14">
    <path d="M 103.728 187.11
L 171.408 187.11
L 239.088 187.11
" clip-path="url(#pNORMALIZED)" style="fill: none; stroke: #f8fafc; stroke-width: 2; stroke-linecap: round"/>
   </g>
   <g id="line2d_15">
    <path d="M 141.6288 81.36
L 141.6288 87.282
L 141.6288 93.204
" clip-path="url(#pNORMALIZED)" style="fill: none; stroke: #f8fafc; stroke-width: 2; stroke-linecap: round"/>
   </g>
   <g id="line2d_16">
    <path d="M 141.6288 93.204
L 141.6288 130.995
M 150.6288 130.995
L 132.6288 130.995
M 150.6288 137.475
L 132.6288 137.475
M 141.6288 137.475
L 141.6288 175.266
" clip-path="url(#pNORMALIZED)" style="fill: none; stroke: #f8fafc; stroke-width: 2; stroke-linecap: round"/>
   </g>
   <g id="line2d_17">
    <path d="M 141.6288 175.266
L 141.6288 181.188
L 141.6288 187.11
" clip-path="url(#pNORMALIZED)" style="fill: none; stroke: #f8fafc; stroke-width: 2; stroke-linecap: round"/>
   </g>
   <g id="line2d_18">
    <path d="M 193.0656 81.36
L 193.0656 88.974
L 193.0656 96.588
" clip-path="url(#pNORMALIZED)" style="fill: none; stroke: #f8fafc; stroke-width: 2; stroke-linecap: round"/>
   </g>
   <g id="line2d_19">
    <path d="M 193.0656 171.882
L 193.0656 179.496
L 193.0656 187.11
" clip-path="url(#pNORMALIZED)" style="fill: none; stroke: #f8fafc; stroke-width: 2; stroke-linecap: round"/>
   </g>
   <g id="line2d_20">
    <path d="M 169.8006 96.588
L 193.0656 96.588
L 216.3306 96.588
" clip-path="url(#pNORMALIZED)" style="fill: none; stroke: #f8fafc; stroke-width: 2; stroke-linecap: round"/>
   </g>
   <g id="line2d_21">
    <path d="M 169.8006 171.882
L 193.0656 171.882
L 216.3306 171.882
" clip-path="url(#pNORMALIZED)" style="fill: none; stroke: #f8fafc; stroke-width: 2; stroke-linecap: round"/>
   </g>
   <g id="line2d_22">
    <path d="M 169.8006 96.588
L 169.8006 116.235
M 169.8006 152.235
L 169.8006 171.882
" clip-path="url(#pNORMALIZED)" style="fill: none; stroke: #f8fafc; stroke-width: 2; stroke-linecap: round"/>
   </g>
   <g id="line2d_23">
    <path d="M 216.3306 96.588
L 216.3306 116.235
M 216.3306 152.235
L 216.3306 171.882
" clip-path="url(#pNORMALIZED)" style="fill: none; stroke: #f8fafc; stroke-width: 2; stroke-linecap: round"/>
   </g>
   <g id="line2d_24">
    <path d="M 103.728 81.36
L 103.728 52.875
M 94.728 52.875
L 112.728 52.875
M 94.728 46.395
L 112.728 46.395
M 103.728 46.395
L 103.728 17.91
" clip-path="url(#pNORMALIZED)" style="fill: none; stroke: #f8fafc; stroke-width: 2; stroke-linecap: round"/>
   </g>
   <g id="line2d_25">
    <path d="M 103.728 187.11
L 103.728 215.595
M 112.728 215.595
L 94.728 215.595
M 112.728 222.075
L 94.728 222.075
M 103.728 222.075
L 103.728 250.56
" clip-path="url(#pNORMALIZED)" style="fill: none; stroke: #f8fafc; stroke-width: 2; stroke-linecap: round"/>
   </g>
   <g id="line2d_26">
    <path d="M 103.728 17.91
L 118.128 17.91
L 118.128 26.91
L 118.128 8.91
M 122.448 24.21
L 122.448 11.61
M 126.768 19.71
L 126.768 16.11
" clip-path="url(#pNORMALIZED)" style="fill: none; stroke: #f8fafc; stroke-width: 2; stroke-linecap: round"/>
   </g>
   <g id="line2d_27">
    <path d="M 103.728 250.56
L 103.728 264.96
L 94.728 264.96
L 112.728 264.96
M 97.428 269.28
L 110.028 269.28
M 101.928 273.6
L 105.528 273.6
" clip-path="url(#pNORMALIZED)" style="fill: none; stroke: #f8fafc; stroke-width: 2; stroke-linecap: round"/>
   </g>
   <g id="line2d_28">
    <path d="M 239.088 81.36
L 274.496761 105.949418
M 279.630324 98.557088
L 269.363199 113.341747
M 284.952801 102.253253
L 274.685676 117.037912
M 279.819239 109.645582
L 315.228 134.235
" clip-path="url(#pNORMALIZED)" style="fill: none; stroke: #f8fafc; stroke-width: 2; stroke-linecap: round"/>
   </g>
   <g id="line2d_29">
    <path d="M 239.088 187.11
L 274.496761 162.520582
M 269.363199 155.128253
L 279.630324 169.912912
M 274.685676 151.432088
L 284.952801 166.216747
M 279.819239 158.824418
L 315.228 134.235
" clip-path="url(#pNORMALIZED)" style="fill: none; stroke: #f8fafc; stroke-width: 2; stroke-linecap: round"/>
   </g>
   <g id="text_1">
    <!-- $R_{50}$ -->
    <g style="fill: #f8fafc" transform="translate(30.378 51.383125) scale(0.14 -0.14)">
     <defs>
      <path id="DejaVuSans-Oblique-52" d="M 1613 4147
L 1294 2491
L 2106 2491
Q 2584 2491 2879 2755
Q 3175 3019 3175 3444
Q 3175 3784 2976 3965
Q 2778 4147 2406 4147
L 1613 4147
z
M 2772 2241
Q 2972 2194 3105 2009
Q 3238 1825 3413 1275
L 3809 0
L 3144 0
L 2778 1197
Q 2638 1659 2453 1815
Q 2269 1972 1888 1972
L 1191 1972
L 806 0
L 172 0
L 1081 4666
L 2503 4666
Q 3150 4666 3495 4373
Q 3841 4081 3841 3531
Q 3841 3044 3547 2687
Q 3253 2331 2772 2241
z
" transform="scale(0.015625)"/>
      <path id="DejaVuSans-35" d="M 691 4666
L 3169 4666
L 3169 4134
L 1269 4134
L 1269 2991
Q 1406 3038 1543 3061
Q 1681 3084 1819 3084
Q 2600 3084 3056 2656
Q 3513 2228 3513 1497
Q 3513 744 3044 326
Q 2575 -91 1722 -91
Q 1428 -91 1123 -41
Q 819 9 494 109
L 494 744
Q 775 591 1075 516
Q 1375 441 1709 441
Q 2250 441 2565 725
Q 2881 1009 2881 1497
Q 2881 1984 2565 2268
Q 2250 2553 1709 2553
Q 1456 2553 1204 2497
Q 953 2441 691 2322
L 691 4666
z
" transform="scale(0.015625)"/>
      <path id="DejaVuSans-30" d="M 2034 4250
Q 1547 4250 1301 3770
Q 1056 3291 1056 2328
Q 1056 1369 1301 889
Q 1547 409 2034 409
Q 2525 409 2770 889
Q 3016 1369 3016 2328
Q 3016 3291 2770 3770
Q 2525 4250 2034 4250
z
M 2034 4750
Q 2819 4750 3233 4129
Q 3647 3509 3647 2328
Q 3647 1150 3233 529
Q 2819 -91 2034 -91
Q 1250 -91 836 529
Q 422 1150 422 2328
Q 422 3509 836 4129
Q 1250 4750 2034 4750
z
" transform="scale(0.015625)"/>
     </defs>
     <use xlink:href="#DejaVuSans-Oblique-52" transform="translate(0 0.09375)"/>
     <use xlink:href="#DejaVuSans-35" transform="translate(69.482422 -16.3125) scale(0.7)"/>
     <use xlink:href="#DejaVuSans-30" transform="translate(114.018555 -16.3125) scale(0.7)"/>
    </g>
   </g>
   <g id="text_2">
    <!-- $R_{50}$ -->
    <g style="fill: #f8fafc" transform="translate(30.378 224.813125) scale(0.14 -0.14)">
     <use xlink:href="#DejaVuSans-Oblique-52" transform="translate(0 0.09375)"/>
     <use xlink:href="#DejaVuSans-35" transform="translate(69.482422 -16.3125) scale(0.7)"/>
     <use xlink:href="#DejaVuSans-30" transform="translate(114.018555 -16.3125) scale(0.7)"/>
    </g>
   </g>
   <g id="text_3">
    <!-- $R_{50}$ -->
    <g style="fill: #f8fafc" transform="translate(365.898 171.938125) scale(0.14 -0.14)">
     <use xlink:href="#DejaVuSans-Oblique-52" transform="translate(0 0.09375)"/>
     <use xlink:href="#DejaVuSans-35" transform="translate(69.482422 -16.3125) scale(0.7)"/>
     <use xlink:href="#DejaVuSans-30" transform="translate(114.018555 -16.3125) scale(0.7)"/>
    </g>
   </g>
   <g id="text_4">
    <!-- $C_r$ -->
    <g style="fill: #f8fafc" transform="translate(114.7488 138.098125) scale(0.14 -0.14)">
     <defs>
      <path id="DejaVuSans-Oblique-43" d="M 4447 4306
L 4319 3641
Q 4019 3944 3683 4091
Q 3347 4238 2956 4238
Q 2422 4238 2017 3981
Q 1613 3725 1319 3200
Q 1131 2863 1032 2486
Q 934 2109 934 1728
Q 934 1091 1264 756
Q 1594 422 2222 422
Q 2656 422 3056 561
Q 3456 700 3834 978
L 3688 231
Q 3316 72 2936 -9
Q 2556 -91 2175 -91
Q 1278 -91 773 396
Q 269 884 269 1753
Q 269 2309 461 2846
Q 653 3384 1013 3828
Q 1394 4300 1883 4525
Q 2372 4750 3022 4750
Q 3422 4750 3780 4639
Q 4138 4528 4447 4306
z
" transform="scale(0.015625)"/>
      <path id="DejaVuSans-Oblique-72" d="M 2853 2969
Q 2766 3016 2653 3041
Q 2541 3066 2413 3066
Q 1953 3066 1609 2717
Q 1266 2369 1153 1784
L 800 0
L 225 0
L 909 3500
L 1484 3500
L 1375 2956
Q 1603 3259 1920 3421
Q 2238 3584 2597 3584
Q 2691 3584 2781 3573
Q 2872 3563 2963 3538
L 2853 2969
z
" transform="scale(0.015625)"/>
     </defs>
     <use xlink:href="#DejaVuSans-Oblique-43" transform="translate(0 0.78125)"/>
     <use xlink:href="#DejaVuSans-Oblique-72" transform="translate(69.824219 -15.625) scale(0.7)"/>
    </g>
   </g>
   <g id="text_5">
    <!-- $L_{r,1}$ -->
    <g style="fill: #f8fafc" transform="translate(177.900578 137.595) scale(0.14 -0.14)">
     <defs>
      <path id="DejaVuSans-Oblique-4c" d="M 1075 4666
L 1709 4666
L 909 525
L 3181 525
L 3078 0
L 172 0
L 1075 4666
z
" transform="scale(0.015625)"/>
      <path id="DejaVuSans-2c" d="M 750 794
L 1409 794
L 1409 256
L 897 -744
L 494 -744
L 750 256
L 750 794
z
" transform="scale(0.015625)"/>
      <path id="DejaVuSans-31" d="M 794 531
L 1825 531
L 1825 4091
L 703 3866
L 703 4441
L 1819 4666
L 2450 4666
L 2450 531
L 3481 531
L 3481 0
L 794 0
L 794 531
z
" transform="scale(0.015625)"/>
     </defs>
     <use xlink:href="#DejaVuSans-Oblique-4c" transform="translate(0 0.09375)"/>
     <use xlink:href="#DejaVuSans-Oblique-72" transform="translate(55.712891 -16.3125) scale(0.7)"/>
     <use xlink:href="#DejaVuSans-2c" transform="translate(84.492188 -16.3125) scale(0.7)"/>
     <use xlink:href="#DejaVuSans-31" transform="translate(120.380859 -16.3125) scale(0.7)"/>
    </g>
   </g>
   <g id="text_6">
    <!-- $L_{r,2}$ -->
    <g style="fill: #f8fafc" transform="translate(224.430578 137.595) scale(0.14 -0.14)">
     <defs>
      <path id="DejaVuSans-32" d="M 1228 531
L 3431 531
L 3431 0
L 469 0
L 469 531
Q 828 903 1448 1529
Q 2069 2156 2228 2338
Q 2531 2678 2651 2914
Q 2772 3150 2772 3378
Q 2772 3750 2511 3984
Q 2250 4219 1831 4219
Q 1534 4219 1204 4116
Q 875 4013 500 3803
L 500 4441
Q 881 4594 1212 4672
Q 1544 4750 1819 4750
Q 2544 4750 2975 4387
Q 3406 4025 3406 3419
Q 3406 3131 3298 2873
Q 3191 2616 2906 2266
Q 2828 2175 2409 1742
Q 1991 1309 1228 531
z
" transform="scale(0.015625)"/>
     </defs>
     <use xlink:href="#DejaVuSans-Oblique-4c" transform="translate(0 0.09375)"/>
     <use xlink:href="#DejaVuSans-Oblique-72" transform="translate(55.712891 -16.3125) scale(0.7)"/>
     <use xlink:href="#DejaVuSans-2c" transform="translate(84.492188 -16.3125) scale(0.7)"/>
     <use xlink:href="#DejaVuSans-32" transform="translate(120.380859 -16.3125) scale(0.7)"/>
    </g>
   </g>
   <g id="text_7">
    <!-- $C_{01}$ -->
    <g style="fill: #f8fafc" transform="translate(116.328 53.498125) scale(0.14 -0.14)">
     <use xlink:href="#DejaVuSans-Oblique-43" transform="translate(0 0.78125)"/>
     <use xlink:href="#DejaVuSans-30" transform="translate(69.824219 -15.625) scale(0.7)"/>
     <use xlink:href="#DejaVuSans-31" transform="translate(114.360352 -15.625) scale(0.7)"/>
    </g>
   </g>
   <g id="text_8">
    <!-- $C_{02}$ -->
    <g style="fill: #f8fafc" transform="translate(116.328 222.698125) scale(0.14 -0.14)">
     <use xlink:href="#DejaVuSans-Oblique-43" transform="translate(0 0.78125)"/>
     <use xlink:href="#DejaVuSans-30" transform="translate(69.824219 -15.625) scale(0.7)"/>
     <use xlink:href="#DejaVuSans-32" transform="translate(114.360352 -15.625) scale(0.7)"/>
    </g>
   </g>
   <g id="text_9">
    <!-- $C_{xy,1}$ -->
    <g style="fill: #f8fafc" transform="translate(284.344987 93.108238) scale(0.14 -0.14)">
     <defs>
      <path id="DejaVuSans-Oblique-78" d="M 3841 3500
L 2234 1784
L 3219 0
L 2559 0
L 1819 1388
L 531 0
L -166 0
L 1556 1844
L 641 3500
L 1300 3500
L 1972 2234
L 3144 3500
L 3841 3500
z
" transform="scale(0.015625)"/>
      <path id="DejaVuSans-Oblique-79" d="M 1588 -325
Q 1188 -997 936 -1164
Q 684 -1331 294 -1331
L -159 -1331
L -63 -850
L 269 -850
Q 509 -850 678 -719
Q 847 -588 1056 -206
L 1234 128
L 459 3500
L 1069 3500
L 1650 819
L 3256 3500
L 3859 3500
L 1588 -325
z
" transform="scale(0.015625)"/>
     </defs>
     <use xlink:href="#DejaVuSans-Oblique-43" transform="translate(0 0.78125)"/>
     <use xlink:href="#DejaVuSans-Oblique-78" transform="translate(69.824219 -15.625) scale(0.7)"/>
     <use xlink:href="#DejaVuSans-Oblique-79" transform="translate(111.25 -15.625) scale(0.7)"/>
     <use xlink:href="#DejaVuSans-2c" transform="translate(152.675781 -15.625) scale(0.7)"/>
     <use xlink:href="#DejaVuSans-31" transform="translate(188.564453 -15.625) scale(0.7)"/>
    </g>
   </g>
   <g id="text_10">
    <!-- $C_{xy,2}$ -->
    <g style="fill: #f8fafc" transform="translate(284.344987 181.521762) scale(0.14 -0.14)">
     <use xlink:href="#DejaVuSans-Oblique-43" transform="translate(0 0.78125)"/>
     <use xlink:href="#DejaVuSans-Oblique-78" transform="translate(69.824219 -15.625) scale(0.7)"/>
     <use xlink:href="#DejaVuSans-Oblique-79" transform="translate(111.25 -15.625) scale(0.7)"/>
     <use xlink:href="#DejaVuSans-2c" transform="translate(152.675781 -15.625) scale(0.7)"/>
     <use xlink:href="#DejaVuSans-32" transform="translate(188.564453 -15.625) scale(0.7)"/>
    </g>
   </g>
   <g id="patch_10">
    <path d="M 27.588 84.96
C 28.542731 84.96 29.458488 84.580681 30.133584 83.905584
C 30.808681 83.230488 31.188 82.314731 31.188 81.36
C 31.188 80.405269 30.808681 79.489512 30.133584 78.814416
C 29.458488 78.139319 28.542731 77.76 27.588 77.76
C 26.633269 77.76 25.717512 78.139319 25.042416 78.814416
C 24.367319 79.489512 23.988 80.405269 23.988 81.36
C 23.988 82.314731 24.367319 83.230488 25.042416 83.905584
C 25.717512 84.580681 26.633269 84.96 27.588 84.96
z
" clip-path="url(#pNORMALIZED)" style="fill: #ffffff; stroke: #f8fafc; stroke-width: 2; stroke-linejoin: miter"/>
   </g>
   <g id="text_11">
    <!-- $P_1$ -->
    <g style="fill: #f8fafc" transform="translate(5.268 85.223125) scale(0.14 -0.14)">
     <defs>
      <path id="DejaVuSans-Oblique-50" d="M 1081 4666
L 2541 4666
Q 3178 4666 3512 4369
Q 3847 4072 3847 3500
Q 3847 2731 3353 2303
Q 2859 1875 1966 1875
L 1172 1875
L 806 0
L 172 0
L 1081 4666
z
M 1613 4147
L 1275 2394
L 2069 2394
Q 2606 2394 2893 2669
Q 3181 2944 3181 3456
Q 3181 3784 2986 3965
Q 2791 4147 2438 4147
L 1613 4147
z
" transform="scale(0.015625)"/>
     </defs>
     <use xlink:href="#DejaVuSans-Oblique-50" transform="translate(0 0.09375)"/>
     <use xlink:href="#DejaVuSans-31" transform="translate(60.302734 -16.3125) scale(0.7)"/>
    </g>
   </g>
   <g id="patch_11">
    <path d="M 65.658 84.96
C 66.612731 84.96 67.528488 84.580681 68.203584 83.905584
C 68.878681 83.230488 69.258 82.314731 69.258 81.36
C 69.258 80.405269 68.878681 79.489512 68.203584 78.814416
C 67.528488 78.139319 66.612731 77.76 65.658 77.76
C 64.703269 77.76 63.787512 78.139319 63.112416 78.814416
C 62.437319 79.489512 62.058 80.405269 62.058 81.36
C 62.058 82.314731 62.437319 83.230488 63.112416 83.905584
C 63.787512 84.580681 64.703269 84.96 65.658 84.96
z
" clip-path="url(#pNORMALIZED)" style="fill: #f8fafc; stroke: #f8fafc; stroke-width: 2; stroke-linejoin: miter"/>
   </g>
   <g id="patch_12">
    <path d="M 27.588 190.71
C 28.542731 190.71 29.458488 190.330681 30.133584 189.655584
C 30.808681 188.980488 31.188 188.064731 31.188 187.11
C 31.188 186.155269 30.808681 185.239512 30.133584 184.564416
C 29.458488 183.889319 28.542731 183.51 27.588 183.51
C 26.633269 183.51 25.717512 183.889319 25.042416 184.564416
C 24.367319 185.239512 23.988 186.155269 23.988 187.11
C 23.988 188.064731 24.367319 188.980488 25.042416 189.655584
C 25.717512 190.330681 26.633269 190.71 27.588 190.71
z
" clip-path="url(#pNORMALIZED)" style="fill: #ffffff; stroke: #f8fafc; stroke-width: 2; stroke-linejoin: miter"/>
   </g>
   <g id="text_12">
    <!-- $P_2$ -->
    <g style="fill: #f8fafc" transform="translate(5.268 190.973125) scale(0.14 -0.14)">
     <use xlink:href="#DejaVuSans-Oblique-50" transform="translate(0 0.09375)"/>
     <use xlink:href="#DejaVuSans-32" transform="translate(60.302734 -16.3125) scale(0.7)"/>
    </g>
   </g>
   <g id="patch_13">
    <path d="M 65.658 190.71
C 66.612731 190.71 67.528488 190.330681 68.203584 189.655584
C 68.878681 188.980488 69.258 188.064731 69.258 187.11
C 69.258 186.155269 68.878681 185.239512 68.203584 184.564416
C 67.528488 183.889319 66.612731 183.51 65.658 183.51
C 64.703269 183.51 63.787512 183.889319 63.112416 184.564416
C 62.437319 185.239512 62.058 186.155269 62.058 187.11
C 62.058 188.064731 62.437319 188.980488 63.112416 189.655584
C 63.787512 190.330681 64.703269 190.71 65.658 190.71
z
" clip-path="url(#pNORMALIZED)" style="fill: #f8fafc; stroke: #f8fafc; stroke-width: 2; stroke-linejoin: miter"/>
   </g>
   <g id="patch_14">
    <path d="M 391.368 137.835
C 392.322731 137.835 393.238488 137.455681 393.913584 136.780584
C 394.588681 136.105488 394.968 135.189731 394.968 134.235
C 394.968 133.280269 394.588681 132.364512 393.913584 131.689416
C 393.238488 131.014319 392.322731 130.635 391.368 130.635
C 390.413269 130.635 389.497512 131.014319 388.822416 131.689416
C 388.147319 132.364512 387.768 133.280269 387.768 134.235
C 387.768 135.189731 388.147319 136.105488 388.822416 136.780584
C 389.497512 137.455681 390.413269 137.835 391.368 137.835
z
" clip-path="url(#pNORMALIZED)" style="fill: #ffffff; stroke: #f8fafc; stroke-width: 2; stroke-linejoin: miter"/>
   </g>
   <g id="text_13">
    <!-- $XY$ -->
    <g style="fill: #f8fafc" transform="translate(398.568 138.098125) scale(0.14 -0.14)">
     <defs>
      <path id="DejaVuSans-Oblique-58" d="M 878 4666
L 1516 4666
L 2316 2981
L 3763 4666
L 4500 4666
L 2578 2438
L 3738 0
L 3103 0
L 2163 1966
L 459 0
L -275 0
L 1906 2509
L 878 4666
z
" transform="scale(0.015625)"/>
      <path id="DejaVuSans-Oblique-59" d="M 403 4666
L 1081 4666
L 1953 2747
L 3616 4666
L 4325 4666
L 2209 2222
L 1778 0
L 1147 0
L 1575 2222
L 403 4666
z
" transform="scale(0.015625)"/>
     </defs>
     <use xlink:href="#DejaVuSans-Oblique-58" transform="translate(0 0.09375)"/>
     <use xlink:href="#DejaVuSans-Oblique-59" transform="translate(68.505859 0.09375)"/>
    </g>
   </g>
   <g id="patch_15">
    <path d="M 353.298 137.835
C 354.252731 137.835 355.168488 137.455681 355.843584 136.780584
C 356.518681 136.105488 356.898 135.189731 356.898 134.235
C 356.898 133.280269 356.518681 132.364512 355.843584 131.689416
C 355.168488 131.014319 354.252731 130.635 353.298 130.635
C 352.343269 130.635 351.427512 131.014319 350.752416 131.689416
C 350.077319 132.364512 349.698 133.280269 349.698 134.235
C 349.698 135.189731 350.077319 136.105488 350.752416 136.780584
C 351.427512 137.455681 352.343269 137.835 353.298 137.835
z
" clip-path="url(#pNORMALIZED)" style="fill: #f8fafc; stroke: #f8fafc; stroke-width: 2; stroke-linejoin: miter"/>
   </g>
   <g id="patch_16">
    <path d="M 193.0656 84.96
C 194.020331 84.96 194.936088 84.580681 195.611184 83.905584
C 196.286281 83.230488 196.6656 82.314731 196.6656 81.36
C 196.6656 80.405269 196.286281 79.489512 195.611184 78.814416
C 194.936088 78.139319 194.020331 77.76 193.0656 77.76
C 192.110869 77.76 191.195112 78.139319 190.520016 78.814416
C 189.844919 79.489512 189.4656 80.405269 189.4656 81.36
C 189.4656 82.314731 189.844919 83.230488 190.520016 83.905584
C 191.195112 84.580681 192.110869 84.96 193.0656 84.96
z
" clip-path="url(#pNORMALIZED)" style="fill: #f8fafc; stroke: #f8fafc; stroke-width: 2; stroke-linejoin: miter"/>
   </g>
   <g id="patch_17">
    <path d="M 193.0656 190.71
C 194.020331 190.71 194.936088 190.330681 195.611184 189.655584
C 196.286281 188.980488 196.6656 188.064731 196.6656 187.11
C 196.6656 186.155269 196.286281 185.239512 195.611184 184.564416
C 194.936088 183.889319 194.020331 183.51 193.0656 183.51
C 192.110869 183.51 191.195112 183.889319 190.520016 184.564416
C 189.844919 185.239512 189.4656 186.155269 189.4656 187.11
C 189.4656 188.064731 189.844919 188.980488 190.520016 189.655584
C 191.195112 190.330681 192.110869 190.71 193.0656 190.71
z
" clip-path="url(#pNORMALIZED)" style="fill: #f8fafc; stroke: #f8fafc; stroke-width: 2; stroke-linejoin: miter"/>
   </g>
  </g>
 </g>
 <defs>
  <clipPath id="pNORMALIZED">
   <rect x="0" y="0" width="422.064" height="282.51"/>
  </clipPath>
 </defs>
</svg>
