<?xml version="1.0" encoding="utf-8" standalone="no"?>
<!DOCTYPE svg PUBLIC "-//W3C//DTD SVG 1.1//EN"
  "http://www.w3.org/Graphics/SVG/1.1/DTD/svg11.dtd">
<svg xmlns:xlink="http://www.w3.org/1999/xlink" width="344.0115pt" height="265.05pt" viewBox="0 0 344.0115 265.05" xmlns="http://www.w3.org/2000/svg" version="1.1">
 <metadata>
  <rdf:RDF xmlns:dc="http://purl.org/dc/elements/1.1/" xmlns:cc="http://creativecommons.org/ns#" xmlns:rdf="http://www.w3.org/1999/02/22-rdf-syntax-ns#">
   <cc:Work>
    <dc:type rdf:resource="http://purl.org/dc/dcmitype/StillImage"/>
    <dc:date>normalized</dc:date>
    <dc:format>image/svg+xml</dc:format>
    <dc:creator>
     <cc:Agent>
      <dc:title>Matplotlib v3.10.9, https://matplotlib.org/</dc:title>
     </cc:Agent>
    </dc:creator>
   </cc:Work>
  </rdf:RDF>
 </metadata>
 <defs>
  <style type="text/css">*{stroke-linejoin: round; stroke-linecap: butt}</style>
 </defs>
 <g id="figure_1">
  <g id="patch_1">
   <path d="M 0 265.05
L 344.0115 265.05
L 344.0115 0
L 0 0
L 0 265.05
z
" style="fill: none"/>
  </g>
  <g id="axes_1">
   <g id="patch_2">
    <path d="M 135.08895 103.005
L 135.377266 103.014246
L 135.664397 103.041945
L 135.949164 103.087984
L 136.230396 103.152173
L 136.506937 103.234249
L 136.777652 103.333875
L 137.041427 103.45064
L 137.297179 103.584066
L 137.543857 103.733604
L 137.780447 103.898639
L 138.005978 104.078493
L 138.219521 104.272428
L 138.420201 104.479646
L 138.607192 104.699296
L 138.779725 104.930475
L 138.937092 105.172233
L 139.078647 105.423578
L 139.203807 105.683475
L 139.312058 105.950857
L 139.402955 106.224626
L 139.476126 106.503656
L 139.531268 106.7868
L 139.568156 107.072896
L 139.586638 107.360768
L 139.586638 107.649232
L 139.568156 107.937104
L 139.531268 108.2232
L 139.476126 108.506344
L 139.402955 108.785374
L 139.312058 109.059143
L 139.203807 109.326525
L 139.078647 109.586422
L 138.937092 109.837767
L 138.779725 110.079525
L 138.607192 110.310704
L 138.420201 110.530354
L 138.219521 110.737572
L 138.005978 110.931507
L 137.780447 111.111361
L 137.543857 111.276396
L 137.297179 111.425934
L 137.041427 111.55936
L 136.777652 111.676125
L 136.506937 111.775751
L 136.230396 111.857827
L 135.949164 111.922016
L 135.664397 111.968055
L 135.377266 111.995754
L 135.08895 112.005
" clip-path="url(#pNORMALIZED)" style="fill: none; stroke: #111827; stroke-width: 2; stroke-linejoin: miter"/>
   </g>
   <g id="patch_3">
    <path d="M 135.08895 112.005
L 135.377266 112.014246
L 135.664397 112.041945
L 135.949164 112.087984
L 136.230396 112.152173
L 136.506937 112.234249
L 136.777652 112.333875
L 137.041427 112.45064
L 137.297179 112.584066
L 137.543857 112.733604
L 137.780447 112.898639
L 138.005978 113.078493
L 138.219521 113.272428
L 138.420201 113.479646
L 138.607192 113.699296
L 138.779725 113.930475
L 138.937092 114.172233
L 139.078647 114.423578
L 139.203807 114.683475
L 139.312058 114.950857
L 139.402955 115.224626
L 139.476126 115.503656
L 139.531268 115.7868
L 139.568156 116.072896
L 139.586638 116.360768
L 139.586638 116.649232
L 139.568156 116.937104
L 139.531268 117.2232
L 139.476126 117.506344
L 139.402955 117.785374
L 139.312058 118.059143
L 139.203807 118.326525
L 139.078647 118.586422
L 138.937092 118.837767
L 138.779725 119.079525
L 138.607192 119.310704
L 138.420201 119.530354
L 138.219521 119.737572
L 138.005978 119.931507
L 137.780447 120.111361
L 137.543857 120.276396
L 137.297179 120.425934
L 137.041427 120.55936
L 136.777652 120.676125
L 136.506937 120.775751
L 136.230396 120.857827
L 135.949164 120.922016
L 135.664397 120.968055
L 135.377266 120.995754
L 135.08895 121.005
" clip-path="url(#pNORMALIZED)" style="fill: none; stroke: #111827; stroke-width: 2; stroke-linejoin: miter"/>
   </g>
   <g id="patch_4">
    <path d="M 135.08895 121.005
L 135.377266 121.014246
L 135.664397 121.041945
L 135.949164 121.087984
L 136.230396 121.152173
L 136.506937 121.234249
L 136.777652 121.333875
L 137.041427 121.45064
L 137.297179 121.584066
L 137.543857 121.733604
L 137.780447 121.898639
L 138.005978 122.078493
L 138.219521 122.272428
L 138.420201 122.479646
L 138.607192 122.699296
L 138.779725 122.930475
L 138.937092 123.172233
L 139.078647 123.423578
L 139.203807 123.683475
L 139.312058 123.950857
L 139.402955 124.224626
L 139.476126 124.503656
L 139.531268 124.7868
L 139.568156 125.072896
L 139.586638 125.360768
L 139.586638 125.649232
L 139.568156 125.937104
L 139.531268 126.2232
L 139.476126 126.506344
L 139.402955 126.785374
L 139.312058 127.059143
L 139.203807 127.326525
L 139.078647 127.586422
L 138.937092 127.837767
L 138.779725 128.079525
L 138.607192 128.310704
L 138.420201 128.530354
L 138.219521 128.737572
L 138.005978 128.931507
L 137.780447 129.111361
L 137.543857 129.276396
L 137.297179 129.425934
L 137.041427 129.55936
L 136.777652 129.676125
L 136.506937 129.775751
L 136.230396 129.857827
L 135.949164 129.922016
L 135.664397 129.968055
L 135.377266 129.995754
L 135.08895 130.005
" clip-path="url(#pNORMALIZED)" style="fill: none; stroke: #111827; stroke-width: 2; stroke-linejoin: miter"/>
   </g>
   <g id="patch_5">
    <path d="M 135.08895 130.005
L 135.377266 130.014246
L 135.664397 130.041945
L 135.949164 130.087984
L 136.230396 130.152173
L 136.506937 130.234249
L 136.777652 130.333875
L 137.041427 130.45064
L 137.297179 130.584066
L 137.543857 130.733604
L 137.780447 130.898639
L 138.005978 131.078493
L 138.219521 131.272428
L 138.420201 131.479646
L 138.607192 131.699296
L 138.779725 131.930475
L 138.937092 132.172233
L 139.078647 132.423578
L 139.203807 132.683475
L 139.312058 132.950857
L 139.402955 133.224626
L 139.476126 133.503656
L 139.531268 133.7868
L 139.568156 134.072896
L 139.586638 134.360768
L 139.586638 134.649232
L 139.568156 134.937104
L 139.531268 135.2232
L 139.476126 135.506344
L 139.402955 135.785374
L 139.312058 136.059143
L 139.203807 136.326525
L 139.078647 136.586422
L 138.937092 136.837767
L 138.779725 137.079525
L 138.607192 137.310704
L 138.420201 137.530354
L 138.219521 137.737572
L 138.005978 137.931507
L 137.780447 138.111361
L 137.543857 138.276396
L 137.297179 138.425934
L 137.041427 138.55936
L 136.777652 138.676125
L 136.506937 138.775751
L 136.230396 138.857827
L 135.949164 138.922016
L 135.664397 138.968055
L 135.377266 138.995754
L 135.08895 139.005
" clip-path="url(#pNORMALIZED)" style="fill: none; stroke: #111827; stroke-width: 2; stroke-linejoin: miter"/>
   </g>
   <g id="patch_6">
    <path d="M 171.63615 103.005
L 171.924466 103.014246
L 172.211597 103.041945
L 172.496364 103.087984
L 172.777596 103.152173
L 173.054137 103.234249
L 173.324852 103.333875
L 173.588627 103.45064
L 173.844379 103.584066
L 174.091057 103.733604
L 174.327647 103.898639
L 174.553178 104.078493
L 174.766721 104.272428
L 174.967401 104.479646
L 175.154392 104.699296
L 175.326925 104.930475
L 175.484292 105.172233
L 175.625847 105.423578
L 175.751007 105.683475
L 175.859258 105.950857
L 175.950155 106.224626
L 176.023326 106.503656
L 176.078468 106.7868
L 176.115356 107.072896
L 176.133838 107.360768
L 176.133838 107.649232
L 176.115356 107.937104
L 176.078468 108.2232
L 176.023326 108.506344
L 175.950155 108.785374
L 175.859258 109.059143
L 175.751007 109.326525
L 175.625847 109.586422
L 175.484292 109.837767
L 175.326925 110.079525
L 175.154392 110.310704
L 174.967401 110.530354
L 174.766721 110.737572
L 174.553178 110.931507
L 174.327647 111.111361
L 174.091057 111.276396
L 173.844379 111.425934
L 173.588627 111.55936
L 173.324852 111.676125
L 173.054137 111.775751
L 172.777596 111.857827
L 172.496364 111.922016
L 172.211597 111.968055
L 171.924466 111.995754
L 171.63615 112.005
" clip-path="url(#pNORMALIZED)" style="fill: none; stroke: #111827; stroke-width: 2; stroke-linejoin: miter"/>
   </g>
   <g id="patch_7">
    <path d="M 171.63615 112.005
L 171.924466 112.014246
L 172.211597 112.041945
L 172.496364 112.087984
L 172.777596 112.152173
L 173.054137 112.234249
L 173.324852 112.333875
L 173.588627 112.45064
L 173.844379 112.584066
L 174.091057 112.733604
L 174.327647 112.898639
L 174.553178 113.078493
L 174.766721 113.272428
L 174.967401 113.479646
L 175.154392 113.699296
L 175.326925 113.930475
L 175.484292 114.172233
L 175.625847 114.423578
L 175.751007 114.683475
L 175.859258 114.950857
L 175.950155 115.224626
L 176.023326 115.503656
L 176.078468 115.7868
L 176.115356 116.072896
L 176.133838 116.360768
L 176.133838 116.649232
L 176.115356 116.937104
L 176.078468 117.2232
L 176.023326 117.506344
L 175.950155 117.785374
L 175.859258 118.059143
L 175.751007 118.326525
L 175.625847 118.586422
L 175.484292 118.837767
L 175.326925 119.079525
L 175.154392 119.310704
L 174.967401 119.530354
L 174.766721 119.737572
L 174.553178 119.931507
L 174.327647 120.111361
L 174.091057 120.276396
L 173.844379 120.425934
L 173.588627 120.55936
L 173.324852 120.676125
L 173.054137 120.775751
L 172.777596 120.857827
L 172.496364 120.922016
L 172.211597 120.968055
L 171.924466 120.995754
L 171.63615 121.005
" clip-path="url(#pNORMALIZED)" style="fill: none; stroke: #111827; stroke-width: 2; stroke-linejoin: miter"/>
   </g>
   <g id="patch_8">
    <path d="M 171.63615 121.005
L 171.924466 121.014246
L 172.211597 121.041945
L 172.496364 121.087984
L 172.777596 121.152173
L 173.054137 121.234249
L 173.324852 121.333875
L 173.588627 121.45064
L 173.844379 121.584066
L 174.091057 121.733604
L 174.327647 121.898639
L 174.553178 122.078493
L 174.766721 122.272428
L 174.967401 122.479646
L 175.154392 122.699296
L 175.326925 122.930475
L 175.484292 123.172233
L 175.625847 123.423578
L 175.751007 123.683475
L 175.859258 123.950857
L 175.950155 124.224626
L 176.023326 124.503656
L 176.078468 124.7868
L 176.115356 125.072896
L 176.133838 125.360768
L 176.133838 125.649232
L 176.115356 125.937104
L 176.078468 126.2232
L 176.023326 126.506344
L 175.950155 126.785374
L 175.859258 127.059143
L 175.751007 127.326525
L 175.625847 127.586422
L 175.484292 127.837767
L 175.326925 128.079525
L 175.154392 128.310704
L 174.967401 128.530354
L 174.766721 128.737572
L 174.553178 128.931507
L 174.327647 129.111361
L 174.091057 129.276396
L 173.844379 129.425934
L 173.588627 129.55936
L 173.324852 129.676125
L 173.054137 129.775751
L 172.777596 129.857827
L 172.496364 129.922016
L 172.211597 129.968055
L 171.924466 129.995754
L 171.63615 130.005
" clip-path="url(#pNORMALIZED)" style="fill: none; stroke: #111827; stroke-width: 2; stroke-linejoin: miter"/>
   </g>
   <g id="patch_9">
    <path d="M 171.63615 130.005
L 171.924466 130.014246
L 172.211597 130.041945
L 172.496364 130.087984
L 172.777596 130.152173
L 173.054137 130.234249
L 173.324852 130.333875
L 173.588627 130.45064
L 173.844379 130.584066
L 174.091057 130.733604
L 174.327647 130.898639
L 174.553178 131.078493
L 174.766721 131.272428
L 174.967401 131.479646
L 175.154392 131.699296
L 175.326925 131.930475
L 175.484292 132.172233
L 175.625847 132.423578
L 175.751007 132.683475
L 175.859258 132.950857
L 175.950155 133.224626
L 176.023326 133.503656
L 176.078468 133.7868
L 176.115356 134.072896
L 176.133838 134.360768
L 176.133838 134.649232
L 176.115356 134.937104
L 176.078468 135.2232
L 176.023326 135.506344
L 175.950155 135.785374
L 175.859258 136.059143
L 175.751007 136.326525
L 175.625847 136.586422
L 175.484292 136.837767
L 175.326925 137.079525
L 175.154392 137.310704
L 174.967401 137.530354
L 174.766721 137.737572
L 174.553178 137.931507
L 174.327647 138.111361
L 174.091057 138.276396
L 173.844379 138.425934
L 173.588627 138.55936
L 173.324852 138.676125
L 173.054137 138.775751
L 172.777596 138.857827
L 172.496364 138.922016
L 172.211597 138.968055
L 171.924466 138.995754
L 171.63615 139.005
" clip-path="url(#pNORMALIZED)" style="fill: none; stroke: #111827; stroke-width: 2; stroke-linejoin: miter"/>
   </g>
   <g id="line2d_1">
    <path d="M 26.63175 68.13
L 45.66675 68.13
L 64.70175 68.13
" clip-path="url(#pNORMALIZED)" style="fill: none; stroke: #111827; stroke-width: 2; stroke-linecap: round"/>
   </g>
   <g id="line2d_2">
    <path d="M 26.63175 173.88
L 45.66675 173.88
L 64.70175 173.88
" clip-path="url(#pNORMALIZED)" style="fill: none; stroke: #111827; stroke-width: 2; stroke-linecap: round"/>
   </g>
   <g id="line2d_3">
    <path d="M 276.20175 121.005
L 295.23675 121.005
L 314.27175 121.005
" clip-path="url(#pNORMALIZED)" style="fill: none; stroke: #111827; stroke-width: 2; stroke-linecap: round"/>
   </g>
   <g id="line2d_4">
    <path d="M 64.70175 68.13
L 132.38175 68.13
L 200.06175 68.13
" clip-path="url(#pNORMALIZED)" style="fill: none; stroke: #111827; stroke-width: 2; stroke-linecap: round"/>
   </g>
   <g id="line2d_5">
    <path d="M 64.70175 173.88
L 132.38175 173.88
L 200.06175 173.88
" clip-path="url(#pNORMALIZED)" style="fill: none; stroke: #111827; stroke-width: 2; stroke-linecap: round"/>
   </g>
   <g id="line2d_6">
    <path d="M 98.54175 68.13
L 98.54175 117.765
M 107.54175 117.765
L 89.54175 117.765
M 107.54175 124.245
L 89.54175 124.245
M 98.54175 124.245
L 98.54175 173.88
" clip-path="url(#pNORMALIZED)" style="fill: none; stroke: #111827; stroke-width: 2; stroke-linecap: round"/>
   </g>
   <g id="line2d_7">
    <path d="M 135.08895 68.13
L 135.08895 103.005
M 135.08895 139.005
L 135.08895 173.88
" clip-path="url(#pNORMALIZED)" style="fill: none; stroke: #111827; stroke-width: 2; stroke-linecap: round"/>
   </g>
   <g id="line2d_8">
    <path d="M 171.63615 68.13
L 171.63615 103.005
M 171.63615 139.005
L 171.63615 173.88
" clip-path="url(#pNORMALIZED)" style="fill: none; stroke: #111827; stroke-width: 2; stroke-linecap: round"/>
   </g>
   <g id="line2d_9">
    <path d="M 75.53055 68.13
L 75.53055 39.645
M 66.53055 39.645
L 84.53055 39.645
M 66.53055 33.165
L 84.53055 33.165
M 75.53055 33.165
L 75.53055 4.68
" clip-path="url(#pNORMALIZED)" style="fill: none; stroke: #111827; stroke-width: 2; stroke-linecap: round"/>
   </g>
   <g id="line2d_10">
    <path d="M 75.53055 173.88
L 75.53055 202.365
M 84.53055 202.365
L 66.53055 202.365
M 84.53055 208.845
L 66.53055 208.845
M 75.53055 208.845
L 75.53055 237.33
" clip-path="url(#pNORMALIZED)" style="fill: none; stroke: #111827; stroke-width: 2; stroke-linecap: round"/>
   </g>
   <g id="line2d_11">
    <path d="M 75.53055 4.68
L 75.53055 19.08
L 66.53055 19.08
L 84.53055 19.08
M 69.23055 23.4
L 81.83055 23.4
M 73.73055 27.72
L 77.33055 27.72
" clip-path="url(#pNORMALIZED)" style="fill: none; stroke: #111827; stroke-width: 2; stroke-linecap: round"/>
   </g>
   <g id="line2d_12">
    <path d="M 75.53055 237.33
L 75.53055 251.73
L 66.53055 251.73
L 84.53055 251.73
M 69.23055 256.05
L 81.83055 256.05
M 73.73055 260.37
L 77.33055 260.37
" clip-path="url(#pNORMALIZED)" style="fill: none; stroke: #111827; stroke-width: 2; stroke-linecap: round"/>
   </g>
   <g id="line2d_13">
    <path d="M 200.06175 68.13
L 235.470511 92.719418
M 240.604074 85.327088
L 230.336949 100.111747
M 245.926551 89.023253
L 235.659426 103.807912
M 240.792989 96.415582
L 276.20175 121.005
" clip-path="url(#pNORMALIZED)" style="fill: none; stroke: #111827; stroke-width: 2; stroke-linecap: round"/>
   </g>
   <g id="line2d_14">
    <path d="M 200.06175 173.88
L 235.470511 149.290582
M 230.336949 141.898253
L 240.604074 156.682912
M 235.659426 138.202088
L 245.926551 152.986747
M 240.792989 145.594418
L 276.20175 121.005
" clip-path="url(#pNORMALIZED)" style="fill: none; stroke: #111827; stroke-width: 2; stroke-linecap: round"/>
   </g>
   <g id="text_1">
    <!-- $C_q$ -->
    <g style="fill: #111827" transform="translate(69.56175 124.085) scale(0.14 -0.14)">
     <defs>
      <path id="DejaVuSans-Oblique-43" d="M 4447 4306
L 4319 3641
Q 4019 3944 3683 4091
Q 3347 4238 2956 4238
Q 2422 4238 2017 3981
Q 1613 3725 1319 3200
Q 1131 2863 1032 2486
Q 934 2109 934 1728
Q 934 1091 1264 756
Q 1594 422 2222 422
Q 2656 422 3056 561
Q 3456 700 3834 978
L 3688 231
Q 3316 72 2936 -9
Q 2556 -91 2175 -91
Q 1278 -91 773 396
Q 269 884 269 1753
Q 269 2309 461 2846
Q 653 3384 1013 3828
Q 1394 4300 1883 4525
Q 2372 4750 3022 4750
Q 3422 4750 3780 4639
Q 4138 4528 4447 4306
z
" transform="scale(0.015625)"/>
      <path id="DejaVuSans-Oblique-71" d="M 2669 525
Q 2438 222 2123 65
Q 1809 -91 1428 -91
Q 897 -91 595 267
Q 294 625 294 1253
Q 294 1759 480 2231
Q 666 2703 1013 3078
Q 1238 3322 1530 3453
Q 1822 3584 2144 3584
Q 2531 3584 2781 3431
Q 3031 3278 3144 2969
L 3244 3494
L 3822 3494
L 2888 -1319
L 2309 -1319
L 2669 525
z
M 891 1338
Q 891 875 1084 633
Q 1278 391 1644 391
Q 2188 391 2572 911
Q 2956 1431 2956 2175
Q 2956 2625 2757 2864
Q 2559 3103 2188 3103
Q 1916 3103 1684 2976
Q 1453 2850 1281 2606
Q 1100 2350 995 2006
Q 891 1663 891 1338
z
" transform="scale(0.015625)"/>
     </defs>
     <use xlink:href="#DejaVuSans-Oblique-43" transform="translate(0 0.78125)"/>
     <use xlink:href="#DejaVuSans-Oblique-71" transform="translate(69.824219 -15.625) scale(0.7)"/>
    </g>
   </g>
   <g id="text_2">
    <!-- $L_{q1}$ -->
    <g style="fill: #111827" transform="translate(143.188928 123.945) scale(0.14 -0.14)">
     <defs>
      <path id="DejaVuSans-Oblique-4c" d="M 1075 4666
L 1709 4666
L 909 525
L 3181 525
L 3078 0
L 172 0
L 1075 4666
z
" transform="scale(0.015625)"/>
      <path id="DejaVuSans-31" d="M 794 531
L 1825 531
L 1825 4091
L 703 3866
L 703 4441
L 1819 4666
L 2450 4666
L 2450 531
L 3481 531
L 3481 0
L 794 0
L 794 531
z
" transform="scale(0.015625)"/>
     </defs>
     <use xlink:href="#DejaVuSans-Oblique-4c" transform="translate(0 0.09375)"/>
     <use xlink:href="#DejaVuSans-Oblique-71" transform="translate(55.712891 -16.3125) scale(0.7)"/>
     <use xlink:href="#DejaVuSans-31" transform="translate(100.146484 -16.3125) scale(0.7)"/>
    </g>
   </g>
   <g id="text_3">
    <!-- $L_{q2}$ -->
    <g style="fill: #111827" transform="translate(179.736128 123.945) scale(0.14 -0.14)">
     <defs>
      <path id="DejaVuSans-32" d="M 1228 531
L 3431 531
L 3431 0
L 469 0
L 469 531
Q 828 903 1448 1529
Q 2069 2156 2228 2338
Q 2531 2678 2651 2914
Q 2772 3150 2772 3378
Q 2772 3750 2511 3984
Q 2250 4219 1831 4219
Q 1534 4219 1204 4116
Q 875 4013 500 3803
L 500 4441
Q 881 4594 1212 4672
Q 1544 4750 1819 4750
Q 2544 4750 2975 4387
Q 3406 4025 3406 3419
Q 3406 3131 3298 2873
Q 3191 2616 2906 2266
Q 2828 2175 2409 1742
Q 1991 1309 1228 531
z
" transform="scale(0.015625)"/>
     </defs>
     <use xlink:href="#DejaVuSans-Oblique-4c" transform="translate(0 0.09375)"/>
     <use xlink:href="#DejaVuSans-Oblique-71" transform="translate(55.712891 -16.3125) scale(0.7)"/>
     <use xlink:href="#DejaVuSans-32" transform="translate(100.146484 -16.3125) scale(0.7)"/>
    </g>
   </g>
   <g id="text_4">
    <!-- $C_{g1}$ -->
    <g style="fill: #111827" transform="translate(40.25055 39.485) scale(0.14 -0.14)">
     <defs>
      <path id="DejaVuSans-Oblique-67" d="M 3816 3500
L 3219 434
Q 3047 -456 2561 -893
Q 2075 -1331 1253 -1331
Q 950 -1331 690 -1286
Q 431 -1241 206 -1147
L 313 -588
Q 525 -725 762 -790
Q 1000 -856 1269 -856
Q 1816 -856 2167 -557
Q 2519 -259 2631 300
L 2681 563
Q 2441 288 2122 144
Q 1803 0 1434 0
Q 903 0 598 351
Q 294 703 294 1319
Q 294 1803 478 2267
Q 663 2731 997 3091
Q 1219 3328 1514 3456
Q 1809 3584 2131 3584
Q 2484 3584 2746 3420
Q 3009 3256 3138 2956
L 3238 3500
L 3816 3500
z
M 2950 2216
Q 2950 2641 2750 2872
Q 2550 3103 2181 3103
Q 1953 3103 1747 3012
Q 1541 2922 1394 2759
Q 1156 2491 1023 2127
Q 891 1763 891 1375
Q 891 944 1092 712
Q 1294 481 1672 481
Q 2219 481 2584 976
Q 2950 1472 2950 2216
z
" transform="scale(0.015625)"/>
     </defs>
     <use xlink:href="#DejaVuSans-Oblique-43" transform="translate(0 0.78125)"/>
     <use xlink:href="#DejaVuSans-Oblique-67" transform="translate(69.824219 -15.625) scale(0.7)"/>
     <use xlink:href="#DejaVuSans-31" transform="translate(114.257812 -15.625) scale(0.7)"/>
    </g>
   </g>
   <g id="text_5">
    <!-- $C_{g2}$ -->
    <g style="fill: #111827" transform="translate(88.13055 208.685) scale(0.14 -0.14)">
     <use xlink:href="#DejaVuSans-Oblique-43" transform="translate(0 0.78125)"/>
     <use xlink:href="#DejaVuSans-Oblique-67" transform="translate(69.824219 -15.625) scale(0.7)"/>
     <use xlink:href="#DejaVuSans-32" transform="translate(114.257812 -15.625) scale(0.7)"/>
    </g>
   </g>
   <g id="text_6">
    <!-- $C_{xy1}$ -->
    <g style="fill: #111827" transform="translate(245.318737 79.878238) scale(0.14 -0.14)">
     <defs>
      <path id="DejaVuSans-Oblique-78" d="M 3841 3500
L 2234 1784
L 3219 0
L 2559 0
L 1819 1388
L 531 0
L -166 0
L 1556 1844
L 641 3500
L 1300 3500
L 1972 2234
L 3144 3500
L 3841 3500
z
" transform="scale(0.015625)"/>
      <path id="DejaVuSans-Oblique-79" d="M 1588 -325
Q 1188 -997 936 -1164
Q 684 -1331 294 -1331
L -159 -1331
L -63 -850
L 269 -850
Q 509 -850 678 -719
Q 847 -588 1056 -206
L 1234 128
L 459 3500
L 1069 3500
L 1650 819
L 3256 3500
L 3859 3500
L 1588 -325
z
" transform="scale(0.015625)"/>
     </defs>
     <use xlink:href="#DejaVuSans-Oblique-43" transform="translate(0 0.78125)"/>
     <use xlink:href="#DejaVuSans-Oblique-78" transform="translate(69.824219 -15.625) scale(0.7)"/>
     <use xlink:href="#DejaVuSans-Oblique-79" transform="translate(111.25 -15.625) scale(0.7)"/>
     <use xlink:href="#DejaVuSans-31" transform="translate(152.675781 -15.625) scale(0.7)"/>
    </g>
   </g>
   <g id="text_7">
    <!-- $C_{xy2}$ -->
    <g style="fill: #111827" transform="translate(245.318737 168.291762) scale(0.14 -0.14)">
     <use xlink:href="#DejaVuSans-Oblique-43" transform="translate(0 0.78125)"/>
     <use xlink:href="#DejaVuSans-Oblique-78" transform="translate(69.824219 -15.625) scale(0.7)"/>
     <use xlink:href="#DejaVuSans-Oblique-79" transform="translate(111.25 -15.625) scale(0.7)"/>
     <use xlink:href="#DejaVuSans-32" transform="translate(152.675781 -15.625) scale(0.7)"/>
    </g>
   </g>
   <g id="patch_10">
    <path d="M 64.70175 70.77375
C 65.402881 70.77375 66.075389 70.495188 66.571164 69.999414
C 67.066938 69.503639 67.3455 68.831131 67.3455 68.13
C 67.3455 67.428869 67.066938 66.756361 66.571164 66.260586
C 66.075389 65.764812 65.402881 65.48625 64.70175 65.48625
C 64.000619 65.48625 63.328111 65.764812 62.832336 66.260586
C 62.336562 66.756361 62.058 67.428869 62.058 68.13
C 62.058 68.831131 62.336562 69.503639 62.832336 69.999414
C 63.328111 70.495188 64.000619 70.77375 64.70175 70.77375
z
" clip-path="url(#pNORMALIZED)" style="fill: #111827; stroke: #111827; stroke-width: 2; stroke-linejoin: miter"/>
   </g>
   <g id="patch_11">
    <path d="M 64.70175 176.52375
C 65.402881 176.52375 66.075389 176.245188 66.571164 175.749414
C 67.066938 175.253639 67.3455 174.581131 67.3455 173.88
C 67.3455 173.178869 67.066938 172.506361 66.571164 172.010586
C 66.075389 171.514812 65.402881 171.23625 64.70175 171.23625
C 64.000619 171.23625 63.328111 171.514812 62.832336 172.010586
C 62.336562 172.506361 62.058 173.178869 62.058 173.88
C 62.058 174.581131 62.336562 175.253639 62.832336 175.749414
C 63.328111 176.245188 64.000619 176.52375 64.70175 176.52375
z
" clip-path="url(#pNORMALIZED)" style="fill: #111827; stroke: #111827; stroke-width: 2; stroke-linejoin: miter"/>
   </g>
   <g id="patch_12">
    <path d="M 276.20175 123.64875
C 276.902881 123.64875 277.575389 123.370188 278.071164 122.874414
C 278.566938 122.378639 278.8455 121.706131 278.8455 121.005
C 278.8455 120.303869 278.566938 119.631361 278.071164 119.135586
C 277.575389 118.639812 276.902881 118.36125 276.20175 118.36125
C 275.500619 118.36125 274.828111 118.639812 274.332336 119.135586
C 273.836562 119.631361 273.558 120.303869 273.558 121.005
C 273.558 121.706131 273.836562 122.378639 274.332336 122.874414
C 274.828111 123.370188 275.500619 123.64875 276.20175 123.64875
z
" clip-path="url(#pNORMALIZED)" style="fill: #111827; stroke: #111827; stroke-width: 2; stroke-linejoin: miter"/>
   </g>
   <g id="patch_13">
    <path d="M 26.63175 70.77375
C 27.332881 70.77375 28.005389 70.495188 28.501164 69.999414
C 28.996938 69.503639 29.2755 68.831131 29.2755 68.13
C 29.2755 67.428869 28.996938 66.756361 28.501164 66.260586
C 28.005389 65.764812 27.332881 65.48625 26.63175 65.48625
C 25.930619 65.48625 25.258111 65.764812 24.762336 66.260586
C 24.266562 66.756361 23.988 67.428869 23.988 68.13
C 23.988 68.831131 24.266562 69.503639 24.762336 69.999414
C 25.258111 70.495188 25.930619 70.77375 26.63175 70.77375
z
" clip-path="url(#pNORMALIZED)" style="fill: #ffffff; stroke: #111827; stroke-width: 2; stroke-linejoin: miter"/>
   </g>
   <g id="text_8">
    <!-- $P_1$ -->
    <g style="fill: #111827" transform="translate(5.268 71.993125) scale(0.14 -0.14)">
     <defs>
      <path id="DejaVuSans-Oblique-50" d="M 1081 4666
L 2541 4666
Q 3178 4666 3512 4369
Q 3847 4072 3847 3500
Q 3847 2731 3353 2303
Q 2859 1875 1966 1875
L 1172 1875
L 806 0
L 172 0
L 1081 4666
z
M 1613 4147
L 1275 2394
L 2069 2394
Q 2606 2394 2893 2669
Q 3181 2944 3181 3456
Q 3181 3784 2986 3965
Q 2791 4147 2438 4147
L 1613 4147
z
" transform="scale(0.015625)"/>
     </defs>
     <use xlink:href="#DejaVuSans-Oblique-50" transform="translate(0 0.09375)"/>
     <use xlink:href="#DejaVuSans-31" transform="translate(60.302734 -16.3125) scale(0.7)"/>
    </g>
   </g>
   <g id="patch_14">
    <path d="M 26.63175 176.52375
C 27.332881 176.52375 28.005389 176.245188 28.501164 175.749414
C 28.996938 175.253639 29.2755 174.581131 29.2755 173.88
C 29.2755 173.178869 28.996938 172.506361 28.501164 172.010586
C 28.005389 171.514812 27.332881 171.23625 26.63175 171.23625
C 25.930619 171.23625 25.258111 171.514812 24.762336 172.010586
C 24.266562 172.506361 23.988 173.178869 23.988 173.88
C 23.988 174.581131 24.266562 175.253639 24.762336 175.749414
C 25.258111 176.245188 25.930619 176.52375 26.63175 176.52375
z
" clip-path="url(#pNORMALIZED)" style="fill: #ffffff; stroke: #111827; stroke-width: 2; stroke-linejoin: miter"/>
   </g>
   <g id="text_9">
    <!-- $P_2$ -->
    <g style="fill: #111827" transform="translate(5.268 177.743125) scale(0.14 -0.14)">
     <use xlink:href="#DejaVuSans-Oblique-50" transform="translate(0 0.09375)"/>
     <use xlink:href="#DejaVuSans-32" transform="translate(60.302734 -16.3125) scale(0.7)"/>
    </g>
   </g>
   <g id="patch_15">
    <path d="M 314.27175 123.64875
C 314.972881 123.64875 315.645389 123.370188 316.141164 122.874414
C 316.636938 122.378639 316.9155 121.706131 316.9155 121.005
C 316.9155 120.303869 316.636938 119.631361 316.141164 119.135586
C 315.645389 118.639812 314.972881 118.36125 314.27175 118.36125
C 313.570619 118.36125 312.898111 118.639812 312.402336 119.135586
C 311.906562 119.631361 311.628 120.303869 311.628 121.005
C 311.628 121.706131 311.906562 122.378639 312.402336 122.874414
C 312.898111 123.370188 313.570619 123.64875 314.27175 123.64875
z
" clip-path="url(#pNORMALIZED)" style="fill: #ffffff; stroke: #111827; stroke-width: 2; stroke-linejoin: miter"/>
   </g>
   <g id="text_10">
    <!-- $XY$ -->
    <g style="fill: #111827" transform="translate(320.5155 124.868125) scale(0.14 -0.14)">
     <defs>
      <path id="DejaVuSans-Oblique-58" d="M 878 4666
L 1516 4666
L 2316 2981
L 3763 4666
L 4500 4666
L 2578 2438
L 3738 0
L 3103 0
L 2163 1966
L 459 0
L -275 0
L 1906 2509
L 878 4666
z
" transform="scale(0.015625)"/>
      <path id="DejaVuSans-Oblique-59" d="M 403 4666
L 1081 4666
L 1953 2747
L 3616 4666
L 4325 4666
L 2209 2222
L 1778 0
L 1147 0
L 1575 2222
L 403 4666
z
" transform="scale(0.015625)"/>
     </defs>
     <use xlink:href="#DejaVuSans-Oblique-58" transform="translate(0 0.09375)"/>
     <use xlink:href="#DejaVuSans-Oblique-59" transform="translate(68.505859 0.09375)"/>
    </g>
   </g>
  </g>
 </g>
 <defs>
  <clipPath id="pNORMALIZED">
   <rect x="0" y="0" width="344.0115" height="265.05"/>
  </clipPath>
 </defs>
</svg>
