<svg xmlns="http://www.w3.org/2000/svg" viewBox="0 0 64 64" role="img" aria-label="SC">
  <rect width="64" height="64" rx="16" fill="#07121d"/>
  <path d="M15 39c3.6 3.4 8.1 5.1 13.4 5.1 6.2 0 10.2-2.8 10.2-7.2 0-4.1-2.6-6.1-9.7-7.8-4.1-1-5.8-1.8-5.8-3.8 0-1.8 1.8-3 4.8-3 3.2 0 6.1 1 8.8 3.1l4.4-5.9c-3.4-2.8-7.6-4.2-12.7-4.2-7.2 0-12.2 3.8-12.2 9.5 0 5.7 4.3 7.4 10.8 8.9 3.7.9 4.9 1.7 4.9 3.4 0 1.9-1.8 3-4.9 3-3.8 0-7-1.3-10-4.1L15 39z" fill="#7ef6ff"/>
  <path d="M44.6 44.2c-5.8 0-10.5-4.7-10.5-10.6s4.7-10.6 10.5-10.6c3.4 0 6.4 1.5 8.4 3.9l-4.3 4.2c-1.1-1.3-2.4-2-4-2-2.5 0-4.2 1.9-4.2 4.5s1.8 4.5 4.2 4.5c1.8 0 3.1-.8 4.2-2.1l4.4 4c-2 2.5-5 4.2-8.7 4.2z" fill="#ffffff"/>
</svg>
