<?xml version="1.0" encoding="utf-8" standalone="no"?>
<!DOCTYPE svg PUBLIC "-//W3C//DTD SVG 1.1//EN"
  "http://www.w3.org/Graphics/SVG/1.1/DTD/svg11.dtd">
<svg xmlns:xlink="http://www.w3.org/1999/xlink" width="486.159375pt" height="175.8pt" viewBox="0 0 486.159375 175.8" xmlns="http://www.w3.org/2000/svg" version="1.1">
 <metadata>
  <rdf:RDF xmlns:dc="http://purl.org/dc/elements/1.1/" xmlns:cc="http://creativecommons.org/ns#" xmlns:rdf="http://www.w3.org/1999/02/22-rdf-syntax-ns#">
   <cc:Work>
    <dc:type rdf:resource="http://purl.org/dc/dcmitype/StillImage"/>
    <dc:date>normalized</dc:date>
    <dc:format>image/svg+xml</dc:format>
    <dc:creator>
     <cc:Agent>
      <dc:title>Matplotlib v3.10.9, https://matplotlib.org/</dc:title>
     </cc:Agent>
    </dc:creator>
   </cc:Work>
  </rdf:RDF>
 </metadata>
 <defs>
  <style type="text/css">*{stroke-linejoin: round; stroke-linecap: butt}</style>
 </defs>
 <g id="figure_1">
  <g id="patch_1">
   <path d="M 0 175.8
L 486.159375 175.8
L 486.159375 0
L 0 0
L 0 175.8
z
" style="fill: none"/>
  </g>
  <g id="axes_1">
   <g id="patch_2">
    <path d="M 137.923125 67.08
C 137.923125 65.886984 137.448696 64.74161 136.605106 63.898019
C 135.761515 63.054429 134.616141 62.58 133.423125 62.58
C 132.230109 62.58 131.084735 63.054429 130.241144 63.898019
C 129.397554 64.74161 128.923125 65.886984 128.923125 67.08
" clip-path="url(#pNORMALIZED)" style="fill: none; stroke: #111827; stroke-width: 1.8; stroke-linejoin: miter"/>
   </g>
   <g id="patch_3">
    <path d="M 146.923125 67.08
C 146.923125 65.886984 146.448696 64.74161 145.605106 63.898019
C 144.761515 63.054429 143.616141 62.58 142.423125 62.58
C 141.230109 62.58 140.084735 63.054429 139.241144 63.898019
C 138.397554 64.74161 137.923125 65.886984 137.923125 67.08
" clip-path="url(#pNORMALIZED)" style="fill: none; stroke: #111827; stroke-width: 1.8; stroke-linejoin: miter"/>
   </g>
   <g id="patch_4">
    <path d="M 155.923125 67.08
C 155.923125 65.886984 155.448696 64.74161 154.605106 63.898019
C 153.761515 63.054429 152.616141 62.58 151.423125 62.58
C 150.230109 62.58 149.084735 63.054429 148.241144 63.898019
C 147.397554 64.74161 146.923125 65.886984 146.923125 67.08
" clip-path="url(#pNORMALIZED)" style="fill: none; stroke: #111827; stroke-width: 1.8; stroke-linejoin: miter"/>
   </g>
   <g id="patch_5">
    <path d="M 164.923125 67.08
C 164.923125 65.886984 164.448696 64.74161 163.605106 63.898019
C 162.761515 63.054429 161.616141 62.58 160.423125 62.58
C 159.230109 62.58 158.084735 63.054429 157.241144 63.898019
C 156.397554 64.74161 155.923125 65.886984 155.923125 67.08
" clip-path="url(#pNORMALIZED)" style="fill: none; stroke: #111827; stroke-width: 1.8; stroke-linejoin: miter"/>
   </g>
   <g id="line2d_1">
    <path d="M 67.723125 67.08
L 87.883125 67.08
M 87.883125 58.08
L 87.883125 76.08
M 94.363125 58.08
L 94.363125 76.08
M 94.363125 67.08
L 114.523125 67.08
" clip-path="url(#pNORMALIZED)" style="fill: none; stroke: #111827; stroke-width: 1.8; stroke-linecap: round"/>
   </g>
   <g id="line2d_2">
    <path d="M 114.523125 67.08
L 119.023125 67.08
L 123.523125 67.08
" clip-path="url(#pNORMALIZED)" style="fill: none; stroke: #111827; stroke-width: 1.8; stroke-linecap: round"/>
   </g>
   <g id="line2d_3">
    <path d="M 123.523125 67.08
L 128.923125 67.08
M 164.923125 67.08
L 170.323125 67.08
" clip-path="url(#pNORMALIZED)" style="fill: none; stroke: #111827; stroke-width: 1.8; stroke-linecap: round"/>
   </g>
   <g id="line2d_4">
    <path d="M 170.323125 67.08
L 170.323125 84.54
M 179.323125 84.54
L 161.323125 84.54
M 179.323125 91.02
L 161.323125 91.02
M 170.323125 91.02
L 170.323125 108.48
" clip-path="url(#pNORMALIZED)" style="fill: none; stroke: #111827; stroke-width: 1.8; stroke-linecap: round"/>
   </g>
   <g id="line2d_5">
    <path d="M 170.323125 108.48
L 170.323125 122.88
L 161.323125 122.88
L 179.323125 122.88
M 164.023125 127.2
L 176.623125 127.2
M 168.523125 131.52
L 172.123125 131.52
" clip-path="url(#pNORMALIZED)" style="fill: none; stroke: #111827; stroke-width: 1.8; stroke-linecap: round"/>
   </g>
   <g id="line2d_6">
    <path d="M 170.323125 67.08
L 174.823125 67.08
L 179.323125 67.08
" clip-path="url(#pNORMALIZED)" style="fill: none; stroke: #111827; stroke-width: 1.8; stroke-linecap: round"/>
   </g>
   <g id="line2d_7">
    <path d="M 179.323125 67.08
L 199.483125 67.08
M 199.483125 58.08
L 199.483125 76.08
M 205.963125 58.08
L 205.963125 76.08
M 205.963125 67.08
L 226.123125 67.08
" clip-path="url(#pNORMALIZED)" style="fill: none; stroke: #111827; stroke-width: 1.8; stroke-linecap: round"/>
   </g>
   <g id="line2d_8">
    <path d="M 226.123125 67.08
L 244.123125 67.08
L 262.123125 67.08
" clip-path="url(#pNORMALIZED)" style="fill: none; stroke: #111827; stroke-width: 1.8; stroke-linecap: round"/>
   </g>
   <g id="line2d_9">
    <path d="M 262.123125 67.08
L 319.723125 67.08
L 377.323125 67.08
" clip-path="url(#pNORMALIZED)" style="fill: none; stroke: #111827; stroke-width: 1.8; stroke-linecap: round"/>
   </g>
   <g id="line2d_10">
    <path d="M 377.323125 67.08
L 393.523125 67.08
L 409.723125 67.08
" clip-path="url(#pNORMALIZED)" style="fill: none; stroke: #111827; stroke-width: 1.8; stroke-linecap: round"/>
   </g>
   <g id="line2d_11">
    <path d="M 262.123125 131.88
L 262.123125 139.98
L 262.123125 148.08
" clip-path="url(#pNORMALIZED)" style="fill: none; stroke: #111827; stroke-width: 1.8; stroke-linecap: round"/>
   </g>
   <g id="line2d_12">
    <path d="M 262.123125 148.08
L 262.123125 162.48
L 253.123125 162.48
L 271.123125 162.48
M 255.823125 166.8
L 268.423125 166.8
M 260.323125 171.12
L 263.923125 171.12
" clip-path="url(#pNORMALIZED)" style="fill: none; stroke: #111827; stroke-width: 1.8; stroke-linecap: round"/>
   </g>
   <g id="line2d_13">
    <path d="M 262.123125 131.88
L 319.723125 131.88
L 377.323125 131.88
" clip-path="url(#pNORMALIZED)" style="fill: none; stroke: #111827; stroke-width: 1.8; stroke-linecap: round"/>
   </g>
   <g id="line2d_14">
    <path d="M 296.323125 67.08
L 296.323125 71.58
L 296.323125 76.08
" clip-path="url(#pNORMALIZED)" style="fill: none; stroke: #111827; stroke-width: 1.8; stroke-linecap: round"/>
   </g>
   <g id="line2d_15">
    <path d="M 296.323125 76.08
L 296.323125 100.74
M 305.323125 100.74
L 287.323125 100.74
M 305.323125 107.22
L 287.323125 107.22
M 296.323125 107.22
L 296.323125 131.88
" clip-path="url(#pNORMALIZED)" style="fill: none; stroke: #111827; stroke-width: 1.8; stroke-linecap: round"/>
   </g>
   <g id="line2d_16">
    <path d="M 344.923125 67.08
L 344.923125 71.58
L 344.923125 76.08
" clip-path="url(#pNORMALIZED)" style="fill: none; stroke: #111827; stroke-width: 1.8; stroke-linecap: round"/>
   </g>
   <g id="line2d_17">
    <path d="M 344.923125 76.08
L 344.923125 66.18
L 326.923125 48.18
L 344.923125 30.18
L 362.923125 48.18
L 344.923125 66.18
M 344.923125 30.18
L 344.923125 20.28
" clip-path="url(#pNORMALIZED)" style="fill: none; stroke: #111827; stroke-width: 1.8; stroke-linecap: round"/>
   </g>
   <g id="line2d_18">
    <path d="M 348.523125 57.18
L 341.323125 57.18
" clip-path="url(#pNORMALIZED)" style="fill: none; stroke: #111827; stroke-width: 1.8; stroke-linecap: round"/>
   </g>
   <g id="line2d_19">
    <path d="M 344.923125 42.78
L 344.923125 35.58
" clip-path="url(#pNORMALIZED)" style="fill: none; stroke: #111827; stroke-width: 1.8; stroke-linecap: round"/>
   </g>
   <g id="line2d_20">
    <path d="M 348.523125 39.18
L 341.323125 39.18
" clip-path="url(#pNORMALIZED)" style="fill: none; stroke: #111827; stroke-width: 1.8; stroke-linecap: round"/>
   </g>
   <g id="text_1">
    <!-- $C_{in}$ -->
    <g style="fill: #111827" transform="translate(82.903125 51.984375) scale(0.12 -0.12)">
     <defs>
      <path id="DejaVuSans-Oblique-43" d="M 4447 4306
L 4319 3641
Q 4019 3944 3683 4091
Q 3347 4238 2956 4238
Q 2422 4238 2017 3981
Q 1613 3725 1319 3200
Q 1131 2863 1032 2486
Q 934 2109 934 1728
Q 934 1091 1264 756
Q 1594 422 2222 422
Q 2656 422 3056 561
Q 3456 700 3834 978
L 3688 231
Q 3316 72 2936 -9
Q 2556 -91 2175 -91
Q 1278 -91 773 396
Q 269 884 269 1753
Q 269 2309 461 2846
Q 653 3384 1013 3828
Q 1394 4300 1883 4525
Q 2372 4750 3022 4750
Q 3422 4750 3780 4639
Q 4138 4528 4447 4306
z
" transform="scale(0.015625)"/>
      <path id="DejaVuSans-Oblique-69" d="M 1172 4863
L 1747 4863
L 1606 4134
L 1031 4134
L 1172 4863
z
M 909 3500
L 1484 3500
L 800 0
L 225 0
L 909 3500
z
" transform="scale(0.015625)"/>
      <path id="DejaVuSans-Oblique-6e" d="M 3566 2113
L 3156 0
L 2578 0
L 2988 2091
Q 3016 2238 3031 2350
Q 3047 2463 3047 2528
Q 3047 2791 2881 2937
Q 2716 3084 2419 3084
Q 1956 3084 1622 2776
Q 1288 2469 1184 1941
L 800 0
L 225 0
L 903 3500
L 1478 3500
L 1363 2950
Q 1603 3253 1940 3418
Q 2278 3584 2650 3584
Q 3113 3584 3367 3334
Q 3622 3084 3622 2631
Q 3622 2519 3608 2391
Q 3594 2263 3566 2113
z
" transform="scale(0.015625)"/>
     </defs>
     <use xlink:href="#DejaVuSans-Oblique-43" transform="translate(0 0.78125)"/>
     <use xlink:href="#DejaVuSans-Oblique-69" transform="translate(69.824219 -15.625) scale(0.7)"/>
     <use xlink:href="#DejaVuSans-Oblique-6e" transform="translate(89.272461 -15.625) scale(0.7)"/>
    </g>
   </g>
   <g id="text_2">
    <!-- $L_{pf}$ -->
    <g style="fill: #111827" transform="translate(139.243125 55.260022) scale(0.12 -0.12)">
     <defs>
      <path id="DejaVuSans-Oblique-4c" d="M 1075 4666
L 1709 4666
L 909 525
L 3181 525
L 3078 0
L 172 0
L 1075 4666
z
" transform="scale(0.015625)"/>
      <path id="DejaVuSans-Oblique-70" d="M 3175 2156
Q 3175 2616 2975 2859
Q 2775 3103 2400 3103
Q 2144 3103 1911 2972
Q 1678 2841 1497 2591
Q 1319 2344 1212 1994
Q 1106 1644 1106 1300
Q 1106 863 1306 627
Q 1506 391 1875 391
Q 2147 391 2380 519
Q 2613 647 2778 891
Q 2956 1147 3065 1494
Q 3175 1841 3175 2156
z
M 1394 2969
Q 1625 3272 1939 3428
Q 2253 3584 2638 3584
Q 3175 3584 3472 3232
Q 3769 2881 3769 2247
Q 3769 1728 3584 1258
Q 3400 788 3053 416
Q 2822 169 2531 39
Q 2241 -91 1919 -91
Q 1547 -91 1294 64
Q 1041 219 916 525
L 556 -1331
L -19 -1331
L 922 3500
L 1497 3500
L 1394 2969
z
" transform="scale(0.015625)"/>
      <path id="DejaVuSans-Oblique-66" d="M 3059 4863
L 2969 4384
L 2419 4384
Q 2106 4384 1964 4261
Q 1822 4138 1753 3809
L 1691 3500
L 2638 3500
L 2553 3053
L 1606 3053
L 1013 0
L 434 0
L 1031 3053
L 481 3053
L 563 3500
L 1113 3500
L 1159 3744
Q 1278 4363 1576 4613
Q 1875 4863 2516 4863
L 3059 4863
z
" transform="scale(0.015625)"/>
     </defs>
     <use xlink:href="#DejaVuSans-Oblique-4c" transform="translate(0 0.09375)"/>
     <use xlink:href="#DejaVuSans-Oblique-70" transform="translate(55.712891 -16.3125) scale(0.7)"/>
     <use xlink:href="#DejaVuSans-Oblique-66" transform="translate(100.146484 -16.3125) scale(0.7)"/>
    </g>
   </g>
   <g id="text_3">
    <!-- $C_{pf}$ -->
    <g style="fill: #111827" transform="translate(161.803125 121.08) scale(0.12 -0.12)">
     <use xlink:href="#DejaVuSans-Oblique-43" transform="translate(0 0.78125)"/>
     <use xlink:href="#DejaVuSans-Oblique-70" transform="translate(69.824219 -15.625) scale(0.7)"/>
     <use xlink:href="#DejaVuSans-Oblique-66" transform="translate(114.257812 -15.625) scale(0.7)"/>
    </g>
   </g>
   <g id="text_4">
    <!-- $C_{out}$ -->
    <g style="fill: #111827" transform="translate(191.443125 51.984375) scale(0.12 -0.12)">
     <defs>
      <path id="DejaVuSans-Oblique-6f" d="M 1625 -91
Q 1009 -91 651 289
Q 294 669 294 1325
Q 294 1706 417 2101
Q 541 2497 738 2766
Q 1047 3184 1428 3384
Q 1809 3584 2291 3584
Q 2888 3584 3255 3212
Q 3622 2841 3622 2241
Q 3622 1825 3500 1412
Q 3378 1000 3181 728
Q 2875 309 2494 109
Q 2113 -91 1625 -91
z
M 891 1344
Q 891 869 1089 633
Q 1288 397 1691 397
Q 2269 397 2648 901
Q 3028 1406 3028 2181
Q 3028 2634 2825 2865
Q 2622 3097 2228 3097
Q 1903 3097 1650 2945
Q 1397 2794 1197 2484
Q 1050 2253 970 1956
Q 891 1659 891 1344
z
" transform="scale(0.015625)"/>
      <path id="DejaVuSans-Oblique-75" d="M 428 1388
L 838 3500
L 1416 3500
L 1006 1409
Q 975 1256 961 1147
Q 947 1038 947 966
Q 947 700 1109 554
Q 1272 409 1569 409
Q 2031 409 2368 721
Q 2706 1034 2809 1563
L 3194 3500
L 3769 3500
L 3091 0
L 2516 0
L 2631 550
Q 2388 244 2052 76
Q 1716 -91 1338 -91
Q 878 -91 622 161
Q 366 413 366 863
Q 366 956 381 1097
Q 397 1238 428 1388
z
" transform="scale(0.015625)"/>
      <path id="DejaVuSans-Oblique-74" d="M 2706 3500
L 2619 3053
L 1472 3053
L 1100 1153
Q 1081 1047 1072 975
Q 1063 903 1063 863
Q 1063 663 1183 572
Q 1303 481 1569 481
L 2150 481
L 2053 0
L 1503 0
Q 991 0 739 200
Q 488 400 488 806
Q 488 878 497 964
Q 506 1050 525 1153
L 897 3053
L 409 3053
L 500 3500
L 978 3500
L 1172 4494
L 1747 4494
L 1556 3500
L 2706 3500
z
" transform="scale(0.015625)"/>
     </defs>
     <use xlink:href="#DejaVuSans-Oblique-43" transform="translate(0 0.78125)"/>
     <use xlink:href="#DejaVuSans-Oblique-6f" transform="translate(69.824219 -15.625) scale(0.7)"/>
     <use xlink:href="#DejaVuSans-Oblique-75" transform="translate(112.651367 -15.625) scale(0.7)"/>
     <use xlink:href="#DejaVuSans-Oblique-74" transform="translate(157.016602 -15.625) scale(0.7)"/>
    </g>
   </g>
   <g id="text_5">
    <!-- hanging QWR -->
    <g style="fill: #111827" transform="translate(278.622187 144.598125) scale(0.12 -0.12)">
     <defs>
      <path id="DejaVuSans-68" d="M 3513 2113
L 3513 0
L 2938 0
L 2938 2094
Q 2938 2591 2744 2837
Q 2550 3084 2163 3084
Q 1697 3084 1428 2787
Q 1159 2491 1159 1978
L 1159 0
L 581 0
L 581 4863
L 1159 4863
L 1159 2956
Q 1366 3272 1645 3428
Q 1925 3584 2291 3584
Q 2894 3584 3203 3211
Q 3513 2838 3513 2113
z
" transform="scale(0.015625)"/>
      <path id="DejaVuSans-61" d="M 2194 1759
Q 1497 1759 1228 1600
Q 959 1441 959 1056
Q 959 750 1161 570
Q 1363 391 1709 391
Q 2188 391 2477 730
Q 2766 1069 2766 1631
L 2766 1759
L 2194 1759
z
M 3341 1997
L 3341 0
L 2766 0
L 2766 531
Q 2569 213 2275 61
Q 1981 -91 1556 -91
Q 1019 -91 701 211
Q 384 513 384 1019
Q 384 1609 779 1909
Q 1175 2209 1959 2209
L 2766 2209
L 2766 2266
Q 2766 2663 2505 2880
Q 2244 3097 1772 3097
Q 1472 3097 1187 3025
Q 903 2953 641 2809
L 641 3341
Q 956 3463 1253 3523
Q 1550 3584 1831 3584
Q 2591 3584 2966 3190
Q 3341 2797 3341 1997
z
" transform="scale(0.015625)"/>
      <path id="DejaVuSans-6e" d="M 3513 2113
L 3513 0
L 2938 0
L 2938 2094
Q 2938 2591 2744 2837
Q 2550 3084 2163 3084
Q 1697 3084 1428 2787
Q 1159 2491 1159 1978
L 1159 0
L 581 0
L 581 3500
L 1159 3500
L 1159 2956
Q 1366 3272 1645 3428
Q 1925 3584 2291 3584
Q 2894 3584 3203 3211
Q 3513 2838 3513 2113
z
" transform="scale(0.015625)"/>
      <path id="DejaVuSans-67" d="M 2906 1791
Q 2906 2416 2648 2759
Q 2391 3103 1925 3103
Q 1463 3103 1205 2759
Q 947 2416 947 1791
Q 947 1169 1205 825
Q 1463 481 1925 481
Q 2391 481 2648 825
Q 2906 1169 2906 1791
z
M 3481 434
Q 3481 -459 3084 -895
Q 2688 -1331 1869 -1331
Q 1566 -1331 1297 -1286
Q 1028 -1241 775 -1147
L 775 -588
Q 1028 -725 1275 -790
Q 1522 -856 1778 -856
Q 2344 -856 2625 -561
Q 2906 -266 2906 331
L 2906 616
Q 2728 306 2450 153
Q 2172 0 1784 0
Q 1141 0 747 490
Q 353 981 353 1791
Q 353 2603 747 3093
Q 1141 3584 1784 3584
Q 2172 3584 2450 3431
Q 2728 3278 2906 2969
L 2906 3500
L 3481 3500
L 3481 434
z
" transform="scale(0.015625)"/>
      <path id="DejaVuSans-69" d="M 603 3500
L 1178 3500
L 1178 0
L 603 0
L 603 3500
z
M 603 4863
L 1178 4863
L 1178 4134
L 603 4134
L 603 4863
z
" transform="scale(0.015625)"/>
      <path id="DejaVuSans-20" transform="scale(0.015625)"/>
      <path id="DejaVuSans-51" d="M 2522 4238
Q 1834 4238 1429 3725
Q 1025 3213 1025 2328
Q 1025 1447 1429 934
Q 1834 422 2522 422
Q 3209 422 3611 934
Q 4013 1447 4013 2328
Q 4013 3213 3611 3725
Q 3209 4238 2522 4238
z
M 3406 84
L 4238 -825
L 3475 -825
L 2784 -78
Q 2681 -84 2626 -87
Q 2572 -91 2522 -91
Q 1538 -91 948 567
Q 359 1225 359 2328
Q 359 3434 948 4092
Q 1538 4750 2522 4750
Q 3503 4750 4090 4092
Q 4678 3434 4678 2328
Q 4678 1516 4351 937
Q 4025 359 3406 84
z
" transform="scale(0.015625)"/>
      <path id="DejaVuSans-57" d="M 213 4666
L 850 4666
L 1831 722
L 2809 4666
L 3519 4666
L 4500 722
L 5478 4666
L 6119 4666
L 4947 0
L 4153 0
L 3169 4050
L 2175 0
L 1381 0
L 213 4666
z
" transform="scale(0.015625)"/>
      <path id="DejaVuSans-52" d="M 2841 2188
Q 3044 2119 3236 1894
Q 3428 1669 3622 1275
L 4263 0
L 3584 0
L 2988 1197
Q 2756 1666 2539 1819
Q 2322 1972 1947 1972
L 1259 1972
L 1259 0
L 628 0
L 628 4666
L 2053 4666
Q 2853 4666 3247 4331
Q 3641 3997 3641 3322
Q 3641 2881 3436 2590
Q 3231 2300 2841 2188
z
M 1259 4147
L 1259 2491
L 2053 2491
Q 2509 2491 2742 2702
Q 2975 2913 2975 3322
Q 2975 3731 2742 3939
Q 2509 4147 2053 4147
L 1259 4147
z
" transform="scale(0.015625)"/>
     </defs>
     <use xlink:href="#DejaVuSans-68"/>
     <use xlink:href="#DejaVuSans-61" transform="translate(63.378906 0)"/>
     <use xlink:href="#DejaVuSans-6e" transform="translate(124.658203 0)"/>
     <use xlink:href="#DejaVuSans-67" transform="translate(188.037109 0)"/>
     <use xlink:href="#DejaVuSans-69" transform="translate(251.513672 0)"/>
     <use xlink:href="#DejaVuSans-6e" transform="translate(279.296875 0)"/>
     <use xlink:href="#DejaVuSans-67" transform="translate(342.675781 0)"/>
     <use xlink:href="#DejaVuSans-20" transform="translate(406.152344 0)"/>
     <use xlink:href="#DejaVuSans-51" transform="translate(437.939453 0)"/>
     <use xlink:href="#DejaVuSans-57" transform="translate(516.650391 0)"/>
     <use xlink:href="#DejaVuSans-52" transform="translate(615.527344 0)"/>
    </g>
   </g>
   <g id="text_6">
    <!-- $C_{12}$ -->
    <g style="fill: #111827" transform="translate(286.603125 69.984375) scale(0.12 -0.12)">
     <defs>
      <path id="DejaVuSans-31" d="M 794 531
L 1825 531
L 1825 4091
L 703 3866
L 703 4441
L 1819 4666
L 2450 4666
L 2450 531
L 3481 531
L 3481 0
L 794 0
L 794 531
z
" transform="scale(0.015625)"/>
      <path id="DejaVuSans-32" d="M 1228 531
L 3431 531
L 3431 0
L 469 0
L 469 531
Q 828 903 1448 1529
Q 2069 2156 2228 2338
Q 2531 2678 2651 2914
Q 2772 3150 2772 3378
Q 2772 3750 2511 3984
Q 2250 4219 1831 4219
Q 1534 4219 1204 4116
Q 875 4013 500 3803
L 500 4441
Q 881 4594 1212 4672
Q 1544 4750 1819 4750
Q 2544 4750 2975 4387
Q 3406 4025 3406 3419
Q 3406 3131 3298 2873
Q 3191 2616 2906 2266
Q 2828 2175 2409 1742
Q 1991 1309 1228 531
z
" transform="scale(0.015625)"/>
     </defs>
     <use xlink:href="#DejaVuSans-Oblique-43" transform="translate(0 0.78125)"/>
     <use xlink:href="#DejaVuSans-31" transform="translate(69.824219 -15.625) scale(0.7)"/>
     <use xlink:href="#DejaVuSans-32" transform="translate(114.360352 -15.625) scale(0.7)"/>
    </g>
   </g>
   <g id="text_7">
    <!-- $K_{12}$ -->
    <g style="fill: #111827" transform="translate(335.443125 14.184375) scale(0.12 -0.12)">
     <defs>
      <path id="DejaVuSans-Oblique-4b" d="M 1081 4666
L 1716 4666
L 1331 2700
L 3781 4666
L 4622 4666
L 1850 2438
L 3878 0
L 3109 0
L 1247 2272
L 806 0
L 172 0
L 1081 4666
z
" transform="scale(0.015625)"/>
     </defs>
     <use xlink:href="#DejaVuSans-Oblique-4b" transform="translate(0 0.09375)"/>
     <use xlink:href="#DejaVuSans-31" transform="translate(65.576172 -16.3125) scale(0.7)"/>
     <use xlink:href="#DejaVuSans-32" transform="translate(110.112305 -16.3125) scale(0.7)"/>
    </g>
   </g>
   <g id="patch_6">
    <path d="M 67.723125 69.78
C 68.439173 69.78 69.125991 69.495511 69.632313 68.989188
C 70.138636 68.482866 70.423125 67.796048 70.423125 67.08
C 70.423125 66.363952 70.138636 65.677134 69.632313 65.170812
C 69.125991 64.664489 68.439173 64.38 67.723125 64.38
C 67.007077 64.38 66.320259 64.664489 65.813937 65.170812
C 65.307614 65.677134 65.023125 66.363952 65.023125 67.08
C 65.023125 67.796048 65.307614 68.482866 65.813937 68.989188
C 66.320259 69.495511 67.007077 69.78 67.723125 69.78
z
" clip-path="url(#pNORMALIZED)" style="fill: #ffffff; stroke: #111827; stroke-width: 1.8; stroke-linejoin: miter"/>
   </g>
   <g id="text_8">
    <!-- readout in -->
    <g style="fill: #111827" transform="translate(0 70.39125) scale(0.12 -0.12)">
     <defs>
      <path id="DejaVuSans-72" d="M 2631 2963
Q 2534 3019 2420 3045
Q 2306 3072 2169 3072
Q 1681 3072 1420 2755
Q 1159 2438 1159 1844
L 1159 0
L 581 0
L 581 3500
L 1159 3500
L 1159 2956
Q 1341 3275 1631 3429
Q 1922 3584 2338 3584
Q 2397 3584 2469 3576
Q 2541 3569 2628 3553
L 2631 2963
z
" transform="scale(0.015625)"/>
      <path id="DejaVuSans-65" d="M 3597 1894
L 3597 1613
L 953 1613
Q 991 1019 1311 708
Q 1631 397 2203 397
Q 2534 397 2845 478
Q 3156 559 3463 722
L 3463 178
Q 3153 47 2828 -22
Q 2503 -91 2169 -91
Q 1331 -91 842 396
Q 353 884 353 1716
Q 353 2575 817 3079
Q 1281 3584 2069 3584
Q 2775 3584 3186 3129
Q 3597 2675 3597 1894
z
M 3022 2063
Q 3016 2534 2758 2815
Q 2500 3097 2075 3097
Q 1594 3097 1305 2825
Q 1016 2553 972 2059
L 3022 2063
z
" transform="scale(0.015625)"/>
      <path id="DejaVuSans-64" d="M 2906 2969
L 2906 4863
L 3481 4863
L 3481 0
L 2906 0
L 2906 525
Q 2725 213 2448 61
Q 2172 -91 1784 -91
Q 1150 -91 751 415
Q 353 922 353 1747
Q 353 2572 751 3078
Q 1150 3584 1784 3584
Q 2172 3584 2448 3432
Q 2725 3281 2906 2969
z
M 947 1747
Q 947 1113 1208 752
Q 1469 391 1925 391
Q 2381 391 2643 752
Q 2906 1113 2906 1747
Q 2906 2381 2643 2742
Q 2381 3103 1925 3103
Q 1469 3103 1208 2742
Q 947 2381 947 1747
z
" transform="scale(0.015625)"/>
      <path id="DejaVuSans-6f" d="M 1959 3097
Q 1497 3097 1228 2736
Q 959 2375 959 1747
Q 959 1119 1226 758
Q 1494 397 1959 397
Q 2419 397 2687 759
Q 2956 1122 2956 1747
Q 2956 2369 2687 2733
Q 2419 3097 1959 3097
z
M 1959 3584
Q 2709 3584 3137 3096
Q 3566 2609 3566 1747
Q 3566 888 3137 398
Q 2709 -91 1959 -91
Q 1206 -91 779 398
Q 353 888 353 1747
Q 353 2609 779 3096
Q 1206 3584 1959 3584
z
" transform="scale(0.015625)"/>
      <path id="DejaVuSans-75" d="M 544 1381
L 544 3500
L 1119 3500
L 1119 1403
Q 1119 906 1312 657
Q 1506 409 1894 409
Q 2359 409 2629 706
Q 2900 1003 2900 1516
L 2900 3500
L 3475 3500
L 3475 0
L 2900 0
L 2900 538
Q 2691 219 2414 64
Q 2138 -91 1772 -91
Q 1169 -91 856 284
Q 544 659 544 1381
z
M 1991 3584
L 1991 3584
z
" transform="scale(0.015625)"/>
      <path id="DejaVuSans-74" d="M 1172 4494
L 1172 3500
L 2356 3500
L 2356 3053
L 1172 3053
L 1172 1153
Q 1172 725 1289 603
Q 1406 481 1766 481
L 2356 481
L 2356 0
L 1766 0
Q 1100 0 847 248
Q 594 497 594 1153
L 594 3053
L 172 3053
L 172 3500
L 594 3500
L 594 4494
L 1172 4494
z
" transform="scale(0.015625)"/>
     </defs>
     <use xlink:href="#DejaVuSans-72"/>
     <use xlink:href="#DejaVuSans-65" transform="translate(38.863281 0)"/>
     <use xlink:href="#DejaVuSans-61" transform="translate(100.386719 0)"/>
     <use xlink:href="#DejaVuSans-64" transform="translate(161.666016 0)"/>
     <use xlink:href="#DejaVuSans-6f" transform="translate(225.142578 0)"/>
     <use xlink:href="#DejaVuSans-75" transform="translate(286.324219 0)"/>
     <use xlink:href="#DejaVuSans-74" transform="translate(349.703125 0)"/>
     <use xlink:href="#DejaVuSans-20" transform="translate(388.912109 0)"/>
     <use xlink:href="#DejaVuSans-69" transform="translate(420.699219 0)"/>
     <use xlink:href="#DejaVuSans-6e" transform="translate(448.482422 0)"/>
    </g>
   </g>
   <g id="patch_7">
    <path d="M 170.323125 69.78
C 171.039173 69.78 171.725991 69.495511 172.232313 68.989188
C 172.738636 68.482866 173.023125 67.796048 173.023125 67.08
C 173.023125 66.363952 172.738636 65.677134 172.232313 65.170812
C 171.725991 64.664489 171.039173 64.38 170.323125 64.38
C 169.607077 64.38 168.920259 64.664489 168.413937 65.170812
C 167.907614 65.677134 167.623125 66.363952 167.623125 67.08
C 167.623125 67.796048 167.907614 68.482866 168.413937 68.989188
C 168.920259 69.495511 169.607077 69.78 170.323125 69.78
z
" clip-path="url(#pNORMALIZED)" style="fill: #111827; stroke: #111827; stroke-width: 1.8; stroke-linejoin: miter"/>
   </g>
   <g id="patch_8">
    <path d="M 262.123125 69.78
C 262.839173 69.78 263.525991 69.495511 264.032313 68.989188
C 264.538636 68.482866 264.823125 67.796048 264.823125 67.08
C 264.823125 66.363952 264.538636 65.677134 264.032313 65.170812
C 263.525991 64.664489 262.839173 64.38 262.123125 64.38
C 261.407077 64.38 260.720259 64.664489 260.213937 65.170812
C 259.707614 65.677134 259.423125 66.363952 259.423125 67.08
C 259.423125 67.796048 259.707614 68.482866 260.213937 68.989188
C 260.720259 69.495511 261.407077 69.78 262.123125 69.78
z
" clip-path="url(#pNORMALIZED)" style="fill: #111827; stroke: #111827; stroke-width: 1.8; stroke-linejoin: miter"/>
   </g>
   <g id="patch_9">
    <path d="M 377.323125 69.78
C 378.039173 69.78 378.725991 69.495511 379.232313 68.989188
C 379.738636 68.482866 380.023125 67.796048 380.023125 67.08
C 380.023125 66.363952 379.738636 65.677134 379.232313 65.170812
C 378.725991 64.664489 378.039173 64.38 377.323125 64.38
C 376.607077 64.38 375.920259 64.664489 375.413937 65.170812
C 374.907614 65.677134 374.623125 66.363952 374.623125 67.08
C 374.623125 67.796048 374.907614 68.482866 375.413937 68.989188
C 375.920259 69.495511 376.607077 69.78 377.323125 69.78
z
" clip-path="url(#pNORMALIZED)" style="fill: #111827; stroke: #111827; stroke-width: 1.8; stroke-linejoin: miter"/>
   </g>
   <g id="patch_10">
    <path d="M 409.723125 69.78
C 410.439173 69.78 411.125991 69.495511 411.632313 68.989188
C 412.138636 68.482866 412.423125 67.796048 412.423125 67.08
C 412.423125 66.363952 412.138636 65.677134 411.632313 65.170812
C 411.125991 64.664489 410.439173 64.38 409.723125 64.38
C 409.007077 64.38 408.320259 64.664489 407.813937 65.170812
C 407.307614 65.677134 407.023125 66.363952 407.023125 67.08
C 407.023125 67.796048 407.307614 68.482866 407.813937 68.989188
C 408.320259 69.495511 409.007077 69.78 409.723125 69.78
z
" clip-path="url(#pNORMALIZED)" style="fill: #ffffff; stroke: #111827; stroke-width: 1.8; stroke-linejoin: miter"/>
   </g>
   <g id="text_9">
    <!-- readout out -->
    <g style="fill: #111827" transform="translate(416.023125 70.39125) scale(0.12 -0.12)">
     <use xlink:href="#DejaVuSans-72"/>
     <use xlink:href="#DejaVuSans-65" transform="translate(38.863281 0)"/>
     <use xlink:href="#DejaVuSans-61" transform="translate(100.386719 0)"/>
     <use xlink:href="#DejaVuSans-64" transform="translate(161.666016 0)"/>
     <use xlink:href="#DejaVuSans-6f" transform="translate(225.142578 0)"/>
     <use xlink:href="#DejaVuSans-75" transform="translate(286.324219 0)"/>
     <use xlink:href="#DejaVuSans-74" transform="translate(349.703125 0)"/>
     <use xlink:href="#DejaVuSans-20" transform="translate(388.912109 0)"/>
     <use xlink:href="#DejaVuSans-6f" transform="translate(420.699219 0)"/>
     <use xlink:href="#DejaVuSans-75" transform="translate(481.880859 0)"/>
     <use xlink:href="#DejaVuSans-74" transform="translate(545.259766 0)"/>
    </g>
   </g>
   <g id="patch_11">
    <path d="M 262.123125 134.58
C 262.839173 134.58 263.525991 134.295511 264.032313 133.789188
C 264.538636 133.282866 264.823125 132.596048 264.823125 131.88
C 264.823125 131.163952 264.538636 130.477134 264.032313 129.970812
C 263.525991 129.464489 262.839173 129.18 262.123125 129.18
C 261.407077 129.18 260.720259 129.464489 260.213937 129.970812
C 259.707614 130.477134 259.423125 131.163952 259.423125 131.88
C 259.423125 132.596048 259.707614 133.282866 260.213937 133.789188
C 260.720259 134.295511 261.407077 134.58 262.123125 134.58
z
" clip-path="url(#pNORMALIZED)" style="fill: #111827; stroke: #111827; stroke-width: 1.8; stroke-linejoin: miter"/>
   </g>
   <g id="text_10">
    <!-- QWR head -->
    <g style="fill: #111827" transform="translate(192.399375 135.19125) scale(0.12 -0.12)">
     <use xlink:href="#DejaVuSans-51"/>
     <use xlink:href="#DejaVuSans-57" transform="translate(78.710938 0)"/>
     <use xlink:href="#DejaVuSans-52" transform="translate(177.587891 0)"/>
     <use xlink:href="#DejaVuSans-20" transform="translate(247.070312 0)"/>
     <use xlink:href="#DejaVuSans-68" transform="translate(278.857422 0)"/>
     <use xlink:href="#DejaVuSans-65" transform="translate(342.236328 0)"/>
     <use xlink:href="#DejaVuSans-61" transform="translate(403.759766 0)"/>
     <use xlink:href="#DejaVuSans-64" transform="translate(465.039062 0)"/>
    </g>
   </g>
   <g id="patch_12">
    <path d="M 377.323125 134.58
C 378.039173 134.58 378.725991 134.295511 379.232313 133.789188
C 379.738636 133.282866 380.023125 132.596048 380.023125 131.88
C 380.023125 131.163952 379.738636 130.477134 379.232313 129.970812
C 378.725991 129.464489 378.039173 129.18 377.323125 129.18
C 376.607077 129.18 375.920259 129.464489 375.413937 129.970812
C 374.907614 130.477134 374.623125 131.163952 374.623125 131.88
C 374.623125 132.596048 374.907614 133.282866 375.413937 133.789188
C 375.920259 134.295511 376.607077 134.58 377.323125 134.58
z
" clip-path="url(#pNORMALIZED)" style="fill: #ffffff; stroke: #111827; stroke-width: 1.8; stroke-linejoin: miter"/>
   </g>
   <g id="text_11">
    <!-- open tail -->
    <g style="fill: #111827" transform="translate(383.623125 135.19125) scale(0.12 -0.12)">
     <defs>
      <path id="DejaVuSans-70" d="M 1159 525
L 1159 -1331
L 581 -1331
L 581 3500
L 1159 3500
L 1159 2969
Q 1341 3281 1617 3432
Q 1894 3584 2278 3584
Q 2916 3584 3314 3078
Q 3713 2572 3713 1747
Q 3713 922 3314 415
Q 2916 -91 2278 -91
Q 1894 -91 1617 61
Q 1341 213 1159 525
z
M 3116 1747
Q 3116 2381 2855 2742
Q 2594 3103 2138 3103
Q 1681 3103 1420 2742
Q 1159 2381 1159 1747
Q 1159 1113 1420 752
Q 1681 391 2138 391
Q 2594 391 2855 752
Q 3116 1113 3116 1747
z
" transform="scale(0.015625)"/>
      <path id="DejaVuSans-6c" d="M 603 4863
L 1178 4863
L 1178 0
L 603 0
L 603 4863
z
" transform="scale(0.015625)"/>
     </defs>
     <use xlink:href="#DejaVuSans-6f"/>
     <use xlink:href="#DejaVuSans-70" transform="translate(61.181641 0)"/>
     <use xlink:href="#DejaVuSans-65" transform="translate(124.658203 0)"/>
     <use xlink:href="#DejaVuSans-6e" transform="translate(186.181641 0)"/>
     <use xlink:href="#DejaVuSans-20" transform="translate(249.560547 0)"/>
     <use xlink:href="#DejaVuSans-74" transform="translate(281.347656 0)"/>
     <use xlink:href="#DejaVuSans-61" transform="translate(320.556641 0)"/>
     <use xlink:href="#DejaVuSans-69" transform="translate(381.835938 0)"/>
     <use xlink:href="#DejaVuSans-6c" transform="translate(409.619141 0)"/>
    </g>
   </g>
  </g>
 </g>
 <defs>
  <clipPath id="pNORMALIZED">
   <rect x="2.455125" y="0" width="480.312" height="175.8"/>
  </clipPath>
 </defs>
</svg>
