<?xml version="1.0" encoding="utf-8" standalone="no"?>
<!DOCTYPE svg PUBLIC "-//W3C//DTD SVG 1.1//EN"
  "http://www.w3.org/Graphics/SVG/1.1/DTD/svg11.dtd">
<svg xmlns:xlink="http://www.w3.org/1999/xlink" width="401.136pt" height="177.226pt" viewBox="0 0 401.136 177.226" xmlns="http://www.w3.org/2000/svg" version="1.1">
 <metadata>
  <rdf:RDF xmlns:dc="http://purl.org/dc/elements/1.1/" xmlns:cc="http://creativecommons.org/ns#" xmlns:rdf="http://www.w3.org/1999/02/22-rdf-syntax-ns#">
   <cc:Work>
    <dc:type rdf:resource="http://purl.org/dc/dcmitype/StillImage"/>
    <dc:date>normalized</dc:date>
    <dc:format>image/svg+xml</dc:format>
    <dc:creator>
     <cc:Agent>
      <dc:title>Matplotlib v3.10.9, https://matplotlib.org/</dc:title>
     </cc:Agent>
    </dc:creator>
   </cc:Work>
  </rdf:RDF>
 </metadata>
 <defs>
  <style type="text/css">*{stroke-linejoin: round; stroke-linecap: butt}</style>
 </defs>
 <g id="figure_1">
  <g id="patch_1">
   <path d="M 0 177.226
L 401.136 177.226
L 401.136 0
L 0 0
L 0 177.226
z
" style="fill: none"/>
  </g>
  <g id="axes_1">
   <g id="line2d_1">
    <path d="M 27.588 11.68
L 40.143 11.68
L 52.698 11.68
" clip-path="url(#pNORMALIZED)" style="fill: none; stroke: #111827; stroke-width: 2; stroke-linecap: round"/>
   </g>
   <g id="line2d_2">
    <path d="M 348.438 11.68
L 360.993 11.68
L 373.548 11.68
" clip-path="url(#pNORMALIZED)" style="fill: none; stroke: #111827; stroke-width: 2; stroke-linecap: round"/>
   </g>
   <g id="line2d_3">
    <path d="M 52.698 11.68
L 90.363 11.68
L 128.028 11.68
" clip-path="url(#pNORMALIZED)" style="fill: none; stroke: #111827; stroke-width: 2; stroke-linecap: round"/>
   </g>
   <g id="line2d_4">
    <path d="M 128.028 67.48
L 200.568 67.48
L 273.108 67.48
" clip-path="url(#pNORMALIZED)" style="fill: none; stroke: #111827; stroke-width: 2; stroke-linecap: round"/>
   </g>
   <g id="line2d_5">
    <path d="M 273.108 11.68
L 310.773 11.68
L 348.438 11.68
" clip-path="url(#pNORMALIZED)" style="fill: none; stroke: #111827; stroke-width: 2; stroke-linecap: round"/>
   </g>
   <g id="line2d_6">
    <path d="M 128.028 126.07
L 200.568 126.07
L 273.108 126.07
" clip-path="url(#pNORMALIZED)" style="fill: none; stroke: #111827; stroke-width: 2; stroke-linecap: round"/>
   </g>
   <g id="line2d_7">
    <path d="M 128.028 11.68
L 128.028 36.34
M 137.028 36.34
L 119.028 36.34
M 137.028 42.82
L 119.028 42.82
M 128.028 42.82
L 128.028 67.48
" clip-path="url(#pNORMALIZED)" style="fill: none; stroke: #111827; stroke-width: 2; stroke-linecap: round"/>
   </g>
   <g id="line2d_8">
    <path d="M 273.108 67.48
L 273.108 42.82
M 264.108 42.82
L 282.108 42.82
M 264.108 36.34
L 282.108 36.34
M 273.108 36.34
L 273.108 11.68
" clip-path="url(#pNORMALIZED)" style="fill: none; stroke: #111827; stroke-width: 2; stroke-linecap: round"/>
   </g>
   <g id="line2d_9">
    <path d="M 128.028 126.07
L 128.028 137.788
L 128.028 149.506
" clip-path="url(#pNORMALIZED)" style="fill: none; stroke: #111827; stroke-width: 2; stroke-linecap: round"/>
   </g>
   <g id="line2d_10">
    <path d="M 128.028 149.506
L 128.028 163.906
L 119.028 163.906
L 137.028 163.906
M 121.728 168.226
L 134.328 168.226
M 126.228 172.546
L 129.828 172.546
" clip-path="url(#pNORMALIZED)" style="fill: none; stroke: #111827; stroke-width: 2; stroke-linecap: round"/>
   </g>
   <g id="line2d_11">
    <path d="M 215.913 67.48
L 215.913 93.535
M 224.913 93.535
L 206.913 93.535
M 224.913 100.015
L 206.913 100.015
M 215.913 100.015
L 215.913 126.07
" clip-path="url(#pNORMALIZED)" style="fill: none; stroke: #111827; stroke-width: 2; stroke-linecap: round"/>
   </g>
   <g id="line2d_12">
    <path d="M 235.164 76.408
L 235.164 96.775
L 235.164 117.142
" clip-path="url(#pNORMALIZED)" style="fill: none; stroke-dasharray: 7.4,3.2; stroke-dashoffset: 0; stroke: #111827; stroke-width: 2"/>
   </g>
   <g id="text_1">
    <!-- $\lambda/4\ \mathrm{QWR}$ -->
    <g style="fill: #111827" transform="translate(169.978 140.307813) scale(0.14 -0.14)">
     <defs>
      <path id="DejaVuSans-Oblique-3bb" d="M 2350 4316
L 3125 0
L 2516 0
L 2038 2588
L 328 0
L -281 0
L 1903 3356
L 1794 3975
Q 1725 4369 1391 4369
L 1091 4369
L 1184 4863
L 1550 4856
Q 2253 4847 2350 4316
z
" transform="scale(0.015625)"/>
      <path id="DejaVuSans-2f" d="M 1625 4666
L 2156 4666
L 531 -594
L 0 -594
L 1625 4666
z
" transform="scale(0.015625)"/>
      <path id="DejaVuSans-34" d="M 2419 4116
L 825 1625
L 2419 1625
L 2419 4116
z
M 2253 4666
L 3047 4666
L 3047 1625
L 3713 1625
L 3713 1100
L 3047 1100
L 3047 0
L 2419 0
L 2419 1100
L 313 1100
L 313 1709
L 2253 4666
z
" transform="scale(0.015625)"/>
      <path id="DejaVuSans-51" d="M 2522 4238
Q 1834 4238 1429 3725
Q 1025 3213 1025 2328
Q 1025 1447 1429 934
Q 1834 422 2522 422
Q 3209 422 3611 934
Q 4013 1447 4013 2328
Q 4013 3213 3611 3725
Q 3209 4238 2522 4238
z
M 3406 84
L 4238 -825
L 3475 -825
L 2784 -78
Q 2681 -84 2626 -87
Q 2572 -91 2522 -91
Q 1538 -91 948 567
Q 359 1225 359 2328
Q 359 3434 948 4092
Q 1538 4750 2522 4750
Q 3503 4750 4090 4092
Q 4678 3434 4678 2328
Q 4678 1516 4351 937
Q 4025 359 3406 84
z
" transform="scale(0.015625)"/>
      <path id="DejaVuSans-57" d="M 213 4666
L 850 4666
L 1831 722
L 2809 4666
L 3519 4666
L 4500 722
L 5478 4666
L 6119 4666
L 4947 0
L 4153 0
L 3169 4050
L 2175 0
L 1381 0
L 213 4666
z
" transform="scale(0.015625)"/>
      <path id="DejaVuSans-52" d="M 2841 2188
Q 3044 2119 3236 1894
Q 3428 1669 3622 1275
L 4263 0
L 3584 0
L 2988 1197
Q 2756 1666 2539 1819
Q 2322 1972 1947 1972
L 1259 1972
L 1259 0
L 628 0
L 628 4666
L 2053 4666
Q 2853 4666 3247 4331
Q 3641 3997 3641 3322
Q 3641 2881 3436 2590
Q 3231 2300 2841 2188
z
M 1259 4147
L 1259 2491
L 2053 2491
Q 2509 2491 2742 2702
Q 2975 2913 2975 3322
Q 2975 3731 2742 3939
Q 2509 4147 2053 4147
L 1259 4147
z
" transform="scale(0.015625)"/>
     </defs>
     <use xlink:href="#DejaVuSans-Oblique-3bb" transform="translate(0 0.015625)"/>
     <use xlink:href="#DejaVuSans-2f" transform="translate(59.179688 0.015625)"/>
     <use xlink:href="#DejaVuSans-34" transform="translate(92.871094 0.015625)"/>
     <use xlink:href="#DejaVuSans-51" transform="translate(188.964519 0.015625)"/>
     <use xlink:href="#DejaVuSans-57" transform="translate(267.675457 0.015625)"/>
     <use xlink:href="#DejaVuSans-52" transform="translate(366.55241 0.015625)"/>
    </g>
   </g>
   <g id="text_2">
    <!-- $C_{c,\mathrm{in}}$ -->
    <g style="fill: #111827" transform="translate(140.628 43.08) scale(0.14 -0.14)">
     <defs>
      <path id="DejaVuSans-Oblique-43" d="M 4447 4306
L 4319 3641
Q 4019 3944 3683 4091
Q 3347 4238 2956 4238
Q 2422 4238 2017 3981
Q 1613 3725 1319 3200
Q 1131 2863 1032 2486
Q 934 2109 934 1728
Q 934 1091 1264 756
Q 1594 422 2222 422
Q 2656 422 3056 561
Q 3456 700 3834 978
L 3688 231
Q 3316 72 2936 -9
Q 2556 -91 2175 -91
Q 1278 -91 773 396
Q 269 884 269 1753
Q 269 2309 461 2846
Q 653 3384 1013 3828
Q 1394 4300 1883 4525
Q 2372 4750 3022 4750
Q 3422 4750 3780 4639
Q 4138 4528 4447 4306
z
" transform="scale(0.015625)"/>
      <path id="DejaVuSans-Oblique-63" d="M 3431 3366
L 3316 2797
Q 3109 2947 2876 3022
Q 2644 3097 2394 3097
Q 2119 3097 1870 3000
Q 1622 2903 1453 2725
Q 1184 2453 1037 2087
Q 891 1722 891 1331
Q 891 859 1127 628
Q 1363 397 1844 397
Q 2081 397 2348 469
Q 2616 541 2906 684
L 2797 116
Q 2547 13 2283 -39
Q 2019 -91 1741 -91
Q 1044 -91 669 257
Q 294 606 294 1253
Q 294 1797 489 2255
Q 684 2713 1069 3078
Q 1331 3328 1684 3456
Q 2038 3584 2456 3584
Q 2700 3584 2940 3529
Q 3181 3475 3431 3366
z
" transform="scale(0.015625)"/>
      <path id="DejaVuSans-2c" d="M 750 794
L 1409 794
L 1409 256
L 897 -744
L 494 -744
L 750 256
L 750 794
z
" transform="scale(0.015625)"/>
      <path id="DejaVuSans-69" d="M 603 3500
L 1178 3500
L 1178 0
L 603 0
L 603 3500
z
M 603 4863
L 1178 4863
L 1178 4134
L 603 4134
L 603 4863
z
" transform="scale(0.015625)"/>
      <path id="DejaVuSans-6e" d="M 3513 2113
L 3513 0
L 2938 0
L 2938 2094
Q 2938 2591 2744 2837
Q 2550 3084 2163 3084
Q 1697 3084 1428 2787
Q 1159 2491 1159 1978
L 1159 0
L 581 0
L 581 3500
L 1159 3500
L 1159 2956
Q 1366 3272 1645 3428
Q 1925 3584 2291 3584
Q 2894 3584 3203 3211
Q 3513 2838 3513 2113
z
" transform="scale(0.015625)"/>
     </defs>
     <use xlink:href="#DejaVuSans-Oblique-43" transform="translate(0 0.78125)"/>
     <use xlink:href="#DejaVuSans-Oblique-63" transform="translate(69.824219 -15.625) scale(0.7)"/>
     <use xlink:href="#DejaVuSans-2c" transform="translate(108.310547 -15.625) scale(0.7)"/>
     <use xlink:href="#DejaVuSans-69" transform="translate(144.199219 -15.625) scale(0.7)"/>
     <use xlink:href="#DejaVuSans-6e" transform="translate(163.647461 -15.625) scale(0.7)"/>
    </g>
   </g>
   <g id="text_3">
    <!-- $C_{c,\mathrm{out}}$ -->
    <g style="fill: #111827" transform="translate(285.708 43.08) scale(0.14 -0.14)">
     <defs>
      <path id="DejaVuSans-6f" d="M 1959 3097
Q 1497 3097 1228 2736
Q 959 2375 959 1747
Q 959 1119 1226 758
Q 1494 397 1959 397
Q 2419 397 2687 759
Q 2956 1122 2956 1747
Q 2956 2369 2687 2733
Q 2419 3097 1959 3097
z
M 1959 3584
Q 2709 3584 3137 3096
Q 3566 2609 3566 1747
Q 3566 888 3137 398
Q 2709 -91 1959 -91
Q 1206 -91 779 398
Q 353 888 353 1747
Q 353 2609 779 3096
Q 1206 3584 1959 3584
z
" transform="scale(0.015625)"/>
      <path id="DejaVuSans-75" d="M 544 1381
L 544 3500
L 1119 3500
L 1119 1403
Q 1119 906 1312 657
Q 1506 409 1894 409
Q 2359 409 2629 706
Q 2900 1003 2900 1516
L 2900 3500
L 3475 3500
L 3475 0
L 2900 0
L 2900 538
Q 2691 219 2414 64
Q 2138 -91 1772 -91
Q 1169 -91 856 284
Q 544 659 544 1381
z
M 1991 3584
L 1991 3584
z
" transform="scale(0.015625)"/>
      <path id="DejaVuSans-74" d="M 1172 4494
L 1172 3500
L 2356 3500
L 2356 3053
L 1172 3053
L 1172 1153
Q 1172 725 1289 603
Q 1406 481 1766 481
L 2356 481
L 2356 0
L 1766 0
Q 1100 0 847 248
Q 594 497 594 1153
L 594 3053
L 172 3053
L 172 3500
L 594 3500
L 594 4494
L 1172 4494
z
" transform="scale(0.015625)"/>
     </defs>
     <use xlink:href="#DejaVuSans-Oblique-43" transform="translate(0 0.78125)"/>
     <use xlink:href="#DejaVuSans-Oblique-63" transform="translate(69.824219 -15.625) scale(0.7)"/>
     <use xlink:href="#DejaVuSans-2c" transform="translate(108.310547 -15.625) scale(0.7)"/>
     <use xlink:href="#DejaVuSans-6f" transform="translate(144.199219 -15.625) scale(0.7)"/>
     <use xlink:href="#DejaVuSans-75" transform="translate(187.026367 -15.625) scale(0.7)"/>
     <use xlink:href="#DejaVuSans-74" transform="translate(231.391602 -15.625) scale(0.7)"/>
    </g>
   </g>
   <g id="text_4">
    <!-- $C_{12}$ -->
    <g style="fill: #111827" transform="translate(180.633 100.638125) scale(0.14 -0.14)">
     <defs>
      <path id="DejaVuSans-31" d="M 794 531
L 1825 531
L 1825 4091
L 703 3866
L 703 4441
L 1819 4666
L 2450 4666
L 2450 531
L 3481 531
L 3481 0
L 794 0
L 794 531
z
" transform="scale(0.015625)"/>
      <path id="DejaVuSans-32" d="M 1228 531
L 3431 531
L 3431 0
L 469 0
L 469 531
Q 828 903 1448 1529
Q 2069 2156 2228 2338
Q 2531 2678 2651 2914
Q 2772 3150 2772 3378
Q 2772 3750 2511 3984
Q 2250 4219 1831 4219
Q 1534 4219 1204 4116
Q 875 4013 500 3803
L 500 4441
Q 881 4594 1212 4672
Q 1544 4750 1819 4750
Q 2544 4750 2975 4387
Q 3406 4025 3406 3419
Q 3406 3131 3298 2873
Q 3191 2616 2906 2266
Q 2828 2175 2409 1742
Q 1991 1309 1228 531
z
" transform="scale(0.015625)"/>
     </defs>
     <use xlink:href="#DejaVuSans-Oblique-43" transform="translate(0 0.78125)"/>
     <use xlink:href="#DejaVuSans-31" transform="translate(69.824219 -15.625) scale(0.7)"/>
     <use xlink:href="#DejaVuSans-32" transform="translate(114.360352 -15.625) scale(0.7)"/>
    </g>
   </g>
   <g id="text_5">
    <!-- $M_{12}$ -->
    <g style="fill: #111827" transform="translate(238.764 100.638125) scale(0.14 -0.14)">
     <defs>
      <path id="DejaVuSans-Oblique-4d" d="M 1081 4666
L 2028 4666
L 2572 1522
L 4378 4666
L 5350 4666
L 4441 0
L 3828 0
L 4622 4091
L 2791 897
L 2175 897
L 1581 4103
L 788 0
L 172 0
L 1081 4666
z
" transform="scale(0.015625)"/>
     </defs>
     <use xlink:href="#DejaVuSans-Oblique-4d" transform="translate(0 0.09375)"/>
     <use xlink:href="#DejaVuSans-31" transform="translate(86.279297 -16.3125) scale(0.7)"/>
     <use xlink:href="#DejaVuSans-32" transform="translate(130.81543 -16.3125) scale(0.7)"/>
    </g>
   </g>
   <g id="patch_2">
    <path d="M 27.588 15.28
C 28.542731 15.28 29.458488 14.900681 30.133584 14.225584
C 30.808681 13.550488 31.188 12.634731 31.188 11.68
C 31.188 10.725269 30.808681 9.809512 30.133584 9.134416
C 29.458488 8.459319 28.542731 8.08 27.588 8.08
C 26.633269 8.08 25.717512 8.459319 25.042416 9.134416
C 24.367319 9.809512 23.988 10.725269 23.988 11.68
C 23.988 12.634731 24.367319 13.550488 25.042416 14.225584
C 25.717512 14.900681 26.633269 15.28 27.588 15.28
z
" clip-path="url(#pNORMALIZED)" style="fill: #ffffff; stroke: #111827; stroke-width: 2; stroke-linejoin: miter"/>
   </g>
   <g id="text_6">
    <!-- $P_1$ -->
    <g style="fill: #111827" transform="translate(5.268 15.543125) scale(0.14 -0.14)">
     <defs>
      <path id="DejaVuSans-Oblique-50" d="M 1081 4666
L 2541 4666
Q 3178 4666 3512 4369
Q 3847 4072 3847 3500
Q 3847 2731 3353 2303
Q 2859 1875 1966 1875
L 1172 1875
L 806 0
L 172 0
L 1081 4666
z
M 1613 4147
L 1275 2394
L 2069 2394
Q 2606 2394 2893 2669
Q 3181 2944 3181 3456
Q 3181 3784 2986 3965
Q 2791 4147 2438 4147
L 1613 4147
z
" transform="scale(0.015625)"/>
     </defs>
     <use xlink:href="#DejaVuSans-Oblique-50" transform="translate(0 0.09375)"/>
     <use xlink:href="#DejaVuSans-31" transform="translate(60.302734 -16.3125) scale(0.7)"/>
    </g>
   </g>
   <g id="patch_3">
    <path d="M 373.548 15.28
C 374.502731 15.28 375.418488 14.900681 376.093584 14.225584
C 376.768681 13.550488 377.148 12.634731 377.148 11.68
C 377.148 10.725269 376.768681 9.809512 376.093584 9.134416
C 375.418488 8.459319 374.502731 8.08 373.548 8.08
C 372.593269 8.08 371.677512 8.459319 371.002416 9.134416
C 370.327319 9.809512 369.948 10.725269 369.948 11.68
C 369.948 12.634731 370.327319 13.550488 371.002416 14.225584
C 371.677512 14.900681 372.593269 15.28 373.548 15.28
z
" clip-path="url(#pNORMALIZED)" style="fill: #ffffff; stroke: #111827; stroke-width: 2; stroke-linejoin: miter"/>
   </g>
   <g id="text_7">
    <!-- $P_2$ -->
    <g style="fill: #111827" transform="translate(380.748 15.543125) scale(0.14 -0.14)">
     <use xlink:href="#DejaVuSans-Oblique-50" transform="translate(0 0.09375)"/>
     <use xlink:href="#DejaVuSans-32" transform="translate(60.302734 -16.3125) scale(0.7)"/>
    </g>
   </g>
   <g id="patch_4">
    <path d="M 273.108 129.67
C 274.062731 129.67 274.978488 129.290681 275.653584 128.615584
C 276.328681 127.940488 276.708 127.024731 276.708 126.07
C 276.708 125.115269 276.328681 124.199512 275.653584 123.524416
C 274.978488 122.849319 274.062731 122.47 273.108 122.47
C 272.153269 122.47 271.237512 122.849319 270.562416 123.524416
C 269.887319 124.199512 269.508 125.115269 269.508 126.07
C 269.508 127.024731 269.887319 127.940488 270.562416 128.615584
C 271.237512 129.290681 272.153269 129.67 273.108 129.67
z
" clip-path="url(#pNORMALIZED)" style="fill: #ffffff; stroke: #111827; stroke-width: 2; stroke-linejoin: miter"/>
   </g>
   <g id="patch_5">
    <path d="M 52.698 15.28
C 53.652731 15.28 54.568488 14.900681 55.243584 14.225584
C 55.918681 13.550488 56.298 12.634731 56.298 11.68
C 56.298 10.725269 55.918681 9.809512 55.243584 9.134416
C 54.568488 8.459319 53.652731 8.08 52.698 8.08
C 51.743269 8.08 50.827512 8.459319 50.152416 9.134416
C 49.477319 9.809512 49.098 10.725269 49.098 11.68
C 49.098 12.634731 49.477319 13.550488 50.152416 14.225584
C 50.827512 14.900681 51.743269 15.28 52.698 15.28
z
" clip-path="url(#pNORMALIZED)" style="fill: #111827; stroke: #111827; stroke-width: 2; stroke-linejoin: miter"/>
   </g>
   <g id="patch_6">
    <path d="M 128.028 15.28
C 128.982731 15.28 129.898488 14.900681 130.573584 14.225584
C 131.248681 13.550488 131.628 12.634731 131.628 11.68
C 131.628 10.725269 131.248681 9.809512 130.573584 9.134416
C 129.898488 8.459319 128.982731 8.08 128.028 8.08
C 127.073269 8.08 126.157512 8.459319 125.482416 9.134416
C 124.807319 9.809512 124.428 10.725269 124.428 11.68
C 124.428 12.634731 124.807319 13.550488 125.482416 14.225584
C 126.157512 14.900681 127.073269 15.28 128.028 15.28
z
" clip-path="url(#pNORMALIZED)" style="fill: #111827; stroke: #111827; stroke-width: 2; stroke-linejoin: miter"/>
   </g>
   <g id="patch_7">
    <path d="M 128.028 71.08
C 128.982731 71.08 129.898488 70.700681 130.573584 70.025584
C 131.248681 69.350488 131.628 68.434731 131.628 67.48
C 131.628 66.525269 131.248681 65.609512 130.573584 64.934416
C 129.898488 64.259319 128.982731 63.88 128.028 63.88
C 127.073269 63.88 126.157512 64.259319 125.482416 64.934416
C 124.807319 65.609512 124.428 66.525269 124.428 67.48
C 124.428 68.434731 124.807319 69.350488 125.482416 70.025584
C 126.157512 70.700681 127.073269 71.08 128.028 71.08
z
" clip-path="url(#pNORMALIZED)" style="fill: #111827; stroke: #111827; stroke-width: 2; stroke-linejoin: miter"/>
   </g>
   <g id="patch_8">
    <path d="M 273.108 71.08
C 274.062731 71.08 274.978488 70.700681 275.653584 70.025584
C 276.328681 69.350488 276.708 68.434731 276.708 67.48
C 276.708 66.525269 276.328681 65.609512 275.653584 64.934416
C 274.978488 64.259319 274.062731 63.88 273.108 63.88
C 272.153269 63.88 271.237512 64.259319 270.562416 64.934416
C 269.887319 65.609512 269.508 66.525269 269.508 67.48
C 269.508 68.434731 269.887319 69.350488 270.562416 70.025584
C 271.237512 70.700681 272.153269 71.08 273.108 71.08
z
" clip-path="url(#pNORMALIZED)" style="fill: #111827; stroke: #111827; stroke-width: 2; stroke-linejoin: miter"/>
   </g>
   <g id="patch_9">
    <path d="M 273.108 15.28
C 274.062731 15.28 274.978488 14.900681 275.653584 14.225584
C 276.328681 13.550488 276.708 12.634731 276.708 11.68
C 276.708 10.725269 276.328681 9.809512 275.653584 9.134416
C 274.978488 8.459319 274.062731 8.08 273.108 8.08
C 272.153269 8.08 271.237512 8.459319 270.562416 9.134416
C 269.887319 9.809512 269.508 10.725269 269.508 11.68
C 269.508 12.634731 269.887319 13.550488 270.562416 14.225584
C 271.237512 14.900681 272.153269 15.28 273.108 15.28
z
" clip-path="url(#pNORMALIZED)" style="fill: #111827; stroke: #111827; stroke-width: 2; stroke-linejoin: miter"/>
   </g>
   <g id="patch_10">
    <path d="M 348.438 15.28
C 349.392731 15.28 350.308488 14.900681 350.983584 14.225584
C 351.658681 13.550488 352.038 12.634731 352.038 11.68
C 352.038 10.725269 351.658681 9.809512 350.983584 9.134416
C 350.308488 8.459319 349.392731 8.08 348.438 8.08
C 347.483269 8.08 346.567512 8.459319 345.892416 9.134416
C 345.217319 9.809512 344.838 10.725269 344.838 11.68
C 344.838 12.634731 345.217319 13.550488 345.892416 14.225584
C 346.567512 14.900681 347.483269 15.28 348.438 15.28
z
" clip-path="url(#pNORMALIZED)" style="fill: #111827; stroke: #111827; stroke-width: 2; stroke-linejoin: miter"/>
   </g>
   <g id="patch_11">
    <path d="M 128.028 129.67
C 128.982731 129.67 129.898488 129.290681 130.573584 128.615584
C 131.248681 127.940488 131.628 127.024731 131.628 126.07
C 131.628 125.115269 131.248681 124.199512 130.573584 123.524416
C 129.898488 122.849319 128.982731 122.47 128.028 122.47
C 127.073269 122.47 126.157512 122.849319 125.482416 123.524416
C 124.807319 124.199512 124.428 125.115269 124.428 126.07
C 124.428 127.024731 124.807319 127.940488 125.482416 128.615584
C 126.157512 129.290681 127.073269 129.67 128.028 129.67
z
" clip-path="url(#pNORMALIZED)" style="fill: #111827; stroke: #111827; stroke-width: 2; stroke-linejoin: miter"/>
   </g>
   <g id="patch_12">
    <path d="M 188.9616 71.08
C 189.916331 71.08 190.832088 70.700681 191.507184 70.025584
C 192.182281 69.350488 192.5616 68.434731 192.5616 67.48
C 192.5616 66.525269 192.182281 65.609512 191.507184 64.934416
C 190.832088 64.259319 189.916331 63.88 188.9616 63.88
C 188.006869 63.88 187.091112 64.259319 186.416016 64.934416
C 185.740919 65.609512 185.3616 66.525269 185.3616 67.48
C 185.3616 68.434731 185.740919 69.350488 186.416016 70.025584
C 187.091112 70.700681 188.006869 71.08 188.9616 71.08
z
" clip-path="url(#pNORMALIZED)" style="fill: #111827; stroke: #111827; stroke-width: 2; stroke-linejoin: miter"/>
   </g>
   <g id="patch_13">
    <path d="M 253.1316 71.08
C 254.086331 71.08 255.002088 70.700681 255.677184 70.025584
C 256.352281 69.350488 256.7316 68.434731 256.7316 67.48
C 256.7316 66.525269 256.352281 65.609512 255.677184 64.934416
C 255.002088 64.259319 254.086331 63.88 253.1316 63.88
C 252.176869 63.88 251.261112 64.259319 250.586016 64.934416
C 249.910919 65.609512 249.5316 66.525269 249.5316 67.48
C 249.5316 68.434731 249.910919 69.350488 250.586016 70.025584
C 251.261112 70.700681 252.176869 71.08 253.1316 71.08
z
" clip-path="url(#pNORMALIZED)" style="fill: #111827; stroke: #111827; stroke-width: 2; stroke-linejoin: miter"/>
   </g>
  </g>
 </g>
 <defs>
  <clipPath id="pNORMALIZED">
   <rect x="0" y="0" width="401.136" height="177.226"/>
  </clipPath>
 </defs>
</svg>
