<?xml version="1.0" encoding="utf-8" standalone="no"?>
<!DOCTYPE svg PUBLIC "-//W3C//DTD SVG 1.1//EN"
  "http://www.w3.org/Graphics/SVG/1.1/DTD/svg11.dtd">
<svg xmlns:xlink="http://www.w3.org/1999/xlink" width="398.553176pt" height="177.226pt" viewBox="0 0 398.553176 177.226" xmlns="http://www.w3.org/2000/svg" version="1.1">
 <metadata>
  <rdf:RDF xmlns:dc="http://purl.org/dc/elements/1.1/" xmlns:cc="http://creativecommons.org/ns#" xmlns:rdf="http://www.w3.org/1999/02/22-rdf-syntax-ns#">
   <cc:Work>
    <dc:type rdf:resource="http://purl.org/dc/dcmitype/StillImage"/>
    <dc:date>normalized</dc:date>
    <dc:format>image/svg+xml</dc:format>
    <dc:creator>
     <cc:Agent>
      <dc:title>Matplotlib v3.10.9, https://matplotlib.org/</dc:title>
     </cc:Agent>
    </dc:creator>
   </cc:Work>
  </rdf:RDF>
 </metadata>
 <defs>
  <style type="text/css">*{stroke-linejoin: round; stroke-linecap: butt}</style>
 </defs>
 <g id="figure_1">
  <g id="patch_1">
   <path d="M 0 177.226
L 398.553176 177.226
L 398.553176 0
L 0 0
L 0 177.226
z
" style="fill: none"/>
  </g>
  <g id="axes_1">
   <g id="line2d_1">
    <path d="M 25.629176 11.68
L 38.184176 11.68
L 50.739176 11.68
" clip-path="url(#pNORMALIZED)" style="fill: none; stroke: #111827; stroke-width: 2; stroke-linecap: round"/>
   </g>
   <g id="line2d_2">
    <path d="M 346.479176 11.68
L 359.034176 11.68
L 371.589176 11.68
" clip-path="url(#pNORMALIZED)" style="fill: none; stroke: #111827; stroke-width: 2; stroke-linecap: round"/>
   </g>
   <g id="line2d_3">
    <path d="M 50.739176 11.68
L 88.404176 11.68
L 126.069176 11.68
" clip-path="url(#pNORMALIZED)" style="fill: none; stroke: #111827; stroke-width: 2; stroke-linecap: round"/>
   </g>
   <g id="line2d_4">
    <path d="M 126.069176 67.48
L 198.609176 67.48
L 271.149176 67.48
" clip-path="url(#pNORMALIZED)" style="fill: none; stroke: #111827; stroke-width: 2; stroke-linecap: round"/>
   </g>
   <g id="line2d_5">
    <path d="M 271.149176 11.68
L 308.814176 11.68
L 346.479176 11.68
" clip-path="url(#pNORMALIZED)" style="fill: none; stroke: #111827; stroke-width: 2; stroke-linecap: round"/>
   </g>
   <g id="line2d_6">
    <path d="M 126.069176 126.07
L 198.609176 126.07
L 271.149176 126.07
" clip-path="url(#pNORMALIZED)" style="fill: none; stroke: #111827; stroke-width: 2; stroke-linecap: round"/>
   </g>
   <g id="line2d_7">
    <path d="M 126.069176 11.68
L 126.069176 36.34
M 135.069176 36.34
L 117.069176 36.34
M 135.069176 42.82
L 117.069176 42.82
M 126.069176 42.82
L 126.069176 67.48
" clip-path="url(#pNORMALIZED)" style="fill: none; stroke: #111827; stroke-width: 2; stroke-linecap: round"/>
   </g>
   <g id="line2d_8">
    <path d="M 271.149176 67.48
L 271.149176 42.82
M 262.149176 42.82
L 280.149176 42.82
M 262.149176 36.34
L 280.149176 36.34
M 271.149176 36.34
L 271.149176 11.68
" clip-path="url(#pNORMALIZED)" style="fill: none; stroke: #111827; stroke-width: 2; stroke-linecap: round"/>
   </g>
   <g id="line2d_9">
    <path d="M 126.069176 126.07
L 126.069176 137.788
L 126.069176 149.506
" clip-path="url(#pNORMALIZED)" style="fill: none; stroke: #111827; stroke-width: 2; stroke-linecap: round"/>
   </g>
   <g id="line2d_10">
    <path d="M 126.069176 149.506
L 126.069176 163.906
L 117.069176 163.906
L 135.069176 163.906
M 119.769176 168.226
L 132.369176 168.226
M 124.269176 172.546
L 127.869176 172.546
" clip-path="url(#pNORMALIZED)" style="fill: none; stroke: #111827; stroke-width: 2; stroke-linecap: round"/>
   </g>
   <g id="line2d_11">
    <path d="M 213.954176 67.48
L 213.954176 93.535
M 222.954176 93.535
L 204.954176 93.535
M 222.954176 100.015
L 204.954176 100.015
M 213.954176 100.015
L 213.954176 126.07
" clip-path="url(#pNORMALIZED)" style="fill: none; stroke: #111827; stroke-width: 2; stroke-linecap: round"/>
   </g>
   <g id="line2d_12">
    <path d="M 233.205176 76.408
L 233.205176 96.775
L 233.205176 117.142
" clip-path="url(#pNORMALIZED)" style="fill: none; stroke-dasharray: 7.4,3.2; stroke-dashoffset: 0; stroke: #111827; stroke-width: 2"/>
   </g>
   <g id="text_1">
    <!-- $\lambda/4\ \mathrm{QWR}$ -->
    <g style="fill: #111827" transform="translate(168.019176 140.307813) scale(0.14 -0.14)">
     <defs>
      <path id="DejaVuSans-Oblique-3bb" d="M 2350 4316
L 3125 0
L 2516 0
L 2038 2588
L 328 0
L -281 0
L 1903 3356
L 1794 3975
Q 1725 4369 1391 4369
L 1091 4369
L 1184 4863
L 1550 4856
Q 2253 4847 2350 4316
z
" transform="scale(0.015625)"/>
      <path id="DejaVuSans-2f" d="M 1625 4666
L 2156 4666
L 531 -594
L 0 -594
L 1625 4666
z
" transform="scale(0.015625)"/>
      <path id="DejaVuSans-34" d="M 2419 4116
L 825 1625
L 2419 1625
L 2419 4116
z
M 2253 4666
L 3047 4666
L 3047 1625
L 3713 1625
L 3713 1100
L 3047 1100
L 3047 0
L 2419 0
L 2419 1100
L 313 1100
L 313 1709
L 2253 4666
z
" transform="scale(0.015625)"/>
      <path id="DejaVuSans-51" d="M 2522 4238
Q 1834 4238 1429 3725
Q 1025 3213 1025 2328
Q 1025 1447 1429 934
Q 1834 422 2522 422
Q 3209 422 3611 934
Q 4013 1447 4013 2328
Q 4013 3213 3611 3725
Q 3209 4238 2522 4238
z
M 3406 84
L 4238 -825
L 3475 -825
L 2784 -78
Q 2681 -84 2626 -87
Q 2572 -91 2522 -91
Q 1538 -91 948 567
Q 359 1225 359 2328
Q 359 3434 948 4092
Q 1538 4750 2522 4750
Q 3503 4750 4090 4092
Q 4678 3434 4678 2328
Q 4678 1516 4351 937
Q 4025 359 3406 84
z
" transform="scale(0.015625)"/>
      <path id="DejaVuSans-57" d="M 213 4666
L 850 4666
L 1831 722
L 2809 4666
L 3519 4666
L 4500 722
L 5478 4666
L 6119 4666
L 4947 0
L 4153 0
L 3169 4050
L 2175 0
L 1381 0
L 213 4666
z
" transform="scale(0.015625)"/>
      <path id="DejaVuSans-52" d="M 2841 2188
Q 3044 2119 3236 1894
Q 3428 1669 3622 1275
L 4263 0
L 3584 0
L 2988 1197
Q 2756 1666 2539 1819
Q 2322 1972 1947 1972
L 1259 1972
L 1259 0
L 628 0
L 628 4666
L 2053 4666
Q 2853 4666 3247 4331
Q 3641 3997 3641 3322
Q 3641 2881 3436 2590
Q 3231 2300 2841 2188
z
M 1259 4147
L 1259 2491
L 2053 2491
Q 2509 2491 2742 2702
Q 2975 2913 2975 3322
Q 2975 3731 2742 3939
Q 2509 4147 2053 4147
L 1259 4147
z
" transform="scale(0.015625)"/>
     </defs>
     <use xlink:href="#DejaVuSans-Oblique-3bb" transform="translate(0 0.015625)"/>
     <use xlink:href="#DejaVuSans-2f" transform="translate(59.179688 0.015625)"/>
     <use xlink:href="#DejaVuSans-34" transform="translate(92.871094 0.015625)"/>
     <use xlink:href="#DejaVuSans-51" transform="translate(188.964519 0.015625)"/>
     <use xlink:href="#DejaVuSans-57" transform="translate(267.675457 0.015625)"/>
     <use xlink:href="#DejaVuSans-52" transform="translate(366.55241 0.015625)"/>
    </g>
   </g>
   <g id="text_2">
    <!-- $C_{c,\mathrm{in}}$ -->
    <g style="fill: #111827" transform="translate(138.669176 43.08) scale(0.14 -0.14)">
     <defs>
      <path id="DejaVuSans-Oblique-43" d="M 4447 4306
L 4319 3641
Q 4019 3944 3683 4091
Q 3347 4238 2956 4238
Q 2422 4238 2017 3981
Q 1613 3725 1319 3200
Q 1131 2863 1032 2486
Q 934 2109 934 1728
Q 934 1091 1264 756
Q 1594 422 2222 422
Q 2656 422 3056 561
Q 3456 700 3834 978
L 3688 231
Q 3316 72 2936 -9
Q 2556 -91 2175 -91
Q 1278 -91 773 396
Q 269 884 269 1753
Q 269 2309 461 2846
Q 653 3384 1013 3828
Q 1394 4300 1883 4525
Q 2372 4750 3022 4750
Q 3422 4750 3780 4639
Q 4138 4528 4447 4306
z
" transform="scale(0.015625)"/>
      <path id="DejaVuSans-Oblique-63" d="M 3431 3366
L 3316 2797
Q 3109 2947 2876 3022
Q 2644 3097 2394 3097
Q 2119 3097 1870 3000
Q 1622 2903 1453 2725
Q 1184 2453 1037 2087
Q 891 1722 891 1331
Q 891 859 1127 628
Q 1363 397 1844 397
Q 2081 397 2348 469
Q 2616 541 2906 684
L 2797 116
Q 2547 13 2283 -39
Q 2019 -91 1741 -91
Q 1044 -91 669 257
Q 294 606 294 1253
Q 294 1797 489 2255
Q 684 2713 1069 3078
Q 1331 3328 1684 3456
Q 2038 3584 2456 3584
Q 2700 3584 2940 3529
Q 3181 3475 3431 3366
z
" transform="scale(0.015625)"/>
      <path id="DejaVuSans-2c" d="M 750 794
L 1409 794
L 1409 256
L 897 -744
L 494 -744
L 750 256
L 750 794
z
" transform="scale(0.015625)"/>
      <path id="DejaVuSans-69" d="M 603 3500
L 1178 3500
L 1178 0
L 603 0
L 603 3500
z
M 603 4863
L 1178 4863
L 1178 4134
L 603 4134
L 603 4863
z
" transform="scale(0.015625)"/>
      <path id="DejaVuSans-6e" d="M 3513 2113
L 3513 0
L 2938 0
L 2938 2094
Q 2938 2591 2744 2837
Q 2550 3084 2163 3084
Q 1697 3084 1428 2787
Q 1159 2491 1159 1978
L 1159 0
L 581 0
L 581 3500
L 1159 3500
L 1159 2956
Q 1366 3272 1645 3428
Q 1925 3584 2291 3584
Q 2894 3584 3203 3211
Q 3513 2838 3513 2113
z
" transform="scale(0.015625)"/>
     </defs>
     <use xlink:href="#DejaVuSans-Oblique-43" transform="translate(0 0.78125)"/>
     <use xlink:href="#DejaVuSans-Oblique-63" transform="translate(69.824219 -15.625) scale(0.7)"/>
     <use xlink:href="#DejaVuSans-2c" transform="translate(108.310547 -15.625) scale(0.7)"/>
     <use xlink:href="#DejaVuSans-69" transform="translate(144.199219 -15.625) scale(0.7)"/>
     <use xlink:href="#DejaVuSans-6e" transform="translate(163.647461 -15.625) scale(0.7)"/>
    </g>
   </g>
   <g id="text_3">
    <!-- $C_{c,\mathrm{out}}$ -->
    <g style="fill: #111827" transform="translate(283.749176 43.08) scale(0.14 -0.14)">
     <defs>
      <path id="DejaVuSans-6f" d="M 1959 3097
Q 1497 3097 1228 2736
Q 959 2375 959 1747
Q 959 1119 1226 758
Q 1494 397 1959 397
Q 2419 397 2687 759
Q 2956 1122 2956 1747
Q 2956 2369 2687 2733
Q 2419 3097 1959 3097
z
M 1959 3584
Q 2709 3584 3137 3096
Q 3566 2609 3566 1747
Q 3566 888 3137 398
Q 2709 -91 1959 -91
Q 1206 -91 779 398
Q 353 888 353 1747
Q 353 2609 779 3096
Q 1206 3584 1959 3584
z
" transform="scale(0.015625)"/>
      <path id="DejaVuSans-75" d="M 544 1381
L 544 3500
L 1119 3500
L 1119 1403
Q 1119 906 1312 657
Q 1506 409 1894 409
Q 2359 409 2629 706
Q 2900 1003 2900 1516
L 2900 3500
L 3475 3500
L 3475 0
L 2900 0
L 2900 538
Q 2691 219 2414 64
Q 2138 -91 1772 -91
Q 1169 -91 856 284
Q 544 659 544 1381
z
M 1991 3584
L 1991 3584
z
" transform="scale(0.015625)"/>
      <path id="DejaVuSans-74" d="M 1172 4494
L 1172 3500
L 2356 3500
L 2356 3053
L 1172 3053
L 1172 1153
Q 1172 725 1289 603
Q 1406 481 1766 481
L 2356 481
L 2356 0
L 1766 0
Q 1100 0 847 248
Q 594 497 594 1153
L 594 3053
L 172 3053
L 172 3500
L 594 3500
L 594 4494
L 1172 4494
z
" transform="scale(0.015625)"/>
     </defs>
     <use xlink:href="#DejaVuSans-Oblique-43" transform="translate(0 0.78125)"/>
     <use xlink:href="#DejaVuSans-Oblique-63" transform="translate(69.824219 -15.625) scale(0.7)"/>
     <use xlink:href="#DejaVuSans-2c" transform="translate(108.310547 -15.625) scale(0.7)"/>
     <use xlink:href="#DejaVuSans-6f" transform="translate(144.199219 -15.625) scale(0.7)"/>
     <use xlink:href="#DejaVuSans-75" transform="translate(187.026367 -15.625) scale(0.7)"/>
     <use xlink:href="#DejaVuSans-74" transform="translate(231.391602 -15.625) scale(0.7)"/>
    </g>
   </g>
   <g id="text_4">
    <!-- $C_{12}$ -->
    <g style="fill: #111827" transform="translate(178.674176 100.638125) scale(0.14 -0.14)">
     <defs>
      <path id="DejaVuSans-31" d="M 794 531
L 1825 531
L 1825 4091
L 703 3866
L 703 4441
L 1819 4666
L 2450 4666
L 2450 531
L 3481 531
L 3481 0
L 794 0
L 794 531
z
" transform="scale(0.015625)"/>
      <path id="DejaVuSans-32" d="M 1228 531
L 3431 531
L 3431 0
L 469 0
L 469 531
Q 828 903 1448 1529
Q 2069 2156 2228 2338
Q 2531 2678 2651 2914
Q 2772 3150 2772 3378
Q 2772 3750 2511 3984
Q 2250 4219 1831 4219
Q 1534 4219 1204 4116
Q 875 4013 500 3803
L 500 4441
Q 881 4594 1212 4672
Q 1544 4750 1819 4750
Q 2544 4750 2975 4387
Q 3406 4025 3406 3419
Q 3406 3131 3298 2873
Q 3191 2616 2906 2266
Q 2828 2175 2409 1742
Q 1991 1309 1228 531
z
" transform="scale(0.015625)"/>
     </defs>
     <use xlink:href="#DejaVuSans-Oblique-43" transform="translate(0 0.78125)"/>
     <use xlink:href="#DejaVuSans-31" transform="translate(69.824219 -15.625) scale(0.7)"/>
     <use xlink:href="#DejaVuSans-32" transform="translate(114.360352 -15.625) scale(0.7)"/>
    </g>
   </g>
   <g id="text_5">
    <!-- $M_{12}$ -->
    <g style="fill: #111827" transform="translate(236.805176 100.638125) scale(0.14 -0.14)">
     <defs>
      <path id="DejaVuSans-Oblique-4d" d="M 1081 4666
L 2028 4666
L 2572 1522
L 4378 4666
L 5350 4666
L 4441 0
L 3828 0
L 4622 4091
L 2791 897
L 2175 897
L 1581 4103
L 788 0
L 172 0
L 1081 4666
z
" transform="scale(0.015625)"/>
     </defs>
     <use xlink:href="#DejaVuSans-Oblique-4d" transform="translate(0 0.09375)"/>
     <use xlink:href="#DejaVuSans-31" transform="translate(86.279297 -16.3125) scale(0.7)"/>
     <use xlink:href="#DejaVuSans-32" transform="translate(130.81543 -16.3125) scale(0.7)"/>
    </g>
   </g>
   <g id="patch_2">
    <path d="M 25.629176 13.321176
C 26.064422 13.321176 26.481899 13.148252 26.789663 12.840487
C 27.097428 12.532722 27.270353 12.115245 27.270353 11.68
C 27.270353 11.244755 27.097428 10.827278 26.789663 10.519513
C 26.481899 10.211748 26.064422 10.038824 25.629176 10.038824
C 25.193931 10.038824 24.776454 10.211748 24.468689 10.519513
C 24.160925 10.827278 23.988 11.244755 23.988 11.68
C 23.988 12.115245 24.160925 12.532722 24.468689 12.840487
C 24.776454 13.148252 25.193931 13.321176 25.629176 13.321176
z
" clip-path="url(#pNORMALIZED)" style="fill: #ffffff; stroke: #111827; stroke-width: 2; stroke-linejoin: miter"/>
   </g>
   <g id="text_6">
    <!-- $P_1$ -->
    <g style="fill: #111827" transform="translate(5.268 15.543125) scale(0.14 -0.14)">
     <defs>
      <path id="DejaVuSans-Oblique-50" d="M 1081 4666
L 2541 4666
Q 3178 4666 3512 4369
Q 3847 4072 3847 3500
Q 3847 2731 3353 2303
Q 2859 1875 1966 1875
L 1172 1875
L 806 0
L 172 0
L 1081 4666
z
M 1613 4147
L 1275 2394
L 2069 2394
Q 2606 2394 2893 2669
Q 3181 2944 3181 3456
Q 3181 3784 2986 3965
Q 2791 4147 2438 4147
L 1613 4147
z
" transform="scale(0.015625)"/>
     </defs>
     <use xlink:href="#DejaVuSans-Oblique-50" transform="translate(0 0.09375)"/>
     <use xlink:href="#DejaVuSans-31" transform="translate(60.302734 -16.3125) scale(0.7)"/>
    </g>
   </g>
   <g id="patch_3">
    <path d="M 371.589176 13.321176
C 372.024422 13.321176 372.441899 13.148252 372.749663 12.840487
C 373.057428 12.532722 373.230353 12.115245 373.230353 11.68
C 373.230353 11.244755 373.057428 10.827278 372.749663 10.519513
C 372.441899 10.211748 372.024422 10.038824 371.589176 10.038824
C 371.153931 10.038824 370.736454 10.211748 370.428689 10.519513
C 370.120925 10.827278 369.948 11.244755 369.948 11.68
C 369.948 12.115245 370.120925 12.532722 370.428689 12.840487
C 370.736454 13.148252 371.153931 13.321176 371.589176 13.321176
z
" clip-path="url(#pNORMALIZED)" style="fill: #ffffff; stroke: #111827; stroke-width: 2; stroke-linejoin: miter"/>
   </g>
   <g id="text_7">
    <!-- $P_2$ -->
    <g style="fill: #111827" transform="translate(376.830353 15.543125) scale(0.14 -0.14)">
     <use xlink:href="#DejaVuSans-Oblique-50" transform="translate(0 0.09375)"/>
     <use xlink:href="#DejaVuSans-32" transform="translate(60.302734 -16.3125) scale(0.7)"/>
    </g>
   </g>
   <g id="patch_4">
    <path d="M 271.149176 127.711176
C 271.584422 127.711176 272.001899 127.538252 272.309663 127.230487
C 272.617428 126.922722 272.790353 126.505245 272.790353 126.07
C 272.790353 125.634755 272.617428 125.217278 272.309663 124.909513
C 272.001899 124.601748 271.584422 124.428824 271.149176 124.428824
C 270.713931 124.428824 270.296454 124.601748 269.988689 124.909513
C 269.680925 125.217278 269.508 125.634755 269.508 126.07
C 269.508 126.505245 269.680925 126.922722 269.988689 127.230487
C 270.296454 127.538252 270.713931 127.711176 271.149176 127.711176
z
" clip-path="url(#pNORMALIZED)" style="fill: #ffffff; stroke: #111827; stroke-width: 2; stroke-linejoin: miter"/>
   </g>
   <g id="patch_5">
    <path d="M 50.739176 13.321176
C 51.174422 13.321176 51.591899 13.148252 51.899663 12.840487
C 52.207428 12.532722 52.380353 12.115245 52.380353 11.68
C 52.380353 11.244755 52.207428 10.827278 51.899663 10.519513
C 51.591899 10.211748 51.174422 10.038824 50.739176 10.038824
C 50.303931 10.038824 49.886454 10.211748 49.578689 10.519513
C 49.270925 10.827278 49.098 11.244755 49.098 11.68
C 49.098 12.115245 49.270925 12.532722 49.578689 12.840487
C 49.886454 13.148252 50.303931 13.321176 50.739176 13.321176
z
" clip-path="url(#pNORMALIZED)" style="fill: #111827; stroke: #111827; stroke-width: 2; stroke-linejoin: miter"/>
   </g>
   <g id="patch_6">
    <path d="M 126.069176 13.321176
C 126.504422 13.321176 126.921899 13.148252 127.229663 12.840487
C 127.537428 12.532722 127.710353 12.115245 127.710353 11.68
C 127.710353 11.244755 127.537428 10.827278 127.229663 10.519513
C 126.921899 10.211748 126.504422 10.038824 126.069176 10.038824
C 125.633931 10.038824 125.216454 10.211748 124.908689 10.519513
C 124.600925 10.827278 124.428 11.244755 124.428 11.68
C 124.428 12.115245 124.600925 12.532722 124.908689 12.840487
C 125.216454 13.148252 125.633931 13.321176 126.069176 13.321176
z
" clip-path="url(#pNORMALIZED)" style="fill: #111827; stroke: #111827; stroke-width: 2; stroke-linejoin: miter"/>
   </g>
   <g id="patch_7">
    <path d="M 126.069176 69.121176
C 126.504422 69.121176 126.921899 68.948252 127.229663 68.640487
C 127.537428 68.332722 127.710353 67.915245 127.710353 67.48
C 127.710353 67.044755 127.537428 66.627278 127.229663 66.319513
C 126.921899 66.011748 126.504422 65.838824 126.069176 65.838824
C 125.633931 65.838824 125.216454 66.011748 124.908689 66.319513
C 124.600925 66.627278 124.428 67.044755 124.428 67.48
C 124.428 67.915245 124.600925 68.332722 124.908689 68.640487
C 125.216454 68.948252 125.633931 69.121176 126.069176 69.121176
z
" clip-path="url(#pNORMALIZED)" style="fill: #111827; stroke: #111827; stroke-width: 2; stroke-linejoin: miter"/>
   </g>
   <g id="patch_8">
    <path d="M 271.149176 69.121176
C 271.584422 69.121176 272.001899 68.948252 272.309663 68.640487
C 272.617428 68.332722 272.790353 67.915245 272.790353 67.48
C 272.790353 67.044755 272.617428 66.627278 272.309663 66.319513
C 272.001899 66.011748 271.584422 65.838824 271.149176 65.838824
C 270.713931 65.838824 270.296454 66.011748 269.988689 66.319513
C 269.680925 66.627278 269.508 67.044755 269.508 67.48
C 269.508 67.915245 269.680925 68.332722 269.988689 68.640487
C 270.296454 68.948252 270.713931 69.121176 271.149176 69.121176
z
" clip-path="url(#pNORMALIZED)" style="fill: #111827; stroke: #111827; stroke-width: 2; stroke-linejoin: miter"/>
   </g>
   <g id="patch_9">
    <path d="M 271.149176 13.321176
C 271.584422 13.321176 272.001899 13.148252 272.309663 12.840487
C 272.617428 12.532722 272.790353 12.115245 272.790353 11.68
C 272.790353 11.244755 272.617428 10.827278 272.309663 10.519513
C 272.001899 10.211748 271.584422 10.038824 271.149176 10.038824
C 270.713931 10.038824 270.296454 10.211748 269.988689 10.519513
C 269.680925 10.827278 269.508 11.244755 269.508 11.68
C 269.508 12.115245 269.680925 12.532722 269.988689 12.840487
C 270.296454 13.148252 270.713931 13.321176 271.149176 13.321176
z
" clip-path="url(#pNORMALIZED)" style="fill: #111827; stroke: #111827; stroke-width: 2; stroke-linejoin: miter"/>
   </g>
   <g id="patch_10">
    <path d="M 346.479176 13.321176
C 346.914422 13.321176 347.331899 13.148252 347.639663 12.840487
C 347.947428 12.532722 348.120353 12.115245 348.120353 11.68
C 348.120353 11.244755 347.947428 10.827278 347.639663 10.519513
C 347.331899 10.211748 346.914422 10.038824 346.479176 10.038824
C 346.043931 10.038824 345.626454 10.211748 345.318689 10.519513
C 345.010925 10.827278 344.838 11.244755 344.838 11.68
C 344.838 12.115245 345.010925 12.532722 345.318689 12.840487
C 345.626454 13.148252 346.043931 13.321176 346.479176 13.321176
z
" clip-path="url(#pNORMALIZED)" style="fill: #111827; stroke: #111827; stroke-width: 2; stroke-linejoin: miter"/>
   </g>
   <g id="patch_11">
    <path d="M 126.069176 127.711176
C 126.504422 127.711176 126.921899 127.538252 127.229663 127.230487
C 127.537428 126.922722 127.710353 126.505245 127.710353 126.07
C 127.710353 125.634755 127.537428 125.217278 127.229663 124.909513
C 126.921899 124.601748 126.504422 124.428824 126.069176 124.428824
C 125.633931 124.428824 125.216454 124.601748 124.908689 124.909513
C 124.600925 125.217278 124.428 125.634755 124.428 126.07
C 124.428 126.505245 124.600925 126.922722 124.908689 127.230487
C 125.216454 127.538252 125.633931 127.711176 126.069176 127.711176
z
" clip-path="url(#pNORMALIZED)" style="fill: #111827; stroke: #111827; stroke-width: 2; stroke-linejoin: miter"/>
   </g>
   <g id="patch_12">
    <path d="M 187.002776 69.121176
C 187.438022 69.121176 187.855499 68.948252 188.163263 68.640487
C 188.471028 68.332722 188.643953 67.915245 188.643953 67.48
C 188.643953 67.044755 188.471028 66.627278 188.163263 66.319513
C 187.855499 66.011748 187.438022 65.838824 187.002776 65.838824
C 186.567531 65.838824 186.150054 66.011748 185.842289 66.319513
C 185.534525 66.627278 185.3616 67.044755 185.3616 67.48
C 185.3616 67.915245 185.534525 68.332722 185.842289 68.640487
C 186.150054 68.948252 186.567531 69.121176 187.002776 69.121176
z
" clip-path="url(#pNORMALIZED)" style="fill: #111827; stroke: #111827; stroke-width: 2; stroke-linejoin: miter"/>
   </g>
   <g id="patch_13">
    <path d="M 251.172776 69.121176
C 251.608022 69.121176 252.025499 68.948252 252.333263 68.640487
C 252.641028 68.332722 252.813953 67.915245 252.813953 67.48
C 252.813953 67.044755 252.641028 66.627278 252.333263 66.319513
C 252.025499 66.011748 251.608022 65.838824 251.172776 65.838824
C 250.737531 65.838824 250.320054 66.011748 250.012289 66.319513
C 249.704525 66.627278 249.5316 67.044755 249.5316 67.48
C 249.5316 67.915245 249.704525 68.332722 250.012289 68.640487
C 250.320054 68.948252 250.737531 69.121176 251.172776 69.121176
z
" clip-path="url(#pNORMALIZED)" style="fill: #111827; stroke: #111827; stroke-width: 2; stroke-linejoin: miter"/>
   </g>
  </g>
 </g>
 <defs>
  <clipPath id="pNORMALIZED">
   <rect x="0" y="0" width="398.553176" height="177.226"/>
  </clipPath>
 </defs>
</svg>
