<?xml version="1.0" encoding="utf-8" standalone="no"?>
<!DOCTYPE svg PUBLIC "-//W3C//DTD SVG 1.1//EN"
  "http://www.w3.org/Graphics/SVG/1.1/DTD/svg11.dtd">
<svg xmlns:xlink="http://www.w3.org/1999/xlink" width="311.568pt" height="98.869978pt" viewBox="0 0 311.568 98.869978" xmlns="http://www.w3.org/2000/svg" version="1.1">
 <metadata>
  <rdf:RDF xmlns:dc="http://purl.org/dc/elements/1.1/" xmlns:cc="http://creativecommons.org/ns#" xmlns:rdf="http://www.w3.org/1999/02/22-rdf-syntax-ns#">
   <cc:Work>
    <dc:type rdf:resource="http://purl.org/dc/dcmitype/StillImage"/>
    <dc:date>normalized</dc:date>
    <dc:format>image/svg+xml</dc:format>
    <dc:creator>
     <cc:Agent>
      <dc:title>Matplotlib v3.10.9, https://matplotlib.org/</dc:title>
     </cc:Agent>
    </dc:creator>
   </cc:Work>
  </rdf:RDF>
 </metadata>
 <defs>
  <style type="text/css">*{stroke-linejoin: round; stroke-linecap: butt}</style>
 </defs>
 <g id="figure_1">
  <g id="patch_1">
   <path d="M 0 98.869978
L 311.568 98.869978
L 311.568 0
L 0 0
L 0 98.869978
z
" style="fill: none"/>
  </g>
  <g id="axes_1">
   <g id="patch_2">
    <path d="M 59.484 26.779978
L 59.493246 26.491662
L 59.520945 26.20453
L 59.566984 25.919764
L 59.631173 25.638532
L 59.713249 25.361991
L 59.812875 25.091276
L 59.92964 24.827501
L 60.063066 24.571749
L 60.212604 24.325071
L 60.377639 24.08848
L 60.557493 23.86295
L 60.751428 23.649406
L 60.958646 23.448727
L 61.178296 23.261736
L 61.409475 23.089203
L 61.651233 22.931835
L 61.902578 22.790281
L 62.162475 22.665121
L 62.429857 22.55687
L 62.703626 22.465972
L 62.982656 22.392802
L 63.2658 22.33766
L 63.551896 22.300772
L 63.839768 22.28229
L 64.128232 22.28229
L 64.416104 22.300772
L 64.7022 22.33766
L 64.985344 22.392802
L 65.264374 22.465972
L 65.538143 22.55687
L 65.805525 22.665121
L 66.065422 22.790281
L 66.316767 22.931835
L 66.558525 23.089203
L 66.789704 23.261736
L 67.009354 23.448727
L 67.216572 23.649406
L 67.410507 23.86295
L 67.590361 24.08848
L 67.755396 24.325071
L 67.904934 24.571749
L 68.03836 24.827501
L 68.155125 25.091276
L 68.254751 25.361991
L 68.336827 25.638532
L 68.401016 25.919764
L 68.447055 26.20453
L 68.474754 26.491662
L 68.484 26.779978
" clip-path="url(#pNORMALIZED)" style="fill: none; stroke: #f8fafc; stroke-width: 2; stroke-linejoin: miter"/>
   </g>
   <g id="patch_3">
    <path d="M 68.484 26.779978
L 68.493246 26.491662
L 68.520945 26.20453
L 68.566984 25.919764
L 68.631173 25.638532
L 68.713249 25.361991
L 68.812875 25.091276
L 68.92964 24.827501
L 69.063066 24.571749
L 69.212604 24.325071
L 69.377639 24.08848
L 69.557493 23.86295
L 69.751428 23.649406
L 69.958646 23.448727
L 70.178296 23.261736
L 70.409475 23.089203
L 70.651233 22.931835
L 70.902578 22.790281
L 71.162475 22.665121
L 71.429857 22.55687
L 71.703626 22.465972
L 71.982656 22.392802
L 72.2658 22.33766
L 72.551896 22.300772
L 72.839768 22.28229
L 73.128232 22.28229
L 73.416104 22.300772
L 73.7022 22.33766
L 73.985344 22.392802
L 74.264374 22.465972
L 74.538143 22.55687
L 74.805525 22.665121
L 75.065422 22.790281
L 75.316767 22.931835
L 75.558525 23.089203
L 75.789704 23.261736
L 76.009354 23.448727
L 76.216572 23.649406
L 76.410507 23.86295
L 76.590361 24.08848
L 76.755396 24.325071
L 76.904934 24.571749
L 77.03836 24.827501
L 77.155125 25.091276
L 77.254751 25.361991
L 77.336827 25.638532
L 77.401016 25.919764
L 77.447055 26.20453
L 77.474754 26.491662
L 77.484 26.779978
" clip-path="url(#pNORMALIZED)" style="fill: none; stroke: #f8fafc; stroke-width: 2; stroke-linejoin: miter"/>
   </g>
   <g id="patch_4">
    <path d="M 77.484 26.779978
L 77.493246 26.491662
L 77.520945 26.20453
L 77.566984 25.919764
L 77.631173 25.638532
L 77.713249 25.361991
L 77.812875 25.091276
L 77.92964 24.827501
L 78.063066 24.571749
L 78.212604 24.325071
L 78.377639 24.08848
L 78.557493 23.86295
L 78.751428 23.649406
L 78.958646 23.448727
L 79.178296 23.261736
L 79.409475 23.089203
L 79.651233 22.931835
L 79.902578 22.790281
L 80.162475 22.665121
L 80.429857 22.55687
L 80.703626 22.465972
L 80.982656 22.392802
L 81.2658 22.33766
L 81.551896 22.300772
L 81.839768 22.28229
L 82.128232 22.28229
L 82.416104 22.300772
L 82.7022 22.33766
L 82.985344 22.392802
L 83.264374 22.465972
L 83.538143 22.55687
L 83.805525 22.665121
L 84.065422 22.790281
L 84.316767 22.931835
L 84.558525 23.089203
L 84.789704 23.261736
L 85.009354 23.448727
L 85.216572 23.649406
L 85.410507 23.86295
L 85.590361 24.08848
L 85.755396 24.325071
L 85.904934 24.571749
L 86.03836 24.827501
L 86.155125 25.091276
L 86.254751 25.361991
L 86.336827 25.638532
L 86.401016 25.919764
L 86.447055 26.20453
L 86.474754 26.491662
L 86.484 26.779978
" clip-path="url(#pNORMALIZED)" style="fill: none; stroke: #f8fafc; stroke-width: 2; stroke-linejoin: miter"/>
   </g>
   <g id="patch_5">
    <path d="M 86.484 26.779978
L 86.493246 26.491662
L 86.520945 26.20453
L 86.566984 25.919764
L 86.631173 25.638532
L 86.713249 25.361991
L 86.812875 25.091276
L 86.92964 24.827501
L 87.063066 24.571749
L 87.212604 24.325071
L 87.377639 24.08848
L 87.557493 23.86295
L 87.751428 23.649406
L 87.958646 23.448727
L 88.178296 23.261736
L 88.409475 23.089203
L 88.651233 22.931835
L 88.902578 22.790281
L 89.162475 22.665121
L 89.429857 22.55687
L 89.703626 22.465972
L 89.982656 22.392802
L 90.2658 22.33766
L 90.551896 22.300772
L 90.839768 22.28229
L 91.128232 22.28229
L 91.416104 22.300772
L 91.7022 22.33766
L 91.985344 22.392802
L 92.264374 22.465972
L 92.538143 22.55687
L 92.805525 22.665121
L 93.065422 22.790281
L 93.316767 22.931835
L 93.558525 23.089203
L 93.789704 23.261736
L 94.009354 23.448727
L 94.216572 23.649406
L 94.410507 23.86295
L 94.590361 24.08848
L 94.755396 24.325071
L 94.904934 24.571749
L 95.03836 24.827501
L 95.155125 25.091276
L 95.254751 25.361991
L 95.336827 25.638532
L 95.401016 25.919764
L 95.447055 26.20453
L 95.474754 26.491662
L 95.484 26.779978
" clip-path="url(#pNORMALIZED)" style="fill: none; stroke: #f8fafc; stroke-width: 2; stroke-linejoin: miter"/>
   </g>
   <g id="patch_6">
    <path d="M 111.684 26.779978
L 111.693246 26.491662
L 111.720945 26.20453
L 111.766984 25.919764
L 111.831173 25.638532
L 111.913249 25.361991
L 112.012875 25.091276
L 112.12964 24.827501
L 112.263066 24.571749
L 112.412604 24.325071
L 112.577639 24.08848
L 112.757493 23.86295
L 112.951428 23.649406
L 113.158646 23.448727
L 113.378296 23.261736
L 113.609475 23.089203
L 113.851233 22.931835
L 114.102578 22.790281
L 114.362475 22.665121
L 114.629857 22.55687
L 114.903626 22.465972
L 115.182656 22.392802
L 115.4658 22.33766
L 115.751896 22.300772
L 116.039768 22.28229
L 116.328232 22.28229
L 116.616104 22.300772
L 116.9022 22.33766
L 117.185344 22.392802
L 117.464374 22.465972
L 117.738143 22.55687
L 118.005525 22.665121
L 118.265422 22.790281
L 118.516767 22.931835
L 118.758525 23.089203
L 118.989704 23.261736
L 119.209354 23.448727
L 119.416572 23.649406
L 119.610507 23.86295
L 119.790361 24.08848
L 119.955396 24.325071
L 120.104934 24.571749
L 120.23836 24.827501
L 120.355125 25.091276
L 120.454751 25.361991
L 120.536827 25.638532
L 120.601016 25.919764
L 120.647055 26.20453
L 120.674754 26.491662
L 120.684 26.779978
" clip-path="url(#pNORMALIZED)" style="fill: none; stroke: #f8fafc; stroke-width: 2; stroke-linejoin: miter"/>
   </g>
   <g id="patch_7">
    <path d="M 120.684 26.779978
L 120.693246 26.491662
L 120.720945 26.20453
L 120.766984 25.919764
L 120.831173 25.638532
L 120.913249 25.361991
L 121.012875 25.091276
L 121.12964 24.827501
L 121.263066 24.571749
L 121.412604 24.325071
L 121.577639 24.08848
L 121.757493 23.86295
L 121.951428 23.649406
L 122.158646 23.448727
L 122.378296 23.261736
L 122.609475 23.089203
L 122.851233 22.931835
L 123.102578 22.790281
L 123.362475 22.665121
L 123.629857 22.55687
L 123.903626 22.465972
L 124.182656 22.392802
L 124.4658 22.33766
L 124.751896 22.300772
L 125.039768 22.28229
L 125.328232 22.28229
L 125.616104 22.300772
L 125.9022 22.33766
L 126.185344 22.392802
L 126.464374 22.465972
L 126.738143 22.55687
L 127.005525 22.665121
L 127.265422 22.790281
L 127.516767 22.931835
L 127.758525 23.089203
L 127.989704 23.261736
L 128.209354 23.448727
L 128.416572 23.649406
L 128.610507 23.86295
L 128.790361 24.08848
L 128.955396 24.325071
L 129.104934 24.571749
L 129.23836 24.827501
L 129.355125 25.091276
L 129.454751 25.361991
L 129.536827 25.638532
L 129.601016 25.919764
L 129.647055 26.20453
L 129.674754 26.491662
L 129.684 26.779978
" clip-path="url(#pNORMALIZED)" style="fill: none; stroke: #f8fafc; stroke-width: 2; stroke-linejoin: miter"/>
   </g>
   <g id="patch_8">
    <path d="M 129.684 26.779978
L 129.693246 26.491662
L 129.720945 26.20453
L 129.766984 25.919764
L 129.831173 25.638532
L 129.913249 25.361991
L 130.012875 25.091276
L 130.12964 24.827501
L 130.263066 24.571749
L 130.412604 24.325071
L 130.577639 24.08848
L 130.757493 23.86295
L 130.951428 23.649406
L 131.158646 23.448727
L 131.378296 23.261736
L 131.609475 23.089203
L 131.851233 22.931835
L 132.102578 22.790281
L 132.362475 22.665121
L 132.629857 22.55687
L 132.903626 22.465972
L 133.182656 22.392802
L 133.4658 22.33766
L 133.751896 22.300772
L 134.039768 22.28229
L 134.328232 22.28229
L 134.616104 22.300772
L 134.9022 22.33766
L 135.185344 22.392802
L 135.464374 22.465972
L 135.738143 22.55687
L 136.005525 22.665121
L 136.265422 22.790281
L 136.516767 22.931835
L 136.758525 23.089203
L 136.989704 23.261736
L 137.209354 23.448727
L 137.416572 23.649406
L 137.610507 23.86295
L 137.790361 24.08848
L 137.955396 24.325071
L 138.104934 24.571749
L 138.23836 24.827501
L 138.355125 25.091276
L 138.454751 25.361991
L 138.536827 25.638532
L 138.601016 25.919764
L 138.647055 26.20453
L 138.674754 26.491662
L 138.684 26.779978
" clip-path="url(#pNORMALIZED)" style="fill: none; stroke: #f8fafc; stroke-width: 2; stroke-linejoin: miter"/>
   </g>
   <g id="patch_9">
    <path d="M 138.684 26.779978
L 138.693246 26.491662
L 138.720945 26.20453
L 138.766984 25.919764
L 138.831173 25.638532
L 138.913249 25.361991
L 139.012875 25.091276
L 139.12964 24.827501
L 139.263066 24.571749
L 139.412604 24.325071
L 139.577639 24.08848
L 139.757493 23.86295
L 139.951428 23.649406
L 140.158646 23.448727
L 140.378296 23.261736
L 140.609475 23.089203
L 140.851233 22.931835
L 141.102578 22.790281
L 141.362475 22.665121
L 141.629857 22.55687
L 141.903626 22.465972
L 142.182656 22.392802
L 142.4658 22.33766
L 142.751896 22.300772
L 143.039768 22.28229
L 143.328232 22.28229
L 143.616104 22.300772
L 143.9022 22.33766
L 144.185344 22.392802
L 144.464374 22.465972
L 144.738143 22.55687
L 145.005525 22.665121
L 145.265422 22.790281
L 145.516767 22.931835
L 145.758525 23.089203
L 145.989704 23.261736
L 146.209354 23.448727
L 146.416572 23.649406
L 146.610507 23.86295
L 146.790361 24.08848
L 146.955396 24.325071
L 147.104934 24.571749
L 147.23836 24.827501
L 147.355125 25.091276
L 147.454751 25.361991
L 147.536827 25.638532
L 147.601016 25.919764
L 147.647055 26.20453
L 147.674754 26.491662
L 147.684 26.779978
" clip-path="url(#pNORMALIZED)" style="fill: none; stroke: #f8fafc; stroke-width: 2; stroke-linejoin: miter"/>
   </g>
   <g id="patch_10">
    <path d="M 163.884 26.779978
L 163.893246 26.491662
L 163.920945 26.20453
L 163.966984 25.919764
L 164.031173 25.638532
L 164.113249 25.361991
L 164.212875 25.091276
L 164.32964 24.827501
L 164.463066 24.571749
L 164.612604 24.325071
L 164.777639 24.08848
L 164.957493 23.86295
L 165.151428 23.649406
L 165.358646 23.448727
L 165.578296 23.261736
L 165.809475 23.089203
L 166.051233 22.931835
L 166.302578 22.790281
L 166.562475 22.665121
L 166.829857 22.55687
L 167.103626 22.465972
L 167.382656 22.392802
L 167.6658 22.33766
L 167.951896 22.300772
L 168.239768 22.28229
L 168.528232 22.28229
L 168.816104 22.300772
L 169.1022 22.33766
L 169.385344 22.392802
L 169.664374 22.465972
L 169.938143 22.55687
L 170.205525 22.665121
L 170.465422 22.790281
L 170.716767 22.931835
L 170.958525 23.089203
L 171.189704 23.261736
L 171.409354 23.448727
L 171.616572 23.649406
L 171.810507 23.86295
L 171.990361 24.08848
L 172.155396 24.325071
L 172.304934 24.571749
L 172.43836 24.827501
L 172.555125 25.091276
L 172.654751 25.361991
L 172.736827 25.638532
L 172.801016 25.919764
L 172.847055 26.20453
L 172.874754 26.491662
L 172.884 26.779978
" clip-path="url(#pNORMALIZED)" style="fill: none; stroke: #f8fafc; stroke-width: 2; stroke-linejoin: miter"/>
   </g>
   <g id="patch_11">
    <path d="M 172.884 26.779978
L 172.893246 26.491662
L 172.920945 26.20453
L 172.966984 25.919764
L 173.031173 25.638532
L 173.113249 25.361991
L 173.212875 25.091276
L 173.32964 24.827501
L 173.463066 24.571749
L 173.612604 24.325071
L 173.777639 24.08848
L 173.957493 23.86295
L 174.151428 23.649406
L 174.358646 23.448727
L 174.578296 23.261736
L 174.809475 23.089203
L 175.051233 22.931835
L 175.302578 22.790281
L 175.562475 22.665121
L 175.829857 22.55687
L 176.103626 22.465972
L 176.382656 22.392802
L 176.6658 22.33766
L 176.951896 22.300772
L 177.239768 22.28229
L 177.528232 22.28229
L 177.816104 22.300772
L 178.1022 22.33766
L 178.385344 22.392802
L 178.664374 22.465972
L 178.938143 22.55687
L 179.205525 22.665121
L 179.465422 22.790281
L 179.716767 22.931835
L 179.958525 23.089203
L 180.189704 23.261736
L 180.409354 23.448727
L 180.616572 23.649406
L 180.810507 23.86295
L 180.990361 24.08848
L 181.155396 24.325071
L 181.304934 24.571749
L 181.43836 24.827501
L 181.555125 25.091276
L 181.654751 25.361991
L 181.736827 25.638532
L 181.801016 25.919764
L 181.847055 26.20453
L 181.874754 26.491662
L 181.884 26.779978
" clip-path="url(#pNORMALIZED)" style="fill: none; stroke: #f8fafc; stroke-width: 2; stroke-linejoin: miter"/>
   </g>
   <g id="patch_12">
    <path d="M 181.884 26.779978
L 181.893246 26.491662
L 181.920945 26.20453
L 181.966984 25.919764
L 182.031173 25.638532
L 182.113249 25.361991
L 182.212875 25.091276
L 182.32964 24.827501
L 182.463066 24.571749
L 182.612604 24.325071
L 182.777639 24.08848
L 182.957493 23.86295
L 183.151428 23.649406
L 183.358646 23.448727
L 183.578296 23.261736
L 183.809475 23.089203
L 184.051233 22.931835
L 184.302578 22.790281
L 184.562475 22.665121
L 184.829857 22.55687
L 185.103626 22.465972
L 185.382656 22.392802
L 185.6658 22.33766
L 185.951896 22.300772
L 186.239768 22.28229
L 186.528232 22.28229
L 186.816104 22.300772
L 187.1022 22.33766
L 187.385344 22.392802
L 187.664374 22.465972
L 187.938143 22.55687
L 188.205525 22.665121
L 188.465422 22.790281
L 188.716767 22.931835
L 188.958525 23.089203
L 189.189704 23.261736
L 189.409354 23.448727
L 189.616572 23.649406
L 189.810507 23.86295
L 189.990361 24.08848
L 190.155396 24.325071
L 190.304934 24.571749
L 190.43836 24.827501
L 190.555125 25.091276
L 190.654751 25.361991
L 190.736827 25.638532
L 190.801016 25.919764
L 190.847055 26.20453
L 190.874754 26.491662
L 190.884 26.779978
" clip-path="url(#pNORMALIZED)" style="fill: none; stroke: #f8fafc; stroke-width: 2; stroke-linejoin: miter"/>
   </g>
   <g id="patch_13">
    <path d="M 190.884 26.779978
L 190.893246 26.491662
L 190.920945 26.20453
L 190.966984 25.919764
L 191.031173 25.638532
L 191.113249 25.361991
L 191.212875 25.091276
L 191.32964 24.827501
L 191.463066 24.571749
L 191.612604 24.325071
L 191.777639 24.08848
L 191.957493 23.86295
L 192.151428 23.649406
L 192.358646 23.448727
L 192.578296 23.261736
L 192.809475 23.089203
L 193.051233 22.931835
L 193.302578 22.790281
L 193.562475 22.665121
L 193.829857 22.55687
L 194.103626 22.465972
L 194.382656 22.392802
L 194.6658 22.33766
L 194.951896 22.300772
L 195.239768 22.28229
L 195.528232 22.28229
L 195.816104 22.300772
L 196.1022 22.33766
L 196.385344 22.392802
L 196.664374 22.465972
L 196.938143 22.55687
L 197.205525 22.665121
L 197.465422 22.790281
L 197.716767 22.931835
L 197.958525 23.089203
L 198.189704 23.261736
L 198.409354 23.448727
L 198.616572 23.649406
L 198.810507 23.86295
L 198.990361 24.08848
L 199.155396 24.325071
L 199.304934 24.571749
L 199.43836 24.827501
L 199.555125 25.091276
L 199.654751 25.361991
L 199.736827 25.638532
L 199.801016 25.919764
L 199.847055 26.20453
L 199.874754 26.491662
L 199.884 26.779978
" clip-path="url(#pNORMALIZED)" style="fill: none; stroke: #f8fafc; stroke-width: 2; stroke-linejoin: miter"/>
   </g>
   <g id="patch_14">
    <path d="M 216.084 26.779978
L 216.093246 26.491662
L 216.120945 26.20453
L 216.166984 25.919764
L 216.231173 25.638532
L 216.313249 25.361991
L 216.412875 25.091276
L 216.52964 24.827501
L 216.663066 24.571749
L 216.812604 24.325071
L 216.977639 24.08848
L 217.157493 23.86295
L 217.351428 23.649406
L 217.558646 23.448727
L 217.778296 23.261736
L 218.009475 23.089203
L 218.251233 22.931835
L 218.502578 22.790281
L 218.762475 22.665121
L 219.029857 22.55687
L 219.303626 22.465972
L 219.582656 22.392802
L 219.8658 22.33766
L 220.151896 22.300772
L 220.439768 22.28229
L 220.728232 22.28229
L 221.016104 22.300772
L 221.3022 22.33766
L 221.585344 22.392802
L 221.864374 22.465972
L 222.138143 22.55687
L 222.405525 22.665121
L 222.665422 22.790281
L 222.916767 22.931835
L 223.158525 23.089203
L 223.389704 23.261736
L 223.609354 23.448727
L 223.816572 23.649406
L 224.010507 23.86295
L 224.190361 24.08848
L 224.355396 24.325071
L 224.504934 24.571749
L 224.63836 24.827501
L 224.755125 25.091276
L 224.854751 25.361991
L 224.936827 25.638532
L 225.001016 25.919764
L 225.047055 26.20453
L 225.074754 26.491662
L 225.084 26.779978
" clip-path="url(#pNORMALIZED)" style="fill: none; stroke: #f8fafc; stroke-width: 2; stroke-linejoin: miter"/>
   </g>
   <g id="patch_15">
    <path d="M 225.084 26.779978
L 225.093246 26.491662
L 225.120945 26.20453
L 225.166984 25.919764
L 225.231173 25.638532
L 225.313249 25.361991
L 225.412875 25.091276
L 225.52964 24.827501
L 225.663066 24.571749
L 225.812604 24.325071
L 225.977639 24.08848
L 226.157493 23.86295
L 226.351428 23.649406
L 226.558646 23.448727
L 226.778296 23.261736
L 227.009475 23.089203
L 227.251233 22.931835
L 227.502578 22.790281
L 227.762475 22.665121
L 228.029857 22.55687
L 228.303626 22.465972
L 228.582656 22.392802
L 228.8658 22.33766
L 229.151896 22.300772
L 229.439768 22.28229
L 229.728232 22.28229
L 230.016104 22.300772
L 230.3022 22.33766
L 230.585344 22.392802
L 230.864374 22.465972
L 231.138143 22.55687
L 231.405525 22.665121
L 231.665422 22.790281
L 231.916767 22.931835
L 232.158525 23.089203
L 232.389704 23.261736
L 232.609354 23.448727
L 232.816572 23.649406
L 233.010507 23.86295
L 233.190361 24.08848
L 233.355396 24.325071
L 233.504934 24.571749
L 233.63836 24.827501
L 233.755125 25.091276
L 233.854751 25.361991
L 233.936827 25.638532
L 234.001016 25.919764
L 234.047055 26.20453
L 234.074754 26.491662
L 234.084 26.779978
" clip-path="url(#pNORMALIZED)" style="fill: none; stroke: #f8fafc; stroke-width: 2; stroke-linejoin: miter"/>
   </g>
   <g id="patch_16">
    <path d="M 234.084 26.779978
L 234.093246 26.491662
L 234.120945 26.20453
L 234.166984 25.919764
L 234.231173 25.638532
L 234.313249 25.361991
L 234.412875 25.091276
L 234.52964 24.827501
L 234.663066 24.571749
L 234.812604 24.325071
L 234.977639 24.08848
L 235.157493 23.86295
L 235.351428 23.649406
L 235.558646 23.448727
L 235.778296 23.261736
L 236.009475 23.089203
L 236.251233 22.931835
L 236.502578 22.790281
L 236.762475 22.665121
L 237.029857 22.55687
L 237.303626 22.465972
L 237.582656 22.392802
L 237.8658 22.33766
L 238.151896 22.300772
L 238.439768 22.28229
L 238.728232 22.28229
L 239.016104 22.300772
L 239.3022 22.33766
L 239.585344 22.392802
L 239.864374 22.465972
L 240.138143 22.55687
L 240.405525 22.665121
L 240.665422 22.790281
L 240.916767 22.931835
L 241.158525 23.089203
L 241.389704 23.261736
L 241.609354 23.448727
L 241.816572 23.649406
L 242.010507 23.86295
L 242.190361 24.08848
L 242.355396 24.325071
L 242.504934 24.571749
L 242.63836 24.827501
L 242.755125 25.091276
L 242.854751 25.361991
L 242.936827 25.638532
L 243.001016 25.919764
L 243.047055 26.20453
L 243.074754 26.491662
L 243.084 26.779978
" clip-path="url(#pNORMALIZED)" style="fill: none; stroke: #f8fafc; stroke-width: 2; stroke-linejoin: miter"/>
   </g>
   <g id="patch_17">
    <path d="M 243.084 26.779978
L 243.093246 26.491662
L 243.120945 26.20453
L 243.166984 25.919764
L 243.231173 25.638532
L 243.313249 25.361991
L 243.412875 25.091276
L 243.52964 24.827501
L 243.663066 24.571749
L 243.812604 24.325071
L 243.977639 24.08848
L 244.157493 23.86295
L 244.351428 23.649406
L 244.558646 23.448727
L 244.778296 23.261736
L 245.009475 23.089203
L 245.251233 22.931835
L 245.502578 22.790281
L 245.762475 22.665121
L 246.029857 22.55687
L 246.303626 22.465972
L 246.582656 22.392802
L 246.8658 22.33766
L 247.151896 22.300772
L 247.439768 22.28229
L 247.728232 22.28229
L 248.016104 22.300772
L 248.3022 22.33766
L 248.585344 22.392802
L 248.864374 22.465972
L 249.138143 22.55687
L 249.405525 22.665121
L 249.665422 22.790281
L 249.916767 22.931835
L 250.158525 23.089203
L 250.389704 23.261736
L 250.609354 23.448727
L 250.816572 23.649406
L 251.010507 23.86295
L 251.190361 24.08848
L 251.355396 24.325071
L 251.504934 24.571749
L 251.63836 24.827501
L 251.755125 25.091276
L 251.854751 25.361991
L 251.936827 25.638532
L 252.001016 25.919764
L 252.047055 26.20453
L 252.074754 26.491662
L 252.084 26.779978
" clip-path="url(#pNORMALIZED)" style="fill: none; stroke: #f8fafc; stroke-width: 2; stroke-linejoin: miter"/>
   </g>
   <g id="line2d_1">
    <path d="M 27.894 26.779978
L 39.639 26.779978
L 51.384 26.779978
" clip-path="url(#pNORMALIZED)" style="fill: none; stroke: #f8fafc; stroke-width: 2; stroke-linecap: round"/>
   </g>
   <g id="line2d_2">
    <path d="M 260.184 26.779978
L 271.929 26.779978
L 283.674 26.779978
" clip-path="url(#pNORMALIZED)" style="fill: none; stroke: #f8fafc; stroke-width: 2; stroke-linecap: round"/>
   </g>
   <g id="line2d_3">
    <path d="M 51.384 26.779978
L 59.484 26.779978
M 95.484 26.779978
L 103.584 26.779978
" clip-path="url(#pNORMALIZED)" style="fill: none; stroke: #f8fafc; stroke-width: 2; stroke-linecap: round"/>
   </g>
   <g id="line2d_4">
    <path d="M 103.584 26.779978
L 111.684 26.779978
M 147.684 26.779978
L 155.784 26.779978
" clip-path="url(#pNORMALIZED)" style="fill: none; stroke: #f8fafc; stroke-width: 2; stroke-linecap: round"/>
   </g>
   <g id="line2d_5">
    <path d="M 155.784 26.779978
L 163.884 26.779978
M 199.884 26.779978
L 207.984 26.779978
" clip-path="url(#pNORMALIZED)" style="fill: none; stroke: #f8fafc; stroke-width: 2; stroke-linecap: round"/>
   </g>
   <g id="line2d_6">
    <path d="M 207.984 26.779978
L 216.084 26.779978
M 252.084 26.779978
L 260.184 26.779978
" clip-path="url(#pNORMALIZED)" style="fill: none; stroke: #f8fafc; stroke-width: 2; stroke-linecap: round"/>
   </g>
   <g id="line2d_7">
    <path d="M 51.384 26.779978
L 51.384 45.724978
M 60.384 45.724978
L 42.384 45.724978
M 60.384 52.204978
L 42.384 52.204978
M 51.384 52.204978
L 51.384 71.149978
" clip-path="url(#pNORMALIZED)" style="fill: none; stroke: #f8fafc; stroke-width: 2; stroke-linecap: round"/>
   </g>
   <g id="line2d_8">
    <path d="M 51.384 71.149978
L 51.384 85.549978
L 42.384 85.549978
L 60.384 85.549978
M 45.084 89.869978
L 57.684 89.869978
M 49.584 94.189978
L 53.184 94.189978
" clip-path="url(#pNORMALIZED)" style="fill: none; stroke: #f8fafc; stroke-width: 2; stroke-linecap: round"/>
   </g>
   <g id="line2d_9">
    <path d="M 103.584 26.779978
L 103.584 45.724978
M 112.584 45.724978
L 94.584 45.724978
M 112.584 52.204978
L 94.584 52.204978
M 103.584 52.204978
L 103.584 71.149978
" clip-path="url(#pNORMALIZED)" style="fill: none; stroke: #f8fafc; stroke-width: 2; stroke-linecap: round"/>
   </g>
   <g id="line2d_10">
    <path d="M 103.584 71.149978
L 103.584 85.549978
L 94.584 85.549978
L 112.584 85.549978
M 97.284 89.869978
L 109.884 89.869978
M 101.784 94.189978
L 105.384 94.189978
" clip-path="url(#pNORMALIZED)" style="fill: none; stroke: #f8fafc; stroke-width: 2; stroke-linecap: round"/>
   </g>
   <g id="line2d_11">
    <path d="M 155.784 26.779978
L 155.784 45.724978
M 164.784 45.724978
L 146.784 45.724978
M 164.784 52.204978
L 146.784 52.204978
M 155.784 52.204978
L 155.784 71.149978
" clip-path="url(#pNORMALIZED)" style="fill: none; stroke: #f8fafc; stroke-width: 2; stroke-linecap: round"/>
   </g>
   <g id="line2d_12">
    <path d="M 155.784 71.149978
L 155.784 85.549978
L 146.784 85.549978
L 164.784 85.549978
M 149.484 89.869978
L 162.084 89.869978
M 153.984 94.189978
L 157.584 94.189978
" clip-path="url(#pNORMALIZED)" style="fill: none; stroke: #f8fafc; stroke-width: 2; stroke-linecap: round"/>
   </g>
   <g id="line2d_13">
    <path d="M 207.984 26.779978
L 207.984 45.724978
M 216.984 45.724978
L 198.984 45.724978
M 216.984 52.204978
L 198.984 52.204978
M 207.984 52.204978
L 207.984 71.149978
" clip-path="url(#pNORMALIZED)" style="fill: none; stroke: #f8fafc; stroke-width: 2; stroke-linecap: round"/>
   </g>
   <g id="line2d_14">
    <path d="M 207.984 71.149978
L 207.984 85.549978
L 198.984 85.549978
L 216.984 85.549978
M 201.684 89.869978
L 214.284 89.869978
M 206.184 94.189978
L 209.784 94.189978
" clip-path="url(#pNORMALIZED)" style="fill: none; stroke: #f8fafc; stroke-width: 2; stroke-linecap: round"/>
   </g>
   <g id="line2d_15">
    <path d="M 260.184 26.779978
L 260.184 45.724978
M 269.184 45.724978
L 251.184 45.724978
M 269.184 52.204978
L 251.184 52.204978
M 260.184 52.204978
L 260.184 71.149978
" clip-path="url(#pNORMALIZED)" style="fill: none; stroke: #f8fafc; stroke-width: 2; stroke-linecap: round"/>
   </g>
   <g id="line2d_16">
    <path d="M 260.184 71.149978
L 260.184 85.549978
L 251.184 85.549978
L 269.184 85.549978
M 253.884 89.869978
L 266.484 89.869978
M 258.384 94.189978
L 261.984 94.189978
" clip-path="url(#pNORMALIZED)" style="fill: none; stroke: #f8fafc; stroke-width: 2; stroke-linecap: round"/>
   </g>
   <g id="text_1">
    <!-- $L_{\Delta,1}$ -->
    <g style="fill: #f8fafc" transform="translate(64.394 15.18) scale(0.14 -0.14)">
     <defs>
      <path id="DejaVuSans-Oblique-4c" d="M 1075 4666
L 1709 4666
L 909 525
L 3181 525
L 3078 0
L 172 0
L 1075 4666
z
" transform="scale(0.015625)"/>
      <path id="DejaVuSans-394" d="M 2188 4044
L 906 525
L 3472 525
L 2188 4044
z
M 50 0
L 1831 4666
L 2547 4666
L 4325 0
L 50 0
z
" transform="scale(0.015625)"/>
      <path id="DejaVuSans-2c" d="M 750 794
L 1409 794
L 1409 256
L 897 -744
L 494 -744
L 750 256
L 750 794
z
" transform="scale(0.015625)"/>
      <path id="DejaVuSans-31" d="M 794 531
L 1825 531
L 1825 4091
L 703 3866
L 703 4441
L 1819 4666
L 2450 4666
L 2450 531
L 3481 531
L 3481 0
L 794 0
L 794 531
z
" transform="scale(0.015625)"/>
     </defs>
     <use xlink:href="#DejaVuSans-Oblique-4c" transform="translate(0 0.09375)"/>
     <use xlink:href="#DejaVuSans-394" transform="translate(55.712891 -16.3125) scale(0.7)"/>
     <use xlink:href="#DejaVuSans-2c" transform="translate(103.598633 -16.3125) scale(0.7)"/>
     <use xlink:href="#DejaVuSans-31" transform="translate(139.487305 -16.3125) scale(0.7)"/>
    </g>
   </g>
   <g id="text_2">
    <!-- $L_{\Delta,2}$ -->
    <g style="fill: #f8fafc" transform="translate(116.594 15.18) scale(0.14 -0.14)">
     <defs>
      <path id="DejaVuSans-32" d="M 1228 531
L 3431 531
L 3431 0
L 469 0
L 469 531
Q 828 903 1448 1529
Q 2069 2156 2228 2338
Q 2531 2678 2651 2914
Q 2772 3150 2772 3378
Q 2772 3750 2511 3984
Q 2250 4219 1831 4219
Q 1534 4219 1204 4116
Q 875 4013 500 3803
L 500 4441
Q 881 4594 1212 4672
Q 1544 4750 1819 4750
Q 2544 4750 2975 4387
Q 3406 4025 3406 3419
Q 3406 3131 3298 2873
Q 3191 2616 2906 2266
Q 2828 2175 2409 1742
Q 1991 1309 1228 531
z
" transform="scale(0.015625)"/>
     </defs>
     <use xlink:href="#DejaVuSans-Oblique-4c" transform="translate(0 0.09375)"/>
     <use xlink:href="#DejaVuSans-394" transform="translate(55.712891 -16.3125) scale(0.7)"/>
     <use xlink:href="#DejaVuSans-2c" transform="translate(103.598633 -16.3125) scale(0.7)"/>
     <use xlink:href="#DejaVuSans-32" transform="translate(139.487305 -16.3125) scale(0.7)"/>
    </g>
   </g>
   <g id="text_3">
    <!-- $L_{\Delta,3}$ -->
    <g style="fill: #f8fafc" transform="translate(168.794 15.18) scale(0.14 -0.14)">
     <defs>
      <path id="DejaVuSans-33" d="M 2597 2516
Q 3050 2419 3304 2112
Q 3559 1806 3559 1356
Q 3559 666 3084 287
Q 2609 -91 1734 -91
Q 1441 -91 1130 -33
Q 819 25 488 141
L 488 750
Q 750 597 1062 519
Q 1375 441 1716 441
Q 2309 441 2620 675
Q 2931 909 2931 1356
Q 2931 1769 2642 2001
Q 2353 2234 1838 2234
L 1294 2234
L 1294 2753
L 1863 2753
Q 2328 2753 2575 2939
Q 2822 3125 2822 3475
Q 2822 3834 2567 4026
Q 2313 4219 1838 4219
Q 1578 4219 1281 4162
Q 984 4106 628 3988
L 628 4550
Q 988 4650 1302 4700
Q 1616 4750 1894 4750
Q 2613 4750 3031 4423
Q 3450 4097 3450 3541
Q 3450 3153 3228 2886
Q 3006 2619 2597 2516
z
" transform="scale(0.015625)"/>
     </defs>
     <use xlink:href="#DejaVuSans-Oblique-4c" transform="translate(0 0.09375)"/>
     <use xlink:href="#DejaVuSans-394" transform="translate(55.712891 -16.3125) scale(0.7)"/>
     <use xlink:href="#DejaVuSans-2c" transform="translate(103.598633 -16.3125) scale(0.7)"/>
     <use xlink:href="#DejaVuSans-33" transform="translate(139.487305 -16.3125) scale(0.7)"/>
    </g>
   </g>
   <g id="text_4">
    <!-- $L_{\Delta,4}$ -->
    <g style="fill: #f8fafc" transform="translate(220.994 15.18) scale(0.14 -0.14)">
     <defs>
      <path id="DejaVuSans-34" d="M 2419 4116
L 825 1625
L 2419 1625
L 2419 4116
z
M 2253 4666
L 3047 4666
L 3047 1625
L 3713 1625
L 3713 1100
L 3047 1100
L 3047 0
L 2419 0
L 2419 1100
L 313 1100
L 313 1709
L 2253 4666
z
" transform="scale(0.015625)"/>
     </defs>
     <use xlink:href="#DejaVuSans-Oblique-4c" transform="translate(0 0.09375)"/>
     <use xlink:href="#DejaVuSans-394" transform="translate(55.712891 -16.3125) scale(0.7)"/>
     <use xlink:href="#DejaVuSans-2c" transform="translate(103.598633 -16.3125) scale(0.7)"/>
     <use xlink:href="#DejaVuSans-34" transform="translate(139.487305 -16.3125) scale(0.7)"/>
    </g>
   </g>
   <g id="text_5">
    <!-- $C_{\Delta}/2$ -->
    <g style="fill: #f8fafc" transform="translate(8.684 52.828103) scale(0.14 -0.14)">
     <defs>
      <path id="DejaVuSans-Oblique-43" d="M 4447 4306
L 4319 3641
Q 4019 3944 3683 4091
Q 3347 4238 2956 4238
Q 2422 4238 2017 3981
Q 1613 3725 1319 3200
Q 1131 2863 1032 2486
Q 934 2109 934 1728
Q 934 1091 1264 756
Q 1594 422 2222 422
Q 2656 422 3056 561
Q 3456 700 3834 978
L 3688 231
Q 3316 72 2936 -9
Q 2556 -91 2175 -91
Q 1278 -91 773 396
Q 269 884 269 1753
Q 269 2309 461 2846
Q 653 3384 1013 3828
Q 1394 4300 1883 4525
Q 2372 4750 3022 4750
Q 3422 4750 3780 4639
Q 4138 4528 4447 4306
z
" transform="scale(0.015625)"/>
      <path id="DejaVuSans-2f" d="M 1625 4666
L 2156 4666
L 531 -594
L 0 -594
L 1625 4666
z
" transform="scale(0.015625)"/>
     </defs>
     <use xlink:href="#DejaVuSans-Oblique-43" transform="translate(0 0.78125)"/>
     <use xlink:href="#DejaVuSans-394" transform="translate(69.824219 -15.625) scale(0.7)"/>
     <use xlink:href="#DejaVuSans-2f" transform="translate(120.444336 0.78125)"/>
     <use xlink:href="#DejaVuSans-32" transform="translate(150.510742 0.78125)"/>
    </g>
   </g>
   <g id="text_6">
    <!-- $C_{\Delta}$ -->
    <g style="fill: #f8fafc" transform="translate(116.184 52.828103) scale(0.14 -0.14)">
     <use xlink:href="#DejaVuSans-Oblique-43" transform="translate(0 0.78125)"/>
     <use xlink:href="#DejaVuSans-394" transform="translate(69.824219 -15.625) scale(0.7)"/>
    </g>
   </g>
   <g id="text_7">
    <!-- $C_{\Delta}$ -->
    <g style="fill: #f8fafc" transform="translate(168.384 52.828103) scale(0.14 -0.14)">
     <use xlink:href="#DejaVuSans-Oblique-43" transform="translate(0 0.78125)"/>
     <use xlink:href="#DejaVuSans-394" transform="translate(69.824219 -15.625) scale(0.7)"/>
    </g>
   </g>
   <g id="text_8">
    <!-- $C_{\Delta}$ -->
    <g style="fill: #f8fafc" transform="translate(220.584 52.828103) scale(0.14 -0.14)">
     <use xlink:href="#DejaVuSans-Oblique-43" transform="translate(0 0.78125)"/>
     <use xlink:href="#DejaVuSans-394" transform="translate(69.824219 -15.625) scale(0.7)"/>
    </g>
   </g>
   <g id="text_9">
    <!-- $C_{\Delta}/2$ -->
    <g style="fill: #f8fafc" transform="translate(272.784 52.828103) scale(0.14 -0.14)">
     <use xlink:href="#DejaVuSans-Oblique-43" transform="translate(0 0.78125)"/>
     <use xlink:href="#DejaVuSans-394" transform="translate(69.824219 -15.625) scale(0.7)"/>
     <use xlink:href="#DejaVuSans-2f" transform="translate(120.444336 0.78125)"/>
     <use xlink:href="#DejaVuSans-32" transform="translate(150.510742 0.78125)"/>
    </g>
   </g>
   <g id="patch_18">
    <path d="M 27.894 28.315272
C 28.301165 28.315272 28.691708 28.153504 28.979617 27.865595
C 29.267526 27.577686 29.429294 27.187142 29.429294 26.779978
C 29.429294 26.372813 29.267526 25.98227 28.979617 25.694361
C 28.691708 25.406452 28.301165 25.244684 27.894 25.244684
C 27.486835 25.244684 27.096292 25.406452 26.808383 25.694361
C 26.520474 25.98227 26.358706 26.372813 26.358706 26.779978
C 26.358706 27.187142 26.520474 27.577686 26.808383 27.865595
C 27.096292 28.153504 27.486835 28.315272 27.894 28.315272
z
" clip-path="url(#pNORMALIZED)" style="fill: #ffffff; stroke: #f8fafc; stroke-width: 2; stroke-linejoin: miter"/>
   </g>
   <g id="text_10">
    <!-- $P_1$ -->
    <g style="fill: #f8fafc" transform="translate(7.638706 30.643103) scale(0.14 -0.14)">
     <defs>
      <path id="DejaVuSans-Oblique-50" d="M 1081 4666
L 2541 4666
Q 3178 4666 3512 4369
Q 3847 4072 3847 3500
Q 3847 2731 3353 2303
Q 2859 1875 1966 1875
L 1172 1875
L 806 0
L 172 0
L 1081 4666
z
M 1613 4147
L 1275 2394
L 2069 2394
Q 2606 2394 2893 2669
Q 3181 2944 3181 3456
Q 3181 3784 2986 3965
Q 2791 4147 2438 4147
L 1613 4147
z
" transform="scale(0.015625)"/>
     </defs>
     <use xlink:href="#DejaVuSans-Oblique-50" transform="translate(0 0.09375)"/>
     <use xlink:href="#DejaVuSans-31" transform="translate(60.302734 -16.3125) scale(0.7)"/>
    </g>
   </g>
   <g id="patch_19">
    <path d="M 283.674 28.315272
C 284.081165 28.315272 284.471708 28.153504 284.759617 27.865595
C 285.047526 27.577686 285.209294 27.187142 285.209294 26.779978
C 285.209294 26.372813 285.047526 25.98227 284.759617 25.694361
C 284.471708 25.406452 284.081165 25.244684 283.674 25.244684
C 283.266835 25.244684 282.876292 25.406452 282.588383 25.694361
C 282.300474 25.98227 282.138706 26.372813 282.138706 26.779978
C 282.138706 27.187142 282.300474 27.577686 282.588383 27.865595
C 282.876292 28.153504 283.266835 28.315272 283.674 28.315272
z
" clip-path="url(#pNORMALIZED)" style="fill: #ffffff; stroke: #f8fafc; stroke-width: 2; stroke-linejoin: miter"/>
   </g>
   <g id="text_11">
    <!-- $P_2$ -->
    <g style="fill: #f8fafc" transform="translate(288.809294 30.643103) scale(0.14 -0.14)">
     <use xlink:href="#DejaVuSans-Oblique-50" transform="translate(0 0.09375)"/>
     <use xlink:href="#DejaVuSans-32" transform="translate(60.302734 -16.3125) scale(0.7)"/>
    </g>
   </g>
   <g id="patch_20">
    <path d="M 51.384 28.315272
C 51.791165 28.315272 52.181708 28.153504 52.469617 27.865595
C 52.757526 27.577686 52.919294 27.187142 52.919294 26.779978
C 52.919294 26.372813 52.757526 25.98227 52.469617 25.694361
C 52.181708 25.406452 51.791165 25.244684 51.384 25.244684
C 50.976835 25.244684 50.586292 25.406452 50.298383 25.694361
C 50.010474 25.98227 49.848706 26.372813 49.848706 26.779978
C 49.848706 27.187142 50.010474 27.577686 50.298383 27.865595
C 50.586292 28.153504 50.976835 28.315272 51.384 28.315272
z
" clip-path="url(#pNORMALIZED)" style="fill: #f8fafc; stroke: #f8fafc; stroke-width: 2; stroke-linejoin: miter"/>
   </g>
   <g id="patch_21">
    <path d="M 103.584 28.315272
C 103.991165 28.315272 104.381708 28.153504 104.669617 27.865595
C 104.957526 27.577686 105.119294 27.187142 105.119294 26.779978
C 105.119294 26.372813 104.957526 25.98227 104.669617 25.694361
C 104.381708 25.406452 103.991165 25.244684 103.584 25.244684
C 103.176835 25.244684 102.786292 25.406452 102.498383 25.694361
C 102.210474 25.98227 102.048706 26.372813 102.048706 26.779978
C 102.048706 27.187142 102.210474 27.577686 102.498383 27.865595
C 102.786292 28.153504 103.176835 28.315272 103.584 28.315272
z
" clip-path="url(#pNORMALIZED)" style="fill: #f8fafc; stroke: #f8fafc; stroke-width: 2; stroke-linejoin: miter"/>
   </g>
   <g id="patch_22">
    <path d="M 155.784 28.315272
C 156.191165 28.315272 156.581708 28.153504 156.869617 27.865595
C 157.157526 27.577686 157.319294 27.187142 157.319294 26.779978
C 157.319294 26.372813 157.157526 25.98227 156.869617 25.694361
C 156.581708 25.406452 156.191165 25.244684 155.784 25.244684
C 155.376835 25.244684 154.986292 25.406452 154.698383 25.694361
C 154.410474 25.98227 154.248706 26.372813 154.248706 26.779978
C 154.248706 27.187142 154.410474 27.577686 154.698383 27.865595
C 154.986292 28.153504 155.376835 28.315272 155.784 28.315272
z
" clip-path="url(#pNORMALIZED)" style="fill: #f8fafc; stroke: #f8fafc; stroke-width: 2; stroke-linejoin: miter"/>
   </g>
   <g id="patch_23">
    <path d="M 207.984 28.315272
C 208.391165 28.315272 208.781708 28.153504 209.069617 27.865595
C 209.357526 27.577686 209.519294 27.187142 209.519294 26.779978
C 209.519294 26.372813 209.357526 25.98227 209.069617 25.694361
C 208.781708 25.406452 208.391165 25.244684 207.984 25.244684
C 207.576835 25.244684 207.186292 25.406452 206.898383 25.694361
C 206.610474 25.98227 206.448706 26.372813 206.448706 26.779978
C 206.448706 27.187142 206.610474 27.577686 206.898383 27.865595
C 207.186292 28.153504 207.576835 28.315272 207.984 28.315272
z
" clip-path="url(#pNORMALIZED)" style="fill: #f8fafc; stroke: #f8fafc; stroke-width: 2; stroke-linejoin: miter"/>
   </g>
   <g id="patch_24">
    <path d="M 260.184 28.315272
C 260.591165 28.315272 260.981708 28.153504 261.269617 27.865595
C 261.557526 27.577686 261.719294 27.187142 261.719294 26.779978
C 261.719294 26.372813 261.557526 25.98227 261.269617 25.694361
C 260.981708 25.406452 260.591165 25.244684 260.184 25.244684
C 259.776835 25.244684 259.386292 25.406452 259.098383 25.694361
C 258.810474 25.98227 258.648706 26.372813 258.648706 26.779978
C 258.648706 27.187142 258.810474 27.577686 259.098383 27.865595
C 259.386292 28.153504 259.776835 28.315272 260.184 28.315272
z
" clip-path="url(#pNORMALIZED)" style="fill: #f8fafc; stroke: #f8fafc; stroke-width: 2; stroke-linejoin: miter"/>
   </g>
  </g>
 </g>
 <defs>
  <clipPath id="pNORMALIZED">
   <rect x="0" y="0" width="311.568" height="98.869978"/>
  </clipPath>
 </defs>
</svg>
