<?xml version="1.0" encoding="utf-8" standalone="no"?>
<!DOCTYPE svg PUBLIC "-//W3C//DTD SVG 1.1//EN"
  "http://www.w3.org/Graphics/SVG/1.1/DTD/svg11.dtd">
<svg xmlns:xlink="http://www.w3.org/1999/xlink" width="369.72pt" height="97.499978pt" viewBox="0 0 369.72 97.499978" xmlns="http://www.w3.org/2000/svg" version="1.1">
 <metadata>
  <rdf:RDF xmlns:dc="http://purl.org/dc/elements/1.1/" xmlns:cc="http://creativecommons.org/ns#" xmlns:rdf="http://www.w3.org/1999/02/22-rdf-syntax-ns#">
   <cc:Work>
    <dc:type rdf:resource="http://purl.org/dc/dcmitype/StillImage"/>
    <dc:date>normalized</dc:date>
    <dc:format>image/svg+xml</dc:format>
    <dc:creator>
     <cc:Agent>
      <dc:title>Matplotlib v3.10.9, https://matplotlib.org/</dc:title>
     </cc:Agent>
    </dc:creator>
   </cc:Work>
  </rdf:RDF>
 </metadata>
 <defs>
  <style type="text/css">*{stroke-linejoin: round; stroke-linecap: butt}</style>
 </defs>
 <g id="figure_1">
  <g id="patch_1">
   <path d="M 0 97.499978
L 369.72 97.499978
L 369.72 0
L 0 0
L 0 97.499978
z
" style="fill: none"/>
  </g>
  <g id="axes_1">
   <g id="patch_2">
    <path d="M 81.6 24.779978
C 81.6 23.586961 81.125571 22.441587 80.281981 21.597997
C 79.43839 20.754407 78.293016 20.279978 77.1 20.279978
C 75.906984 20.279978 74.76161 20.754407 73.918019 21.597997
C 73.074429 22.441587 72.6 23.586961 72.6 24.779978
" clip-path="url(#pNORMALIZED)" style="fill: none; stroke: #111827; stroke-width: 1.8; stroke-linejoin: miter"/>
   </g>
   <g id="patch_3">
    <path d="M 90.6 24.779978
C 90.6 23.586961 90.125571 22.441587 89.281981 21.597997
C 88.43839 20.754407 87.293016 20.279978 86.1 20.279978
C 84.906984 20.279978 83.76161 20.754407 82.918019 21.597997
C 82.074429 22.441587 81.6 23.586961 81.6 24.779978
" clip-path="url(#pNORMALIZED)" style="fill: none; stroke: #111827; stroke-width: 1.8; stroke-linejoin: miter"/>
   </g>
   <g id="patch_4">
    <path d="M 99.6 24.779978
C 99.6 23.586961 99.125571 22.441587 98.281981 21.597997
C 97.43839 20.754407 96.293016 20.279978 95.1 20.279978
C 93.906984 20.279978 92.76161 20.754407 91.918019 21.597997
C 91.074429 22.441587 90.6 23.586961 90.6 24.779978
" clip-path="url(#pNORMALIZED)" style="fill: none; stroke: #111827; stroke-width: 1.8; stroke-linejoin: miter"/>
   </g>
   <g id="patch_5">
    <path d="M 108.6 24.779978
C 108.6 23.586961 108.125571 22.441587 107.281981 21.597997
C 106.43839 20.754407 105.293016 20.279978 104.1 20.279978
C 102.906984 20.279978 101.76161 20.754407 100.918019 21.597997
C 100.074429 22.441587 99.6 23.586961 99.6 24.779978
" clip-path="url(#pNORMALIZED)" style="fill: none; stroke: #111827; stroke-width: 1.8; stroke-linejoin: miter"/>
   </g>
   <g id="patch_6">
    <path d="M 141 24.779978
C 141 23.586961 140.525571 22.441587 139.681981 21.597997
C 138.83839 20.754407 137.693016 20.279978 136.5 20.279978
C 135.306984 20.279978 134.16161 20.754407 133.318019 21.597997
C 132.474429 22.441587 132 23.586961 132 24.779978
" clip-path="url(#pNORMALIZED)" style="fill: none; stroke: #111827; stroke-width: 1.8; stroke-linejoin: miter"/>
   </g>
   <g id="patch_7">
    <path d="M 150 24.779978
C 150 23.586961 149.525571 22.441587 148.681981 21.597997
C 147.83839 20.754407 146.693016 20.279978 145.5 20.279978
C 144.306984 20.279978 143.16161 20.754407 142.318019 21.597997
C 141.474429 22.441587 141 23.586961 141 24.779978
" clip-path="url(#pNORMALIZED)" style="fill: none; stroke: #111827; stroke-width: 1.8; stroke-linejoin: miter"/>
   </g>
   <g id="patch_8">
    <path d="M 159 24.779978
C 159 23.586961 158.525571 22.441587 157.681981 21.597997
C 156.83839 20.754407 155.693016 20.279978 154.5 20.279978
C 153.306984 20.279978 152.16161 20.754407 151.318019 21.597997
C 150.474429 22.441587 150 23.586961 150 24.779978
" clip-path="url(#pNORMALIZED)" style="fill: none; stroke: #111827; stroke-width: 1.8; stroke-linejoin: miter"/>
   </g>
   <g id="patch_9">
    <path d="M 168 24.779978
C 168 23.586961 167.525571 22.441587 166.681981 21.597997
C 165.83839 20.754407 164.693016 20.279978 163.5 20.279978
C 162.306984 20.279978 161.16161 20.754407 160.318019 21.597997
C 159.474429 22.441587 159 23.586961 159 24.779978
" clip-path="url(#pNORMALIZED)" style="fill: none; stroke: #111827; stroke-width: 1.8; stroke-linejoin: miter"/>
   </g>
   <g id="patch_10">
    <path d="M 200.4 24.779978
C 200.4 23.586961 199.925571 22.441587 199.081981 21.597997
C 198.23839 20.754407 197.093016 20.279978 195.9 20.279978
C 194.706984 20.279978 193.56161 20.754407 192.718019 21.597997
C 191.874429 22.441587 191.4 23.586961 191.4 24.779978
" clip-path="url(#pNORMALIZED)" style="fill: none; stroke: #111827; stroke-width: 1.8; stroke-linejoin: miter"/>
   </g>
   <g id="patch_11">
    <path d="M 209.4 24.779978
C 209.4 23.586961 208.925571 22.441587 208.081981 21.597997
C 207.23839 20.754407 206.093016 20.279978 204.9 20.279978
C 203.706984 20.279978 202.56161 20.754407 201.718019 21.597997
C 200.874429 22.441587 200.4 23.586961 200.4 24.779978
" clip-path="url(#pNORMALIZED)" style="fill: none; stroke: #111827; stroke-width: 1.8; stroke-linejoin: miter"/>
   </g>
   <g id="patch_12">
    <path d="M 218.4 24.779978
C 218.4 23.586961 217.925571 22.441587 217.081981 21.597997
C 216.23839 20.754407 215.093016 20.279978 213.9 20.279978
C 212.706984 20.279978 211.56161 20.754407 210.718019 21.597997
C 209.874429 22.441587 209.4 23.586961 209.4 24.779978
" clip-path="url(#pNORMALIZED)" style="fill: none; stroke: #111827; stroke-width: 1.8; stroke-linejoin: miter"/>
   </g>
   <g id="patch_13">
    <path d="M 227.4 24.779978
C 227.4 23.586961 226.925571 22.441587 226.081981 21.597997
C 225.23839 20.754407 224.093016 20.279978 222.9 20.279978
C 221.706984 20.279978 220.56161 20.754407 219.718019 21.597997
C 218.874429 22.441587 218.4 23.586961 218.4 24.779978
" clip-path="url(#pNORMALIZED)" style="fill: none; stroke: #111827; stroke-width: 1.8; stroke-linejoin: miter"/>
   </g>
   <g id="patch_14">
    <path d="M 259.8 24.779978
C 259.8 23.586961 259.325571 22.441587 258.481981 21.597997
C 257.63839 20.754407 256.493016 20.279978 255.3 20.279978
C 254.106984 20.279978 252.96161 20.754407 252.118019 21.597997
C 251.274429 22.441587 250.8 23.586961 250.8 24.779978
" clip-path="url(#pNORMALIZED)" style="fill: none; stroke: #111827; stroke-width: 1.8; stroke-linejoin: miter"/>
   </g>
   <g id="patch_15">
    <path d="M 268.8 24.779978
C 268.8 23.586961 268.325571 22.441587 267.481981 21.597997
C 266.63839 20.754407 265.493016 20.279978 264.3 20.279978
C 263.106984 20.279978 261.96161 20.754407 261.118019 21.597997
C 260.274429 22.441587 259.8 23.586961 259.8 24.779978
" clip-path="url(#pNORMALIZED)" style="fill: none; stroke: #111827; stroke-width: 1.8; stroke-linejoin: miter"/>
   </g>
   <g id="patch_16">
    <path d="M 277.8 24.779978
C 277.8 23.586961 277.325571 22.441587 276.481981 21.597997
C 275.63839 20.754407 274.493016 20.279978 273.3 20.279978
C 272.106984 20.279978 270.96161 20.754407 270.118019 21.597997
C 269.274429 22.441587 268.8 23.586961 268.8 24.779978
" clip-path="url(#pNORMALIZED)" style="fill: none; stroke: #111827; stroke-width: 1.8; stroke-linejoin: miter"/>
   </g>
   <g id="patch_17">
    <path d="M 286.8 24.779978
C 286.8 23.586961 286.325571 22.441587 285.481981 21.597997
C 284.63839 20.754407 283.493016 20.279978 282.3 20.279978
C 281.106984 20.279978 279.96161 20.754407 279.118019 21.597997
C 278.274429 22.441587 277.8 23.586961 277.8 24.779978
" clip-path="url(#pNORMALIZED)" style="fill: none; stroke: #111827; stroke-width: 1.8; stroke-linejoin: miter"/>
   </g>
   <g id="line2d_1">
    <path d="M 60.9 24.779978
L 72.6 24.779978
M 108.6 24.779978
L 120.3 24.779978
" clip-path="url(#pNORMALIZED)" style="fill: none; stroke: #111827; stroke-width: 1.8; stroke-linecap: round"/>
   </g>
   <g id="line2d_2">
    <path d="M 120.3 24.779978
L 120.3 44.039978
M 129.3 44.039978
L 111.3 44.039978
M 129.3 50.519978
L 111.3 50.519978
M 120.3 50.519978
L 120.3 69.779978
" clip-path="url(#pNORMALIZED)" style="fill: none; stroke: #111827; stroke-width: 1.8; stroke-linecap: round"/>
   </g>
   <g id="line2d_3">
    <path d="M 120.3 69.779978
L 120.3 84.179978
L 111.3 84.179978
L 129.3 84.179978
M 114 88.499978
L 126.6 88.499978
M 118.5 92.819978
L 122.1 92.819978
" clip-path="url(#pNORMALIZED)" style="fill: none; stroke: #111827; stroke-width: 1.8; stroke-linecap: round"/>
   </g>
   <g id="line2d_4">
    <path d="M 120.3 24.779978
L 132 24.779978
M 168 24.779978
L 179.7 24.779978
" clip-path="url(#pNORMALIZED)" style="fill: none; stroke: #111827; stroke-width: 1.8; stroke-linecap: round"/>
   </g>
   <g id="line2d_5">
    <path d="M 179.7 24.779978
L 179.7 44.039978
M 188.7 44.039978
L 170.7 44.039978
M 188.7 50.519978
L 170.7 50.519978
M 179.7 50.519978
L 179.7 69.779978
" clip-path="url(#pNORMALIZED)" style="fill: none; stroke: #111827; stroke-width: 1.8; stroke-linecap: round"/>
   </g>
   <g id="line2d_6">
    <path d="M 179.7 69.779978
L 179.7 84.179978
L 170.7 84.179978
L 188.7 84.179978
M 173.4 88.499978
L 186 88.499978
M 177.9 92.819978
L 181.5 92.819978
" clip-path="url(#pNORMALIZED)" style="fill: none; stroke: #111827; stroke-width: 1.8; stroke-linecap: round"/>
   </g>
   <g id="line2d_7">
    <path d="M 179.7 24.779978
L 191.4 24.779978
M 227.4 24.779978
L 239.1 24.779978
" clip-path="url(#pNORMALIZED)" style="fill: none; stroke: #111827; stroke-width: 1.8; stroke-linecap: round"/>
   </g>
   <g id="line2d_8">
    <path d="M 239.1 24.779978
L 239.1 44.039978
M 248.1 44.039978
L 230.1 44.039978
M 248.1 50.519978
L 230.1 50.519978
M 239.1 50.519978
L 239.1 69.779978
" clip-path="url(#pNORMALIZED)" style="fill: none; stroke: #111827; stroke-width: 1.8; stroke-linecap: round"/>
   </g>
   <g id="line2d_9">
    <path d="M 239.1 69.779978
L 239.1 84.179978
L 230.1 84.179978
L 248.1 84.179978
M 232.8 88.499978
L 245.4 88.499978
M 237.3 92.819978
L 240.9 92.819978
" clip-path="url(#pNORMALIZED)" style="fill: none; stroke: #111827; stroke-width: 1.8; stroke-linecap: round"/>
   </g>
   <g id="line2d_10">
    <path d="M 239.1 24.779978
L 250.8 24.779978
M 286.8 24.779978
L 298.5 24.779978
" clip-path="url(#pNORMALIZED)" style="fill: none; stroke: #111827; stroke-width: 1.8; stroke-linecap: round"/>
   </g>
   <g id="line2d_11">
    <path d="M 298.5 24.779978
L 298.5 44.039978
M 307.5 44.039978
L 289.5 44.039978
M 307.5 50.519978
L 289.5 50.519978
M 298.5 50.519978
L 298.5 69.779978
" clip-path="url(#pNORMALIZED)" style="fill: none; stroke: #111827; stroke-width: 1.8; stroke-linecap: round"/>
   </g>
   <g id="line2d_12">
    <path d="M 298.5 69.779978
L 298.5 84.179978
L 289.5 84.179978
L 307.5 84.179978
M 292.2 88.499978
L 304.8 88.499978
M 296.7 92.819978
L 300.3 92.819978
" clip-path="url(#pNORMALIZED)" style="fill: none; stroke: #111827; stroke-width: 1.8; stroke-linecap: round"/>
   </g>
   <g id="line2d_13">
    <path d="M 298.5 24.779978
L 309.3 24.779978
L 320.1 24.779978
" clip-path="url(#pNORMALIZED)" style="fill: none; stroke: #111827; stroke-width: 1.8; stroke-linecap: round"/>
   </g>
   <g id="text_1">
    <!-- $L_1$ -->
    <g style="fill: #111827" transform="translate(84.42 14.184375) scale(0.12 -0.12)">
     <defs>
      <path id="DejaVuSans-Oblique-4c" d="M 1075 4666
L 1709 4666
L 909 525
L 3181 525
L 3078 0
L 172 0
L 1075 4666
z
" transform="scale(0.015625)"/>
      <path id="DejaVuSans-31" d="M 794 531
L 1825 531
L 1825 4091
L 703 3866
L 703 4441
L 1819 4666
L 2450 4666
L 2450 531
L 3481 531
L 3481 0
L 794 0
L 794 531
z
" transform="scale(0.015625)"/>
     </defs>
     <use xlink:href="#DejaVuSans-Oblique-4c" transform="translate(0 0.09375)"/>
     <use xlink:href="#DejaVuSans-31" transform="translate(55.712891 -16.3125) scale(0.7)"/>
    </g>
   </g>
   <g id="text_2">
    <!-- $C_1$ -->
    <g style="fill: #111827" transform="translate(113.22 18.684353) scale(0.12 -0.12)">
     <defs>
      <path id="DejaVuSans-Oblique-43" d="M 4447 4306
L 4319 3641
Q 4019 3944 3683 4091
Q 3347 4238 2956 4238
Q 2422 4238 2017 3981
Q 1613 3725 1319 3200
Q 1131 2863 1032 2486
Q 934 2109 934 1728
Q 934 1091 1264 756
Q 1594 422 2222 422
Q 2656 422 3056 561
Q 3456 700 3834 978
L 3688 231
Q 3316 72 2936 -9
Q 2556 -91 2175 -91
Q 1278 -91 773 396
Q 269 884 269 1753
Q 269 2309 461 2846
Q 653 3384 1013 3828
Q 1394 4300 1883 4525
Q 2372 4750 3022 4750
Q 3422 4750 3780 4639
Q 4138 4528 4447 4306
z
" transform="scale(0.015625)"/>
     </defs>
     <use xlink:href="#DejaVuSans-Oblique-43" transform="translate(0 0.78125)"/>
     <use xlink:href="#DejaVuSans-31" transform="translate(69.824219 -15.625) scale(0.7)"/>
    </g>
   </g>
   <g id="text_3">
    <!-- $L_2$ -->
    <g style="fill: #111827" transform="translate(143.82 14.184375) scale(0.12 -0.12)">
     <defs>
      <path id="DejaVuSans-32" d="M 1228 531
L 3431 531
L 3431 0
L 469 0
L 469 531
Q 828 903 1448 1529
Q 2069 2156 2228 2338
Q 2531 2678 2651 2914
Q 2772 3150 2772 3378
Q 2772 3750 2511 3984
Q 2250 4219 1831 4219
Q 1534 4219 1204 4116
Q 875 4013 500 3803
L 500 4441
Q 881 4594 1212 4672
Q 1544 4750 1819 4750
Q 2544 4750 2975 4387
Q 3406 4025 3406 3419
Q 3406 3131 3298 2873
Q 3191 2616 2906 2266
Q 2828 2175 2409 1742
Q 1991 1309 1228 531
z
" transform="scale(0.015625)"/>
     </defs>
     <use xlink:href="#DejaVuSans-Oblique-4c" transform="translate(0 0.09375)"/>
     <use xlink:href="#DejaVuSans-32" transform="translate(55.712891 -16.3125) scale(0.7)"/>
    </g>
   </g>
   <g id="text_4">
    <!-- $C_2$ -->
    <g style="fill: #111827" transform="translate(172.62 18.684353) scale(0.12 -0.12)">
     <use xlink:href="#DejaVuSans-Oblique-43" transform="translate(0 0.78125)"/>
     <use xlink:href="#DejaVuSans-32" transform="translate(69.824219 -15.625) scale(0.7)"/>
    </g>
   </g>
   <g id="text_5">
    <!-- $L_3$ -->
    <g style="fill: #111827" transform="translate(203.22 14.184375) scale(0.12 -0.12)">
     <defs>
      <path id="DejaVuSans-33" d="M 2597 2516
Q 3050 2419 3304 2112
Q 3559 1806 3559 1356
Q 3559 666 3084 287
Q 2609 -91 1734 -91
Q 1441 -91 1130 -33
Q 819 25 488 141
L 488 750
Q 750 597 1062 519
Q 1375 441 1716 441
Q 2309 441 2620 675
Q 2931 909 2931 1356
Q 2931 1769 2642 2001
Q 2353 2234 1838 2234
L 1294 2234
L 1294 2753
L 1863 2753
Q 2328 2753 2575 2939
Q 2822 3125 2822 3475
Q 2822 3834 2567 4026
Q 2313 4219 1838 4219
Q 1578 4219 1281 4162
Q 984 4106 628 3988
L 628 4550
Q 988 4650 1302 4700
Q 1616 4750 1894 4750
Q 2613 4750 3031 4423
Q 3450 4097 3450 3541
Q 3450 3153 3228 2886
Q 3006 2619 2597 2516
z
" transform="scale(0.015625)"/>
     </defs>
     <use xlink:href="#DejaVuSans-Oblique-4c" transform="translate(0 0.09375)"/>
     <use xlink:href="#DejaVuSans-33" transform="translate(55.712891 -16.3125) scale(0.7)"/>
    </g>
   </g>
   <g id="text_6">
    <!-- $C_3$ -->
    <g style="fill: #111827" transform="translate(232.02 18.684353) scale(0.12 -0.12)">
     <use xlink:href="#DejaVuSans-Oblique-43" transform="translate(0 0.78125)"/>
     <use xlink:href="#DejaVuSans-33" transform="translate(69.824219 -15.625) scale(0.7)"/>
    </g>
   </g>
   <g id="text_7">
    <!-- $L_4$ -->
    <g style="fill: #111827" transform="translate(262.62 14.184375) scale(0.12 -0.12)">
     <defs>
      <path id="DejaVuSans-34" d="M 2419 4116
L 825 1625
L 2419 1625
L 2419 4116
z
M 2253 4666
L 3047 4666
L 3047 1625
L 3713 1625
L 3713 1100
L 3047 1100
L 3047 0
L 2419 0
L 2419 1100
L 313 1100
L 313 1709
L 2253 4666
z
" transform="scale(0.015625)"/>
     </defs>
     <use xlink:href="#DejaVuSans-Oblique-4c" transform="translate(0 0.09375)"/>
     <use xlink:href="#DejaVuSans-34" transform="translate(55.712891 -16.3125) scale(0.7)"/>
    </g>
   </g>
   <g id="text_8">
    <!-- $C_4$ -->
    <g style="fill: #111827" transform="translate(291.42 18.684353) scale(0.12 -0.12)">
     <use xlink:href="#DejaVuSans-Oblique-43" transform="translate(0 0.78125)"/>
     <use xlink:href="#DejaVuSans-34" transform="translate(69.824219 -15.625) scale(0.7)"/>
    </g>
   </g>
   <g id="patch_18">
    <path d="M 60.9 27.479978
C 61.616048 27.479978 62.302866 27.195489 62.809188 26.689166
C 63.315511 26.182843 63.6 25.496026 63.6 24.779978
C 63.6 24.063929 63.315511 23.377112 62.809188 22.870789
C 62.302866 22.364467 61.616048 22.079978 60.9 22.079978
C 60.183952 22.079978 59.497134 22.364467 58.990812 22.870789
C 58.484489 23.377112 58.2 24.063929 58.2 24.779978
C 58.2 25.496026 58.484489 26.182843 58.990812 26.689166
C 59.497134 27.195489 60.183952 27.479978 60.9 27.479978
z
" clip-path="url(#pNORMALIZED)" style="fill: #ffffff; stroke: #111827; stroke-width: 1.8; stroke-linejoin: miter"/>
   </g>
   <g id="text_9">
    <!-- head / $P_1$ -->
    <g style="fill: #111827" transform="translate(0 28.091228) scale(0.12 -0.12)">
     <defs>
      <path id="DejaVuSans-68" d="M 3513 2113
L 3513 0
L 2938 0
L 2938 2094
Q 2938 2591 2744 2837
Q 2550 3084 2163 3084
Q 1697 3084 1428 2787
Q 1159 2491 1159 1978
L 1159 0
L 581 0
L 581 4863
L 1159 4863
L 1159 2956
Q 1366 3272 1645 3428
Q 1925 3584 2291 3584
Q 2894 3584 3203 3211
Q 3513 2838 3513 2113
z
" transform="scale(0.015625)"/>
      <path id="DejaVuSans-65" d="M 3597 1894
L 3597 1613
L 953 1613
Q 991 1019 1311 708
Q 1631 397 2203 397
Q 2534 397 2845 478
Q 3156 559 3463 722
L 3463 178
Q 3153 47 2828 -22
Q 2503 -91 2169 -91
Q 1331 -91 842 396
Q 353 884 353 1716
Q 353 2575 817 3079
Q 1281 3584 2069 3584
Q 2775 3584 3186 3129
Q 3597 2675 3597 1894
z
M 3022 2063
Q 3016 2534 2758 2815
Q 2500 3097 2075 3097
Q 1594 3097 1305 2825
Q 1016 2553 972 2059
L 3022 2063
z
" transform="scale(0.015625)"/>
      <path id="DejaVuSans-61" d="M 2194 1759
Q 1497 1759 1228 1600
Q 959 1441 959 1056
Q 959 750 1161 570
Q 1363 391 1709 391
Q 2188 391 2477 730
Q 2766 1069 2766 1631
L 2766 1759
L 2194 1759
z
M 3341 1997
L 3341 0
L 2766 0
L 2766 531
Q 2569 213 2275 61
Q 1981 -91 1556 -91
Q 1019 -91 701 211
Q 384 513 384 1019
Q 384 1609 779 1909
Q 1175 2209 1959 2209
L 2766 2209
L 2766 2266
Q 2766 2663 2505 2880
Q 2244 3097 1772 3097
Q 1472 3097 1187 3025
Q 903 2953 641 2809
L 641 3341
Q 956 3463 1253 3523
Q 1550 3584 1831 3584
Q 2591 3584 2966 3190
Q 3341 2797 3341 1997
z
" transform="scale(0.015625)"/>
      <path id="DejaVuSans-64" d="M 2906 2969
L 2906 4863
L 3481 4863
L 3481 0
L 2906 0
L 2906 525
Q 2725 213 2448 61
Q 2172 -91 1784 -91
Q 1150 -91 751 415
Q 353 922 353 1747
Q 353 2572 751 3078
Q 1150 3584 1784 3584
Q 2172 3584 2448 3432
Q 2725 3281 2906 2969
z
M 947 1747
Q 947 1113 1208 752
Q 1469 391 1925 391
Q 2381 391 2643 752
Q 2906 1113 2906 1747
Q 2906 2381 2643 2742
Q 2381 3103 1925 3103
Q 1469 3103 1208 2742
Q 947 2381 947 1747
z
" transform="scale(0.015625)"/>
      <path id="DejaVuSans-20" transform="scale(0.015625)"/>
      <path id="DejaVuSans-2f" d="M 1625 4666
L 2156 4666
L 531 -594
L 0 -594
L 1625 4666
z
" transform="scale(0.015625)"/>
      <path id="DejaVuSans-Oblique-50" d="M 1081 4666
L 2541 4666
Q 3178 4666 3512 4369
Q 3847 4072 3847 3500
Q 3847 2731 3353 2303
Q 2859 1875 1966 1875
L 1172 1875
L 806 0
L 172 0
L 1081 4666
z
M 1613 4147
L 1275 2394
L 2069 2394
Q 2606 2394 2893 2669
Q 3181 2944 3181 3456
Q 3181 3784 2986 3965
Q 2791 4147 2438 4147
L 1613 4147
z
" transform="scale(0.015625)"/>
     </defs>
     <use xlink:href="#DejaVuSans-68" transform="translate(0 0.015625)"/>
     <use xlink:href="#DejaVuSans-65" transform="translate(63.378906 0.015625)"/>
     <use xlink:href="#DejaVuSans-61" transform="translate(124.902344 0.015625)"/>
     <use xlink:href="#DejaVuSans-64" transform="translate(186.181641 0.015625)"/>
     <use xlink:href="#DejaVuSans-20" transform="translate(249.658203 0.015625)"/>
     <use xlink:href="#DejaVuSans-2f" transform="translate(281.445312 0.015625)"/>
     <use xlink:href="#DejaVuSans-20" transform="translate(315.136719 0.015625)"/>
     <use xlink:href="#DejaVuSans-Oblique-50" transform="translate(346.923828 0.015625)"/>
     <use xlink:href="#DejaVuSans-31" transform="translate(407.226562 -16.390625) scale(0.7)"/>
    </g>
   </g>
   <g id="patch_19">
    <path d="M 120.3 27.479978
C 121.016048 27.479978 121.702866 27.195489 122.209188 26.689166
C 122.715511 26.182843 123 25.496026 123 24.779978
C 123 24.063929 122.715511 23.377112 122.209188 22.870789
C 121.702866 22.364467 121.016048 22.079978 120.3 22.079978
C 119.583952 22.079978 118.897134 22.364467 118.390812 22.870789
C 117.884489 23.377112 117.6 24.063929 117.6 24.779978
C 117.6 25.496026 117.884489 26.182843 118.390812 26.689166
C 118.897134 27.195489 119.583952 27.479978 120.3 27.479978
z
" clip-path="url(#pNORMALIZED)" style="fill: #111827; stroke: #111827; stroke-width: 1.8; stroke-linejoin: miter"/>
   </g>
   <g id="patch_20">
    <path d="M 179.7 27.479978
C 180.416048 27.479978 181.102866 27.195489 181.609188 26.689166
C 182.115511 26.182843 182.4 25.496026 182.4 24.779978
C 182.4 24.063929 182.115511 23.377112 181.609188 22.870789
C 181.102866 22.364467 180.416048 22.079978 179.7 22.079978
C 178.983952 22.079978 178.297134 22.364467 177.790812 22.870789
C 177.284489 23.377112 177 24.063929 177 24.779978
C 177 25.496026 177.284489 26.182843 177.790812 26.689166
C 178.297134 27.195489 178.983952 27.479978 179.7 27.479978
z
" clip-path="url(#pNORMALIZED)" style="fill: #111827; stroke: #111827; stroke-width: 1.8; stroke-linejoin: miter"/>
   </g>
   <g id="patch_21">
    <path d="M 239.1 27.479978
C 239.816048 27.479978 240.502866 27.195489 241.009188 26.689166
C 241.515511 26.182843 241.8 25.496026 241.8 24.779978
C 241.8 24.063929 241.515511 23.377112 241.009188 22.870789
C 240.502866 22.364467 239.816048 22.079978 239.1 22.079978
C 238.383952 22.079978 237.697134 22.364467 237.190812 22.870789
C 236.684489 23.377112 236.4 24.063929 236.4 24.779978
C 236.4 25.496026 236.684489 26.182843 237.190812 26.689166
C 237.697134 27.195489 238.383952 27.479978 239.1 27.479978
z
" clip-path="url(#pNORMALIZED)" style="fill: #111827; stroke: #111827; stroke-width: 1.8; stroke-linejoin: miter"/>
   </g>
   <g id="patch_22">
    <path d="M 298.5 27.479978
C 299.216048 27.479978 299.902866 27.195489 300.409188 26.689166
C 300.915511 26.182843 301.2 25.496026 301.2 24.779978
C 301.2 24.063929 300.915511 23.377112 300.409188 22.870789
C 299.902866 22.364467 299.216048 22.079978 298.5 22.079978
C 297.783952 22.079978 297.097134 22.364467 296.590812 22.870789
C 296.084489 23.377112 295.8 24.063929 295.8 24.779978
C 295.8 25.496026 296.084489 26.182843 296.590812 26.689166
C 297.097134 27.195489 297.783952 27.479978 298.5 27.479978
z
" clip-path="url(#pNORMALIZED)" style="fill: #111827; stroke: #111827; stroke-width: 1.8; stroke-linejoin: miter"/>
   </g>
   <g id="patch_23">
    <path d="M 320.1 27.479978
C 320.816048 27.479978 321.502866 27.195489 322.009188 26.689166
C 322.515511 26.182843 322.8 25.496026 322.8 24.779978
C 322.8 24.063929 322.515511 23.377112 322.009188 22.870789
C 321.502866 22.364467 320.816048 22.079978 320.1 22.079978
C 319.383952 22.079978 318.697134 22.364467 318.190812 22.870789
C 317.684489 23.377112 317.4 24.063929 317.4 24.779978
C 317.4 25.496026 317.684489 26.182843 318.190812 26.689166
C 318.697134 27.195489 319.383952 27.479978 320.1 27.479978
z
" clip-path="url(#pNORMALIZED)" style="fill: #ffffff; stroke: #111827; stroke-width: 1.8; stroke-linejoin: miter"/>
   </g>
   <g id="text_10">
    <!-- tail / $P_2$ -->
    <g style="fill: #111827" transform="translate(326.4 28.091228) scale(0.12 -0.12)">
     <defs>
      <path id="DejaVuSans-74" d="M 1172 4494
L 1172 3500
L 2356 3500
L 2356 3053
L 1172 3053
L 1172 1153
Q 1172 725 1289 603
Q 1406 481 1766 481
L 2356 481
L 2356 0
L 1766 0
Q 1100 0 847 248
Q 594 497 594 1153
L 594 3053
L 172 3053
L 172 3500
L 594 3500
L 594 4494
L 1172 4494
z
" transform="scale(0.015625)"/>
      <path id="DejaVuSans-69" d="M 603 3500
L 1178 3500
L 1178 0
L 603 0
L 603 3500
z
M 603 4863
L 1178 4863
L 1178 4134
L 603 4134
L 603 4863
z
" transform="scale(0.015625)"/>
      <path id="DejaVuSans-6c" d="M 603 4863
L 1178 4863
L 1178 0
L 603 0
L 603 4863
z
" transform="scale(0.015625)"/>
     </defs>
     <use xlink:href="#DejaVuSans-74" transform="translate(0 0.015625)"/>
     <use xlink:href="#DejaVuSans-61" transform="translate(39.208984 0.015625)"/>
     <use xlink:href="#DejaVuSans-69" transform="translate(100.488281 0.015625)"/>
     <use xlink:href="#DejaVuSans-6c" transform="translate(128.271484 0.015625)"/>
     <use xlink:href="#DejaVuSans-20" transform="translate(156.054688 0.015625)"/>
     <use xlink:href="#DejaVuSans-2f" transform="translate(187.841797 0.015625)"/>
     <use xlink:href="#DejaVuSans-20" transform="translate(221.533203 0.015625)"/>
     <use xlink:href="#DejaVuSans-Oblique-50" transform="translate(253.320312 0.015625)"/>
     <use xlink:href="#DejaVuSans-32" transform="translate(313.623047 -16.390625) scale(0.7)"/>
    </g>
   </g>
  </g>
 </g>
 <defs>
  <clipPath id="pNORMALIZED">
   <rect x="0.168" y="0" width="369.072" height="97.499978"/>
  </clipPath>
 </defs>
</svg>
