<?xml version="1.0" encoding="utf-8" standalone="no"?>
<!DOCTYPE svg PUBLIC "-//W3C//DTD SVG 1.1//EN"
  "http://www.w3.org/Graphics/SVG/1.1/DTD/svg11.dtd">
<svg xmlns:xlink="http://www.w3.org/1999/xlink" width="464.559375pt" height="102pt" viewBox="0 0 464.559375 102" xmlns="http://www.w3.org/2000/svg" version="1.1">
 <metadata>
  <rdf:RDF xmlns:dc="http://purl.org/dc/elements/1.1/" xmlns:cc="http://creativecommons.org/ns#" xmlns:rdf="http://www.w3.org/1999/02/22-rdf-syntax-ns#">
   <cc:Work>
    <dc:type rdf:resource="http://purl.org/dc/dcmitype/StillImage"/>
    <dc:date>normalized</dc:date>
    <dc:format>image/svg+xml</dc:format>
    <dc:creator>
     <cc:Agent>
      <dc:title>Matplotlib v3.10.9, https://matplotlib.org/</dc:title>
     </cc:Agent>
    </dc:creator>
   </cc:Work>
  </rdf:RDF>
 </metadata>
 <defs>
  <style type="text/css">*{stroke-linejoin: round; stroke-linecap: butt}</style>
 </defs>
 <g id="figure_1">
  <g id="patch_1">
   <path d="M 0 102
L 464.559375 102
L 464.559375 0
L 0 0
L 0 102
z
" style="fill: none"/>
  </g>
  <g id="axes_1">
   <g id="patch_2">
    <path d="M 189.223125 29.28
C 189.223125 28.086984 188.748696 26.94161 187.905106 26.098019
C 187.061515 25.254429 185.916141 24.78 184.723125 24.78
C 183.530109 24.78 182.384735 25.254429 181.541144 26.098019
C 180.697554 26.94161 180.223125 28.086984 180.223125 29.28
" clip-path="url(#pNORMALIZED)" style="fill: none; stroke: #111827; stroke-width: 1.8; stroke-linejoin: miter"/>
   </g>
   <g id="patch_3">
    <path d="M 198.223125 29.28
C 198.223125 28.086984 197.748696 26.94161 196.905106 26.098019
C 196.061515 25.254429 194.916141 24.78 193.723125 24.78
C 192.530109 24.78 191.384735 25.254429 190.541144 26.098019
C 189.697554 26.94161 189.223125 28.086984 189.223125 29.28
" clip-path="url(#pNORMALIZED)" style="fill: none; stroke: #111827; stroke-width: 1.8; stroke-linejoin: miter"/>
   </g>
   <g id="patch_4">
    <path d="M 207.223125 29.28
C 207.223125 28.086984 206.748696 26.94161 205.905106 26.098019
C 205.061515 25.254429 203.916141 24.78 202.723125 24.78
C 201.530109 24.78 200.384735 25.254429 199.541144 26.098019
C 198.697554 26.94161 198.223125 28.086984 198.223125 29.28
" clip-path="url(#pNORMALIZED)" style="fill: none; stroke: #111827; stroke-width: 1.8; stroke-linejoin: miter"/>
   </g>
   <g id="patch_5">
    <path d="M 216.223125 29.28
C 216.223125 28.086984 215.748696 26.94161 214.905106 26.098019
C 214.061515 25.254429 212.916141 24.78 211.723125 24.78
C 210.530109 24.78 209.384735 25.254429 208.541144 26.098019
C 207.697554 26.94161 207.223125 28.086984 207.223125 29.28
" clip-path="url(#pNORMALIZED)" style="fill: none; stroke: #111827; stroke-width: 1.8; stroke-linejoin: miter"/>
   </g>
   <g id="patch_6">
    <path d="M 261.223125 29.28
C 261.223125 28.086984 260.748696 26.94161 259.905106 26.098019
C 259.061515 25.254429 257.916141 24.78 256.723125 24.78
C 255.530109 24.78 254.384735 25.254429 253.541144 26.098019
C 252.697554 26.94161 252.223125 28.086984 252.223125 29.28
" clip-path="url(#pNORMALIZED)" style="fill: none; stroke: #111827; stroke-width: 1.8; stroke-linejoin: miter"/>
   </g>
   <g id="patch_7">
    <path d="M 270.223125 29.28
C 270.223125 28.086984 269.748696 26.94161 268.905106 26.098019
C 268.061515 25.254429 266.916141 24.78 265.723125 24.78
C 264.530109 24.78 263.384735 25.254429 262.541144 26.098019
C 261.697554 26.94161 261.223125 28.086984 261.223125 29.28
" clip-path="url(#pNORMALIZED)" style="fill: none; stroke: #111827; stroke-width: 1.8; stroke-linejoin: miter"/>
   </g>
   <g id="patch_8">
    <path d="M 279.223125 29.28
C 279.223125 28.086984 278.748696 26.94161 277.905106 26.098019
C 277.061515 25.254429 275.916141 24.78 274.723125 24.78
C 273.530109 24.78 272.384735 25.254429 271.541144 26.098019
C 270.697554 26.94161 270.223125 28.086984 270.223125 29.28
" clip-path="url(#pNORMALIZED)" style="fill: none; stroke: #111827; stroke-width: 1.8; stroke-linejoin: miter"/>
   </g>
   <g id="patch_9">
    <path d="M 288.223125 29.28
C 288.223125 28.086984 287.748696 26.94161 286.905106 26.098019
C 286.061515 25.254429 284.916141 24.78 283.723125 24.78
C 282.530109 24.78 281.384735 25.254429 280.541144 26.098019
C 279.697554 26.94161 279.223125 28.086984 279.223125 29.28
" clip-path="url(#pNORMALIZED)" style="fill: none; stroke: #111827; stroke-width: 1.8; stroke-linejoin: miter"/>
   </g>
   <g id="line2d_1">
    <path d="M 67.723125 29.28
L 82.123125 29.28
L 96.523125 29.28
" clip-path="url(#pNORMALIZED)" style="fill: none; stroke: #111827; stroke-width: 1.8; stroke-linecap: round"/>
   </g>
   <g id="line2d_2">
    <path d="M 96.523125 29.28
L 122.983125 29.28
M 122.983125 20.28
L 122.983125 38.28
M 129.463125 20.28
L 129.463125 38.28
M 129.463125 29.28
L 155.923125 29.28
" clip-path="url(#pNORMALIZED)" style="fill: none; stroke: #111827; stroke-width: 1.8; stroke-linecap: round"/>
   </g>
   <g id="line2d_3">
    <path d="M 155.923125 29.28
L 155.923125 48.54
M 164.923125 48.54
L 146.923125 48.54
M 164.923125 55.02
L 146.923125 55.02
M 155.923125 55.02
L 155.923125 74.28
" clip-path="url(#pNORMALIZED)" style="fill: none; stroke: #111827; stroke-width: 1.8; stroke-linecap: round"/>
   </g>
   <g id="line2d_4">
    <path d="M 155.923125 74.28
L 155.923125 88.68
L 146.923125 88.68
L 164.923125 88.68
M 149.623125 93
L 162.223125 93
M 154.123125 97.32
L 157.723125 97.32
" clip-path="url(#pNORMALIZED)" style="fill: none; stroke: #111827; stroke-width: 1.8; stroke-linecap: round"/>
   </g>
   <g id="line2d_5">
    <path d="M 155.923125 29.28
L 162.223125 29.28
L 168.523125 29.28
" clip-path="url(#pNORMALIZED)" style="fill: none; stroke: #111827; stroke-width: 1.8; stroke-linecap: round"/>
   </g>
   <g id="line2d_6">
    <path d="M 168.523125 29.28
L 180.223125 29.28
M 216.223125 29.28
L 227.923125 29.28
" clip-path="url(#pNORMALIZED)" style="fill: none; stroke: #111827; stroke-width: 1.8; stroke-linecap: round"/>
   </g>
   <g id="line2d_7">
    <path d="M 227.923125 29.28
L 227.923125 48.54
M 236.923125 48.54
L 218.923125 48.54
M 236.923125 55.02
L 218.923125 55.02
M 227.923125 55.02
L 227.923125 74.28
" clip-path="url(#pNORMALIZED)" style="fill: none; stroke: #111827; stroke-width: 1.8; stroke-linecap: round"/>
   </g>
   <g id="line2d_8">
    <path d="M 227.923125 74.28
L 227.923125 88.68
L 218.923125 88.68
L 236.923125 88.68
M 221.623125 93
L 234.223125 93
M 226.123125 97.32
L 229.723125 97.32
" clip-path="url(#pNORMALIZED)" style="fill: none; stroke: #111827; stroke-width: 1.8; stroke-linecap: round"/>
   </g>
   <g id="line2d_9">
    <path d="M 227.923125 29.28
L 234.223125 29.28
L 240.523125 29.28
" clip-path="url(#pNORMALIZED)" style="fill: none; stroke: #111827; stroke-width: 1.8; stroke-linecap: round"/>
   </g>
   <g id="line2d_10">
    <path d="M 240.523125 29.28
L 252.223125 29.28
M 288.223125 29.28
L 299.923125 29.28
" clip-path="url(#pNORMALIZED)" style="fill: none; stroke: #111827; stroke-width: 1.8; stroke-linecap: round"/>
   </g>
   <g id="line2d_11">
    <path d="M 299.923125 29.28
L 299.923125 48.54
M 308.923125 48.54
L 290.923125 48.54
M 308.923125 55.02
L 290.923125 55.02
M 299.923125 55.02
L 299.923125 74.28
" clip-path="url(#pNORMALIZED)" style="fill: none; stroke: #111827; stroke-width: 1.8; stroke-linecap: round"/>
   </g>
   <g id="line2d_12">
    <path d="M 299.923125 74.28
L 299.923125 88.68
L 290.923125 88.68
L 308.923125 88.68
M 293.623125 93
L 306.223125 93
M 298.123125 97.32
L 301.723125 97.32
" clip-path="url(#pNORMALIZED)" style="fill: none; stroke: #111827; stroke-width: 1.8; stroke-linecap: round"/>
   </g>
   <g id="line2d_13">
    <path d="M 299.923125 29.28
L 326.383125 29.28
M 326.383125 20.28
L 326.383125 38.28
M 332.863125 20.28
L 332.863125 38.28
M 332.863125 29.28
L 359.323125 29.28
" clip-path="url(#pNORMALIZED)" style="fill: none; stroke: #111827; stroke-width: 1.8; stroke-linecap: round"/>
   </g>
   <g id="line2d_14">
    <path d="M 359.323125 29.28
L 373.723125 29.28
L 388.123125 29.28
" clip-path="url(#pNORMALIZED)" style="fill: none; stroke: #111827; stroke-width: 1.8; stroke-linecap: round"/>
   </g>
   <g id="text_1">
    <!-- $C_{in}$ -->
    <g style="fill: #111827" transform="translate(118.003125 14.184375) scale(0.12 -0.12)">
     <defs>
      <path id="DejaVuSans-Oblique-43" d="M 4447 4306
L 4319 3641
Q 4019 3944 3683 4091
Q 3347 4238 2956 4238
Q 2422 4238 2017 3981
Q 1613 3725 1319 3200
Q 1131 2863 1032 2486
Q 934 2109 934 1728
Q 934 1091 1264 756
Q 1594 422 2222 422
Q 2656 422 3056 561
Q 3456 700 3834 978
L 3688 231
Q 3316 72 2936 -9
Q 2556 -91 2175 -91
Q 1278 -91 773 396
Q 269 884 269 1753
Q 269 2309 461 2846
Q 653 3384 1013 3828
Q 1394 4300 1883 4525
Q 2372 4750 3022 4750
Q 3422 4750 3780 4639
Q 4138 4528 4447 4306
z
" transform="scale(0.015625)"/>
      <path id="DejaVuSans-Oblique-69" d="M 1172 4863
L 1747 4863
L 1606 4134
L 1031 4134
L 1172 4863
z
M 909 3500
L 1484 3500
L 800 0
L 225 0
L 909 3500
z
" transform="scale(0.015625)"/>
      <path id="DejaVuSans-Oblique-6e" d="M 3566 2113
L 3156 0
L 2578 0
L 2988 2091
Q 3016 2238 3031 2350
Q 3047 2463 3047 2528
Q 3047 2791 2881 2937
Q 2716 3084 2419 3084
Q 1956 3084 1622 2776
Q 1288 2469 1184 1941
L 800 0
L 225 0
L 903 3500
L 1478 3500
L 1363 2950
Q 1603 3253 1940 3418
Q 2278 3584 2650 3584
Q 3113 3584 3367 3334
Q 3622 3084 3622 2631
Q 3622 2519 3608 2391
Q 3594 2263 3566 2113
z
" transform="scale(0.015625)"/>
     </defs>
     <use xlink:href="#DejaVuSans-Oblique-43" transform="translate(0 0.78125)"/>
     <use xlink:href="#DejaVuSans-Oblique-69" transform="translate(69.824219 -15.625) scale(0.7)"/>
     <use xlink:href="#DejaVuSans-Oblique-6e" transform="translate(89.272461 -15.625) scale(0.7)"/>
    </g>
   </g>
   <g id="text_2">
    <!-- $C_{f1}$ -->
    <g style="fill: #111827" transform="translate(147.403125 86.998125) scale(0.12 -0.12)">
     <defs>
      <path id="DejaVuSans-Oblique-66" d="M 3059 4863
L 2969 4384
L 2419 4384
Q 2106 4384 1964 4261
Q 1822 4138 1753 3809
L 1691 3500
L 2638 3500
L 2553 3053
L 1606 3053
L 1013 0
L 434 0
L 1031 3053
L 481 3053
L 563 3500
L 1113 3500
L 1159 3744
Q 1278 4363 1576 4613
Q 1875 4863 2516 4863
L 3059 4863
z
" transform="scale(0.015625)"/>
      <path id="DejaVuSans-31" d="M 794 531
L 1825 531
L 1825 4091
L 703 3866
L 703 4441
L 1819 4666
L 2450 4666
L 2450 531
L 3481 531
L 3481 0
L 794 0
L 794 531
z
" transform="scale(0.015625)"/>
     </defs>
     <use xlink:href="#DejaVuSans-Oblique-43" transform="translate(0 0.78125)"/>
     <use xlink:href="#DejaVuSans-Oblique-66" transform="translate(69.824219 -15.625) scale(0.7)"/>
     <use xlink:href="#DejaVuSans-31" transform="translate(94.467773 -15.625) scale(0.7)"/>
    </g>
   </g>
   <g id="text_3">
    <!-- $L_{f1}$ -->
    <g style="fill: #111827" transform="translate(190.543125 18.684397) scale(0.12 -0.12)">
     <defs>
      <path id="DejaVuSans-Oblique-4c" d="M 1075 4666
L 1709 4666
L 909 525
L 3181 525
L 3078 0
L 172 0
L 1075 4666
z
" transform="scale(0.015625)"/>
     </defs>
     <use xlink:href="#DejaVuSans-Oblique-4c" transform="translate(0 0.09375)"/>
     <use xlink:href="#DejaVuSans-Oblique-66" transform="translate(55.712891 -16.3125) scale(0.7)"/>
     <use xlink:href="#DejaVuSans-31" transform="translate(80.356445 -16.3125) scale(0.7)"/>
    </g>
   </g>
   <g id="text_4">
    <!-- $C_{f2}$ -->
    <g style="fill: #111827" transform="translate(219.403125 23.184375) scale(0.12 -0.12)">
     <defs>
      <path id="DejaVuSans-32" d="M 1228 531
L 3431 531
L 3431 0
L 469 0
L 469 531
Q 828 903 1448 1529
Q 2069 2156 2228 2338
Q 2531 2678 2651 2914
Q 2772 3150 2772 3378
Q 2772 3750 2511 3984
Q 2250 4219 1831 4219
Q 1534 4219 1204 4116
Q 875 4013 500 3803
L 500 4441
Q 881 4594 1212 4672
Q 1544 4750 1819 4750
Q 2544 4750 2975 4387
Q 3406 4025 3406 3419
Q 3406 3131 3298 2873
Q 3191 2616 2906 2266
Q 2828 2175 2409 1742
Q 1991 1309 1228 531
z
" transform="scale(0.015625)"/>
     </defs>
     <use xlink:href="#DejaVuSans-Oblique-43" transform="translate(0 0.78125)"/>
     <use xlink:href="#DejaVuSans-Oblique-66" transform="translate(69.824219 -15.625) scale(0.7)"/>
     <use xlink:href="#DejaVuSans-32" transform="translate(94.467773 -15.625) scale(0.7)"/>
    </g>
   </g>
   <g id="text_5">
    <!-- $L_{f2}$ -->
    <g style="fill: #111827" transform="translate(262.543125 18.684397) scale(0.12 -0.12)">
     <use xlink:href="#DejaVuSans-Oblique-4c" transform="translate(0 0.09375)"/>
     <use xlink:href="#DejaVuSans-Oblique-66" transform="translate(55.712891 -16.3125) scale(0.7)"/>
     <use xlink:href="#DejaVuSans-32" transform="translate(80.356445 -16.3125) scale(0.7)"/>
    </g>
   </g>
   <g id="text_6">
    <!-- $C_{f3}$ -->
    <g style="fill: #111827" transform="translate(291.403125 23.184375) scale(0.12 -0.12)">
     <defs>
      <path id="DejaVuSans-33" d="M 2597 2516
Q 3050 2419 3304 2112
Q 3559 1806 3559 1356
Q 3559 666 3084 287
Q 2609 -91 1734 -91
Q 1441 -91 1130 -33
Q 819 25 488 141
L 488 750
Q 750 597 1062 519
Q 1375 441 1716 441
Q 2309 441 2620 675
Q 2931 909 2931 1356
Q 2931 1769 2642 2001
Q 2353 2234 1838 2234
L 1294 2234
L 1294 2753
L 1863 2753
Q 2328 2753 2575 2939
Q 2822 3125 2822 3475
Q 2822 3834 2567 4026
Q 2313 4219 1838 4219
Q 1578 4219 1281 4162
Q 984 4106 628 3988
L 628 4550
Q 988 4650 1302 4700
Q 1616 4750 1894 4750
Q 2613 4750 3031 4423
Q 3450 4097 3450 3541
Q 3450 3153 3228 2886
Q 3006 2619 2597 2516
z
" transform="scale(0.015625)"/>
     </defs>
     <use xlink:href="#DejaVuSans-Oblique-43" transform="translate(0 0.78125)"/>
     <use xlink:href="#DejaVuSans-Oblique-66" transform="translate(69.824219 -15.625) scale(0.7)"/>
     <use xlink:href="#DejaVuSans-33" transform="translate(94.467773 -15.625) scale(0.7)"/>
    </g>
   </g>
   <g id="text_7">
    <!-- $C_{out}$ -->
    <g style="fill: #111827" transform="translate(318.343125 14.184375) scale(0.12 -0.12)">
     <defs>
      <path id="DejaVuSans-Oblique-6f" d="M 1625 -91
Q 1009 -91 651 289
Q 294 669 294 1325
Q 294 1706 417 2101
Q 541 2497 738 2766
Q 1047 3184 1428 3384
Q 1809 3584 2291 3584
Q 2888 3584 3255 3212
Q 3622 2841 3622 2241
Q 3622 1825 3500 1412
Q 3378 1000 3181 728
Q 2875 309 2494 109
Q 2113 -91 1625 -91
z
M 891 1344
Q 891 869 1089 633
Q 1288 397 1691 397
Q 2269 397 2648 901
Q 3028 1406 3028 2181
Q 3028 2634 2825 2865
Q 2622 3097 2228 3097
Q 1903 3097 1650 2945
Q 1397 2794 1197 2484
Q 1050 2253 970 1956
Q 891 1659 891 1344
z
" transform="scale(0.015625)"/>
      <path id="DejaVuSans-Oblique-75" d="M 428 1388
L 838 3500
L 1416 3500
L 1006 1409
Q 975 1256 961 1147
Q 947 1038 947 966
Q 947 700 1109 554
Q 1272 409 1569 409
Q 2031 409 2368 721
Q 2706 1034 2809 1563
L 3194 3500
L 3769 3500
L 3091 0
L 2516 0
L 2631 550
Q 2388 244 2052 76
Q 1716 -91 1338 -91
Q 878 -91 622 161
Q 366 413 366 863
Q 366 956 381 1097
Q 397 1238 428 1388
z
" transform="scale(0.015625)"/>
      <path id="DejaVuSans-Oblique-74" d="M 2706 3500
L 2619 3053
L 1472 3053
L 1100 1153
Q 1081 1047 1072 975
Q 1063 903 1063 863
Q 1063 663 1183 572
Q 1303 481 1569 481
L 2150 481
L 2053 0
L 1503 0
Q 991 0 739 200
Q 488 400 488 806
Q 488 878 497 964
Q 506 1050 525 1153
L 897 3053
L 409 3053
L 500 3500
L 978 3500
L 1172 4494
L 1747 4494
L 1556 3500
L 2706 3500
z
" transform="scale(0.015625)"/>
     </defs>
     <use xlink:href="#DejaVuSans-Oblique-43" transform="translate(0 0.78125)"/>
     <use xlink:href="#DejaVuSans-Oblique-6f" transform="translate(69.824219 -15.625) scale(0.7)"/>
     <use xlink:href="#DejaVuSans-Oblique-75" transform="translate(112.651367 -15.625) scale(0.7)"/>
     <use xlink:href="#DejaVuSans-Oblique-74" transform="translate(157.016602 -15.625) scale(0.7)"/>
    </g>
   </g>
   <g id="patch_10">
    <path d="M 67.723125 31.98
C 68.439173 31.98 69.125991 31.695511 69.632313 31.189188
C 70.138636 30.682866 70.423125 29.996048 70.423125 29.28
C 70.423125 28.563952 70.138636 27.877134 69.632313 27.370812
C 69.125991 26.864489 68.439173 26.58 67.723125 26.58
C 67.007077 26.58 66.320259 26.864489 65.813937 27.370812
C 65.307614 27.877134 65.023125 28.563952 65.023125 29.28
C 65.023125 29.996048 65.307614 30.682866 65.813937 31.189188
C 66.320259 31.695511 67.007077 31.98 67.723125 31.98
z
" clip-path="url(#pNORMALIZED)" style="fill: #ffffff; stroke: #111827; stroke-width: 1.8; stroke-linejoin: miter"/>
   </g>
   <g id="text_8">
    <!-- readout in -->
    <g style="fill: #111827" transform="translate(0 32.59125) scale(0.12 -0.12)">
     <defs>
      <path id="DejaVuSans-72" d="M 2631 2963
Q 2534 3019 2420 3045
Q 2306 3072 2169 3072
Q 1681 3072 1420 2755
Q 1159 2438 1159 1844
L 1159 0
L 581 0
L 581 3500
L 1159 3500
L 1159 2956
Q 1341 3275 1631 3429
Q 1922 3584 2338 3584
Q 2397 3584 2469 3576
Q 2541 3569 2628 3553
L 2631 2963
z
" transform="scale(0.015625)"/>
      <path id="DejaVuSans-65" d="M 3597 1894
L 3597 1613
L 953 1613
Q 991 1019 1311 708
Q 1631 397 2203 397
Q 2534 397 2845 478
Q 3156 559 3463 722
L 3463 178
Q 3153 47 2828 -22
Q 2503 -91 2169 -91
Q 1331 -91 842 396
Q 353 884 353 1716
Q 353 2575 817 3079
Q 1281 3584 2069 3584
Q 2775 3584 3186 3129
Q 3597 2675 3597 1894
z
M 3022 2063
Q 3016 2534 2758 2815
Q 2500 3097 2075 3097
Q 1594 3097 1305 2825
Q 1016 2553 972 2059
L 3022 2063
z
" transform="scale(0.015625)"/>
      <path id="DejaVuSans-61" d="M 2194 1759
Q 1497 1759 1228 1600
Q 959 1441 959 1056
Q 959 750 1161 570
Q 1363 391 1709 391
Q 2188 391 2477 730
Q 2766 1069 2766 1631
L 2766 1759
L 2194 1759
z
M 3341 1997
L 3341 0
L 2766 0
L 2766 531
Q 2569 213 2275 61
Q 1981 -91 1556 -91
Q 1019 -91 701 211
Q 384 513 384 1019
Q 384 1609 779 1909
Q 1175 2209 1959 2209
L 2766 2209
L 2766 2266
Q 2766 2663 2505 2880
Q 2244 3097 1772 3097
Q 1472 3097 1187 3025
Q 903 2953 641 2809
L 641 3341
Q 956 3463 1253 3523
Q 1550 3584 1831 3584
Q 2591 3584 2966 3190
Q 3341 2797 3341 1997
z
" transform="scale(0.015625)"/>
      <path id="DejaVuSans-64" d="M 2906 2969
L 2906 4863
L 3481 4863
L 3481 0
L 2906 0
L 2906 525
Q 2725 213 2448 61
Q 2172 -91 1784 -91
Q 1150 -91 751 415
Q 353 922 353 1747
Q 353 2572 751 3078
Q 1150 3584 1784 3584
Q 2172 3584 2448 3432
Q 2725 3281 2906 2969
z
M 947 1747
Q 947 1113 1208 752
Q 1469 391 1925 391
Q 2381 391 2643 752
Q 2906 1113 2906 1747
Q 2906 2381 2643 2742
Q 2381 3103 1925 3103
Q 1469 3103 1208 2742
Q 947 2381 947 1747
z
" transform="scale(0.015625)"/>
      <path id="DejaVuSans-6f" d="M 1959 3097
Q 1497 3097 1228 2736
Q 959 2375 959 1747
Q 959 1119 1226 758
Q 1494 397 1959 397
Q 2419 397 2687 759
Q 2956 1122 2956 1747
Q 2956 2369 2687 2733
Q 2419 3097 1959 3097
z
M 1959 3584
Q 2709 3584 3137 3096
Q 3566 2609 3566 1747
Q 3566 888 3137 398
Q 2709 -91 1959 -91
Q 1206 -91 779 398
Q 353 888 353 1747
Q 353 2609 779 3096
Q 1206 3584 1959 3584
z
" transform="scale(0.015625)"/>
      <path id="DejaVuSans-75" d="M 544 1381
L 544 3500
L 1119 3500
L 1119 1403
Q 1119 906 1312 657
Q 1506 409 1894 409
Q 2359 409 2629 706
Q 2900 1003 2900 1516
L 2900 3500
L 3475 3500
L 3475 0
L 2900 0
L 2900 538
Q 2691 219 2414 64
Q 2138 -91 1772 -91
Q 1169 -91 856 284
Q 544 659 544 1381
z
M 1991 3584
L 1991 3584
z
" transform="scale(0.015625)"/>
      <path id="DejaVuSans-74" d="M 1172 4494
L 1172 3500
L 2356 3500
L 2356 3053
L 1172 3053
L 1172 1153
Q 1172 725 1289 603
Q 1406 481 1766 481
L 2356 481
L 2356 0
L 1766 0
Q 1100 0 847 248
Q 594 497 594 1153
L 594 3053
L 172 3053
L 172 3500
L 594 3500
L 594 4494
L 1172 4494
z
" transform="scale(0.015625)"/>
      <path id="DejaVuSans-20" transform="scale(0.015625)"/>
      <path id="DejaVuSans-69" d="M 603 3500
L 1178 3500
L 1178 0
L 603 0
L 603 3500
z
M 603 4863
L 1178 4863
L 1178 4134
L 603 4134
L 603 4863
z
" transform="scale(0.015625)"/>
      <path id="DejaVuSans-6e" d="M 3513 2113
L 3513 0
L 2938 0
L 2938 2094
Q 2938 2591 2744 2837
Q 2550 3084 2163 3084
Q 1697 3084 1428 2787
Q 1159 2491 1159 1978
L 1159 0
L 581 0
L 581 3500
L 1159 3500
L 1159 2956
Q 1366 3272 1645 3428
Q 1925 3584 2291 3584
Q 2894 3584 3203 3211
Q 3513 2838 3513 2113
z
" transform="scale(0.015625)"/>
     </defs>
     <use xlink:href="#DejaVuSans-72"/>
     <use xlink:href="#DejaVuSans-65" transform="translate(38.863281 0)"/>
     <use xlink:href="#DejaVuSans-61" transform="translate(100.386719 0)"/>
     <use xlink:href="#DejaVuSans-64" transform="translate(161.666016 0)"/>
     <use xlink:href="#DejaVuSans-6f" transform="translate(225.142578 0)"/>
     <use xlink:href="#DejaVuSans-75" transform="translate(286.324219 0)"/>
     <use xlink:href="#DejaVuSans-74" transform="translate(349.703125 0)"/>
     <use xlink:href="#DejaVuSans-20" transform="translate(388.912109 0)"/>
     <use xlink:href="#DejaVuSans-69" transform="translate(420.699219 0)"/>
     <use xlink:href="#DejaVuSans-6e" transform="translate(448.482422 0)"/>
    </g>
   </g>
   <g id="patch_11">
    <path d="M 155.923125 31.98
C 156.639173 31.98 157.325991 31.695511 157.832313 31.189188
C 158.338636 30.682866 158.623125 29.996048 158.623125 29.28
C 158.623125 28.563952 158.338636 27.877134 157.832313 27.370812
C 157.325991 26.864489 156.639173 26.58 155.923125 26.58
C 155.207077 26.58 154.520259 26.864489 154.013937 27.370812
C 153.507614 27.877134 153.223125 28.563952 153.223125 29.28
C 153.223125 29.996048 153.507614 30.682866 154.013937 31.189188
C 154.520259 31.695511 155.207077 31.98 155.923125 31.98
z
" clip-path="url(#pNORMALIZED)" style="fill: #111827; stroke: #111827; stroke-width: 1.8; stroke-linejoin: miter"/>
   </g>
   <g id="patch_12">
    <path d="M 227.923125 31.98
C 228.639173 31.98 229.325991 31.695511 229.832313 31.189188
C 230.338636 30.682866 230.623125 29.996048 230.623125 29.28
C 230.623125 28.563952 230.338636 27.877134 229.832313 27.370812
C 229.325991 26.864489 228.639173 26.58 227.923125 26.58
C 227.207077 26.58 226.520259 26.864489 226.013937 27.370812
C 225.507614 27.877134 225.223125 28.563952 225.223125 29.28
C 225.223125 29.996048 225.507614 30.682866 226.013937 31.189188
C 226.520259 31.695511 227.207077 31.98 227.923125 31.98
z
" clip-path="url(#pNORMALIZED)" style="fill: #111827; stroke: #111827; stroke-width: 1.8; stroke-linejoin: miter"/>
   </g>
   <g id="patch_13">
    <path d="M 299.923125 31.98
C 300.639173 31.98 301.325991 31.695511 301.832313 31.189188
C 302.338636 30.682866 302.623125 29.996048 302.623125 29.28
C 302.623125 28.563952 302.338636 27.877134 301.832313 27.370812
C 301.325991 26.864489 300.639173 26.58 299.923125 26.58
C 299.207077 26.58 298.520259 26.864489 298.013937 27.370812
C 297.507614 27.877134 297.223125 28.563952 297.223125 29.28
C 297.223125 29.996048 297.507614 30.682866 298.013937 31.189188
C 298.520259 31.695511 299.207077 31.98 299.923125 31.98
z
" clip-path="url(#pNORMALIZED)" style="fill: #111827; stroke: #111827; stroke-width: 1.8; stroke-linejoin: miter"/>
   </g>
   <g id="patch_14">
    <path d="M 388.123125 31.98
C 388.839173 31.98 389.525991 31.695511 390.032313 31.189188
C 390.538636 30.682866 390.823125 29.996048 390.823125 29.28
C 390.823125 28.563952 390.538636 27.877134 390.032313 27.370812
C 389.525991 26.864489 388.839173 26.58 388.123125 26.58
C 387.407077 26.58 386.720259 26.864489 386.213937 27.370812
C 385.707614 27.877134 385.423125 28.563952 385.423125 29.28
C 385.423125 29.996048 385.707614 30.682866 386.213937 31.189188
C 386.720259 31.695511 387.407077 31.98 388.123125 31.98
z
" clip-path="url(#pNORMALIZED)" style="fill: #ffffff; stroke: #111827; stroke-width: 1.8; stroke-linejoin: miter"/>
   </g>
   <g id="text_9">
    <!-- readout out -->
    <g style="fill: #111827" transform="translate(394.423125 32.59125) scale(0.12 -0.12)">
     <use xlink:href="#DejaVuSans-72"/>
     <use xlink:href="#DejaVuSans-65" transform="translate(38.863281 0)"/>
     <use xlink:href="#DejaVuSans-61" transform="translate(100.386719 0)"/>
     <use xlink:href="#DejaVuSans-64" transform="translate(161.666016 0)"/>
     <use xlink:href="#DejaVuSans-6f" transform="translate(225.142578 0)"/>
     <use xlink:href="#DejaVuSans-75" transform="translate(286.324219 0)"/>
     <use xlink:href="#DejaVuSans-74" transform="translate(349.703125 0)"/>
     <use xlink:href="#DejaVuSans-20" transform="translate(388.912109 0)"/>
     <use xlink:href="#DejaVuSans-6f" transform="translate(420.699219 0)"/>
     <use xlink:href="#DejaVuSans-75" transform="translate(481.880859 0)"/>
     <use xlink:href="#DejaVuSans-74" transform="translate(545.259766 0)"/>
    </g>
   </g>
  </g>
 </g>
 <defs>
  <clipPath id="pNORMALIZED">
   <rect x="2.455125" y="-0" width="458.712" height="102"/>
  </clipPath>
 </defs>
</svg>
