<?xml version="1.0" encoding="utf-8" standalone="no"?>
<!DOCTYPE svg PUBLIC "-//W3C//DTD SVG 1.1//EN"
  "http://www.w3.org/Graphics/SVG/1.1/DTD/svg11.dtd">
<svg xmlns:xlink="http://www.w3.org/1999/xlink" width="451.493647pt" height="93.9pt" viewBox="0 0 451.493647 93.9" xmlns="http://www.w3.org/2000/svg" version="1.1">
 <metadata>
  <rdf:RDF xmlns:dc="http://purl.org/dc/elements/1.1/" xmlns:cc="http://creativecommons.org/ns#" xmlns:rdf="http://www.w3.org/1999/02/22-rdf-syntax-ns#">
   <cc:Work>
    <dc:type rdf:resource="http://purl.org/dc/dcmitype/StillImage"/>
    <dc:date>normalized</dc:date>
    <dc:format>image/svg+xml</dc:format>
    <dc:creator>
     <cc:Agent>
      <dc:title>Matplotlib v3.10.9, https://matplotlib.org/</dc:title>
     </cc:Agent>
    </dc:creator>
   </cc:Work>
  </rdf:RDF>
 </metadata>
 <defs>
  <style type="text/css">*{stroke-linejoin: round; stroke-linecap: butt}</style>
 </defs>
 <g id="figure_1">
  <g id="patch_1">
   <path d="M 0 93.9
L 451.493647 93.9
L 451.493647 0
L 0 0
L 0 93.9
z
" style="fill: none"/>
  </g>
  <g id="axes_1">
   <g id="line2d_1">
    <path d="M 25.946824 11.68
L 40.931824 11.68
L 55.916824 11.68
" clip-path="url(#pNORMALIZED)" style="fill: none; stroke: #f8fafc; stroke-width: 2; stroke-linecap: round"/>
   </g>
   <g id="line2d_2">
    <path d="M 395.576824 11.68
L 410.561824 11.68
L 425.546824 11.68
" clip-path="url(#pNORMALIZED)" style="fill: none; stroke: #f8fafc; stroke-width: 2; stroke-linecap: round"/>
   </g>
   <g id="line2d_3">
    <path d="M 55.916824 11.68
L 104.201824 11.68
L 152.486824 11.68
" clip-path="url(#pNORMALIZED)" style="fill: none; stroke: #f8fafc; stroke-width: 2; stroke-linecap: round"/>
   </g>
   <g id="line2d_4">
    <path d="M 152.486824 71.62
L 225.746824 71.62
L 299.006824 71.62
" clip-path="url(#pNORMALIZED)" style="fill: none; stroke: #f8fafc; stroke-width: 2; stroke-linecap: round"/>
   </g>
   <g id="line2d_5">
    <path d="M 299.006824 11.68
L 347.291824 11.68
L 395.576824 11.68
" clip-path="url(#pNORMALIZED)" style="fill: none; stroke: #f8fafc; stroke-width: 2; stroke-linecap: round"/>
   </g>
   <g id="line2d_6">
    <path d="M 152.486824 11.68
L 152.486824 38.41
M 161.486824 38.41
L 143.486824 38.41
M 161.486824 44.89
L 143.486824 44.89
M 152.486824 44.89
L 152.486824 71.62
" clip-path="url(#pNORMALIZED)" style="fill: none; stroke: #f8fafc; stroke-width: 2; stroke-linecap: round"/>
   </g>
   <g id="line2d_7">
    <path d="M 299.006824 71.62
L 299.006824 44.89
M 290.006824 44.89
L 308.006824 44.89
M 290.006824 38.41
L 308.006824 38.41
M 299.006824 38.41
L 299.006824 11.68
" clip-path="url(#pNORMALIZED)" style="fill: none; stroke: #f8fafc; stroke-width: 2; stroke-linecap: round"/>
   </g>
   <g id="text_1">
    <!-- $\mathrm{filter\ CPW}$ -->
    <g style="fill: #f8fafc" transform="translate(191.096824 85.857813) scale(0.14 -0.14)">
     <defs>
      <path id="DejaVuSans-66" d="M 2375 4863
L 2375 4384
L 1825 4384
Q 1516 4384 1395 4259
Q 1275 4134 1275 3809
L 1275 3500
L 2222 3500
L 2222 3053
L 1275 3053
L 1275 0
L 697 0
L 697 3053
L 147 3053
L 147 3500
L 697 3500
L 697 3744
Q 697 4328 969 4595
Q 1241 4863 1831 4863
L 2375 4863
z
" transform="scale(0.015625)"/>
      <path id="DejaVuSans-69" d="M 603 3500
L 1178 3500
L 1178 0
L 603 0
L 603 3500
z
M 603 4863
L 1178 4863
L 1178 4134
L 603 4134
L 603 4863
z
" transform="scale(0.015625)"/>
      <path id="DejaVuSans-6c" d="M 603 4863
L 1178 4863
L 1178 0
L 603 0
L 603 4863
z
" transform="scale(0.015625)"/>
      <path id="DejaVuSans-74" d="M 1172 4494
L 1172 3500
L 2356 3500
L 2356 3053
L 1172 3053
L 1172 1153
Q 1172 725 1289 603
Q 1406 481 1766 481
L 2356 481
L 2356 0
L 1766 0
Q 1100 0 847 248
Q 594 497 594 1153
L 594 3053
L 172 3053
L 172 3500
L 594 3500
L 594 4494
L 1172 4494
z
" transform="scale(0.015625)"/>
      <path id="DejaVuSans-65" d="M 3597 1894
L 3597 1613
L 953 1613
Q 991 1019 1311 708
Q 1631 397 2203 397
Q 2534 397 2845 478
Q 3156 559 3463 722
L 3463 178
Q 3153 47 2828 -22
Q 2503 -91 2169 -91
Q 1331 -91 842 396
Q 353 884 353 1716
Q 353 2575 817 3079
Q 1281 3584 2069 3584
Q 2775 3584 3186 3129
Q 3597 2675 3597 1894
z
M 3022 2063
Q 3016 2534 2758 2815
Q 2500 3097 2075 3097
Q 1594 3097 1305 2825
Q 1016 2553 972 2059
L 3022 2063
z
" transform="scale(0.015625)"/>
      <path id="DejaVuSans-72" d="M 2631 2963
Q 2534 3019 2420 3045
Q 2306 3072 2169 3072
Q 1681 3072 1420 2755
Q 1159 2438 1159 1844
L 1159 0
L 581 0
L 581 3500
L 1159 3500
L 1159 2956
Q 1341 3275 1631 3429
Q 1922 3584 2338 3584
Q 2397 3584 2469 3576
Q 2541 3569 2628 3553
L 2631 2963
z
" transform="scale(0.015625)"/>
      <path id="DejaVuSans-43" d="M 4122 4306
L 4122 3641
Q 3803 3938 3442 4084
Q 3081 4231 2675 4231
Q 1875 4231 1450 3742
Q 1025 3253 1025 2328
Q 1025 1406 1450 917
Q 1875 428 2675 428
Q 3081 428 3442 575
Q 3803 722 4122 1019
L 4122 359
Q 3791 134 3420 21
Q 3050 -91 2638 -91
Q 1578 -91 968 557
Q 359 1206 359 2328
Q 359 3453 968 4101
Q 1578 4750 2638 4750
Q 3056 4750 3426 4639
Q 3797 4528 4122 4306
z
" transform="scale(0.015625)"/>
      <path id="DejaVuSans-50" d="M 1259 4147
L 1259 2394
L 2053 2394
Q 2494 2394 2734 2622
Q 2975 2850 2975 3272
Q 2975 3691 2734 3919
Q 2494 4147 2053 4147
L 1259 4147
z
M 628 4666
L 2053 4666
Q 2838 4666 3239 4311
Q 3641 3956 3641 3272
Q 3641 2581 3239 2228
Q 2838 1875 2053 1875
L 1259 1875
L 1259 0
L 628 0
L 628 4666
z
" transform="scale(0.015625)"/>
      <path id="DejaVuSans-57" d="M 213 4666
L 850 4666
L 1831 722
L 2809 4666
L 3519 4666
L 4500 722
L 5478 4666
L 6119 4666
L 4947 0
L 4153 0
L 3169 4050
L 2175 0
L 1381 0
L 213 4666
z
" transform="scale(0.015625)"/>
     </defs>
     <use xlink:href="#DejaVuSans-66" transform="translate(0 0.015625)"/>
     <use xlink:href="#DejaVuSans-69" transform="translate(35.205078 0.015625)"/>
     <use xlink:href="#DejaVuSans-6c" transform="translate(62.988281 0.015625)"/>
     <use xlink:href="#DejaVuSans-74" transform="translate(90.771484 0.015625)"/>
     <use xlink:href="#DejaVuSans-65" transform="translate(129.980469 0.015625)"/>
     <use xlink:href="#DejaVuSans-72" transform="translate(191.503906 0.015625)"/>
     <use xlink:href="#DejaVuSans-43" transform="translate(265.087566 0.015625)"/>
     <use xlink:href="#DejaVuSans-50" transform="translate(334.911785 0.015625)"/>
     <use xlink:href="#DejaVuSans-57" transform="translate(395.214519 0.015625)"/>
    </g>
   </g>
   <g id="text_2">
    <!-- $C_{c,\mathrm{in}}$ -->
    <g style="fill: #f8fafc" transform="translate(165.086824 45.15) scale(0.14 -0.14)">
     <defs>
      <path id="DejaVuSans-Oblique-43" d="M 4447 4306
L 4319 3641
Q 4019 3944 3683 4091
Q 3347 4238 2956 4238
Q 2422 4238 2017 3981
Q 1613 3725 1319 3200
Q 1131 2863 1032 2486
Q 934 2109 934 1728
Q 934 1091 1264 756
Q 1594 422 2222 422
Q 2656 422 3056 561
Q 3456 700 3834 978
L 3688 231
Q 3316 72 2936 -9
Q 2556 -91 2175 -91
Q 1278 -91 773 396
Q 269 884 269 1753
Q 269 2309 461 2846
Q 653 3384 1013 3828
Q 1394 4300 1883 4525
Q 2372 4750 3022 4750
Q 3422 4750 3780 4639
Q 4138 4528 4447 4306
z
" transform="scale(0.015625)"/>
      <path id="DejaVuSans-Oblique-63" d="M 3431 3366
L 3316 2797
Q 3109 2947 2876 3022
Q 2644 3097 2394 3097
Q 2119 3097 1870 3000
Q 1622 2903 1453 2725
Q 1184 2453 1037 2087
Q 891 1722 891 1331
Q 891 859 1127 628
Q 1363 397 1844 397
Q 2081 397 2348 469
Q 2616 541 2906 684
L 2797 116
Q 2547 13 2283 -39
Q 2019 -91 1741 -91
Q 1044 -91 669 257
Q 294 606 294 1253
Q 294 1797 489 2255
Q 684 2713 1069 3078
Q 1331 3328 1684 3456
Q 2038 3584 2456 3584
Q 2700 3584 2940 3529
Q 3181 3475 3431 3366
z
" transform="scale(0.015625)"/>
      <path id="DejaVuSans-2c" d="M 750 794
L 1409 794
L 1409 256
L 897 -744
L 494 -744
L 750 256
L 750 794
z
" transform="scale(0.015625)"/>
      <path id="DejaVuSans-6e" d="M 3513 2113
L 3513 0
L 2938 0
L 2938 2094
Q 2938 2591 2744 2837
Q 2550 3084 2163 3084
Q 1697 3084 1428 2787
Q 1159 2491 1159 1978
L 1159 0
L 581 0
L 581 3500
L 1159 3500
L 1159 2956
Q 1366 3272 1645 3428
Q 1925 3584 2291 3584
Q 2894 3584 3203 3211
Q 3513 2838 3513 2113
z
" transform="scale(0.015625)"/>
     </defs>
     <use xlink:href="#DejaVuSans-Oblique-43" transform="translate(0 0.78125)"/>
     <use xlink:href="#DejaVuSans-Oblique-63" transform="translate(69.824219 -15.625) scale(0.7)"/>
     <use xlink:href="#DejaVuSans-2c" transform="translate(108.310547 -15.625) scale(0.7)"/>
     <use xlink:href="#DejaVuSans-69" transform="translate(144.199219 -15.625) scale(0.7)"/>
     <use xlink:href="#DejaVuSans-6e" transform="translate(163.647461 -15.625) scale(0.7)"/>
    </g>
   </g>
   <g id="text_3">
    <!-- $C_{c,\mathrm{out}}$ -->
    <g style="fill: #f8fafc" transform="translate(311.606824 45.15) scale(0.14 -0.14)">
     <defs>
      <path id="DejaVuSans-6f" d="M 1959 3097
Q 1497 3097 1228 2736
Q 959 2375 959 1747
Q 959 1119 1226 758
Q 1494 397 1959 397
Q 2419 397 2687 759
Q 2956 1122 2956 1747
Q 2956 2369 2687 2733
Q 2419 3097 1959 3097
z
M 1959 3584
Q 2709 3584 3137 3096
Q 3566 2609 3566 1747
Q 3566 888 3137 398
Q 2709 -91 1959 -91
Q 1206 -91 779 398
Q 353 888 353 1747
Q 353 2609 779 3096
Q 1206 3584 1959 3584
z
" transform="scale(0.015625)"/>
      <path id="DejaVuSans-75" d="M 544 1381
L 544 3500
L 1119 3500
L 1119 1403
Q 1119 906 1312 657
Q 1506 409 1894 409
Q 2359 409 2629 706
Q 2900 1003 2900 1516
L 2900 3500
L 3475 3500
L 3475 0
L 2900 0
L 2900 538
Q 2691 219 2414 64
Q 2138 -91 1772 -91
Q 1169 -91 856 284
Q 544 659 544 1381
z
M 1991 3584
L 1991 3584
z
" transform="scale(0.015625)"/>
     </defs>
     <use xlink:href="#DejaVuSans-Oblique-43" transform="translate(0 0.78125)"/>
     <use xlink:href="#DejaVuSans-Oblique-63" transform="translate(69.824219 -15.625) scale(0.7)"/>
     <use xlink:href="#DejaVuSans-2c" transform="translate(108.310547 -15.625) scale(0.7)"/>
     <use xlink:href="#DejaVuSans-6f" transform="translate(144.199219 -15.625) scale(0.7)"/>
     <use xlink:href="#DejaVuSans-75" transform="translate(187.026367 -15.625) scale(0.7)"/>
     <use xlink:href="#DejaVuSans-74" transform="translate(231.391602 -15.625) scale(0.7)"/>
    </g>
   </g>
   <g id="patch_2">
    <path d="M 25.946824 13.638824
C 26.46631 13.638824 26.964589 13.43243 27.331921 13.065097
C 27.699253 12.697765 27.905647 12.199486 27.905647 11.68
C 27.905647 11.160514 27.699253 10.662235 27.331921 10.294903
C 26.964589 9.92757 26.46631 9.721176 25.946824 9.721176
C 25.427337 9.721176 24.929058 9.92757 24.561726 10.294903
C 24.194394 10.662235 23.988 11.160514 23.988 11.68
C 23.988 12.199486 24.194394 12.697765 24.561726 13.065097
C 24.929058 13.43243 25.427337 13.638824 25.946824 13.638824
z
" clip-path="url(#pNORMALIZED)" style="fill: #ffffff; stroke: #f8fafc; stroke-width: 2; stroke-linejoin: miter"/>
   </g>
   <g id="text_4">
    <!-- $P_1$ -->
    <g style="fill: #f8fafc" transform="translate(5.268 15.543125) scale(0.14 -0.14)">
     <defs>
      <path id="DejaVuSans-Oblique-50" d="M 1081 4666
L 2541 4666
Q 3178 4666 3512 4369
Q 3847 4072 3847 3500
Q 3847 2731 3353 2303
Q 2859 1875 1966 1875
L 1172 1875
L 806 0
L 172 0
L 1081 4666
z
M 1613 4147
L 1275 2394
L 2069 2394
Q 2606 2394 2893 2669
Q 3181 2944 3181 3456
Q 3181 3784 2986 3965
Q 2791 4147 2438 4147
L 1613 4147
z
" transform="scale(0.015625)"/>
      <path id="DejaVuSans-31" d="M 794 531
L 1825 531
L 1825 4091
L 703 3866
L 703 4441
L 1819 4666
L 2450 4666
L 2450 531
L 3481 531
L 3481 0
L 794 0
L 794 531
z
" transform="scale(0.015625)"/>
     </defs>
     <use xlink:href="#DejaVuSans-Oblique-50" transform="translate(0 0.09375)"/>
     <use xlink:href="#DejaVuSans-31" transform="translate(60.302734 -16.3125) scale(0.7)"/>
    </g>
   </g>
   <g id="patch_3">
    <path d="M 425.546824 13.638824
C 426.06631 13.638824 426.564589 13.43243 426.931921 13.065097
C 427.299253 12.697765 427.505647 12.199486 427.505647 11.68
C 427.505647 11.160514 427.299253 10.662235 426.931921 10.294903
C 426.564589 9.92757 426.06631 9.721176 425.546824 9.721176
C 425.027337 9.721176 424.529058 9.92757 424.161726 10.294903
C 423.794394 10.662235 423.588 11.160514 423.588 11.68
C 423.588 12.199486 423.794394 12.697765 424.161726 13.065097
C 424.529058 13.43243 425.027337 13.638824 425.546824 13.638824
z
" clip-path="url(#pNORMALIZED)" style="fill: #ffffff; stroke: #f8fafc; stroke-width: 2; stroke-linejoin: miter"/>
   </g>
   <g id="text_5">
    <!-- $P_2$ -->
    <g style="fill: #f8fafc" transform="translate(431.105647 15.543125) scale(0.14 -0.14)">
     <defs>
      <path id="DejaVuSans-32" d="M 1228 531
L 3431 531
L 3431 0
L 469 0
L 469 531
Q 828 903 1448 1529
Q 2069 2156 2228 2338
Q 2531 2678 2651 2914
Q 2772 3150 2772 3378
Q 2772 3750 2511 3984
Q 2250 4219 1831 4219
Q 1534 4219 1204 4116
Q 875 4013 500 3803
L 500 4441
Q 881 4594 1212 4672
Q 1544 4750 1819 4750
Q 2544 4750 2975 4387
Q 3406 4025 3406 3419
Q 3406 3131 3298 2873
Q 3191 2616 2906 2266
Q 2828 2175 2409 1742
Q 1991 1309 1228 531
z
" transform="scale(0.015625)"/>
     </defs>
     <use xlink:href="#DejaVuSans-Oblique-50" transform="translate(0 0.09375)"/>
     <use xlink:href="#DejaVuSans-32" transform="translate(60.302734 -16.3125) scale(0.7)"/>
    </g>
   </g>
   <g id="patch_4">
    <path d="M 152.486824 13.432632
C 152.951627 13.432632 153.397456 13.247963 153.726121 12.919298
C 154.054787 12.590632 154.239455 12.144803 154.239455 11.68
C 154.239455 11.215197 154.054787 10.769368 153.726121 10.440702
C 153.397456 10.112037 152.951627 9.927368 152.486824 9.927368
C 152.02202 9.927368 151.576191 10.112037 151.247526 10.440702
C 150.91886 10.769368 150.734192 11.215197 150.734192 11.68
C 150.734192 12.144803 150.91886 12.590632 151.247526 12.919298
C 151.576191 13.247963 152.02202 13.432632 152.486824 13.432632
z
" clip-path="url(#pNORMALIZED)" style="fill: #ffffff; stroke: #f8fafc; stroke-width: 2; stroke-linejoin: miter"/>
   </g>
   <g id="patch_5">
    <path d="M 152.486824 73.372632
C 152.951627 73.372632 153.397456 73.187963 153.726121 72.859298
C 154.054787 72.530632 154.239455 72.084803 154.239455 71.62
C 154.239455 71.155197 154.054787 70.709368 153.726121 70.380702
C 153.397456 70.052037 152.951627 69.867368 152.486824 69.867368
C 152.02202 69.867368 151.576191 70.052037 151.247526 70.380702
C 150.91886 70.709368 150.734192 71.155197 150.734192 71.62
C 150.734192 72.084803 150.91886 72.530632 151.247526 72.859298
C 151.576191 73.187963 152.02202 73.372632 152.486824 73.372632
z
" clip-path="url(#pNORMALIZED)" style="fill: #ffffff; stroke: #f8fafc; stroke-width: 2; stroke-linejoin: miter"/>
   </g>
   <g id="patch_6">
    <path d="M 299.006824 73.372632
C 299.471627 73.372632 299.917456 73.187963 300.246121 72.859298
C 300.574787 72.530632 300.759455 72.084803 300.759455 71.62
C 300.759455 71.155197 300.574787 70.709368 300.246121 70.380702
C 299.917456 70.052037 299.471627 69.867368 299.006824 69.867368
C 298.54202 69.867368 298.096191 70.052037 297.767526 70.380702
C 297.43886 70.709368 297.254192 71.155197 297.254192 71.62
C 297.254192 72.084803 297.43886 72.530632 297.767526 72.859298
C 298.096191 73.187963 298.54202 73.372632 299.006824 73.372632
z
" clip-path="url(#pNORMALIZED)" style="fill: #ffffff; stroke: #f8fafc; stroke-width: 2; stroke-linejoin: miter"/>
   </g>
   <g id="patch_7">
    <path d="M 299.006824 13.432632
C 299.471627 13.432632 299.917456 13.247963 300.246121 12.919298
C 300.574787 12.590632 300.759455 12.144803 300.759455 11.68
C 300.759455 11.215197 300.574787 10.769368 300.246121 10.440702
C 299.917456 10.112037 299.471627 9.927368 299.006824 9.927368
C 298.54202 9.927368 298.096191 10.112037 297.767526 10.440702
C 297.43886 10.769368 297.254192 11.215197 297.254192 11.68
C 297.254192 12.144803 297.43886 12.590632 297.767526 12.919298
C 298.096191 13.247963 298.54202 13.432632 299.006824 13.432632
z
" clip-path="url(#pNORMALIZED)" style="fill: #ffffff; stroke: #f8fafc; stroke-width: 2; stroke-linejoin: miter"/>
   </g>
   <g id="patch_8">
    <path d="M 55.916824 13.638824
C 56.43631 13.638824 56.934589 13.43243 57.301921 13.065097
C 57.669253 12.697765 57.875647 12.199486 57.875647 11.68
C 57.875647 11.160514 57.669253 10.662235 57.301921 10.294903
C 56.934589 9.92757 56.43631 9.721176 55.916824 9.721176
C 55.397337 9.721176 54.899058 9.92757 54.531726 10.294903
C 54.164394 10.662235 53.958 11.160514 53.958 11.68
C 53.958 12.199486 54.164394 12.697765 54.531726 13.065097
C 54.899058 13.43243 55.397337 13.638824 55.916824 13.638824
z
" clip-path="url(#pNORMALIZED)" style="fill: #f8fafc; stroke: #f8fafc; stroke-width: 2; stroke-linejoin: miter"/>
   </g>
   <g id="patch_9">
    <path d="M 395.576824 13.638824
C 396.09631 13.638824 396.594589 13.43243 396.961921 13.065097
C 397.329253 12.697765 397.535647 12.199486 397.535647 11.68
C 397.535647 11.160514 397.329253 10.662235 396.961921 10.294903
C 396.594589 9.92757 396.09631 9.721176 395.576824 9.721176
C 395.057337 9.721176 394.559058 9.92757 394.191726 10.294903
C 393.824394 10.662235 393.618 11.160514 393.618 11.68
C 393.618 12.199486 393.824394 12.697765 394.191726 13.065097
C 394.559058 13.43243 395.057337 13.638824 395.576824 13.638824
z
" clip-path="url(#pNORMALIZED)" style="fill: #f8fafc; stroke: #f8fafc; stroke-width: 2; stroke-linejoin: miter"/>
   </g>
  </g>
 </g>
 <defs>
  <clipPath id="pNORMALIZED">
   <rect x="0" y="0" width="451.493647" height="93.9"/>
  </clipPath>
 </defs>
</svg>
