<?xml version="1.0" encoding="utf-8" standalone="no"?>
<!DOCTYPE svg PUBLIC "-//W3C//DTD SVG 1.1//EN"
  "http://www.w3.org/Graphics/SVG/1.1/DTD/svg11.dtd">
<svg xmlns:xlink="http://www.w3.org/1999/xlink" width="454.776pt" height="93.9pt" viewBox="0 0 454.776 93.9" xmlns="http://www.w3.org/2000/svg" version="1.1">
 <metadata>
  <rdf:RDF xmlns:dc="http://purl.org/dc/elements/1.1/" xmlns:cc="http://creativecommons.org/ns#" xmlns:rdf="http://www.w3.org/1999/02/22-rdf-syntax-ns#">
   <cc:Work>
    <dc:type rdf:resource="http://purl.org/dc/dcmitype/StillImage"/>
    <dc:date>normalized</dc:date>
    <dc:format>image/svg+xml</dc:format>
    <dc:creator>
     <cc:Agent>
      <dc:title>Matplotlib v3.10.9, https://matplotlib.org/</dc:title>
     </cc:Agent>
    </dc:creator>
   </cc:Work>
  </rdf:RDF>
 </metadata>
 <defs>
  <style type="text/css">*{stroke-linejoin: round; stroke-linecap: butt}</style>
 </defs>
 <g id="figure_1">
  <g id="patch_1">
   <path d="M 0 93.9
L 454.776 93.9
L 454.776 0
L 0 0
L 0 93.9
z
" style="fill: none"/>
  </g>
  <g id="axes_1">
   <g id="line2d_1">
    <path d="M 27.588 11.68
L 42.573 11.68
L 57.558 11.68
" clip-path="url(#pNORMALIZED)" style="fill: none; stroke: #111827; stroke-width: 2; stroke-linecap: round"/>
   </g>
   <g id="line2d_2">
    <path d="M 397.218 11.68
L 412.203 11.68
L 427.188 11.68
" clip-path="url(#pNORMALIZED)" style="fill: none; stroke: #111827; stroke-width: 2; stroke-linecap: round"/>
   </g>
   <g id="line2d_3">
    <path d="M 57.558 11.68
L 105.843 11.68
L 154.128 11.68
" clip-path="url(#pNORMALIZED)" style="fill: none; stroke: #111827; stroke-width: 2; stroke-linecap: round"/>
   </g>
   <g id="line2d_4">
    <path d="M 154.128 71.62
L 227.388 71.62
L 300.648 71.62
" clip-path="url(#pNORMALIZED)" style="fill: none; stroke: #111827; stroke-width: 2; stroke-linecap: round"/>
   </g>
   <g id="line2d_5">
    <path d="M 300.648 11.68
L 348.933 11.68
L 397.218 11.68
" clip-path="url(#pNORMALIZED)" style="fill: none; stroke: #111827; stroke-width: 2; stroke-linecap: round"/>
   </g>
   <g id="line2d_6">
    <path d="M 154.128 11.68
L 154.128 38.41
M 163.128 38.41
L 145.128 38.41
M 163.128 44.89
L 145.128 44.89
M 154.128 44.89
L 154.128 71.62
" clip-path="url(#pNORMALIZED)" style="fill: none; stroke: #111827; stroke-width: 2; stroke-linecap: round"/>
   </g>
   <g id="line2d_7">
    <path d="M 300.648 71.62
L 300.648 44.89
M 291.648 44.89
L 309.648 44.89
M 291.648 38.41
L 309.648 38.41
M 300.648 38.41
L 300.648 11.68
" clip-path="url(#pNORMALIZED)" style="fill: none; stroke: #111827; stroke-width: 2; stroke-linecap: round"/>
   </g>
   <g id="text_1">
    <!-- $\mathrm{filter\ CPW}$ -->
    <g style="fill: #111827" transform="translate(192.738 85.857813) scale(0.14 -0.14)">
     <defs>
      <path id="DejaVuSans-66" d="M 2375 4863
L 2375 4384
L 1825 4384
Q 1516 4384 1395 4259
Q 1275 4134 1275 3809
L 1275 3500
L 2222 3500
L 2222 3053
L 1275 3053
L 1275 0
L 697 0
L 697 3053
L 147 3053
L 147 3500
L 697 3500
L 697 3744
Q 697 4328 969 4595
Q 1241 4863 1831 4863
L 2375 4863
z
" transform="scale(0.015625)"/>
      <path id="DejaVuSans-69" d="M 603 3500
L 1178 3500
L 1178 0
L 603 0
L 603 3500
z
M 603 4863
L 1178 4863
L 1178 4134
L 603 4134
L 603 4863
z
" transform="scale(0.015625)"/>
      <path id="DejaVuSans-6c" d="M 603 4863
L 1178 4863
L 1178 0
L 603 0
L 603 4863
z
" transform="scale(0.015625)"/>
      <path id="DejaVuSans-74" d="M 1172 4494
L 1172 3500
L 2356 3500
L 2356 3053
L 1172 3053
L 1172 1153
Q 1172 725 1289 603
Q 1406 481 1766 481
L 2356 481
L 2356 0
L 1766 0
Q 1100 0 847 248
Q 594 497 594 1153
L 594 3053
L 172 3053
L 172 3500
L 594 3500
L 594 4494
L 1172 4494
z
" transform="scale(0.015625)"/>
      <path id="DejaVuSans-65" d="M 3597 1894
L 3597 1613
L 953 1613
Q 991 1019 1311 708
Q 1631 397 2203 397
Q 2534 397 2845 478
Q 3156 559 3463 722
L 3463 178
Q 3153 47 2828 -22
Q 2503 -91 2169 -91
Q 1331 -91 842 396
Q 353 884 353 1716
Q 353 2575 817 3079
Q 1281 3584 2069 3584
Q 2775 3584 3186 3129
Q 3597 2675 3597 1894
z
M 3022 2063
Q 3016 2534 2758 2815
Q 2500 3097 2075 3097
Q 1594 3097 1305 2825
Q 1016 2553 972 2059
L 3022 2063
z
" transform="scale(0.015625)"/>
      <path id="DejaVuSans-72" d="M 2631 2963
Q 2534 3019 2420 3045
Q 2306 3072 2169 3072
Q 1681 3072 1420 2755
Q 1159 2438 1159 1844
L 1159 0
L 581 0
L 581 3500
L 1159 3500
L 1159 2956
Q 1341 3275 1631 3429
Q 1922 3584 2338 3584
Q 2397 3584 2469 3576
Q 2541 3569 2628 3553
L 2631 2963
z
" transform="scale(0.015625)"/>
      <path id="DejaVuSans-43" d="M 4122 4306
L 4122 3641
Q 3803 3938 3442 4084
Q 3081 4231 2675 4231
Q 1875 4231 1450 3742
Q 1025 3253 1025 2328
Q 1025 1406 1450 917
Q 1875 428 2675 428
Q 3081 428 3442 575
Q 3803 722 4122 1019
L 4122 359
Q 3791 134 3420 21
Q 3050 -91 2638 -91
Q 1578 -91 968 557
Q 359 1206 359 2328
Q 359 3453 968 4101
Q 1578 4750 2638 4750
Q 3056 4750 3426 4639
Q 3797 4528 4122 4306
z
" transform="scale(0.015625)"/>
      <path id="DejaVuSans-50" d="M 1259 4147
L 1259 2394
L 2053 2394
Q 2494 2394 2734 2622
Q 2975 2850 2975 3272
Q 2975 3691 2734 3919
Q 2494 4147 2053 4147
L 1259 4147
z
M 628 4666
L 2053 4666
Q 2838 4666 3239 4311
Q 3641 3956 3641 3272
Q 3641 2581 3239 2228
Q 2838 1875 2053 1875
L 1259 1875
L 1259 0
L 628 0
L 628 4666
z
" transform="scale(0.015625)"/>
      <path id="DejaVuSans-57" d="M 213 4666
L 850 4666
L 1831 722
L 2809 4666
L 3519 4666
L 4500 722
L 5478 4666
L 6119 4666
L 4947 0
L 4153 0
L 3169 4050
L 2175 0
L 1381 0
L 213 4666
z
" transform="scale(0.015625)"/>
     </defs>
     <use xlink:href="#DejaVuSans-66" transform="translate(0 0.015625)"/>
     <use xlink:href="#DejaVuSans-69" transform="translate(35.205078 0.015625)"/>
     <use xlink:href="#DejaVuSans-6c" transform="translate(62.988281 0.015625)"/>
     <use xlink:href="#DejaVuSans-74" transform="translate(90.771484 0.015625)"/>
     <use xlink:href="#DejaVuSans-65" transform="translate(129.980469 0.015625)"/>
     <use xlink:href="#DejaVuSans-72" transform="translate(191.503906 0.015625)"/>
     <use xlink:href="#DejaVuSans-43" transform="translate(265.087566 0.015625)"/>
     <use xlink:href="#DejaVuSans-50" transform="translate(334.911785 0.015625)"/>
     <use xlink:href="#DejaVuSans-57" transform="translate(395.214519 0.015625)"/>
    </g>
   </g>
   <g id="text_2">
    <!-- $C_{c,\mathrm{in}}$ -->
    <g style="fill: #111827" transform="translate(166.728 45.15) scale(0.14 -0.14)">
     <defs>
      <path id="DejaVuSans-Oblique-43" d="M 4447 4306
L 4319 3641
Q 4019 3944 3683 4091
Q 3347 4238 2956 4238
Q 2422 4238 2017 3981
Q 1613 3725 1319 3200
Q 1131 2863 1032 2486
Q 934 2109 934 1728
Q 934 1091 1264 756
Q 1594 422 2222 422
Q 2656 422 3056 561
Q 3456 700 3834 978
L 3688 231
Q 3316 72 2936 -9
Q 2556 -91 2175 -91
Q 1278 -91 773 396
Q 269 884 269 1753
Q 269 2309 461 2846
Q 653 3384 1013 3828
Q 1394 4300 1883 4525
Q 2372 4750 3022 4750
Q 3422 4750 3780 4639
Q 4138 4528 4447 4306
z
" transform="scale(0.015625)"/>
      <path id="DejaVuSans-Oblique-63" d="M 3431 3366
L 3316 2797
Q 3109 2947 2876 3022
Q 2644 3097 2394 3097
Q 2119 3097 1870 3000
Q 1622 2903 1453 2725
Q 1184 2453 1037 2087
Q 891 1722 891 1331
Q 891 859 1127 628
Q 1363 397 1844 397
Q 2081 397 2348 469
Q 2616 541 2906 684
L 2797 116
Q 2547 13 2283 -39
Q 2019 -91 1741 -91
Q 1044 -91 669 257
Q 294 606 294 1253
Q 294 1797 489 2255
Q 684 2713 1069 3078
Q 1331 3328 1684 3456
Q 2038 3584 2456 3584
Q 2700 3584 2940 3529
Q 3181 3475 3431 3366
z
" transform="scale(0.015625)"/>
      <path id="DejaVuSans-2c" d="M 750 794
L 1409 794
L 1409 256
L 897 -744
L 494 -744
L 750 256
L 750 794
z
" transform="scale(0.015625)"/>
      <path id="DejaVuSans-6e" d="M 3513 2113
L 3513 0
L 2938 0
L 2938 2094
Q 2938 2591 2744 2837
Q 2550 3084 2163 3084
Q 1697 3084 1428 2787
Q 1159 2491 1159 1978
L 1159 0
L 581 0
L 581 3500
L 1159 3500
L 1159 2956
Q 1366 3272 1645 3428
Q 1925 3584 2291 3584
Q 2894 3584 3203 3211
Q 3513 2838 3513 2113
z
" transform="scale(0.015625)"/>
     </defs>
     <use xlink:href="#DejaVuSans-Oblique-43" transform="translate(0 0.78125)"/>
     <use xlink:href="#DejaVuSans-Oblique-63" transform="translate(69.824219 -15.625) scale(0.7)"/>
     <use xlink:href="#DejaVuSans-2c" transform="translate(108.310547 -15.625) scale(0.7)"/>
     <use xlink:href="#DejaVuSans-69" transform="translate(144.199219 -15.625) scale(0.7)"/>
     <use xlink:href="#DejaVuSans-6e" transform="translate(163.647461 -15.625) scale(0.7)"/>
    </g>
   </g>
   <g id="text_3">
    <!-- $C_{c,\mathrm{out}}$ -->
    <g style="fill: #111827" transform="translate(313.248 45.15) scale(0.14 -0.14)">
     <defs>
      <path id="DejaVuSans-6f" d="M 1959 3097
Q 1497 3097 1228 2736
Q 959 2375 959 1747
Q 959 1119 1226 758
Q 1494 397 1959 397
Q 2419 397 2687 759
Q 2956 1122 2956 1747
Q 2956 2369 2687 2733
Q 2419 3097 1959 3097
z
M 1959 3584
Q 2709 3584 3137 3096
Q 3566 2609 3566 1747
Q 3566 888 3137 398
Q 2709 -91 1959 -91
Q 1206 -91 779 398
Q 353 888 353 1747
Q 353 2609 779 3096
Q 1206 3584 1959 3584
z
" transform="scale(0.015625)"/>
      <path id="DejaVuSans-75" d="M 544 1381
L 544 3500
L 1119 3500
L 1119 1403
Q 1119 906 1312 657
Q 1506 409 1894 409
Q 2359 409 2629 706
Q 2900 1003 2900 1516
L 2900 3500
L 3475 3500
L 3475 0
L 2900 0
L 2900 538
Q 2691 219 2414 64
Q 2138 -91 1772 -91
Q 1169 -91 856 284
Q 544 659 544 1381
z
M 1991 3584
L 1991 3584
z
" transform="scale(0.015625)"/>
     </defs>
     <use xlink:href="#DejaVuSans-Oblique-43" transform="translate(0 0.78125)"/>
     <use xlink:href="#DejaVuSans-Oblique-63" transform="translate(69.824219 -15.625) scale(0.7)"/>
     <use xlink:href="#DejaVuSans-2c" transform="translate(108.310547 -15.625) scale(0.7)"/>
     <use xlink:href="#DejaVuSans-6f" transform="translate(144.199219 -15.625) scale(0.7)"/>
     <use xlink:href="#DejaVuSans-75" transform="translate(187.026367 -15.625) scale(0.7)"/>
     <use xlink:href="#DejaVuSans-74" transform="translate(231.391602 -15.625) scale(0.7)"/>
    </g>
   </g>
   <g id="patch_2">
    <path d="M 27.588 15.28
C 28.542731 15.28 29.458488 14.900681 30.133584 14.225584
C 30.808681 13.550488 31.188 12.634731 31.188 11.68
C 31.188 10.725269 30.808681 9.809512 30.133584 9.134416
C 29.458488 8.459319 28.542731 8.08 27.588 8.08
C 26.633269 8.08 25.717512 8.459319 25.042416 9.134416
C 24.367319 9.809512 23.988 10.725269 23.988 11.68
C 23.988 12.634731 24.367319 13.550488 25.042416 14.225584
C 25.717512 14.900681 26.633269 15.28 27.588 15.28
z
" clip-path="url(#pNORMALIZED)" style="fill: #ffffff; stroke: #111827; stroke-width: 2; stroke-linejoin: miter"/>
   </g>
   <g id="text_4">
    <!-- $P_1$ -->
    <g style="fill: #111827" transform="translate(5.268 15.543125) scale(0.14 -0.14)">
     <defs>
      <path id="DejaVuSans-Oblique-50" d="M 1081 4666
L 2541 4666
Q 3178 4666 3512 4369
Q 3847 4072 3847 3500
Q 3847 2731 3353 2303
Q 2859 1875 1966 1875
L 1172 1875
L 806 0
L 172 0
L 1081 4666
z
M 1613 4147
L 1275 2394
L 2069 2394
Q 2606 2394 2893 2669
Q 3181 2944 3181 3456
Q 3181 3784 2986 3965
Q 2791 4147 2438 4147
L 1613 4147
z
" transform="scale(0.015625)"/>
      <path id="DejaVuSans-31" d="M 794 531
L 1825 531
L 1825 4091
L 703 3866
L 703 4441
L 1819 4666
L 2450 4666
L 2450 531
L 3481 531
L 3481 0
L 794 0
L 794 531
z
" transform="scale(0.015625)"/>
     </defs>
     <use xlink:href="#DejaVuSans-Oblique-50" transform="translate(0 0.09375)"/>
     <use xlink:href="#DejaVuSans-31" transform="translate(60.302734 -16.3125) scale(0.7)"/>
    </g>
   </g>
   <g id="patch_3">
    <path d="M 427.188 15.28
C 428.142731 15.28 429.058488 14.900681 429.733584 14.225584
C 430.408681 13.550488 430.788 12.634731 430.788 11.68
C 430.788 10.725269 430.408681 9.809512 429.733584 9.134416
C 429.058488 8.459319 428.142731 8.08 427.188 8.08
C 426.233269 8.08 425.317512 8.459319 424.642416 9.134416
C 423.967319 9.809512 423.588 10.725269 423.588 11.68
C 423.588 12.634731 423.967319 13.550488 424.642416 14.225584
C 425.317512 14.900681 426.233269 15.28 427.188 15.28
z
" clip-path="url(#pNORMALIZED)" style="fill: #ffffff; stroke: #111827; stroke-width: 2; stroke-linejoin: miter"/>
   </g>
   <g id="text_5">
    <!-- $P_2$ -->
    <g style="fill: #111827" transform="translate(434.388 15.543125) scale(0.14 -0.14)">
     <defs>
      <path id="DejaVuSans-32" d="M 1228 531
L 3431 531
L 3431 0
L 469 0
L 469 531
Q 828 903 1448 1529
Q 2069 2156 2228 2338
Q 2531 2678 2651 2914
Q 2772 3150 2772 3378
Q 2772 3750 2511 3984
Q 2250 4219 1831 4219
Q 1534 4219 1204 4116
Q 875 4013 500 3803
L 500 4441
Q 881 4594 1212 4672
Q 1544 4750 1819 4750
Q 2544 4750 2975 4387
Q 3406 4025 3406 3419
Q 3406 3131 3298 2873
Q 3191 2616 2906 2266
Q 2828 2175 2409 1742
Q 1991 1309 1228 531
z
" transform="scale(0.015625)"/>
     </defs>
     <use xlink:href="#DejaVuSans-Oblique-50" transform="translate(0 0.09375)"/>
     <use xlink:href="#DejaVuSans-32" transform="translate(60.302734 -16.3125) scale(0.7)"/>
    </g>
   </g>
   <g id="patch_4">
    <path d="M 154.128 15.28
C 155.082731 15.28 155.998488 14.900681 156.673584 14.225584
C 157.348681 13.550488 157.728 12.634731 157.728 11.68
C 157.728 10.725269 157.348681 9.809512 156.673584 9.134416
C 155.998488 8.459319 155.082731 8.08 154.128 8.08
C 153.173269 8.08 152.257512 8.459319 151.582416 9.134416
C 150.907319 9.809512 150.528 10.725269 150.528 11.68
C 150.528 12.634731 150.907319 13.550488 151.582416 14.225584
C 152.257512 14.900681 153.173269 15.28 154.128 15.28
z
" clip-path="url(#pNORMALIZED)" style="fill: #ffffff; stroke: #111827; stroke-width: 2; stroke-linejoin: miter"/>
   </g>
   <g id="patch_5">
    <path d="M 154.128 75.22
C 155.082731 75.22 155.998488 74.840681 156.673584 74.165584
C 157.348681 73.490488 157.728 72.574731 157.728 71.62
C 157.728 70.665269 157.348681 69.749512 156.673584 69.074416
C 155.998488 68.399319 155.082731 68.02 154.128 68.02
C 153.173269 68.02 152.257512 68.399319 151.582416 69.074416
C 150.907319 69.749512 150.528 70.665269 150.528 71.62
C 150.528 72.574731 150.907319 73.490488 151.582416 74.165584
C 152.257512 74.840681 153.173269 75.22 154.128 75.22
z
" clip-path="url(#pNORMALIZED)" style="fill: #ffffff; stroke: #111827; stroke-width: 2; stroke-linejoin: miter"/>
   </g>
   <g id="patch_6">
    <path d="M 300.648 75.22
C 301.602731 75.22 302.518488 74.840681 303.193584 74.165584
C 303.868681 73.490488 304.248 72.574731 304.248 71.62
C 304.248 70.665269 303.868681 69.749512 303.193584 69.074416
C 302.518488 68.399319 301.602731 68.02 300.648 68.02
C 299.693269 68.02 298.777512 68.399319 298.102416 69.074416
C 297.427319 69.749512 297.048 70.665269 297.048 71.62
C 297.048 72.574731 297.427319 73.490488 298.102416 74.165584
C 298.777512 74.840681 299.693269 75.22 300.648 75.22
z
" clip-path="url(#pNORMALIZED)" style="fill: #ffffff; stroke: #111827; stroke-width: 2; stroke-linejoin: miter"/>
   </g>
   <g id="patch_7">
    <path d="M 300.648 15.28
C 301.602731 15.28 302.518488 14.900681 303.193584 14.225584
C 303.868681 13.550488 304.248 12.634731 304.248 11.68
C 304.248 10.725269 303.868681 9.809512 303.193584 9.134416
C 302.518488 8.459319 301.602731 8.08 300.648 8.08
C 299.693269 8.08 298.777512 8.459319 298.102416 9.134416
C 297.427319 9.809512 297.048 10.725269 297.048 11.68
C 297.048 12.634731 297.427319 13.550488 298.102416 14.225584
C 298.777512 14.900681 299.693269 15.28 300.648 15.28
z
" clip-path="url(#pNORMALIZED)" style="fill: #ffffff; stroke: #111827; stroke-width: 2; stroke-linejoin: miter"/>
   </g>
   <g id="patch_8">
    <path d="M 57.558 15.28
C 58.512731 15.28 59.428488 14.900681 60.103584 14.225584
C 60.778681 13.550488 61.158 12.634731 61.158 11.68
C 61.158 10.725269 60.778681 9.809512 60.103584 9.134416
C 59.428488 8.459319 58.512731 8.08 57.558 8.08
C 56.603269 8.08 55.687512 8.459319 55.012416 9.134416
C 54.337319 9.809512 53.958 10.725269 53.958 11.68
C 53.958 12.634731 54.337319 13.550488 55.012416 14.225584
C 55.687512 14.900681 56.603269 15.28 57.558 15.28
z
" clip-path="url(#pNORMALIZED)" style="fill: #111827; stroke: #111827; stroke-width: 2; stroke-linejoin: miter"/>
   </g>
   <g id="patch_9">
    <path d="M 397.218 15.28
C 398.172731 15.28 399.088488 14.900681 399.763584 14.225584
C 400.438681 13.550488 400.818 12.634731 400.818 11.68
C 400.818 10.725269 400.438681 9.809512 399.763584 9.134416
C 399.088488 8.459319 398.172731 8.08 397.218 8.08
C 396.263269 8.08 395.347512 8.459319 394.672416 9.134416
C 393.997319 9.809512 393.618 10.725269 393.618 11.68
C 393.618 12.634731 393.997319 13.550488 394.672416 14.225584
C 395.347512 14.900681 396.263269 15.28 397.218 15.28
z
" clip-path="url(#pNORMALIZED)" style="fill: #111827; stroke: #111827; stroke-width: 2; stroke-linejoin: miter"/>
   </g>
  </g>
 </g>
 <defs>
  <clipPath id="pNORMALIZED">
   <rect x="0" y="0" width="454.776" height="93.9"/>
  </clipPath>
 </defs>
</svg>
