<?xml version="1.0" encoding="utf-8" standalone="no"?>
<!DOCTYPE svg PUBLIC "-//W3C//DTD SVG 1.1//EN"
  "http://www.w3.org/Graphics/SVG/1.1/DTD/svg11.dtd">
<svg xmlns:xlink="http://www.w3.org/1999/xlink" width="216.945434pt" height="149.04pt" viewBox="0 0 216.945434 149.04" xmlns="http://www.w3.org/2000/svg" version="1.1">
 <metadata>
  <rdf:RDF xmlns:dc="http://purl.org/dc/elements/1.1/" xmlns:cc="http://creativecommons.org/ns#" xmlns:rdf="http://www.w3.org/1999/02/22-rdf-syntax-ns#">
   <cc:Work>
    <dc:type rdf:resource="http://purl.org/dc/dcmitype/StillImage"/>
    <dc:date>2026-05-30T19:10:36.080287</dc:date>
    <dc:format>image/svg+xml</dc:format>
    <dc:creator>
     <cc:Agent>
      <dc:title>Matplotlib v3.10.8, https://matplotlib.org/</dc:title>
     </cc:Agent>
    </dc:creator>
   </cc:Work>
  </rdf:RDF>
 </metadata>
 <defs>
  <style type="text/css">*{stroke-linejoin: round; stroke-linecap: butt}</style>
 </defs>
 <g id="figure_1">
  <g id="patch_1">
   <path d="M 0 149.04 
L 216.945434 149.04 
L 216.945434 0 
L 0 0 
L 0 149.04 
z
" style="fill: none"/>
  </g>
  <g id="axes_1">
   <g id="patch_2">
    <path d="M 166.750678 76.495229 
C 167.940819 76.495229 169.083434 76.021943 169.924991 75.180385 
C 170.766548 74.338828 171.239834 73.196214 171.239834 72.006072 
C 171.239834 70.815931 170.766548 69.673316 169.924991 68.831759 
C 169.083434 67.990202 167.940819 67.516916 166.750678 67.516916 
" clip-path="url(#p5f85ef1ef9)" style="fill: none; stroke: #000000; stroke-width: 1.7; stroke-linejoin: miter"/>
   </g>
   <g id="patch_3">
    <path d="M 166.750678 85.473542 
C 167.940819 85.473542 169.083434 85.000256 169.924991 84.158699 
C 170.766548 83.317141 171.239834 82.174527 171.239834 80.984386 
C 171.239834 79.794244 170.766548 78.65163 169.924991 77.810072 
C 169.083434 76.968515 167.940819 76.495229 166.750678 76.495229 
" clip-path="url(#p5f85ef1ef9)" style="fill: none; stroke: #000000; stroke-width: 1.7; stroke-linejoin: miter"/>
   </g>
   <g id="patch_4">
    <path d="M 166.750678 94.451855 
C 167.940819 94.451855 169.083434 93.978569 169.924991 93.137012 
C 170.766548 92.295455 171.239834 91.152841 171.239834 89.962699 
C 171.239834 88.772557 170.766548 87.629943 169.924991 86.788386 
C 169.083434 85.946828 167.940819 85.473542 166.750678 85.473542 
" clip-path="url(#p5f85ef1ef9)" style="fill: none; stroke: #000000; stroke-width: 1.7; stroke-linejoin: miter"/>
   </g>
   <g id="patch_5">
    <path d="M 166.750678 103.430169 
C 167.940819 103.430169 169.083434 102.956882 169.924991 102.115325 
C 170.766548 101.273768 171.239834 100.131154 171.239834 98.941012 
C 171.239834 97.75087 170.766548 96.608256 169.924991 95.766699 
C 169.083434 94.925142 167.940819 94.451855 166.750678 94.451855 
" clip-path="url(#p5f85ef1ef9)" style="fill: none; stroke: #000000; stroke-width: 1.7; stroke-linejoin: miter"/>
   </g>
   <g id="patch_6">
    <path d="M 161.36369 56.74294 
C 166.125843 56.74294 170.693591 54.850916 174.060942 51.483566 
C 177.428293 48.116215 179.320316 43.548466 179.320316 38.786313 
C 179.320316 34.02416 177.428293 29.456412 174.060942 26.089061 
C 170.693591 22.72171 166.125843 20.829687 161.36369 20.829687 
C 156.601537 20.829687 152.033788 22.72171 148.666437 26.089061 
C 145.299087 29.456412 143.407063 34.02416 143.407063 38.786313 
C 143.407063 43.548466 145.299087 48.116215 148.666437 51.483566 
C 152.033788 54.850916 156.601537 56.74294 161.36369 56.74294 
L 161.36369 56.74294 
z
" clip-path="url(#p5f85ef1ef9)" style="fill: none; stroke: #000000; stroke-width: 1.7; stroke-linejoin: miter"/>
   </g>
   <g id="line2d_1">
    <path d="M 66.193569 51.355952 
L 82.354533 51.355952 
L 98.515497 51.355952 
" clip-path="url(#p5f85ef1ef9)" style="fill: none; stroke: #000000; stroke-width: 1.7; stroke-linecap: round"/>
   </g>
   <g id="line2d_2">
    <path d="M 98.515497 51.355952 
L 129.400895 51.355952 
M 129.400895 42.377639 
L 129.400895 60.334265 
M 135.86528 42.377639 
L 135.86528 60.334265 
M 135.86528 51.355952 
L 166.750678 51.355952 
" clip-path="url(#p5f85ef1ef9)" style="fill: none; stroke: #000000; stroke-width: 1.7; stroke-linecap: round"/>
   </g>
   <g id="line2d_3">
    <path d="M 166.750678 51.355952 
L 166.750678 67.516916 
M 166.750678 103.430169 
L 166.750678 119.591133 
" clip-path="url(#p5f85ef1ef9)" style="fill: none; stroke: #000000; stroke-width: 1.7; stroke-linecap: round"/>
   </g>
   <g id="line2d_4">
    <path d="M 166.750678 119.591133 
L 166.750678 133.956434 
L 157.772364 133.956434 
L 175.728991 133.956434 
M 160.465858 138.266024 
L 173.035497 138.266024 
M 164.955015 142.575614 
L 168.54634 142.575614 
" clip-path="url(#p5f85ef1ef9)" style="fill: none; stroke: #000000; stroke-width: 1.7; stroke-linecap: round"/>
   </g>
   <g id="line2d_5">
    <path d="M 166.750678 51.355952 
L 184.707304 51.355952 
L 202.663931 51.355952 
" clip-path="url(#p5f85ef1ef9)" style="fill: none; stroke: #000000; stroke-width: 1.7; stroke-linecap: round"/>
   </g>
   <g id="line2d_6">
    <path d="M 202.663931 53.151614 
L 202.663931 84.037012 
M 211.642244 84.037012 
L 193.685617 84.037012 
M 211.642244 90.501398 
L 193.685617 90.501398 
M 202.663931 90.501398 
L 202.663931 121.386795 
" clip-path="url(#p5f85ef1ef9)" style="fill: none; stroke: #000000; stroke-width: 1.7; stroke-linecap: round"/>
   </g>
   <g id="line2d_7">
    <path d="M 202.663931 121.386795 
L 202.663931 135.752096 
L 193.685617 135.752096 
L 211.642244 135.752096 
M 196.379111 140.061687 
L 208.94875 140.061687 
M 200.868268 144.371277 
L 204.459593 144.371277 
" clip-path="url(#p5f85ef1ef9)" style="fill: none; stroke: #000000; stroke-width: 1.7; stroke-linecap: round"/>
   </g>
   <g id="line2d_8">
    <path d="M 161.36369 4.668723 
L 161.36369 20.829687 
L 161.36369 20.829687 
M 161.36369 56.74294 
L 161.36369 56.74294 
L 161.36369 72.903904 
" clip-path="url(#p5f85ef1ef9)" style="fill: none; stroke: #000000; stroke-width: 1.7; stroke-linecap: round"/>
   </g>
   <g id="line2d_9">
    <path d="M 152.385377 38.786313 
L 153.133569 40.64532 
L 153.881762 42.377639 
L 154.629955 43.865214 
L 155.378148 45.006671 
L 156.12634 45.724221 
L 156.874533 45.968964 
L 157.622726 45.724221 
L 158.370919 45.006671 
L 159.119111 43.865214 
L 159.867304 42.377639 
L 160.615497 40.64532 
L 161.36369 38.786313 
L 162.111883 36.927306 
L 162.860075 35.194988 
L 163.608268 33.707412 
L 164.356461 32.565955 
L 165.104654 31.848406 
L 165.852846 31.603663 
L 166.601039 31.848406 
L 167.349232 32.565955 
L 168.097425 33.707412 
L 168.845617 35.194988 
L 169.59381 36.927306 
L 170.342003 38.786313 
" clip-path="url(#p5f85ef1ef9)" style="fill: none; stroke: #000000; stroke-width: 1.7; stroke-linecap: round"/>
   </g>
   <g id="line2d_10">
    <path d="M 161.36369 72.903904 
L 161.36369 77.39306 
L 161.36369 81.882217 
" clip-path="url(#p5f85ef1ef9)" style="fill: none; stroke: #000000; stroke-width: 1.7; stroke-linecap: round"/>
   </g>
   <g id="text_1">
    <!-- C_c -->
    <g transform="translate(123.0184 36.19272) scale(0.11 -0.11)">
     <defs>
      <path id="DejaVuSans-43" d="M 4122 4306 
L 4122 3641 
Q 3803 3938 3442 4084 
Q 3081 4231 2675 4231 
Q 1875 4231 1450 3742 
Q 1025 3253 1025 2328 
Q 1025 1406 1450 917 
Q 1875 428 2675 428 
Q 3081 428 3442 575 
Q 3803 722 4122 1019 
L 4122 359 
Q 3791 134 3420 21 
Q 3050 -91 2638 -91 
Q 1578 -91 968 557 
Q 359 1206 359 2328 
Q 359 3453 968 4101 
Q 1578 4750 2638 4750 
Q 3056 4750 3426 4639 
Q 3797 4528 4122 4306 
z
" transform="scale(0.015625)"/>
      <path id="DejaVuSans-5f" d="M 3263 -1063 
L 3263 -1509 
L -63 -1509 
L -63 -1063 
L 3263 -1063 
z
" transform="scale(0.015625)"/>
      <path id="DejaVuSans-63" d="M 3122 3366 
L 3122 2828 
Q 2878 2963 2633 3030 
Q 2388 3097 2138 3097 
Q 1578 3097 1268 2742 
Q 959 2388 959 1747 
Q 959 1106 1268 751 
Q 1578 397 2138 397 
Q 2388 397 2633 464 
Q 2878 531 3122 666 
L 3122 134 
Q 2881 22 2623 -34 
Q 2366 -91 2075 -91 
Q 1284 -91 818 406 
Q 353 903 353 1747 
Q 353 2603 823 3093 
Q 1294 3584 2113 3584 
Q 2378 3584 2631 3529 
Q 2884 3475 3122 3366 
z
" transform="scale(0.015625)"/>
     </defs>
     <use xlink:href="#DejaVuSans-43"/>
     <use xlink:href="#DejaVuSans-5f" transform="translate(69.824219 0)"/>
     <use xlink:href="#DejaVuSans-63" transform="translate(119.824219 0)"/>
    </g>
   </g>
   <g id="text_2">
    <!-- L_J -->
    <g transform="translate(161.558214 45.171033) scale(0.11 -0.11)">
     <defs>
      <path id="DejaVuSans-4c" d="M 628 4666 
L 1259 4666 
L 1259 531 
L 3531 531 
L 3531 0 
L 628 0 
L 628 4666 
z
" transform="scale(0.015625)"/>
      <path id="DejaVuSans-4a" d="M 628 4666 
L 1259 4666 
L 1259 325 
Q 1259 -519 939 -900 
Q 619 -1281 -91 -1281 
L -331 -1281 
L -331 -750 
L -134 -750 
Q 284 -750 456 -515 
Q 628 -281 628 325 
L 628 4666 
z
" transform="scale(0.015625)"/>
     </defs>
     <use xlink:href="#DejaVuSans-4c"/>
     <use xlink:href="#DejaVuSans-5f" transform="translate(55.712891 0)"/>
     <use xlink:href="#DejaVuSans-4a" transform="translate(105.712891 0)"/>
    </g>
   </g>
   <g id="text_3">
    <!-- C_J -->
    <g transform="translate(194.450884 46.966695) scale(0.11 -0.11)">
     <use xlink:href="#DejaVuSans-43"/>
     <use xlink:href="#DejaVuSans-5f" transform="translate(69.824219 0)"/>
     <use xlink:href="#DejaVuSans-4a" transform="translate(119.824219 0)"/>
    </g>
   </g>
   <g id="text_4">
    <!-- pump slot -->
    <g transform="translate(133.874862 84.85351) scale(0.11 -0.11)">
     <defs>
      <path id="DejaVuSans-70" d="M 1159 525 
L 1159 -1331 
L 581 -1331 
L 581 3500 
L 1159 3500 
L 1159 2969 
Q 1341 3281 1617 3432 
Q 1894 3584 2278 3584 
Q 2916 3584 3314 3078 
Q 3713 2572 3713 1747 
Q 3713 922 3314 415 
Q 2916 -91 2278 -91 
Q 1894 -91 1617 61 
Q 1341 213 1159 525 
z
M 3116 1747 
Q 3116 2381 2855 2742 
Q 2594 3103 2138 3103 
Q 1681 3103 1420 2742 
Q 1159 2381 1159 1747 
Q 1159 1113 1420 752 
Q 1681 391 2138 391 
Q 2594 391 2855 752 
Q 3116 1113 3116 1747 
z
" transform="scale(0.015625)"/>
      <path id="DejaVuSans-75" d="M 544 1381 
L 544 3500 
L 1119 3500 
L 1119 1403 
Q 1119 906 1312 657 
Q 1506 409 1894 409 
Q 2359 409 2629 706 
Q 2900 1003 2900 1516 
L 2900 3500 
L 3475 3500 
L 3475 0 
L 2900 0 
L 2900 538 
Q 2691 219 2414 64 
Q 2138 -91 1772 -91 
Q 1169 -91 856 284 
Q 544 659 544 1381 
z
M 1991 3584 
L 1991 3584 
z
" transform="scale(0.015625)"/>
      <path id="DejaVuSans-6d" d="M 3328 2828 
Q 3544 3216 3844 3400 
Q 4144 3584 4550 3584 
Q 5097 3584 5394 3201 
Q 5691 2819 5691 2113 
L 5691 0 
L 5113 0 
L 5113 2094 
Q 5113 2597 4934 2840 
Q 4756 3084 4391 3084 
Q 3944 3084 3684 2787 
Q 3425 2491 3425 1978 
L 3425 0 
L 2847 0 
L 2847 2094 
Q 2847 2600 2669 2842 
Q 2491 3084 2119 3084 
Q 1678 3084 1418 2786 
Q 1159 2488 1159 1978 
L 1159 0 
L 581 0 
L 581 3500 
L 1159 3500 
L 1159 2956 
Q 1356 3278 1631 3431 
Q 1906 3584 2284 3584 
Q 2666 3584 2933 3390 
Q 3200 3197 3328 2828 
z
" transform="scale(0.015625)"/>
      <path id="DejaVuSans-20" transform="scale(0.015625)"/>
      <path id="DejaVuSans-73" d="M 2834 3397 
L 2834 2853 
Q 2591 2978 2328 3040 
Q 2066 3103 1784 3103 
Q 1356 3103 1142 2972 
Q 928 2841 928 2578 
Q 928 2378 1081 2264 
Q 1234 2150 1697 2047 
L 1894 2003 
Q 2506 1872 2764 1633 
Q 3022 1394 3022 966 
Q 3022 478 2636 193 
Q 2250 -91 1575 -91 
Q 1294 -91 989 -36 
Q 684 19 347 128 
L 347 722 
Q 666 556 975 473 
Q 1284 391 1588 391 
Q 1994 391 2212 530 
Q 2431 669 2431 922 
Q 2431 1156 2273 1281 
Q 2116 1406 1581 1522 
L 1381 1569 
Q 847 1681 609 1914 
Q 372 2147 372 2553 
Q 372 3047 722 3315 
Q 1072 3584 1716 3584 
Q 2034 3584 2315 3537 
Q 2597 3491 2834 3397 
z
" transform="scale(0.015625)"/>
      <path id="DejaVuSans-6c" d="M 603 4863 
L 1178 4863 
L 1178 0 
L 603 0 
L 603 4863 
z
" transform="scale(0.015625)"/>
      <path id="DejaVuSans-6f" d="M 1959 3097 
Q 1497 3097 1228 2736 
Q 959 2375 959 1747 
Q 959 1119 1226 758 
Q 1494 397 1959 397 
Q 2419 397 2687 759 
Q 2956 1122 2956 1747 
Q 2956 2369 2687 2733 
Q 2419 3097 1959 3097 
z
M 1959 3584 
Q 2709 3584 3137 3096 
Q 3566 2609 3566 1747 
Q 3566 888 3137 398 
Q 2709 -91 1959 -91 
Q 1206 -91 779 398 
Q 353 888 353 1747 
Q 353 2609 779 3096 
Q 1206 3584 1959 3584 
z
" transform="scale(0.015625)"/>
      <path id="DejaVuSans-74" d="M 1172 4494 
L 1172 3500 
L 2356 3500 
L 2356 3053 
L 1172 3053 
L 1172 1153 
Q 1172 725 1289 603 
Q 1406 481 1766 481 
L 2356 481 
L 2356 0 
L 1766 0 
Q 1100 0 847 248 
Q 594 497 594 1153 
L 594 3053 
L 172 3053 
L 172 3500 
L 594 3500 
L 594 4494 
L 1172 4494 
z
" transform="scale(0.015625)"/>
     </defs>
     <use xlink:href="#DejaVuSans-70"/>
     <use xlink:href="#DejaVuSans-75" transform="translate(63.476562 0)"/>
     <use xlink:href="#DejaVuSans-6d" transform="translate(126.855469 0)"/>
     <use xlink:href="#DejaVuSans-70" transform="translate(224.267578 0)"/>
     <use xlink:href="#DejaVuSans-20" transform="translate(287.744141 0)"/>
     <use xlink:href="#DejaVuSans-73" transform="translate(319.53125 0)"/>
     <use xlink:href="#DejaVuSans-6c" transform="translate(371.630859 0)"/>
     <use xlink:href="#DejaVuSans-6f" transform="translate(399.414062 0)"/>
     <use xlink:href="#DejaVuSans-74" transform="translate(460.595703 0)"/>
    </g>
   </g>
   <g id="patch_7">
    <path d="M 66.193569 54.049446 
C 66.907892 54.049446 67.593055 53.765642 68.098157 53.26054 
C 68.60326 52.755437 68.887063 52.070275 68.887063 51.355952 
C 68.887063 50.641629 68.60326 49.956467 68.098157 49.451364 
C 67.593055 48.946261 66.907892 48.662458 66.193569 48.662458 
C 65.479246 48.662458 64.794084 48.946261 64.288981 49.451364 
C 63.783879 49.956467 63.500075 50.641629 63.500075 51.355952 
C 63.500075 52.070275 63.783879 52.755437 64.288981 53.26054 
C 64.794084 53.765642 65.479246 54.049446 66.193569 54.049446 
z
" clip-path="url(#p5f85ef1ef9)" style="fill: #ffffff; stroke: #000000; stroke-width: 1.7; stroke-linejoin: miter"/>
   </g>
   <g id="text_5">
    <!-- P1 readout -->
    <g transform="translate(0 54.391264) scale(0.11 -0.11)">
     <defs>
      <path id="DejaVuSans-50" d="M 1259 4147 
L 1259 2394 
L 2053 2394 
Q 2494 2394 2734 2622 
Q 2975 2850 2975 3272 
Q 2975 3691 2734 3919 
Q 2494 4147 2053 4147 
L 1259 4147 
z
M 628 4666 
L 2053 4666 
Q 2838 4666 3239 4311 
Q 3641 3956 3641 3272 
Q 3641 2581 3239 2228 
Q 2838 1875 2053 1875 
L 1259 1875 
L 1259 0 
L 628 0 
L 628 4666 
z
" transform="scale(0.015625)"/>
      <path id="DejaVuSans-31" d="M 794 531 
L 1825 531 
L 1825 4091 
L 703 3866 
L 703 4441 
L 1819 4666 
L 2450 4666 
L 2450 531 
L 3481 531 
L 3481 0 
L 794 0 
L 794 531 
z
" transform="scale(0.015625)"/>
      <path id="DejaVuSans-72" d="M 2631 2963 
Q 2534 3019 2420 3045 
Q 2306 3072 2169 3072 
Q 1681 3072 1420 2755 
Q 1159 2438 1159 1844 
L 1159 0 
L 581 0 
L 581 3500 
L 1159 3500 
L 1159 2956 
Q 1341 3275 1631 3429 
Q 1922 3584 2338 3584 
Q 2397 3584 2469 3576 
Q 2541 3569 2628 3553 
L 2631 2963 
z
" transform="scale(0.015625)"/>
      <path id="DejaVuSans-65" d="M 3597 1894 
L 3597 1613 
L 953 1613 
Q 991 1019 1311 708 
Q 1631 397 2203 397 
Q 2534 397 2845 478 
Q 3156 559 3463 722 
L 3463 178 
Q 3153 47 2828 -22 
Q 2503 -91 2169 -91 
Q 1331 -91 842 396 
Q 353 884 353 1716 
Q 353 2575 817 3079 
Q 1281 3584 2069 3584 
Q 2775 3584 3186 3129 
Q 3597 2675 3597 1894 
z
M 3022 2063 
Q 3016 2534 2758 2815 
Q 2500 3097 2075 3097 
Q 1594 3097 1305 2825 
Q 1016 2553 972 2059 
L 3022 2063 
z
" transform="scale(0.015625)"/>
      <path id="DejaVuSans-61" d="M 2194 1759 
Q 1497 1759 1228 1600 
Q 959 1441 959 1056 
Q 959 750 1161 570 
Q 1363 391 1709 391 
Q 2188 391 2477 730 
Q 2766 1069 2766 1631 
L 2766 1759 
L 2194 1759 
z
M 3341 1997 
L 3341 0 
L 2766 0 
L 2766 531 
Q 2569 213 2275 61 
Q 1981 -91 1556 -91 
Q 1019 -91 701 211 
Q 384 513 384 1019 
Q 384 1609 779 1909 
Q 1175 2209 1959 2209 
L 2766 2209 
L 2766 2266 
Q 2766 2663 2505 2880 
Q 2244 3097 1772 3097 
Q 1472 3097 1187 3025 
Q 903 2953 641 2809 
L 641 3341 
Q 956 3463 1253 3523 
Q 1550 3584 1831 3584 
Q 2591 3584 2966 3190 
Q 3341 2797 3341 1997 
z
" transform="scale(0.015625)"/>
      <path id="DejaVuSans-64" d="M 2906 2969 
L 2906 4863 
L 3481 4863 
L 3481 0 
L 2906 0 
L 2906 525 
Q 2725 213 2448 61 
Q 2172 -91 1784 -91 
Q 1150 -91 751 415 
Q 353 922 353 1747 
Q 353 2572 751 3078 
Q 1150 3584 1784 3584 
Q 2172 3584 2448 3432 
Q 2725 3281 2906 2969 
z
M 947 1747 
Q 947 1113 1208 752 
Q 1469 391 1925 391 
Q 2381 391 2643 752 
Q 2906 1113 2906 1747 
Q 2906 2381 2643 2742 
Q 2381 3103 1925 3103 
Q 1469 3103 1208 2742 
Q 947 2381 947 1747 
z
" transform="scale(0.015625)"/>
     </defs>
     <use xlink:href="#DejaVuSans-50"/>
     <use xlink:href="#DejaVuSans-31" transform="translate(60.302734 0)"/>
     <use xlink:href="#DejaVuSans-20" transform="translate(123.925781 0)"/>
     <use xlink:href="#DejaVuSans-72" transform="translate(155.712891 0)"/>
     <use xlink:href="#DejaVuSans-65" transform="translate(194.576172 0)"/>
     <use xlink:href="#DejaVuSans-61" transform="translate(256.099609 0)"/>
     <use xlink:href="#DejaVuSans-64" transform="translate(317.378906 0)"/>
     <use xlink:href="#DejaVuSans-6f" transform="translate(380.855469 0)"/>
     <use xlink:href="#DejaVuSans-75" transform="translate(442.037109 0)"/>
     <use xlink:href="#DejaVuSans-74" transform="translate(505.416016 0)"/>
    </g>
   </g>
   <g id="patch_8">
    <path d="M 166.750678 54.049446 
C 167.465001 54.049446 168.150163 53.765642 168.655266 53.26054 
C 169.160368 52.755437 169.444172 52.070275 169.444172 51.355952 
C 169.444172 50.641629 169.160368 49.956467 168.655266 49.451364 
C 168.150163 48.946261 167.465001 48.662458 166.750678 48.662458 
C 166.036355 48.662458 165.351192 48.946261 164.84609 49.451364 
C 164.340987 49.956467 164.057184 50.641629 164.057184 51.355952 
C 164.057184 52.070275 164.340987 52.755437 164.84609 53.26054 
C 165.351192 53.765642 166.036355 54.049446 166.750678 54.049446 
z
" clip-path="url(#p5f85ef1ef9)" style="stroke: #000000; stroke-width: 1.7; stroke-linejoin: miter"/>
   </g>
   <g id="patch_9">
    <path d="M 202.663931 54.049446 
C 203.378254 54.049446 204.063416 53.765642 204.568519 53.26054 
C 205.073621 52.755437 205.357425 52.070275 205.357425 51.355952 
C 205.357425 50.641629 205.073621 49.956467 204.568519 49.451364 
C 204.063416 48.946261 203.378254 48.662458 202.663931 48.662458 
C 201.949608 48.662458 201.264445 48.946261 200.759343 49.451364 
C 200.25424 49.956467 199.970437 50.641629 199.970437 51.355952 
C 199.970437 52.070275 200.25424 52.755437 200.759343 53.26054 
C 201.264445 53.765642 201.949608 54.049446 202.663931 54.049446 
z
" clip-path="url(#p5f85ef1ef9)" style="stroke: #000000; stroke-width: 1.7; stroke-linejoin: miter"/>
   </g>
  </g>
 </g>
 <defs>
  <clipPath id="p5f85ef1ef9">
   <rect x="0.657868" y="0" width="216.287566" height="149.04"/>
  </clipPath>
 </defs>
</svg>
