<?xml version="1.0" encoding="utf-8" standalone="no"?>
<!DOCTYPE svg PUBLIC "-//W3C//DTD SVG 1.1//EN"
  "http://www.w3.org/Graphics/SVG/1.1/DTD/svg11.dtd">
<svg xmlns:xlink="http://www.w3.org/1999/xlink" width="116.960461pt" height="116.64pt" viewBox="0 0 116.960461 116.64" xmlns="http://www.w3.org/2000/svg" version="1.1">
 <metadata>
  <rdf:RDF xmlns:dc="http://purl.org/dc/elements/1.1/" xmlns:cc="http://creativecommons.org/ns#" xmlns:rdf="http://www.w3.org/1999/02/22-rdf-syntax-ns#">
   <cc:Work>
    <dc:type rdf:resource="http://purl.org/dc/dcmitype/StillImage"/>
    <dc:date>2026-05-30T19:10:36.053688</dc:date>
    <dc:format>image/svg+xml</dc:format>
    <dc:creator>
     <cc:Agent>
      <dc:title>Matplotlib v3.10.8, https://matplotlib.org/</dc:title>
     </cc:Agent>
    </dc:creator>
   </cc:Work>
  </rdf:RDF>
 </metadata>
 <defs>
  <style type="text/css">*{stroke-linejoin: round; stroke-linecap: butt}</style>
 </defs>
 <g id="figure_1">
  <g id="patch_1">
   <path d="M 0 116.64 
L 116.960461 116.64 
L 116.960461 0 
L 0 0 
L 0 116.64 
z
" style="fill: none"/>
  </g>
  <g id="axes_1">
   <g id="patch_2">
    <path d="M 60.352243 44.267468 
C 61.539559 44.267468 62.67946 43.795305 63.51902 42.955746 
C 64.358579 42.116187 64.830741 40.976285 64.830741 39.788969 
C 64.830741 38.601653 64.358579 37.461752 63.51902 36.622193 
C 62.67946 35.782634 61.539559 35.310471 60.352243 35.310471 
" clip-path="url(#p000f195836)" style="fill: none; stroke: #000000; stroke-width: 1.7; stroke-linejoin: miter"/>
   </g>
   <g id="patch_3">
    <path d="M 60.352243 53.224464 
C 61.539559 53.224464 62.67946 52.752302 63.51902 51.912742 
C 64.358579 51.073183 64.830741 49.933282 64.830741 48.745966 
C 64.830741 47.55865 64.358579 46.418749 63.51902 45.579189 
C 62.67946 44.73963 61.539559 44.267468 60.352243 44.267468 
" clip-path="url(#p000f195836)" style="fill: none; stroke: #000000; stroke-width: 1.7; stroke-linejoin: miter"/>
   </g>
   <g id="patch_4">
    <path d="M 60.352243 62.181461 
C 61.539559 62.181461 62.67946 61.709298 63.51902 60.869739 
C 64.358579 60.03018 64.830741 58.890279 64.830741 57.702962 
C 64.830741 56.515646 64.358579 55.375745 63.51902 54.536186 
C 62.67946 53.696627 61.539559 53.224464 60.352243 53.224464 
" clip-path="url(#p000f195836)" style="fill: none; stroke: #000000; stroke-width: 1.7; stroke-linejoin: miter"/>
   </g>
   <g id="patch_5">
    <path d="M 60.352243 71.138457 
C 61.539559 71.138457 62.67946 70.666295 63.51902 69.826736 
C 64.358579 68.987176 64.830741 67.847275 64.830741 66.659959 
C 64.830741 65.472643 64.358579 64.332742 63.51902 63.493183 
C 62.67946 62.653623 61.539559 62.181461 60.352243 62.181461 
" clip-path="url(#p000f195836)" style="fill: none; stroke: #000000; stroke-width: 1.7; stroke-linejoin: miter"/>
   </g>
   <g id="line2d_1">
    <path d="M 24.524257 19.187877 
L 42.43825 19.187877 
L 60.352243 19.187877 
" clip-path="url(#p000f195836)" style="fill: none; stroke: #000000; stroke-width: 1.7; stroke-linecap: round"/>
   </g>
   <g id="line2d_2">
    <path d="M 60.352243 19.187877 
L 60.352243 35.310471 
M 60.352243 71.138457 
L 60.352243 87.261051 
" clip-path="url(#p000f195836)" style="fill: none; stroke: #000000; stroke-width: 1.7; stroke-linecap: round"/>
   </g>
   <g id="line2d_3">
    <path d="M 60.352243 87.261051 
L 60.352243 101.592246 
L 51.395246 101.592246 
L 69.30924 101.592246 
M 54.082345 105.891604 
L 66.622141 105.891604 
M 58.560844 110.190962 
L 62.143642 110.190962 
" clip-path="url(#p000f195836)" style="fill: none; stroke: #000000; stroke-width: 1.7; stroke-linecap: round"/>
   </g>
   <g id="line2d_4">
    <path d="M 60.352243 19.187877 
L 81.849035 19.187877 
L 103.345827 19.187877 
" clip-path="url(#p000f195836)" style="fill: none; stroke: #000000; stroke-width: 1.7; stroke-linecap: round"/>
   </g>
   <g id="line2d_5">
    <path d="M 103.345827 20.979276 
L 103.345827 51.791345 
M 112.302823 51.791345 
L 94.38883 51.791345 
M 112.302823 58.240382 
L 94.38883 58.240382 
M 103.345827 58.240382 
L 103.345827 89.052451 
" clip-path="url(#p000f195836)" style="fill: none; stroke: #000000; stroke-width: 1.7; stroke-linecap: round"/>
   </g>
   <g id="line2d_6">
    <path d="M 103.345827 89.052451 
L 103.345827 103.383645 
L 94.38883 103.383645 
L 112.302823 103.383645 
M 97.075929 107.683003 
L 109.615724 107.683003 
M 101.554427 111.982362 
L 105.137226 111.982362 
" clip-path="url(#p000f195836)" style="fill: none; stroke: #000000; stroke-width: 1.7; stroke-linecap: round"/>
   </g>
   <g id="text_1">
    <!-- L_r -->
    <g transform="translate(54.515934 13.011485) scale(0.11 -0.11)">
     <defs>
      <path id="DejaVuSans-4c" d="M 628 4666 
L 1259 4666 
L 1259 531 
L 3531 531 
L 3531 0 
L 628 0 
L 628 4666 
z
" transform="scale(0.015625)"/>
      <path id="DejaVuSans-5f" d="M 3263 -1063 
L 3263 -1509 
L -63 -1509 
L -63 -1063 
L 3263 -1063 
z
" transform="scale(0.015625)"/>
      <path id="DejaVuSans-72" d="M 2631 2963 
Q 2534 3019 2420 3045 
Q 2306 3072 2169 3072 
Q 1681 3072 1420 2755 
Q 1159 2438 1159 1844 
L 1159 0 
L 581 0 
L 581 3500 
L 1159 3500 
L 1159 2956 
Q 1341 3275 1631 3429 
Q 1922 3584 2338 3584 
Q 2397 3584 2469 3576 
Q 2541 3569 2628 3553 
L 2631 2963 
z
" transform="scale(0.015625)"/>
     </defs>
     <use xlink:href="#DejaVuSans-4c"/>
     <use xlink:href="#DejaVuSans-5f" transform="translate(55.712891 0)"/>
     <use xlink:href="#DejaVuSans-72" transform="translate(105.712891 0)"/>
    </g>
   </g>
   <g id="text_2">
    <!-- C_r -->
    <g transform="translate(94.494264 14.802884) scale(0.11 -0.11)">
     <defs>
      <path id="DejaVuSans-43" d="M 4122 4306 
L 4122 3641 
Q 3803 3938 3442 4084 
Q 3081 4231 2675 4231 
Q 1875 4231 1450 3742 
Q 1025 3253 1025 2328 
Q 1025 1406 1450 917 
Q 1875 428 2675 428 
Q 3081 428 3442 575 
Q 3803 722 4122 1019 
L 4122 359 
Q 3791 134 3420 21 
Q 3050 -91 2638 -91 
Q 1578 -91 968 557 
Q 359 1206 359 2328 
Q 359 3453 968 4101 
Q 1578 4750 2638 4750 
Q 3056 4750 3426 4639 
Q 3797 4528 4122 4306 
z
" transform="scale(0.015625)"/>
     </defs>
     <use xlink:href="#DejaVuSans-43"/>
     <use xlink:href="#DejaVuSans-5f" transform="translate(69.824219 0)"/>
     <use xlink:href="#DejaVuSans-72" transform="translate(119.824219 0)"/>
    </g>
   </g>
   <g id="patch_6">
    <path d="M 24.524257 21.874976 
C 25.236884 21.874976 25.920419 21.591846 26.424323 21.087943 
C 26.928226 20.58404 27.211356 19.900504 27.211356 19.187877 
C 27.211356 18.47525 26.928226 17.791715 26.424323 17.287811 
C 25.920419 16.783908 25.236884 16.500778 24.524257 16.500778 
C 23.81163 16.500778 23.128094 16.783908 22.624191 17.287811 
C 22.120287 17.791715 21.837158 18.47525 21.837158 19.187877 
C 21.837158 19.900504 22.120287 20.58404 22.624191 21.087943 
C 23.128094 21.591846 23.81163 21.874976 24.524257 21.874976 
z
" clip-path="url(#p000f195836)" style="fill: #ffffff; stroke: #000000; stroke-width: 1.7; stroke-linejoin: miter"/>
   </g>
   <g id="text_3">
    <!-- P1 -->
    <g transform="translate(4.622953 22.22319) scale(0.11 -0.11)">
     <defs>
      <path id="DejaVuSans-50" d="M 1259 4147 
L 1259 2394 
L 2053 2394 
Q 2494 2394 2734 2622 
Q 2975 2850 2975 3272 
Q 2975 3691 2734 3919 
Q 2494 4147 2053 4147 
L 1259 4147 
z
M 628 4666 
L 2053 4666 
Q 2838 4666 3239 4311 
Q 3641 3956 3641 3272 
Q 3641 2581 3239 2228 
Q 2838 1875 2053 1875 
L 1259 1875 
L 1259 0 
L 628 0 
L 628 4666 
z
" transform="scale(0.015625)"/>
      <path id="DejaVuSans-31" d="M 794 531 
L 1825 531 
L 1825 4091 
L 703 3866 
L 703 4441 
L 1819 4666 
L 2450 4666 
L 2450 531 
L 3481 531 
L 3481 0 
L 794 0 
L 794 531 
z
" transform="scale(0.015625)"/>
     </defs>
     <use xlink:href="#DejaVuSans-50"/>
     <use xlink:href="#DejaVuSans-31" transform="translate(60.302734 0)"/>
    </g>
   </g>
   <g id="patch_7">
    <path d="M 60.352243 21.874976 
C 61.06487 21.874976 61.748406 21.591846 62.252309 21.087943 
C 62.756212 20.58404 63.039342 19.900504 63.039342 19.187877 
C 63.039342 18.47525 62.756212 17.791715 62.252309 17.287811 
C 61.748406 16.783908 61.06487 16.500778 60.352243 16.500778 
C 59.639616 16.500778 58.95608 16.783908 58.452177 17.287811 
C 57.948274 17.791715 57.665144 18.47525 57.665144 19.187877 
C 57.665144 19.900504 57.948274 20.58404 58.452177 21.087943 
C 58.95608 21.591846 59.639616 21.874976 60.352243 21.874976 
z
" clip-path="url(#p000f195836)" style="stroke: #000000; stroke-width: 1.7; stroke-linejoin: miter"/>
   </g>
   <g id="patch_8">
    <path d="M 103.345827 21.874976 
C 104.058454 21.874976 104.741989 21.591846 105.245893 21.087943 
C 105.749796 20.58404 106.032926 19.900504 106.032926 19.187877 
C 106.032926 18.47525 105.749796 17.791715 105.245893 17.287811 
C 104.741989 16.783908 104.058454 16.500778 103.345827 16.500778 
C 102.6332 16.500778 101.949664 16.783908 101.445761 17.287811 
C 100.941857 17.791715 100.658728 18.47525 100.658728 19.187877 
C 100.658728 19.900504 100.941857 20.58404 101.445761 21.087943 
C 101.949664 21.591846 102.6332 21.874976 103.345827 21.874976 
z
" clip-path="url(#p000f195836)" style="stroke: #000000; stroke-width: 1.7; stroke-linejoin: miter"/>
   </g>
  </g>
 </g>
 <defs>
  <clipPath id="p000f195836">
   <rect x="0" y="0" width="116.960461" height="116.64"/>
  </clipPath>
 </defs>
</svg>
