<?xml version="1.0" encoding="utf-8" standalone="no"?>
<!DOCTYPE svg PUBLIC "-//W3C//DTD SVG 1.1//EN"
  "http://www.w3.org/Graphics/SVG/1.1/DTD/svg11.dtd">
<svg xmlns:xlink="http://www.w3.org/1999/xlink" width="221.02903pt" height="121.68pt" viewBox="0 0 221.02903 121.68" xmlns="http://www.w3.org/2000/svg" version="1.1">
 <metadata>
  <rdf:RDF xmlns:dc="http://purl.org/dc/elements/1.1/" xmlns:cc="http://creativecommons.org/ns#" xmlns:rdf="http://www.w3.org/1999/02/22-rdf-syntax-ns#">
   <cc:Work>
    <dc:type rdf:resource="http://purl.org/dc/dcmitype/StillImage"/>
    <dc:date>2026-05-30T19:10:36.104901</dc:date>
    <dc:format>image/svg+xml</dc:format>
    <dc:creator>
     <cc:Agent>
      <dc:title>Matplotlib v3.10.8, https://matplotlib.org/</dc:title>
     </cc:Agent>
    </dc:creator>
   </cc:Work>
  </rdf:RDF>
 </metadata>
 <defs>
  <style type="text/css">*{stroke-linejoin: round; stroke-linecap: butt}</style>
 </defs>
 <g id="figure_1">
  <g id="patch_1">
   <path d="M 0 121.68 
L 221.02903 121.68 
L 221.02903 0 
L 0 0 
L 0 121.68 
z
" style="fill: none"/>
  </g>
  <g id="axes_1">
   <g id="patch_2">
    <path d="M 122.38066 55.017752 
C 123.568017 55.017752 124.707957 54.545574 125.547545 53.705986 
C 126.387134 52.866397 126.859312 51.726457 126.859312 50.5391 
C 126.859312 49.351743 126.387134 48.211803 125.547545 47.372215 
C 124.707957 46.532627 123.568017 46.060448 122.38066 46.060448 
" clip-path="url(#p5d3df8ac24)" style="fill: none; stroke: #000000; stroke-width: 1.7; stroke-linejoin: miter"/>
   </g>
   <g id="patch_3">
    <path d="M 122.38066 63.975056 
C 123.568017 63.975056 124.707957 63.502878 125.547545 62.66329 
C 126.387134 61.823702 126.859312 60.683761 126.859312 59.496404 
C 126.859312 58.309048 126.387134 57.169107 125.547545 56.329519 
C 124.707957 55.489931 123.568017 55.017752 122.38066 55.017752 
" clip-path="url(#p5d3df8ac24)" style="fill: none; stroke: #000000; stroke-width: 1.7; stroke-linejoin: miter"/>
   </g>
   <g id="patch_4">
    <path d="M 122.38066 72.932361 
C 123.568017 72.932361 124.707957 72.460182 125.547545 71.620594 
C 126.387134 70.781006 126.859312 69.641065 126.859312 68.453708 
C 126.859312 67.266352 126.387134 66.126411 125.547545 65.286823 
C 124.707957 64.447235 123.568017 63.975056 122.38066 63.975056 
" clip-path="url(#p5d3df8ac24)" style="fill: none; stroke: #000000; stroke-width: 1.7; stroke-linejoin: miter"/>
   </g>
   <g id="patch_5">
    <path d="M 122.38066 81.889665 
C 123.568017 81.889665 124.707957 81.417486 125.547545 80.577898 
C 126.387134 79.73831 126.859312 78.598369 126.859312 77.411013 
C 126.859312 76.223656 126.387134 75.083715 125.547545 74.244127 
C 124.707957 73.404539 123.568017 72.932361 122.38066 72.932361 
" clip-path="url(#p5d3df8ac24)" style="fill: none; stroke: #000000; stroke-width: 1.7; stroke-linejoin: miter"/>
   </g>
   <g id="line2d_1">
    <path d="M 25.641776 28.14584 
L 39.973462 28.14584 
L 54.305149 28.14584 
" clip-path="url(#p5d3df8ac24)" style="fill: none; stroke: #000000; stroke-width: 1.7; stroke-linecap: round"/>
   </g>
   <g id="line2d_2">
    <path d="M 54.305149 28.14584 
L 85.118275 28.14584 
M 85.118275 19.188536 
L 85.118275 37.103144 
M 91.567534 19.188536 
L 91.567534 37.103144 
M 91.567534 28.14584 
L 122.38066 28.14584 
" clip-path="url(#p5d3df8ac24)" style="fill: none; stroke: #000000; stroke-width: 1.7; stroke-linecap: round"/>
   </g>
   <g id="line2d_3">
    <path d="M 122.38066 28.14584 
L 122.38066 46.060448 
M 122.38066 81.889665 
L 122.38066 99.804273 
" clip-path="url(#p5d3df8ac24)" style="fill: none; stroke: #000000; stroke-width: 1.7; stroke-linecap: round"/>
   </g>
   <g id="line2d_4">
    <path d="M 122.38066 28.14584 
L 142.086729 28.14584 
L 161.792798 28.14584 
" clip-path="url(#p5d3df8ac24)" style="fill: none; stroke: #000000; stroke-width: 1.7; stroke-linecap: round"/>
   </g>
   <g id="line2d_5">
    <path d="M 161.792798 28.14584 
L 161.792798 60.750427 
M 170.750102 60.750427 
L 152.835494 60.750427 
M 170.750102 67.199686 
L 152.835494 67.199686 
M 161.792798 67.199686 
L 161.792798 99.804273 
" clip-path="url(#p5d3df8ac24)" style="fill: none; stroke: #000000; stroke-width: 1.7; stroke-linecap: round"/>
   </g>
   <g id="line2d_6">
    <path d="M 161.792798 99.804273 
L 142.086729 99.804273 
L 122.38066 99.804273 
" clip-path="url(#p5d3df8ac24)" style="fill: none; stroke: #000000; stroke-width: 1.7; stroke-linecap: round"/>
   </g>
   <g id="line2d_7">
    <path d="M 122.38066 105.178655 
L 132.233695 105.178655 
L 142.086729 105.178655 
" clip-path="url(#p5d3df8ac24)" style="fill: none; stroke: #000000; stroke-width: 1.7; stroke-linecap: round"/>
   </g>
   <g id="text_1">
    <!-- C_xy -->
    <g transform="translate(75.241733 13.012021) scale(0.11 -0.11)">
     <defs>
      <path id="DejaVuSans-43" d="M 4122 4306 
L 4122 3641 
Q 3803 3938 3442 4084 
Q 3081 4231 2675 4231 
Q 1875 4231 1450 3742 
Q 1025 3253 1025 2328 
Q 1025 1406 1450 917 
Q 1875 428 2675 428 
Q 3081 428 3442 575 
Q 3803 722 4122 1019 
L 4122 359 
Q 3791 134 3420 21 
Q 3050 -91 2638 -91 
Q 1578 -91 968 557 
Q 359 1206 359 2328 
Q 359 3453 968 4101 
Q 1578 4750 2638 4750 
Q 3056 4750 3426 4639 
Q 3797 4528 4122 4306 
z
" transform="scale(0.015625)"/>
      <path id="DejaVuSans-5f" d="M 3263 -1063 
L 3263 -1509 
L -63 -1509 
L -63 -1063 
L 3263 -1063 
z
" transform="scale(0.015625)"/>
      <path id="DejaVuSans-78" d="M 3513 3500 
L 2247 1797 
L 3578 0 
L 2900 0 
L 1881 1375 
L 863 0 
L 184 0 
L 1544 1831 
L 300 3500 
L 978 3500 
L 1906 2253 
L 2834 3500 
L 3513 3500 
z
" transform="scale(0.015625)"/>
      <path id="DejaVuSans-79" d="M 2059 -325 
Q 1816 -950 1584 -1140 
Q 1353 -1331 966 -1331 
L 506 -1331 
L 506 -850 
L 844 -850 
Q 1081 -850 1212 -737 
Q 1344 -625 1503 -206 
L 1606 56 
L 191 3500 
L 800 3500 
L 1894 763 
L 2988 3500 
L 3597 3500 
L 2059 -325 
z
" transform="scale(0.015625)"/>
     </defs>
     <use xlink:href="#DejaVuSans-43"/>
     <use xlink:href="#DejaVuSans-5f" transform="translate(69.824219 0)"/>
     <use xlink:href="#DejaVuSans-78" transform="translate(119.824219 0)"/>
     <use xlink:href="#DejaVuSans-79" transform="translate(179.003906 0)"/>
    </g>
   </g>
   <g id="text_2">
    <!-- L_q -->
    <g transform="translate(115.313803 111.439538) scale(0.11 -0.11)">
     <defs>
      <path id="DejaVuSans-4c" d="M 628 4666 
L 1259 4666 
L 1259 531 
L 3531 531 
L 3531 0 
L 628 0 
L 628 4666 
z
" transform="scale(0.015625)"/>
      <path id="DejaVuSans-71" d="M 947 1747 
Q 947 1113 1208 752 
Q 1469 391 1925 391 
Q 2381 391 2643 752 
Q 2906 1113 2906 1747 
Q 2906 2381 2643 2742 
Q 2381 3103 1925 3103 
Q 1469 3103 1208 2742 
Q 947 2381 947 1747 
z
M 2906 525 
Q 2725 213 2448 61 
Q 2172 -91 1784 -91 
Q 1150 -91 751 415 
Q 353 922 353 1747 
Q 353 2572 751 3078 
Q 1150 3584 1784 3584 
Q 2172 3584 2448 3432 
Q 2725 3281 2906 2969 
L 2906 3500 
L 3481 3500 
L 3481 -1331 
L 2906 -1331 
L 2906 525 
z
" transform="scale(0.015625)"/>
     </defs>
     <use xlink:href="#DejaVuSans-4c"/>
     <use xlink:href="#DejaVuSans-5f" transform="translate(55.712891 0)"/>
     <use xlink:href="#DejaVuSans-71" transform="translate(105.712891 0)"/>
    </g>
   </g>
   <g id="text_3">
    <!-- C_q -->
    <g transform="translate(151.710611 21.969325) scale(0.11 -0.11)">
     <use xlink:href="#DejaVuSans-43"/>
     <use xlink:href="#DejaVuSans-5f" transform="translate(69.824219 0)"/>
     <use xlink:href="#DejaVuSans-71" transform="translate(119.824219 0)"/>
    </g>
   </g>
   <g id="patch_6">
    <path d="M 25.641776 30.833031 
C 26.354427 30.833031 27.037986 30.549892 27.541907 30.045971 
C 28.045828 29.54205 28.328967 28.858491 28.328967 28.14584 
C 28.328967 27.433189 28.045828 26.74963 27.541907 26.245709 
C 27.037986 25.741788 26.354427 25.458649 25.641776 25.458649 
C 24.929124 25.458649 24.245565 25.741788 23.741645 26.245709 
C 23.237724 26.74963 22.954585 27.433189 22.954585 28.14584 
C 22.954585 28.858491 23.237724 29.54205 23.741645 30.045971 
C 24.245565 30.549892 24.929124 30.833031 25.641776 30.833031 
z
" clip-path="url(#p5d3df8ac24)" style="fill: #ffffff; stroke: #000000; stroke-width: 1.7; stroke-linejoin: miter"/>
   </g>
   <g id="text_4">
    <!-- XY -->
    <g transform="translate(5.118069 31.181153) scale(0.11 -0.11)">
     <defs>
      <path id="DejaVuSans-58" d="M 403 4666 
L 1081 4666 
L 2241 2931 
L 3406 4666 
L 4084 4666 
L 2584 2425 
L 4184 0 
L 3506 0 
L 2194 1984 
L 872 0 
L 191 0 
L 1856 2491 
L 403 4666 
z
" transform="scale(0.015625)"/>
      <path id="DejaVuSans-59" d="M -13 4666 
L 666 4666 
L 1959 2747 
L 3244 4666 
L 3922 4666 
L 2272 2222 
L 2272 0 
L 1638 0 
L 1638 2222 
L -13 4666 
z
" transform="scale(0.015625)"/>
     </defs>
     <use xlink:href="#DejaVuSans-58"/>
     <use xlink:href="#DejaVuSans-59" transform="translate(68.505859 0)"/>
    </g>
   </g>
   <g id="patch_7">
    <path d="M 122.38066 30.833031 
C 123.093312 30.833031 123.776871 30.549892 124.280791 30.045971 
C 124.784712 29.54205 125.067851 28.858491 125.067851 28.14584 
C 125.067851 27.433189 124.784712 26.74963 124.280791 26.245709 
C 123.776871 25.741788 123.093312 25.458649 122.38066 25.458649 
C 121.668009 25.458649 120.98445 25.741788 120.480529 26.245709 
C 119.976608 26.74963 119.693469 27.433189 119.693469 28.14584 
C 119.693469 28.858491 119.976608 29.54205 120.480529 30.045971 
C 120.98445 30.549892 121.668009 30.833031 122.38066 30.833031 
z
" clip-path="url(#p5d3df8ac24)" style="stroke: #000000; stroke-width: 1.7; stroke-linejoin: miter"/>
   </g>
   <g id="text_5">
    <!-- + -->
    <g transform="translate(117.771832 19.588071) scale(0.11 -0.11)">
     <defs>
      <path id="DejaVuSans-2b" d="M 2944 4013 
L 2944 2272 
L 4684 2272 
L 4684 1741 
L 2944 1741 
L 2944 0 
L 2419 0 
L 2419 1741 
L 678 1741 
L 678 2272 
L 2419 2272 
L 2419 4013 
L 2944 4013 
z
" transform="scale(0.015625)"/>
     </defs>
     <use xlink:href="#DejaVuSans-2b"/>
    </g>
   </g>
   <g id="patch_8">
    <path d="M 122.38066 102.491464 
C 123.093312 102.491464 123.776871 102.208325 124.280791 101.704404 
C 124.784712 101.200483 125.067851 100.516924 125.067851 99.804273 
C 125.067851 99.091621 124.784712 98.408062 124.280791 97.904142 
C 123.776871 97.400221 123.093312 97.117082 122.38066 97.117082 
C 121.668009 97.117082 120.98445 97.400221 120.480529 97.904142 
C 119.976608 98.408062 119.693469 99.091621 119.693469 99.804273 
C 119.693469 100.516924 119.976608 101.200483 120.480529 101.704404 
C 120.98445 102.208325 121.668009 102.491464 122.38066 102.491464 
z
" clip-path="url(#p5d3df8ac24)" style="stroke: #000000; stroke-width: 1.7; stroke-linejoin: miter"/>
   </g>
   <g id="text_6">
    <!-- - -->
    <g transform="translate(120.396363 114.432667) scale(0.11 -0.11)">
     <defs>
      <path id="DejaVuSans-2d" d="M 313 2009 
L 1997 2009 
L 1997 1497 
L 313 1497 
L 313 2009 
z
" transform="scale(0.015625)"/>
     </defs>
     <use xlink:href="#DejaVuSans-2d"/>
    </g>
   </g>
   <g id="patch_9">
    <path d="M 142.086729 107.865847 
C 142.799381 107.865847 143.48294 107.582707 143.98686 107.078786 
C 144.490781 106.574866 144.77392 105.891307 144.77392 105.178655 
C 144.77392 104.466004 144.490781 103.782445 143.98686 103.278524 
C 143.48294 102.774604 142.799381 102.491464 142.086729 102.491464 
C 141.374078 102.491464 140.690519 102.774604 140.186598 103.278524 
C 139.682677 103.782445 139.399538 104.466004 139.399538 105.178655 
C 139.399538 105.891307 139.682677 106.574866 140.186598 107.078786 
C 140.690519 107.582707 141.374078 107.865847 142.086729 107.865847 
z
" clip-path="url(#p5d3df8ac24)" style="fill: #ffffff; stroke: #000000; stroke-width: 1.7; stroke-linejoin: miter"/>
   </g>
   <g id="text_7">
    <!-- floating node -->
    <g transform="translate(148.356842 108.213968) scale(0.11 -0.11)">
     <defs>
      <path id="DejaVuSans-66" d="M 2375 4863 
L 2375 4384 
L 1825 4384 
Q 1516 4384 1395 4259 
Q 1275 4134 1275 3809 
L 1275 3500 
L 2222 3500 
L 2222 3053 
L 1275 3053 
L 1275 0 
L 697 0 
L 697 3053 
L 147 3053 
L 147 3500 
L 697 3500 
L 697 3744 
Q 697 4328 969 4595 
Q 1241 4863 1831 4863 
L 2375 4863 
z
" transform="scale(0.015625)"/>
      <path id="DejaVuSans-6c" d="M 603 4863 
L 1178 4863 
L 1178 0 
L 603 0 
L 603 4863 
z
" transform="scale(0.015625)"/>
      <path id="DejaVuSans-6f" d="M 1959 3097 
Q 1497 3097 1228 2736 
Q 959 2375 959 1747 
Q 959 1119 1226 758 
Q 1494 397 1959 397 
Q 2419 397 2687 759 
Q 2956 1122 2956 1747 
Q 2956 2369 2687 2733 
Q 2419 3097 1959 3097 
z
M 1959 3584 
Q 2709 3584 3137 3096 
Q 3566 2609 3566 1747 
Q 3566 888 3137 398 
Q 2709 -91 1959 -91 
Q 1206 -91 779 398 
Q 353 888 353 1747 
Q 353 2609 779 3096 
Q 1206 3584 1959 3584 
z
" transform="scale(0.015625)"/>
      <path id="DejaVuSans-61" d="M 2194 1759 
Q 1497 1759 1228 1600 
Q 959 1441 959 1056 
Q 959 750 1161 570 
Q 1363 391 1709 391 
Q 2188 391 2477 730 
Q 2766 1069 2766 1631 
L 2766 1759 
L 2194 1759 
z
M 3341 1997 
L 3341 0 
L 2766 0 
L 2766 531 
Q 2569 213 2275 61 
Q 1981 -91 1556 -91 
Q 1019 -91 701 211 
Q 384 513 384 1019 
Q 384 1609 779 1909 
Q 1175 2209 1959 2209 
L 2766 2209 
L 2766 2266 
Q 2766 2663 2505 2880 
Q 2244 3097 1772 3097 
Q 1472 3097 1187 3025 
Q 903 2953 641 2809 
L 641 3341 
Q 956 3463 1253 3523 
Q 1550 3584 1831 3584 
Q 2591 3584 2966 3190 
Q 3341 2797 3341 1997 
z
" transform="scale(0.015625)"/>
      <path id="DejaVuSans-74" d="M 1172 4494 
L 1172 3500 
L 2356 3500 
L 2356 3053 
L 1172 3053 
L 1172 1153 
Q 1172 725 1289 603 
Q 1406 481 1766 481 
L 2356 481 
L 2356 0 
L 1766 0 
Q 1100 0 847 248 
Q 594 497 594 1153 
L 594 3053 
L 172 3053 
L 172 3500 
L 594 3500 
L 594 4494 
L 1172 4494 
z
" transform="scale(0.015625)"/>
      <path id="DejaVuSans-69" d="M 603 3500 
L 1178 3500 
L 1178 0 
L 603 0 
L 603 3500 
z
M 603 4863 
L 1178 4863 
L 1178 4134 
L 603 4134 
L 603 4863 
z
" transform="scale(0.015625)"/>
      <path id="DejaVuSans-6e" d="M 3513 2113 
L 3513 0 
L 2938 0 
L 2938 2094 
Q 2938 2591 2744 2837 
Q 2550 3084 2163 3084 
Q 1697 3084 1428 2787 
Q 1159 2491 1159 1978 
L 1159 0 
L 581 0 
L 581 3500 
L 1159 3500 
L 1159 2956 
Q 1366 3272 1645 3428 
Q 1925 3584 2291 3584 
Q 2894 3584 3203 3211 
Q 3513 2838 3513 2113 
z
" transform="scale(0.015625)"/>
      <path id="DejaVuSans-67" d="M 2906 1791 
Q 2906 2416 2648 2759 
Q 2391 3103 1925 3103 
Q 1463 3103 1205 2759 
Q 947 2416 947 1791 
Q 947 1169 1205 825 
Q 1463 481 1925 481 
Q 2391 481 2648 825 
Q 2906 1169 2906 1791 
z
M 3481 434 
Q 3481 -459 3084 -895 
Q 2688 -1331 1869 -1331 
Q 1566 -1331 1297 -1286 
Q 1028 -1241 775 -1147 
L 775 -588 
Q 1028 -725 1275 -790 
Q 1522 -856 1778 -856 
Q 2344 -856 2625 -561 
Q 2906 -266 2906 331 
L 2906 616 
Q 2728 306 2450 153 
Q 2172 0 1784 0 
Q 1141 0 747 490 
Q 353 981 353 1791 
Q 353 2603 747 3093 
Q 1141 3584 1784 3584 
Q 2172 3584 2450 3431 
Q 2728 3278 2906 2969 
L 2906 3500 
L 3481 3500 
L 3481 434 
z
" transform="scale(0.015625)"/>
      <path id="DejaVuSans-20" transform="scale(0.015625)"/>
      <path id="DejaVuSans-64" d="M 2906 2969 
L 2906 4863 
L 3481 4863 
L 3481 0 
L 2906 0 
L 2906 525 
Q 2725 213 2448 61 
Q 2172 -91 1784 -91 
Q 1150 -91 751 415 
Q 353 922 353 1747 
Q 353 2572 751 3078 
Q 1150 3584 1784 3584 
Q 2172 3584 2448 3432 
Q 2725 3281 2906 2969 
z
M 947 1747 
Q 947 1113 1208 752 
Q 1469 391 1925 391 
Q 2381 391 2643 752 
Q 2906 1113 2906 1747 
Q 2906 2381 2643 2742 
Q 2381 3103 1925 3103 
Q 1469 3103 1208 2742 
Q 947 2381 947 1747 
z
" transform="scale(0.015625)"/>
      <path id="DejaVuSans-65" d="M 3597 1894 
L 3597 1613 
L 953 1613 
Q 991 1019 1311 708 
Q 1631 397 2203 397 
Q 2534 397 2845 478 
Q 3156 559 3463 722 
L 3463 178 
Q 3153 47 2828 -22 
Q 2503 -91 2169 -91 
Q 1331 -91 842 396 
Q 353 884 353 1716 
Q 353 2575 817 3079 
Q 1281 3584 2069 3584 
Q 2775 3584 3186 3129 
Q 3597 2675 3597 1894 
z
M 3022 2063 
Q 3016 2534 2758 2815 
Q 2500 3097 2075 3097 
Q 1594 3097 1305 2825 
Q 1016 2553 972 2059 
L 3022 2063 
z
" transform="scale(0.015625)"/>
     </defs>
     <use xlink:href="#DejaVuSans-66"/>
     <use xlink:href="#DejaVuSans-6c" transform="translate(35.205078 0)"/>
     <use xlink:href="#DejaVuSans-6f" transform="translate(62.988281 0)"/>
     <use xlink:href="#DejaVuSans-61" transform="translate(124.169922 0)"/>
     <use xlink:href="#DejaVuSans-74" transform="translate(185.449219 0)"/>
     <use xlink:href="#DejaVuSans-69" transform="translate(224.658203 0)"/>
     <use xlink:href="#DejaVuSans-6e" transform="translate(252.441406 0)"/>
     <use xlink:href="#DejaVuSans-67" transform="translate(315.820312 0)"/>
     <use xlink:href="#DejaVuSans-20" transform="translate(379.296875 0)"/>
     <use xlink:href="#DejaVuSans-6e" transform="translate(411.083984 0)"/>
     <use xlink:href="#DejaVuSans-6f" transform="translate(474.462891 0)"/>
     <use xlink:href="#DejaVuSans-64" transform="translate(535.644531 0)"/>
     <use xlink:href="#DejaVuSans-65" transform="translate(599.121094 0)"/>
    </g>
   </g>
  </g>
 </g>
 <defs>
  <clipPath id="p5d3df8ac24">
   <rect x="0" y="-0" width="216.796617" height="121.68"/>
  </clipPath>
 </defs>
</svg>
