<?xml version="1.0" encoding="utf-8" standalone="no"?>
<!DOCTYPE svg PUBLIC "-//W3C//DTD SVG 1.1//EN"
  "http://www.w3.org/Graphics/SVG/1.1/DTD/svg11.dtd">
<svg xmlns:xlink="http://www.w3.org/1999/xlink" width="429.744123pt" height="136.8pt" viewBox="0 0 429.744123 136.8" xmlns="http://www.w3.org/2000/svg" version="1.1">
 <metadata>
  <rdf:RDF xmlns:dc="http://purl.org/dc/elements/1.1/" xmlns:cc="http://creativecommons.org/ns#" xmlns:rdf="http://www.w3.org/1999/02/22-rdf-syntax-ns#">
   <cc:Work>
    <dc:type rdf:resource="http://purl.org/dc/dcmitype/StillImage"/>
    <dc:date>2026-05-30T19:10:36.225042</dc:date>
    <dc:format>image/svg+xml</dc:format>
    <dc:creator>
     <cc:Agent>
      <dc:title>Matplotlib v3.10.8, https://matplotlib.org/</dc:title>
     </cc:Agent>
    </dc:creator>
   </cc:Work>
  </rdf:RDF>
 </metadata>
 <defs>
  <style type="text/css">*{stroke-linejoin: round; stroke-linecap: butt}</style>
 </defs>
 <g id="figure_1">
  <g id="patch_1">
   <path d="M 0 136.8 
L 429.744123 136.8 
L 429.744123 0 
L 0 0 
L 0 136.8 
z
" style="fill: none"/>
  </g>
  <g id="axes_1">
   <g id="patch_2">
    <path d="M 131.794166 28.238715 
C 131.794166 27.04744 131.320429 25.903739 130.478071 25.06138 
C 129.635712 24.219022 128.49201 23.745285 127.300736 23.745285 
C 126.109461 23.745285 124.965759 24.219022 124.1234 25.06138 
C 123.281042 25.903739 122.807305 27.04744 122.807305 28.238715 
" clip-path="url(#pabf7cd691c)" style="fill: none; stroke: #000000; stroke-width: 1.7; stroke-linejoin: miter"/>
   </g>
   <g id="patch_3">
    <path d="M 140.781028 28.238715 
C 140.781028 27.04744 140.307291 25.903739 139.464932 25.06138 
C 138.622574 24.219022 137.478872 23.745285 136.287597 23.745285 
C 135.096322 23.745285 133.95262 24.219022 133.110262 25.06138 
C 132.267903 25.903739 131.794166 27.04744 131.794166 28.238715 
" clip-path="url(#pabf7cd691c)" style="fill: none; stroke: #000000; stroke-width: 1.7; stroke-linejoin: miter"/>
   </g>
   <g id="patch_4">
    <path d="M 149.767889 28.238715 
C 149.767889 27.04744 149.294152 25.903739 148.451794 25.06138 
C 147.609435 24.219022 146.465733 23.745285 145.274458 23.745285 
C 144.083183 23.745285 142.939481 24.219022 142.097123 25.06138 
C 141.254764 25.903739 140.781028 27.04744 140.781028 28.238715 
" clip-path="url(#pabf7cd691c)" style="fill: none; stroke: #000000; stroke-width: 1.7; stroke-linejoin: miter"/>
   </g>
   <g id="patch_5">
    <path d="M 158.75475 28.238715 
C 158.75475 27.04744 158.281013 25.903739 157.438655 25.06138 
C 156.596296 24.219022 155.452594 23.745285 154.26132 23.745285 
C 153.070045 23.745285 151.926343 24.219022 151.083984 25.06138 
C 150.241626 25.903739 149.767889 27.04744 149.767889 28.238715 
" clip-path="url(#pabf7cd691c)" style="fill: none; stroke: #000000; stroke-width: 1.7; stroke-linejoin: miter"/>
   </g>
   <g id="line2d_1">
    <path d="M 62.595334 28.238715 
L 85.421962 28.238715 
M 85.421962 19.251854 
L 85.421962 37.225577 
M 91.892502 19.251854 
L 91.892502 37.225577 
M 91.892502 28.238715 
L 114.71913 28.238715 
" clip-path="url(#pabf7cd691c)" style="fill: none; stroke: #000000; stroke-width: 1.7; stroke-linecap: round"/>
   </g>
   <g id="line2d_2">
    <path d="M 114.71913 28.238715 
L 122.807305 28.238715 
M 158.75475 28.238715 
L 166.842925 28.238715 
" clip-path="url(#pabf7cd691c)" style="fill: none; stroke: #000000; stroke-width: 1.7; stroke-linecap: round"/>
   </g>
   <g id="line2d_3">
    <path d="M 166.842925 30.036088 
L 166.842925 52.862715 
M 175.829787 52.862715 
L 157.856064 52.862715 
M 175.829787 59.333255 
L 157.856064 59.333255 
M 166.842925 59.333255 
L 166.842925 82.159883 
" clip-path="url(#pabf7cd691c)" style="fill: none; stroke: #000000; stroke-width: 1.7; stroke-linecap: round"/>
   </g>
   <g id="line2d_4">
    <path d="M 166.842925 82.159883 
L 166.842925 96.538861 
L 157.856064 96.538861 
L 175.829787 96.538861 
M 160.552122 100.852555 
L 173.133728 100.852555 
M 165.045553 105.166248 
L 168.640298 105.166248 
" clip-path="url(#pabf7cd691c)" style="fill: none; stroke: #000000; stroke-width: 1.7; stroke-linecap: round"/>
   </g>
   <g id="line2d_5">
    <path d="M 166.842925 28.238715 
L 189.669553 28.238715 
M 189.669553 19.251854 
L 189.669553 37.225577 
M 196.140093 19.251854 
L 196.140093 37.225577 
M 196.140093 28.238715 
L 218.966721 28.238715 
" clip-path="url(#pabf7cd691c)" style="fill: none; stroke: #000000; stroke-width: 1.7; stroke-linecap: round"/>
   </g>
   <g id="line2d_6">
    <path d="M 218.966721 28.238715 
L 235.143071 28.238715 
L 251.319422 28.238715 
" clip-path="url(#pabf7cd691c)" style="fill: none; stroke: #000000; stroke-width: 1.7; stroke-linecap: round"/>
   </g>
   <g id="line2d_7">
    <path d="M 251.319422 28.238715 
L 290.861612 28.238715 
L 330.403801 28.238715 
" clip-path="url(#pabf7cd691c)" style="fill: none; stroke: #000000; stroke-width: 1.7; stroke-linecap: round"/>
   </g>
   <g id="line2d_8">
    <path d="M 330.403801 28.238715 
L 344.782779 28.238715 
L 359.161758 28.238715 
" clip-path="url(#pabf7cd691c)" style="fill: none; stroke: #000000; stroke-width: 1.7; stroke-linecap: round"/>
   </g>
   <g id="line2d_9">
    <path d="M 251.319422 92.944117 
L 251.319422 101.032292 
L 251.319422 109.120467 
" clip-path="url(#pabf7cd691c)" style="fill: none; stroke: #000000; stroke-width: 1.7; stroke-linecap: round"/>
   </g>
   <g id="line2d_10">
    <path d="M 251.319422 109.120467 
L 251.319422 123.499445 
L 242.33256 123.499445 
L 260.306283 123.499445 
M 245.028619 127.813139 
L 257.610225 127.813139 
M 249.522049 132.126832 
L 253.116794 132.126832 
" clip-path="url(#pabf7cd691c)" style="fill: none; stroke: #000000; stroke-width: 1.7; stroke-linecap: round"/>
   </g>
   <g id="line2d_11">
    <path d="M 251.319422 92.944117 
L 290.861612 92.944117 
L 330.403801 92.944117 
" clip-path="url(#pabf7cd691c)" style="fill: none; stroke: #000000; stroke-width: 1.7; stroke-linecap: round"/>
   </g>
   <g id="line2d_12">
    <path d="M 274.685261 28.238715 
L 274.685261 34.529518 
L 274.685261 40.820321 
" clip-path="url(#pabf7cd691c)" style="fill: none; stroke: #000000; stroke-width: 1.7; stroke-linecap: round"/>
   </g>
   <g id="line2d_13">
    <path d="M 274.685261 40.820321 
L 274.685261 63.646949 
M 283.672122 63.646949 
L 265.6984 63.646949 
M 283.672122 70.117489 
L 265.6984 70.117489 
M 274.685261 70.117489 
L 274.685261 92.944117 
" clip-path="url(#pabf7cd691c)" style="fill: none; stroke: #000000; stroke-width: 1.7; stroke-linecap: round"/>
   </g>
   <g id="line2d_14">
    <path d="M 274.685261 92.944117 
L 274.685261 104.627036 
L 274.685261 116.309956 
" clip-path="url(#pabf7cd691c)" style="fill: none; stroke: #000000; stroke-width: 1.7; stroke-linecap: round"/>
   </g>
   <g id="line2d_15">
    <path d="M 301.645845 28.238715 
L 301.645845 34.529518 
L 301.645845 40.820321 
" clip-path="url(#pabf7cd691c)" style="fill: none; stroke: #000000; stroke-width: 1.7; stroke-linecap: round"/>
   </g>
   <g id="line2d_16">
    <path d="M 301.645845 40.820321 
L 301.645845 48.908496 
L 319.619568 66.882219 
L 301.645845 84.855942 
L 283.672122 66.882219 
L 301.645845 48.908496 
M 301.645845 84.855942 
L 301.645845 92.944117 
" clip-path="url(#pabf7cd691c)" style="fill: none; stroke: #000000; stroke-width: 1.7; stroke-linecap: round"/>
   </g>
   <g id="line2d_17">
    <path d="M 298.051101 57.895358 
L 305.24059 57.895358 
" clip-path="url(#pabf7cd691c)" style="fill: none; stroke: #000000; stroke-width: 1.7; stroke-linecap: round"/>
   </g>
   <g id="line2d_18">
    <path d="M 301.645845 72.274336 
L 301.645845 79.463825 
" clip-path="url(#pabf7cd691c)" style="fill: none; stroke: #000000; stroke-width: 1.7; stroke-linecap: round"/>
   </g>
   <g id="line2d_19">
    <path d="M 298.051101 75.86908 
L 305.24059 75.86908 
" clip-path="url(#pabf7cd691c)" style="fill: none; stroke: #000000; stroke-width: 1.7; stroke-linecap: round"/>
   </g>
   <g id="line2d_20">
    <path d="M 301.645845 92.944117 
L 301.645845 104.627036 
L 301.645845 116.309956 
" clip-path="url(#pabf7cd691c)" style="fill: none; stroke: #000000; stroke-width: 1.7; stroke-linecap: round"/>
   </g>
   <g id="text_1">
    <!-- C_in -->
    <g transform="translate(77.053091 13.063516) scale(0.11 -0.11)">
     <defs>
      <path id="DejaVuSans-43" d="M 4122 4306 
L 4122 3641 
Q 3803 3938 3442 4084 
Q 3081 4231 2675 4231 
Q 1875 4231 1450 3742 
Q 1025 3253 1025 2328 
Q 1025 1406 1450 917 
Q 1875 428 2675 428 
Q 3081 428 3442 575 
Q 3803 722 4122 1019 
L 4122 359 
Q 3791 134 3420 21 
Q 3050 -91 2638 -91 
Q 1578 -91 968 557 
Q 359 1206 359 2328 
Q 359 3453 968 4101 
Q 1578 4750 2638 4750 
Q 3056 4750 3426 4639 
Q 3797 4528 4122 4306 
z
" transform="scale(0.015625)"/>
      <path id="DejaVuSans-5f" d="M 3263 -1063 
L 3263 -1509 
L -63 -1509 
L -63 -1063 
L 3263 -1063 
z
" transform="scale(0.015625)"/>
      <path id="DejaVuSans-69" d="M 603 3500 
L 1178 3500 
L 1178 0 
L 603 0 
L 603 3500 
z
M 603 4863 
L 1178 4863 
L 1178 4134 
L 603 4134 
L 603 4863 
z
" transform="scale(0.015625)"/>
      <path id="DejaVuSans-6e" d="M 3513 2113 
L 3513 0 
L 2938 0 
L 2938 2094 
Q 2938 2591 2744 2837 
Q 2550 3084 2163 3084 
Q 1697 3084 1428 2787 
Q 1159 2491 1159 1978 
L 1159 0 
L 581 0 
L 581 3500 
L 1159 3500 
L 1159 2956 
Q 1366 3272 1645 3428 
Q 1925 3584 2291 3584 
Q 2894 3584 3203 3211 
Q 3513 2838 3513 2113 
z
" transform="scale(0.015625)"/>
     </defs>
     <use xlink:href="#DejaVuSans-43"/>
     <use xlink:href="#DejaVuSans-5f" transform="translate(69.824219 0)"/>
     <use xlink:href="#DejaVuSans-69" transform="translate(119.824219 0)"/>
     <use xlink:href="#DejaVuSans-6e" transform="translate(147.607422 0)"/>
    </g>
   </g>
   <g id="text_2">
    <!-- L_pf -->
    <g transform="translate(129.538684 17.556969) scale(0.11 -0.11)">
     <defs>
      <path id="DejaVuSans-4c" d="M 628 4666 
L 1259 4666 
L 1259 531 
L 3531 531 
L 3531 0 
L 628 0 
L 628 4666 
z
" transform="scale(0.015625)"/>
      <path id="DejaVuSans-70" d="M 1159 525 
L 1159 -1331 
L 581 -1331 
L 581 3500 
L 1159 3500 
L 1159 2969 
Q 1341 3281 1617 3432 
Q 1894 3584 2278 3584 
Q 2916 3584 3314 3078 
Q 3713 2572 3713 1747 
Q 3713 922 3314 415 
Q 2916 -91 2278 -91 
Q 1894 -91 1617 61 
Q 1341 213 1159 525 
z
M 3116 1747 
Q 3116 2381 2855 2742 
Q 2594 3103 2138 3103 
Q 1681 3103 1420 2742 
Q 1159 2381 1159 1747 
Q 1159 1113 1420 752 
Q 1681 391 2138 391 
Q 2594 391 2855 752 
Q 3116 1113 3116 1747 
z
" transform="scale(0.015625)"/>
      <path id="DejaVuSans-66" d="M 2375 4863 
L 2375 4384 
L 1825 4384 
Q 1516 4384 1395 4259 
Q 1275 4134 1275 3809 
L 1275 3500 
L 2222 3500 
L 2222 3053 
L 1275 3053 
L 1275 0 
L 697 0 
L 697 3053 
L 147 3053 
L 147 3500 
L 697 3500 
L 697 3744 
Q 697 4328 969 4595 
Q 1241 4863 1831 4863 
L 2375 4863 
z
" transform="scale(0.015625)"/>
     </defs>
     <use xlink:href="#DejaVuSans-4c"/>
     <use xlink:href="#DejaVuSans-5f" transform="translate(55.712891 0)"/>
     <use xlink:href="#DejaVuSans-70" transform="translate(105.712891 0)"/>
     <use xlink:href="#DejaVuSans-66" transform="translate(169.189453 0)"/>
    </g>
   </g>
   <g id="text_3">
    <!-- C_pf -->
    <g transform="translate(154.824566 23.847749) scale(0.11 -0.11)">
     <use xlink:href="#DejaVuSans-43"/>
     <use xlink:href="#DejaVuSans-5f" transform="translate(69.824219 0)"/>
     <use xlink:href="#DejaVuSans-70" transform="translate(119.824219 0)"/>
     <use xlink:href="#DejaVuSans-66" transform="translate(183.300781 0)"/>
    </g>
   </g>
   <g id="text_4">
    <!-- C_out -->
    <g transform="translate(177.307167 13.063516) scale(0.11 -0.11)">
     <defs>
      <path id="DejaVuSans-6f" d="M 1959 3097 
Q 1497 3097 1228 2736 
Q 959 2375 959 1747 
Q 959 1119 1226 758 
Q 1494 397 1959 397 
Q 2419 397 2687 759 
Q 2956 1122 2956 1747 
Q 2956 2369 2687 2733 
Q 2419 3097 1959 3097 
z
M 1959 3584 
Q 2709 3584 3137 3096 
Q 3566 2609 3566 1747 
Q 3566 888 3137 398 
Q 2709 -91 1959 -91 
Q 1206 -91 779 398 
Q 353 888 353 1747 
Q 353 2609 779 3096 
Q 1206 3584 1959 3584 
z
" transform="scale(0.015625)"/>
      <path id="DejaVuSans-75" d="M 544 1381 
L 544 3500 
L 1119 3500 
L 1119 1403 
Q 1119 906 1312 657 
Q 1506 409 1894 409 
Q 2359 409 2629 706 
Q 2900 1003 2900 1516 
L 2900 3500 
L 3475 3500 
L 3475 0 
L 2900 0 
L 2900 538 
Q 2691 219 2414 64 
Q 2138 -91 1772 -91 
Q 1169 -91 856 284 
Q 544 659 544 1381 
z
M 1991 3584 
L 1991 3584 
z
" transform="scale(0.015625)"/>
      <path id="DejaVuSans-74" d="M 1172 4494 
L 1172 3500 
L 2356 3500 
L 2356 3053 
L 1172 3053 
L 1172 1153 
Q 1172 725 1289 603 
Q 1406 481 1766 481 
L 2356 481 
L 2356 0 
L 1766 0 
Q 1100 0 847 248 
Q 594 497 594 1153 
L 594 3053 
L 172 3053 
L 172 3500 
L 594 3500 
L 594 4494 
L 1172 4494 
z
" transform="scale(0.015625)"/>
     </defs>
     <use xlink:href="#DejaVuSans-43"/>
     <use xlink:href="#DejaVuSans-5f" transform="translate(69.824219 0)"/>
     <use xlink:href="#DejaVuSans-6f" transform="translate(119.824219 0)"/>
     <use xlink:href="#DejaVuSans-75" transform="translate(181.005859 0)"/>
     <use xlink:href="#DejaVuSans-74" transform="translate(244.384766 0)"/>
    </g>
   </g>
   <g id="text_5">
    <!-- readout line -->
    <g transform="translate(202.078618 22.356315) scale(0.11 -0.11)">
     <defs>
      <path id="DejaVuSans-72" d="M 2631 2963 
Q 2534 3019 2420 3045 
Q 2306 3072 2169 3072 
Q 1681 3072 1420 2755 
Q 1159 2438 1159 1844 
L 1159 0 
L 581 0 
L 581 3500 
L 1159 3500 
L 1159 2956 
Q 1341 3275 1631 3429 
Q 1922 3584 2338 3584 
Q 2397 3584 2469 3576 
Q 2541 3569 2628 3553 
L 2631 2963 
z
" transform="scale(0.015625)"/>
      <path id="DejaVuSans-65" d="M 3597 1894 
L 3597 1613 
L 953 1613 
Q 991 1019 1311 708 
Q 1631 397 2203 397 
Q 2534 397 2845 478 
Q 3156 559 3463 722 
L 3463 178 
Q 3153 47 2828 -22 
Q 2503 -91 2169 -91 
Q 1331 -91 842 396 
Q 353 884 353 1716 
Q 353 2575 817 3079 
Q 1281 3584 2069 3584 
Q 2775 3584 3186 3129 
Q 3597 2675 3597 1894 
z
M 3022 2063 
Q 3016 2534 2758 2815 
Q 2500 3097 2075 3097 
Q 1594 3097 1305 2825 
Q 1016 2553 972 2059 
L 3022 2063 
z
" transform="scale(0.015625)"/>
      <path id="DejaVuSans-61" d="M 2194 1759 
Q 1497 1759 1228 1600 
Q 959 1441 959 1056 
Q 959 750 1161 570 
Q 1363 391 1709 391 
Q 2188 391 2477 730 
Q 2766 1069 2766 1631 
L 2766 1759 
L 2194 1759 
z
M 3341 1997 
L 3341 0 
L 2766 0 
L 2766 531 
Q 2569 213 2275 61 
Q 1981 -91 1556 -91 
Q 1019 -91 701 211 
Q 384 513 384 1019 
Q 384 1609 779 1909 
Q 1175 2209 1959 2209 
L 2766 2209 
L 2766 2266 
Q 2766 2663 2505 2880 
Q 2244 3097 1772 3097 
Q 1472 3097 1187 3025 
Q 903 2953 641 2809 
L 641 3341 
Q 956 3463 1253 3523 
Q 1550 3584 1831 3584 
Q 2591 3584 2966 3190 
Q 3341 2797 3341 1997 
z
" transform="scale(0.015625)"/>
      <path id="DejaVuSans-64" d="M 2906 2969 
L 2906 4863 
L 3481 4863 
L 3481 0 
L 2906 0 
L 2906 525 
Q 2725 213 2448 61 
Q 2172 -91 1784 -91 
Q 1150 -91 751 415 
Q 353 922 353 1747 
Q 353 2572 751 3078 
Q 1150 3584 1784 3584 
Q 2172 3584 2448 3432 
Q 2725 3281 2906 2969 
z
M 947 1747 
Q 947 1113 1208 752 
Q 1469 391 1925 391 
Q 2381 391 2643 752 
Q 2906 1113 2906 1747 
Q 2906 2381 2643 2742 
Q 2381 3103 1925 3103 
Q 1469 3103 1208 2742 
Q 947 2381 947 1747 
z
" transform="scale(0.015625)"/>
      <path id="DejaVuSans-20" transform="scale(0.015625)"/>
      <path id="DejaVuSans-6c" d="M 603 4863 
L 1178 4863 
L 1178 0 
L 603 0 
L 603 4863 
z
" transform="scale(0.015625)"/>
     </defs>
     <use xlink:href="#DejaVuSans-72"/>
     <use xlink:href="#DejaVuSans-65" transform="translate(38.863281 0)"/>
     <use xlink:href="#DejaVuSans-61" transform="translate(100.386719 0)"/>
     <use xlink:href="#DejaVuSans-64" transform="translate(161.666016 0)"/>
     <use xlink:href="#DejaVuSans-6f" transform="translate(225.142578 0)"/>
     <use xlink:href="#DejaVuSans-75" transform="translate(286.324219 0)"/>
     <use xlink:href="#DejaVuSans-74" transform="translate(349.703125 0)"/>
     <use xlink:href="#DejaVuSans-20" transform="translate(388.912109 0)"/>
     <use xlink:href="#DejaVuSans-6c" transform="translate(420.699219 0)"/>
     <use xlink:href="#DejaVuSans-69" transform="translate(448.482422 0)"/>
     <use xlink:href="#DejaVuSans-6e" transform="translate(476.265625 0)"/>
     <use xlink:href="#DejaVuSans-65" transform="translate(539.644531 0)"/>
    </g>
   </g>
   <g id="text_6">
    <!-- MTL window -->
    <g transform="translate(257.077862 22.356315) scale(0.11 -0.11)">
     <defs>
      <path id="DejaVuSans-4d" d="M 628 4666 
L 1569 4666 
L 2759 1491 
L 3956 4666 
L 4897 4666 
L 4897 0 
L 4281 0 
L 4281 4097 
L 3078 897 
L 2444 897 
L 1241 4097 
L 1241 0 
L 628 0 
L 628 4666 
z
" transform="scale(0.015625)"/>
      <path id="DejaVuSans-54" d="M -19 4666 
L 3928 4666 
L 3928 4134 
L 2272 4134 
L 2272 0 
L 1638 0 
L 1638 4134 
L -19 4134 
L -19 4666 
z
" transform="scale(0.015625)"/>
      <path id="DejaVuSans-77" d="M 269 3500 
L 844 3500 
L 1563 769 
L 2278 3500 
L 2956 3500 
L 3675 769 
L 4391 3500 
L 4966 3500 
L 4050 0 
L 3372 0 
L 2619 2869 
L 1863 0 
L 1184 0 
L 269 3500 
z
" transform="scale(0.015625)"/>
     </defs>
     <use xlink:href="#DejaVuSans-4d"/>
     <use xlink:href="#DejaVuSans-54" transform="translate(86.279297 0)"/>
     <use xlink:href="#DejaVuSans-4c" transform="translate(147.363281 0)"/>
     <use xlink:href="#DejaVuSans-20" transform="translate(203.076172 0)"/>
     <use xlink:href="#DejaVuSans-77" transform="translate(234.863281 0)"/>
     <use xlink:href="#DejaVuSans-69" transform="translate(316.650391 0)"/>
     <use xlink:href="#DejaVuSans-6e" transform="translate(344.433594 0)"/>
     <use xlink:href="#DejaVuSans-64" transform="translate(407.8125 0)"/>
     <use xlink:href="#DejaVuSans-6f" transform="translate(471.289062 0)"/>
     <use xlink:href="#DejaVuSans-77" transform="translate(532.470703 0)"/>
    </g>
   </g>
   <g id="text_7">
    <!-- hanging QWR -->
    <g transform="translate(253.185752 104.897143) scale(0.11 -0.11)">
     <defs>
      <path id="DejaVuSans-68" d="M 3513 2113 
L 3513 0 
L 2938 0 
L 2938 2094 
Q 2938 2591 2744 2837 
Q 2550 3084 2163 3084 
Q 1697 3084 1428 2787 
Q 1159 2491 1159 1978 
L 1159 0 
L 581 0 
L 581 4863 
L 1159 4863 
L 1159 2956 
Q 1366 3272 1645 3428 
Q 1925 3584 2291 3584 
Q 2894 3584 3203 3211 
Q 3513 2838 3513 2113 
z
" transform="scale(0.015625)"/>
      <path id="DejaVuSans-67" d="M 2906 1791 
Q 2906 2416 2648 2759 
Q 2391 3103 1925 3103 
Q 1463 3103 1205 2759 
Q 947 2416 947 1791 
Q 947 1169 1205 825 
Q 1463 481 1925 481 
Q 2391 481 2648 825 
Q 2906 1169 2906 1791 
z
M 3481 434 
Q 3481 -459 3084 -895 
Q 2688 -1331 1869 -1331 
Q 1566 -1331 1297 -1286 
Q 1028 -1241 775 -1147 
L 775 -588 
Q 1028 -725 1275 -790 
Q 1522 -856 1778 -856 
Q 2344 -856 2625 -561 
Q 2906 -266 2906 331 
L 2906 616 
Q 2728 306 2450 153 
Q 2172 0 1784 0 
Q 1141 0 747 490 
Q 353 981 353 1791 
Q 353 2603 747 3093 
Q 1141 3584 1784 3584 
Q 2172 3584 2450 3431 
Q 2728 3278 2906 2969 
L 2906 3500 
L 3481 3500 
L 3481 434 
z
" transform="scale(0.015625)"/>
      <path id="DejaVuSans-51" d="M 2522 4238 
Q 1834 4238 1429 3725 
Q 1025 3213 1025 2328 
Q 1025 1447 1429 934 
Q 1834 422 2522 422 
Q 3209 422 3611 934 
Q 4013 1447 4013 2328 
Q 4013 3213 3611 3725 
Q 3209 4238 2522 4238 
z
M 3406 84 
L 4238 -825 
L 3475 -825 
L 2784 -78 
Q 2681 -84 2626 -87 
Q 2572 -91 2522 -91 
Q 1538 -91 948 567 
Q 359 1225 359 2328 
Q 359 3434 948 4092 
Q 1538 4750 2522 4750 
Q 3503 4750 4090 4092 
Q 4678 3434 4678 2328 
Q 4678 1516 4351 937 
Q 4025 359 3406 84 
z
" transform="scale(0.015625)"/>
      <path id="DejaVuSans-57" d="M 213 4666 
L 850 4666 
L 1831 722 
L 2809 4666 
L 3519 4666 
L 4500 722 
L 5478 4666 
L 6119 4666 
L 4947 0 
L 4153 0 
L 3169 4050 
L 2175 0 
L 1381 0 
L 213 4666 
z
" transform="scale(0.015625)"/>
      <path id="DejaVuSans-52" d="M 2841 2188 
Q 3044 2119 3236 1894 
Q 3428 1669 3622 1275 
L 4263 0 
L 3584 0 
L 2988 1197 
Q 2756 1666 2539 1819 
Q 2322 1972 1947 1972 
L 1259 1972 
L 1259 0 
L 628 0 
L 628 4666 
L 2053 4666 
Q 2853 4666 3247 4331 
Q 3641 3997 3641 3322 
Q 3641 2881 3436 2590 
Q 3231 2300 2841 2188 
z
M 1259 4147 
L 1259 2491 
L 2053 2491 
Q 2509 2491 2742 2702 
Q 2975 2913 2975 3322 
Q 2975 3731 2742 3939 
Q 2509 4147 2053 4147 
L 1259 4147 
z
" transform="scale(0.015625)"/>
     </defs>
     <use xlink:href="#DejaVuSans-68"/>
     <use xlink:href="#DejaVuSans-61" transform="translate(63.378906 0)"/>
     <use xlink:href="#DejaVuSans-6e" transform="translate(124.658203 0)"/>
     <use xlink:href="#DejaVuSans-67" transform="translate(188.037109 0)"/>
     <use xlink:href="#DejaVuSans-69" transform="translate(251.513672 0)"/>
     <use xlink:href="#DejaVuSans-6e" transform="translate(279.296875 0)"/>
     <use xlink:href="#DejaVuSans-67" transform="translate(342.675781 0)"/>
     <use xlink:href="#DejaVuSans-20" transform="translate(406.152344 0)"/>
     <use xlink:href="#DejaVuSans-51" transform="translate(437.939453 0)"/>
     <use xlink:href="#DejaVuSans-57" transform="translate(516.650391 0)"/>
     <use xlink:href="#DejaVuSans-52" transform="translate(615.527344 0)"/>
    </g>
   </g>
   <g id="text_8">
    <!-- C12 -->
    <g transform="translate(263.845964 34.93792) scale(0.11 -0.11)">
     <defs>
      <path id="DejaVuSans-31" d="M 794 531 
L 1825 531 
L 1825 4091 
L 703 3866 
L 703 4441 
L 1819 4666 
L 2450 4666 
L 2450 531 
L 3481 531 
L 3481 0 
L 794 0 
L 794 531 
z
" transform="scale(0.015625)"/>
      <path id="DejaVuSans-32" d="M 1228 531 
L 3431 531 
L 3431 0 
L 469 0 
L 469 531 
Q 828 903 1448 1529 
Q 2069 2156 2228 2338 
Q 2531 2678 2651 2914 
Q 2772 3150 2772 3378 
Q 2772 3750 2511 3984 
Q 2250 4219 1831 4219 
Q 1534 4219 1204 4116 
Q 875 4013 500 3803 
L 500 4441 
Q 881 4594 1212 4672 
Q 1544 4750 1819 4750 
Q 2544 4750 2975 4387 
Q 3406 4025 3406 3419 
Q 3406 3131 3298 2873 
Q 3191 2616 2906 2266 
Q 2828 2175 2409 1742 
Q 1991 1309 1228 531 
z
" transform="scale(0.015625)"/>
     </defs>
     <use xlink:href="#DejaVuSans-43"/>
     <use xlink:href="#DejaVuSans-31" transform="translate(69.824219 0)"/>
     <use xlink:href="#DejaVuSans-32" transform="translate(133.447266 0)"/>
    </g>
   </g>
   <g id="text_9">
    <!-- K12 -->
    <g transform="translate(291.040298 34.93792) scale(0.11 -0.11)">
     <defs>
      <path id="DejaVuSans-4b" d="M 628 4666 
L 1259 4666 
L 1259 2694 
L 3353 4666 
L 4166 4666 
L 1850 2491 
L 4331 0 
L 3500 0 
L 1259 2247 
L 1259 0 
L 628 0 
L 628 4666 
z
" transform="scale(0.015625)"/>
     </defs>
     <use xlink:href="#DejaVuSans-4b"/>
     <use xlink:href="#DejaVuSans-31" transform="translate(65.576172 0)"/>
     <use xlink:href="#DejaVuSans-32" transform="translate(129.199219 0)"/>
    </g>
   </g>
   <g id="patch_6">
    <path d="M 62.595334 30.934774 
C 63.310337 30.934774 63.996152 30.6507 64.501735 30.145117 
C 65.007319 29.639533 65.291393 28.953718 65.291393 28.238715 
C 65.291393 27.523712 65.007319 26.837898 64.501735 26.332314 
C 63.996152 25.826731 63.310337 25.542657 62.595334 25.542657 
C 61.880331 25.542657 61.194516 25.826731 60.688933 26.332314 
C 60.183349 26.837898 59.899276 27.523712 59.899276 28.238715 
C 59.899276 28.953718 60.183349 29.639533 60.688933 30.145117 
C 61.194516 30.6507 61.880331 30.934774 62.595334 30.934774 
z
" clip-path="url(#pabf7cd691c)" style="fill: #ffffff; stroke: #000000; stroke-width: 1.7; stroke-linejoin: miter"/>
   </g>
   <g id="text_10">
    <!-- readout in -->
    <g transform="translate(-0 31.274028) scale(0.11 -0.11)">
     <use xlink:href="#DejaVuSans-72"/>
     <use xlink:href="#DejaVuSans-65" transform="translate(38.863281 0)"/>
     <use xlink:href="#DejaVuSans-61" transform="translate(100.386719 0)"/>
     <use xlink:href="#DejaVuSans-64" transform="translate(161.666016 0)"/>
     <use xlink:href="#DejaVuSans-6f" transform="translate(225.142578 0)"/>
     <use xlink:href="#DejaVuSans-75" transform="translate(286.324219 0)"/>
     <use xlink:href="#DejaVuSans-74" transform="translate(349.703125 0)"/>
     <use xlink:href="#DejaVuSans-20" transform="translate(388.912109 0)"/>
     <use xlink:href="#DejaVuSans-69" transform="translate(420.699219 0)"/>
     <use xlink:href="#DejaVuSans-6e" transform="translate(448.482422 0)"/>
    </g>
   </g>
   <g id="patch_7">
    <path d="M 166.842925 30.934774 
C 167.557928 30.934774 168.243743 30.6507 168.749327 30.145117 
C 169.25491 29.639533 169.538984 28.953718 169.538984 28.238715 
C 169.538984 27.523712 169.25491 26.837898 168.749327 26.332314 
C 168.243743 25.826731 167.557928 25.542657 166.842925 25.542657 
C 166.127922 25.542657 165.442108 25.826731 164.936524 26.332314 
C 164.430941 26.837898 164.146867 27.523712 164.146867 28.238715 
C 164.146867 28.953718 164.430941 29.639533 164.936524 30.145117 
C 165.442108 30.6507 166.127922 30.934774 166.842925 30.934774 
z
" clip-path="url(#pabf7cd691c)" style="stroke: #000000; stroke-width: 1.7; stroke-linejoin: miter"/>
   </g>
   <g id="text_11">
    <!-- Purcell filter -->
    <g transform="translate(133.994175 19.660256) scale(0.11 -0.11)">
     <defs>
      <path id="DejaVuSans-50" d="M 1259 4147 
L 1259 2394 
L 2053 2394 
Q 2494 2394 2734 2622 
Q 2975 2850 2975 3272 
Q 2975 3691 2734 3919 
Q 2494 4147 2053 4147 
L 1259 4147 
z
M 628 4666 
L 2053 4666 
Q 2838 4666 3239 4311 
Q 3641 3956 3641 3272 
Q 3641 2581 3239 2228 
Q 2838 1875 2053 1875 
L 1259 1875 
L 1259 0 
L 628 0 
L 628 4666 
z
" transform="scale(0.015625)"/>
      <path id="DejaVuSans-63" d="M 3122 3366 
L 3122 2828 
Q 2878 2963 2633 3030 
Q 2388 3097 2138 3097 
Q 1578 3097 1268 2742 
Q 959 2388 959 1747 
Q 959 1106 1268 751 
Q 1578 397 2138 397 
Q 2388 397 2633 464 
Q 2878 531 3122 666 
L 3122 134 
Q 2881 22 2623 -34 
Q 2366 -91 2075 -91 
Q 1284 -91 818 406 
Q 353 903 353 1747 
Q 353 2603 823 3093 
Q 1294 3584 2113 3584 
Q 2378 3584 2631 3529 
Q 2884 3475 3122 3366 
z
" transform="scale(0.015625)"/>
     </defs>
     <use xlink:href="#DejaVuSans-50"/>
     <use xlink:href="#DejaVuSans-75" transform="translate(58.552734 0)"/>
     <use xlink:href="#DejaVuSans-72" transform="translate(121.931641 0)"/>
     <use xlink:href="#DejaVuSans-63" transform="translate(160.794922 0)"/>
     <use xlink:href="#DejaVuSans-65" transform="translate(215.775391 0)"/>
     <use xlink:href="#DejaVuSans-6c" transform="translate(277.298828 0)"/>
     <use xlink:href="#DejaVuSans-6c" transform="translate(305.082031 0)"/>
     <use xlink:href="#DejaVuSans-20" transform="translate(332.865234 0)"/>
     <use xlink:href="#DejaVuSans-66" transform="translate(364.652344 0)"/>
     <use xlink:href="#DejaVuSans-69" transform="translate(399.857422 0)"/>
     <use xlink:href="#DejaVuSans-6c" transform="translate(427.640625 0)"/>
     <use xlink:href="#DejaVuSans-74" transform="translate(455.423828 0)"/>
     <use xlink:href="#DejaVuSans-65" transform="translate(494.632812 0)"/>
     <use xlink:href="#DejaVuSans-72" transform="translate(556.15625 0)"/>
    </g>
   </g>
   <g id="patch_8">
    <path d="M 251.319422 30.934774 
C 252.034425 30.934774 252.720239 30.6507 253.225823 30.145117 
C 253.731406 29.639533 254.01548 28.953718 254.01548 28.238715 
C 254.01548 27.523712 253.731406 26.837898 253.225823 26.332314 
C 252.720239 25.826731 252.034425 25.542657 251.319422 25.542657 
C 250.604419 25.542657 249.918604 25.826731 249.413021 26.332314 
C 248.907437 26.837898 248.623363 27.523712 248.623363 28.238715 
C 248.623363 28.953718 248.907437 29.639533 249.413021 30.145117 
C 249.918604 30.6507 250.604419 30.934774 251.319422 30.934774 
z
" clip-path="url(#pabf7cd691c)" style="stroke: #000000; stroke-width: 1.7; stroke-linejoin: miter"/>
   </g>
   <g id="patch_9">
    <path d="M 330.403801 30.934774 
C 331.118804 30.934774 331.804619 30.6507 332.310202 30.145117 
C 332.815786 29.639533 333.09986 28.953718 333.09986 28.238715 
C 333.09986 27.523712 332.815786 26.837898 332.310202 26.332314 
C 331.804619 25.826731 331.118804 25.542657 330.403801 25.542657 
C 329.688798 25.542657 329.002984 25.826731 328.4974 26.332314 
C 327.991817 26.837898 327.707743 27.523712 327.707743 28.238715 
C 327.707743 28.953718 327.991817 29.639533 328.4974 30.145117 
C 329.002984 30.6507 329.688798 30.934774 330.403801 30.934774 
z
" clip-path="url(#pabf7cd691c)" style="stroke: #000000; stroke-width: 1.7; stroke-linejoin: miter"/>
   </g>
   <g id="patch_10">
    <path d="M 359.161758 30.934774 
C 359.876761 30.934774 360.562575 30.6507 361.068159 30.145117 
C 361.573742 29.639533 361.857816 28.953718 361.857816 28.238715 
C 361.857816 27.523712 361.573742 26.837898 361.068159 26.332314 
C 360.562575 25.826731 359.876761 25.542657 359.161758 25.542657 
C 358.446754 25.542657 357.76094 25.826731 357.255356 26.332314 
C 356.749773 26.837898 356.465699 27.523712 356.465699 28.238715 
C 356.465699 28.953718 356.749773 29.639533 357.255356 30.145117 
C 357.76094 30.6507 358.446754 30.934774 359.161758 30.934774 
z
" clip-path="url(#pabf7cd691c)" style="fill: #ffffff; stroke: #000000; stroke-width: 1.7; stroke-linejoin: miter"/>
   </g>
   <g id="text_12">
    <!-- readout out -->
    <g transform="translate(365.45256 31.274028) scale(0.11 -0.11)">
     <use xlink:href="#DejaVuSans-72"/>
     <use xlink:href="#DejaVuSans-65" transform="translate(38.863281 0)"/>
     <use xlink:href="#DejaVuSans-61" transform="translate(100.386719 0)"/>
     <use xlink:href="#DejaVuSans-64" transform="translate(161.666016 0)"/>
     <use xlink:href="#DejaVuSans-6f" transform="translate(225.142578 0)"/>
     <use xlink:href="#DejaVuSans-75" transform="translate(286.324219 0)"/>
     <use xlink:href="#DejaVuSans-74" transform="translate(349.703125 0)"/>
     <use xlink:href="#DejaVuSans-20" transform="translate(388.912109 0)"/>
     <use xlink:href="#DejaVuSans-6f" transform="translate(420.699219 0)"/>
     <use xlink:href="#DejaVuSans-75" transform="translate(481.880859 0)"/>
     <use xlink:href="#DejaVuSans-74" transform="translate(545.259766 0)"/>
    </g>
   </g>
   <g id="patch_11">
    <path d="M 251.319422 95.640175 
C 252.034425 95.640175 252.720239 95.356101 253.225823 94.850518 
C 253.731406 94.344934 254.01548 93.65912 254.01548 92.944117 
C 254.01548 92.229114 253.731406 91.543299 253.225823 91.037716 
C 252.720239 90.532132 252.034425 90.248058 251.319422 90.248058 
C 250.604419 90.248058 249.918604 90.532132 249.413021 91.037716 
C 248.907437 91.543299 248.623363 92.229114 248.623363 92.944117 
C 248.623363 93.65912 248.907437 94.344934 249.413021 94.850518 
C 249.918604 95.356101 250.604419 95.640175 251.319422 95.640175 
z
" clip-path="url(#pabf7cd691c)" style="stroke: #000000; stroke-width: 1.7; stroke-linejoin: miter"/>
   </g>
   <g id="text_13">
    <!-- QWR head -->
    <g transform="translate(186.890181 95.979429) scale(0.11 -0.11)">
     <use xlink:href="#DejaVuSans-51"/>
     <use xlink:href="#DejaVuSans-57" transform="translate(78.710938 0)"/>
     <use xlink:href="#DejaVuSans-52" transform="translate(177.587891 0)"/>
     <use xlink:href="#DejaVuSans-20" transform="translate(247.070312 0)"/>
     <use xlink:href="#DejaVuSans-68" transform="translate(278.857422 0)"/>
     <use xlink:href="#DejaVuSans-65" transform="translate(342.236328 0)"/>
     <use xlink:href="#DejaVuSans-61" transform="translate(403.759766 0)"/>
     <use xlink:href="#DejaVuSans-64" transform="translate(465.039062 0)"/>
    </g>
   </g>
   <g id="patch_12">
    <path d="M 330.403801 95.640175 
C 331.118804 95.640175 331.804619 95.356101 332.310202 94.850518 
C 332.815786 94.344934 333.09986 93.65912 333.09986 92.944117 
C 333.09986 92.229114 332.815786 91.543299 332.310202 91.037716 
C 331.804619 90.532132 331.118804 90.248058 330.403801 90.248058 
C 329.688798 90.248058 329.002984 90.532132 328.4974 91.037716 
C 327.991817 91.543299 327.707743 92.229114 327.707743 92.944117 
C 327.707743 93.65912 327.991817 94.344934 328.4974 94.850518 
C 329.002984 95.356101 329.688798 95.640175 330.403801 95.640175 
z
" clip-path="url(#pabf7cd691c)" style="fill: #ffffff; stroke: #000000; stroke-width: 1.7; stroke-linejoin: miter"/>
   </g>
   <g id="text_14">
    <!-- open tail -->
    <g transform="translate(336.694604 95.979429) scale(0.11 -0.11)">
     <use xlink:href="#DejaVuSans-6f"/>
     <use xlink:href="#DejaVuSans-70" transform="translate(61.181641 0)"/>
     <use xlink:href="#DejaVuSans-65" transform="translate(124.658203 0)"/>
     <use xlink:href="#DejaVuSans-6e" transform="translate(186.181641 0)"/>
     <use xlink:href="#DejaVuSans-20" transform="translate(249.560547 0)"/>
     <use xlink:href="#DejaVuSans-74" transform="translate(281.347656 0)"/>
     <use xlink:href="#DejaVuSans-61" transform="translate(320.556641 0)"/>
     <use xlink:href="#DejaVuSans-69" transform="translate(381.835938 0)"/>
     <use xlink:href="#DejaVuSans-6c" transform="translate(409.619141 0)"/>
    </g>
   </g>
  </g>
 </g>
 <defs>
  <clipPath id="pabf7cd691c">
   <rect x="1.940012" y="0" width="424.994663" height="136.8"/>
  </clipPath>
 </defs>
</svg>
