<?xml version="1.0" encoding="utf-8" standalone="no"?>
<!DOCTYPE svg PUBLIC "-//W3C//DTD SVG 1.1//EN"
  "http://www.w3.org/Graphics/SVG/1.1/DTD/svg11.dtd">
<svg xmlns:xlink="http://www.w3.org/1999/xlink" width="298.016469pt" height="127.44pt" viewBox="0 0 298.016469 127.44" xmlns="http://www.w3.org/2000/svg" version="1.1">
 <metadata>
  <rdf:RDF xmlns:dc="http://purl.org/dc/elements/1.1/" xmlns:cc="http://creativecommons.org/ns#" xmlns:rdf="http://www.w3.org/1999/02/22-rdf-syntax-ns#">
   <cc:Work>
    <dc:type rdf:resource="http://purl.org/dc/dcmitype/StillImage"/>
    <dc:date>2026-05-30T19:10:36.193910</dc:date>
    <dc:format>image/svg+xml</dc:format>
    <dc:creator>
     <cc:Agent>
      <dc:title>Matplotlib v3.10.8, https://matplotlib.org/</dc:title>
     </cc:Agent>
    </dc:creator>
   </cc:Work>
  </rdf:RDF>
 </metadata>
 <defs>
  <style type="text/css">*{stroke-linejoin: round; stroke-linecap: butt}</style>
 </defs>
 <g id="figure_1">
  <g id="patch_1">
   <path d="M 0 127.44 
L 298.016469 127.44 
L 298.016469 0 
L 0 0 
L 0 127.44 
z
" style="fill: none"/>
  </g>
  <g id="axes_1">
   <g id="line2d_1">
    <path d="M 62.576969 19.19565 
L 84.082469 19.19565 
L 105.587969 19.19565 
" clip-path="url(#p42edc517ae)" style="fill: none; stroke: #000000; stroke-width: 1.7; stroke-linecap: round"/>
   </g>
   <g id="line2d_2">
    <path d="M 105.587969 19.19565 
L 145.014719 19.19565 
L 184.441469 19.19565 
" clip-path="url(#p42edc517ae)" style="fill: none; stroke: #000000; stroke-width: 1.7; stroke-linecap: round"/>
   </g>
   <g id="line2d_3">
    <path d="M 184.441469 19.19565 
L 205.946969 19.19565 
L 227.452469 19.19565 
" clip-path="url(#p42edc517ae)" style="fill: none; stroke: #000000; stroke-width: 1.7; stroke-linecap: round"/>
   </g>
   <g id="line2d_4">
    <path d="M 105.587969 83.71215 
L 105.587969 91.776712 
L 105.587969 99.841275 
" clip-path="url(#p42edc517ae)" style="fill: none; stroke: #000000; stroke-width: 1.7; stroke-linecap: round"/>
   </g>
   <g id="line2d_5">
    <path d="M 105.587969 99.841275 
L 105.587969 114.178275 
L 96.627344 114.178275 
L 114.548594 114.178275 
M 99.315531 118.479375 
L 111.860406 118.479375 
M 103.795844 122.780475 
L 107.380094 122.780475 
" clip-path="url(#p42edc517ae)" style="fill: none; stroke: #000000; stroke-width: 1.7; stroke-linecap: round"/>
   </g>
   <g id="line2d_6">
    <path d="M 105.587969 83.71215 
L 145.014719 83.71215 
L 184.441469 83.71215 
" clip-path="url(#p42edc517ae)" style="fill: none; stroke: #000000; stroke-width: 1.7; stroke-linecap: round"/>
   </g>
   <g id="line2d_7">
    <path d="M 128.885594 19.19565 
L 128.885594 25.468087 
L 128.885594 31.740525 
" clip-path="url(#p42edc517ae)" style="fill: none; stroke: #000000; stroke-width: 1.7; stroke-linecap: round"/>
   </g>
   <g id="line2d_8">
    <path d="M 128.885594 31.740525 
L 128.885594 57.1887 
M 137.846219 57.1887 
L 119.924969 57.1887 
M 137.846219 63.64035 
L 119.924969 63.64035 
M 128.885594 63.64035 
L 128.885594 89.088525 
" clip-path="url(#p42edc517ae)" style="fill: none; stroke: #000000; stroke-width: 1.7; stroke-linecap: round"/>
   </g>
   <g id="line2d_9">
    <path d="M 128.885594 89.088525 
L 128.885594 100.737337 
L 128.885594 112.38615 
" clip-path="url(#p42edc517ae)" style="fill: none; stroke: #000000; stroke-width: 1.7; stroke-linecap: round"/>
   </g>
   <g id="line2d_10">
    <path d="M 155.767469 19.19565 
L 155.767469 25.468087 
L 155.767469 31.740525 
" clip-path="url(#p42edc517ae)" style="fill: none; stroke: #000000; stroke-width: 1.7; stroke-linecap: round"/>
   </g>
   <g id="line2d_11">
    <path d="M 155.767469 31.740525 
L 155.767469 42.493275 
L 173.688719 60.414525 
L 155.767469 78.335775 
L 137.846219 60.414525 
L 155.767469 42.493275 
M 155.767469 78.335775 
L 155.767469 89.088525 
" clip-path="url(#p42edc517ae)" style="fill: none; stroke: #000000; stroke-width: 1.7; stroke-linecap: round"/>
   </g>
   <g id="line2d_12">
    <path d="M 152.183219 51.4539 
L 159.351719 51.4539 
" clip-path="url(#p42edc517ae)" style="fill: none; stroke: #000000; stroke-width: 1.7; stroke-linecap: round"/>
   </g>
   <g id="line2d_13">
    <path d="M 155.767469 65.7909 
L 155.767469 72.9594 
" clip-path="url(#p42edc517ae)" style="fill: none; stroke: #000000; stroke-width: 1.7; stroke-linecap: round"/>
   </g>
   <g id="line2d_14">
    <path d="M 152.183219 69.37515 
L 159.351719 69.37515 
" clip-path="url(#p42edc517ae)" style="fill: none; stroke: #000000; stroke-width: 1.7; stroke-linecap: round"/>
   </g>
   <g id="line2d_15">
    <path d="M 155.767469 89.088525 
L 155.767469 100.737337 
L 155.767469 112.38615 
" clip-path="url(#p42edc517ae)" style="fill: none; stroke: #000000; stroke-width: 1.7; stroke-linecap: round"/>
   </g>
   <g id="line2d_16">
    <path d="M 180.857219 31.740525 
L 145.014719 31.740525 
L 109.172219 31.740525 
" clip-path="url(#p42edc517ae)" style="fill: none; stroke: #000000; stroke-width: 1.7; stroke-linecap: round"/>
   </g>
   <g id="text_1">
    <!-- readout line -->
    <g transform="translate(51.018016 13.323744) scale(0.11 -0.11)">
     <defs>
      <path id="DejaVuSans-72" d="M 2631 2963 
Q 2534 3019 2420 3045 
Q 2306 3072 2169 3072 
Q 1681 3072 1420 2755 
Q 1159 2438 1159 1844 
L 1159 0 
L 581 0 
L 581 3500 
L 1159 3500 
L 1159 2956 
Q 1341 3275 1631 3429 
Q 1922 3584 2338 3584 
Q 2397 3584 2469 3576 
Q 2541 3569 2628 3553 
L 2631 2963 
z
" transform="scale(0.015625)"/>
      <path id="DejaVuSans-65" d="M 3597 1894 
L 3597 1613 
L 953 1613 
Q 991 1019 1311 708 
Q 1631 397 2203 397 
Q 2534 397 2845 478 
Q 3156 559 3463 722 
L 3463 178 
Q 3153 47 2828 -22 
Q 2503 -91 2169 -91 
Q 1331 -91 842 396 
Q 353 884 353 1716 
Q 353 2575 817 3079 
Q 1281 3584 2069 3584 
Q 2775 3584 3186 3129 
Q 3597 2675 3597 1894 
z
M 3022 2063 
Q 3016 2534 2758 2815 
Q 2500 3097 2075 3097 
Q 1594 3097 1305 2825 
Q 1016 2553 972 2059 
L 3022 2063 
z
" transform="scale(0.015625)"/>
      <path id="DejaVuSans-61" d="M 2194 1759 
Q 1497 1759 1228 1600 
Q 959 1441 959 1056 
Q 959 750 1161 570 
Q 1363 391 1709 391 
Q 2188 391 2477 730 
Q 2766 1069 2766 1631 
L 2766 1759 
L 2194 1759 
z
M 3341 1997 
L 3341 0 
L 2766 0 
L 2766 531 
Q 2569 213 2275 61 
Q 1981 -91 1556 -91 
Q 1019 -91 701 211 
Q 384 513 384 1019 
Q 384 1609 779 1909 
Q 1175 2209 1959 2209 
L 2766 2209 
L 2766 2266 
Q 2766 2663 2505 2880 
Q 2244 3097 1772 3097 
Q 1472 3097 1187 3025 
Q 903 2953 641 2809 
L 641 3341 
Q 956 3463 1253 3523 
Q 1550 3584 1831 3584 
Q 2591 3584 2966 3190 
Q 3341 2797 3341 1997 
z
" transform="scale(0.015625)"/>
      <path id="DejaVuSans-64" d="M 2906 2969 
L 2906 4863 
L 3481 4863 
L 3481 0 
L 2906 0 
L 2906 525 
Q 2725 213 2448 61 
Q 2172 -91 1784 -91 
Q 1150 -91 751 415 
Q 353 922 353 1747 
Q 353 2572 751 3078 
Q 1150 3584 1784 3584 
Q 2172 3584 2448 3432 
Q 2725 3281 2906 2969 
z
M 947 1747 
Q 947 1113 1208 752 
Q 1469 391 1925 391 
Q 2381 391 2643 752 
Q 2906 1113 2906 1747 
Q 2906 2381 2643 2742 
Q 2381 3103 1925 3103 
Q 1469 3103 1208 2742 
Q 947 2381 947 1747 
z
" transform="scale(0.015625)"/>
      <path id="DejaVuSans-6f" d="M 1959 3097 
Q 1497 3097 1228 2736 
Q 959 2375 959 1747 
Q 959 1119 1226 758 
Q 1494 397 1959 397 
Q 2419 397 2687 759 
Q 2956 1122 2956 1747 
Q 2956 2369 2687 2733 
Q 2419 3097 1959 3097 
z
M 1959 3584 
Q 2709 3584 3137 3096 
Q 3566 2609 3566 1747 
Q 3566 888 3137 398 
Q 2709 -91 1959 -91 
Q 1206 -91 779 398 
Q 353 888 353 1747 
Q 353 2609 779 3096 
Q 1206 3584 1959 3584 
z
" transform="scale(0.015625)"/>
      <path id="DejaVuSans-75" d="M 544 1381 
L 544 3500 
L 1119 3500 
L 1119 1403 
Q 1119 906 1312 657 
Q 1506 409 1894 409 
Q 2359 409 2629 706 
Q 2900 1003 2900 1516 
L 2900 3500 
L 3475 3500 
L 3475 0 
L 2900 0 
L 2900 538 
Q 2691 219 2414 64 
Q 2138 -91 1772 -91 
Q 1169 -91 856 284 
Q 544 659 544 1381 
z
M 1991 3584 
L 1991 3584 
z
" transform="scale(0.015625)"/>
      <path id="DejaVuSans-74" d="M 1172 4494 
L 1172 3500 
L 2356 3500 
L 2356 3053 
L 1172 3053 
L 1172 1153 
Q 1172 725 1289 603 
Q 1406 481 1766 481 
L 2356 481 
L 2356 0 
L 1766 0 
Q 1100 0 847 248 
Q 594 497 594 1153 
L 594 3053 
L 172 3053 
L 172 3500 
L 594 3500 
L 594 4494 
L 1172 4494 
z
" transform="scale(0.015625)"/>
      <path id="DejaVuSans-20" transform="scale(0.015625)"/>
      <path id="DejaVuSans-6c" d="M 603 4863 
L 1178 4863 
L 1178 0 
L 603 0 
L 603 4863 
z
" transform="scale(0.015625)"/>
      <path id="DejaVuSans-69" d="M 603 3500 
L 1178 3500 
L 1178 0 
L 603 0 
L 603 3500 
z
M 603 4863 
L 1178 4863 
L 1178 4134 
L 603 4134 
L 603 4863 
z
" transform="scale(0.015625)"/>
      <path id="DejaVuSans-6e" d="M 3513 2113 
L 3513 0 
L 2938 0 
L 2938 2094 
Q 2938 2591 2744 2837 
Q 2550 3084 2163 3084 
Q 1697 3084 1428 2787 
Q 1159 2491 1159 1978 
L 1159 0 
L 581 0 
L 581 3500 
L 1159 3500 
L 1159 2956 
Q 1366 3272 1645 3428 
Q 1925 3584 2291 3584 
Q 2894 3584 3203 3211 
Q 3513 2838 3513 2113 
z
" transform="scale(0.015625)"/>
     </defs>
     <use xlink:href="#DejaVuSans-72"/>
     <use xlink:href="#DejaVuSans-65" transform="translate(38.863281 0)"/>
     <use xlink:href="#DejaVuSans-61" transform="translate(100.386719 0)"/>
     <use xlink:href="#DejaVuSans-64" transform="translate(161.666016 0)"/>
     <use xlink:href="#DejaVuSans-6f" transform="translate(225.142578 0)"/>
     <use xlink:href="#DejaVuSans-75" transform="translate(286.324219 0)"/>
     <use xlink:href="#DejaVuSans-74" transform="translate(349.703125 0)"/>
     <use xlink:href="#DejaVuSans-20" transform="translate(388.912109 0)"/>
     <use xlink:href="#DejaVuSans-6c" transform="translate(420.699219 0)"/>
     <use xlink:href="#DejaVuSans-69" transform="translate(448.482422 0)"/>
     <use xlink:href="#DejaVuSans-6e" transform="translate(476.265625 0)"/>
     <use xlink:href="#DejaVuSans-65" transform="translate(539.644531 0)"/>
    </g>
   </g>
   <g id="text_2">
    <!-- MTL window -->
    <g transform="translate(111.230969 13.323744) scale(0.11 -0.11)">
     <defs>
      <path id="DejaVuSans-4d" d="M 628 4666 
L 1569 4666 
L 2759 1491 
L 3956 4666 
L 4897 4666 
L 4897 0 
L 4281 0 
L 4281 4097 
L 3078 897 
L 2444 897 
L 1241 4097 
L 1241 0 
L 628 0 
L 628 4666 
z
" transform="scale(0.015625)"/>
      <path id="DejaVuSans-54" d="M -19 4666 
L 3928 4666 
L 3928 4134 
L 2272 4134 
L 2272 0 
L 1638 0 
L 1638 4134 
L -19 4134 
L -19 4666 
z
" transform="scale(0.015625)"/>
      <path id="DejaVuSans-4c" d="M 628 4666 
L 1259 4666 
L 1259 531 
L 3531 531 
L 3531 0 
L 628 0 
L 628 4666 
z
" transform="scale(0.015625)"/>
      <path id="DejaVuSans-77" d="M 269 3500 
L 844 3500 
L 1563 769 
L 2278 3500 
L 2956 3500 
L 3675 769 
L 4391 3500 
L 4966 3500 
L 4050 0 
L 3372 0 
L 2619 2869 
L 1863 0 
L 1184 0 
L 269 3500 
z
" transform="scale(0.015625)"/>
     </defs>
     <use xlink:href="#DejaVuSans-4d"/>
     <use xlink:href="#DejaVuSans-54" transform="translate(86.279297 0)"/>
     <use xlink:href="#DejaVuSans-4c" transform="translate(147.363281 0)"/>
     <use xlink:href="#DejaVuSans-20" transform="translate(203.076172 0)"/>
     <use xlink:href="#DejaVuSans-77" transform="translate(234.863281 0)"/>
     <use xlink:href="#DejaVuSans-69" transform="translate(316.650391 0)"/>
     <use xlink:href="#DejaVuSans-6e" transform="translate(344.433594 0)"/>
     <use xlink:href="#DejaVuSans-64" transform="translate(407.8125 0)"/>
     <use xlink:href="#DejaVuSans-6f" transform="translate(471.289062 0)"/>
     <use xlink:href="#DejaVuSans-77" transform="translate(532.470703 0)"/>
    </g>
   </g>
   <g id="text_3">
    <!-- quarter-wave resonator -->
    <g transform="translate(80.324406 95.654681) scale(0.11 -0.11)">
     <defs>
      <path id="DejaVuSans-71" d="M 947 1747 
Q 947 1113 1208 752 
Q 1469 391 1925 391 
Q 2381 391 2643 752 
Q 2906 1113 2906 1747 
Q 2906 2381 2643 2742 
Q 2381 3103 1925 3103 
Q 1469 3103 1208 2742 
Q 947 2381 947 1747 
z
M 2906 525 
Q 2725 213 2448 61 
Q 2172 -91 1784 -91 
Q 1150 -91 751 415 
Q 353 922 353 1747 
Q 353 2572 751 3078 
Q 1150 3584 1784 3584 
Q 2172 3584 2448 3432 
Q 2725 3281 2906 2969 
L 2906 3500 
L 3481 3500 
L 3481 -1331 
L 2906 -1331 
L 2906 525 
z
" transform="scale(0.015625)"/>
      <path id="DejaVuSans-2d" d="M 313 2009 
L 1997 2009 
L 1997 1497 
L 313 1497 
L 313 2009 
z
" transform="scale(0.015625)"/>
      <path id="DejaVuSans-76" d="M 191 3500 
L 800 3500 
L 1894 563 
L 2988 3500 
L 3597 3500 
L 2284 0 
L 1503 0 
L 191 3500 
z
" transform="scale(0.015625)"/>
      <path id="DejaVuSans-73" d="M 2834 3397 
L 2834 2853 
Q 2591 2978 2328 3040 
Q 2066 3103 1784 3103 
Q 1356 3103 1142 2972 
Q 928 2841 928 2578 
Q 928 2378 1081 2264 
Q 1234 2150 1697 2047 
L 1894 2003 
Q 2506 1872 2764 1633 
Q 3022 1394 3022 966 
Q 3022 478 2636 193 
Q 2250 -91 1575 -91 
Q 1294 -91 989 -36 
Q 684 19 347 128 
L 347 722 
Q 666 556 975 473 
Q 1284 391 1588 391 
Q 1994 391 2212 530 
Q 2431 669 2431 922 
Q 2431 1156 2273 1281 
Q 2116 1406 1581 1522 
L 1381 1569 
Q 847 1681 609 1914 
Q 372 2147 372 2553 
Q 372 3047 722 3315 
Q 1072 3584 1716 3584 
Q 2034 3584 2315 3537 
Q 2597 3491 2834 3397 
z
" transform="scale(0.015625)"/>
     </defs>
     <use xlink:href="#DejaVuSans-71"/>
     <use xlink:href="#DejaVuSans-75" transform="translate(63.476562 0)"/>
     <use xlink:href="#DejaVuSans-61" transform="translate(126.855469 0)"/>
     <use xlink:href="#DejaVuSans-72" transform="translate(188.134766 0)"/>
     <use xlink:href="#DejaVuSans-74" transform="translate(229.248047 0)"/>
     <use xlink:href="#DejaVuSans-65" transform="translate(268.457031 0)"/>
     <use xlink:href="#DejaVuSans-72" transform="translate(329.980469 0)"/>
     <use xlink:href="#DejaVuSans-2d" transform="translate(364.71875 0)"/>
     <use xlink:href="#DejaVuSans-77" transform="translate(400.802734 0)"/>
     <use xlink:href="#DejaVuSans-61" transform="translate(482.589844 0)"/>
     <use xlink:href="#DejaVuSans-76" transform="translate(543.869141 0)"/>
     <use xlink:href="#DejaVuSans-65" transform="translate(603.048828 0)"/>
     <use xlink:href="#DejaVuSans-20" transform="translate(664.572266 0)"/>
     <use xlink:href="#DejaVuSans-72" transform="translate(696.359375 0)"/>
     <use xlink:href="#DejaVuSans-65" transform="translate(735.222656 0)"/>
     <use xlink:href="#DejaVuSans-73" transform="translate(796.746094 0)"/>
     <use xlink:href="#DejaVuSans-6f" transform="translate(848.845703 0)"/>
     <use xlink:href="#DejaVuSans-6e" transform="translate(910.027344 0)"/>
     <use xlink:href="#DejaVuSans-61" transform="translate(973.40625 0)"/>
     <use xlink:href="#DejaVuSans-74" transform="translate(1034.685547 0)"/>
     <use xlink:href="#DejaVuSans-6f" transform="translate(1073.894531 0)"/>
     <use xlink:href="#DejaVuSans-72" transform="translate(1135.076172 0)"/>
    </g>
   </g>
   <g id="text_4">
    <!-- C12 -->
    <g transform="translate(118.046297 25.868619) scale(0.11 -0.11)">
     <defs>
      <path id="DejaVuSans-43" d="M 4122 4306 
L 4122 3641 
Q 3803 3938 3442 4084 
Q 3081 4231 2675 4231 
Q 1875 4231 1450 3742 
Q 1025 3253 1025 2328 
Q 1025 1406 1450 917 
Q 1875 428 2675 428 
Q 3081 428 3442 575 
Q 3803 722 4122 1019 
L 4122 359 
Q 3791 134 3420 21 
Q 3050 -91 2638 -91 
Q 1578 -91 968 557 
Q 359 1206 359 2328 
Q 359 3453 968 4101 
Q 1578 4750 2638 4750 
Q 3056 4750 3426 4639 
Q 3797 4528 4122 4306 
z
" transform="scale(0.015625)"/>
      <path id="DejaVuSans-31" d="M 794 531 
L 1825 531 
L 1825 4091 
L 703 3866 
L 703 4441 
L 1819 4666 
L 2450 4666 
L 2450 531 
L 3481 531 
L 3481 0 
L 794 0 
L 794 531 
z
" transform="scale(0.015625)"/>
      <path id="DejaVuSans-32" d="M 1228 531 
L 3431 531 
L 3431 0 
L 469 0 
L 469 531 
Q 828 903 1448 1529 
Q 2069 2156 2228 2338 
Q 2531 2678 2651 2914 
Q 2772 3150 2772 3378 
Q 2772 3750 2511 3984 
Q 2250 4219 1831 4219 
Q 1534 4219 1204 4116 
Q 875 4013 500 3803 
L 500 4441 
Q 881 4594 1212 4672 
Q 1544 4750 1819 4750 
Q 2544 4750 2975 4387 
Q 3406 4025 3406 3419 
Q 3406 3131 3298 2873 
Q 3191 2616 2906 2266 
Q 2828 2175 2409 1742 
Q 1991 1309 1228 531 
z
" transform="scale(0.015625)"/>
     </defs>
     <use xlink:href="#DejaVuSans-43"/>
     <use xlink:href="#DejaVuSans-31" transform="translate(69.824219 0)"/>
     <use xlink:href="#DejaVuSans-32" transform="translate(133.447266 0)"/>
    </g>
   </g>
   <g id="text_5">
    <!-- K12 -->
    <g transform="translate(145.161922 25.868619) scale(0.11 -0.11)">
     <defs>
      <path id="DejaVuSans-4b" d="M 628 4666 
L 1259 4666 
L 1259 2694 
L 3353 4666 
L 4166 4666 
L 1850 2491 
L 4331 0 
L 3500 0 
L 1259 2247 
L 1259 0 
L 628 0 
L 628 4666 
z
" transform="scale(0.015625)"/>
     </defs>
     <use xlink:href="#DejaVuSans-4b"/>
     <use xlink:href="#DejaVuSans-31" transform="translate(65.576172 0)"/>
     <use xlink:href="#DejaVuSans-32" transform="translate(129.199219 0)"/>
    </g>
   </g>
   <g id="text_6">
    <!-- finite coupled section -->
    <g transform="translate(85.921516 43.683056) scale(0.11 -0.11)">
     <defs>
      <path id="DejaVuSans-66" d="M 2375 4863 
L 2375 4384 
L 1825 4384 
Q 1516 4384 1395 4259 
Q 1275 4134 1275 3809 
L 1275 3500 
L 2222 3500 
L 2222 3053 
L 1275 3053 
L 1275 0 
L 697 0 
L 697 3053 
L 147 3053 
L 147 3500 
L 697 3500 
L 697 3744 
Q 697 4328 969 4595 
Q 1241 4863 1831 4863 
L 2375 4863 
z
" transform="scale(0.015625)"/>
      <path id="DejaVuSans-63" d="M 3122 3366 
L 3122 2828 
Q 2878 2963 2633 3030 
Q 2388 3097 2138 3097 
Q 1578 3097 1268 2742 
Q 959 2388 959 1747 
Q 959 1106 1268 751 
Q 1578 397 2138 397 
Q 2388 397 2633 464 
Q 2878 531 3122 666 
L 3122 134 
Q 2881 22 2623 -34 
Q 2366 -91 2075 -91 
Q 1284 -91 818 406 
Q 353 903 353 1747 
Q 353 2603 823 3093 
Q 1294 3584 2113 3584 
Q 2378 3584 2631 3529 
Q 2884 3475 3122 3366 
z
" transform="scale(0.015625)"/>
      <path id="DejaVuSans-70" d="M 1159 525 
L 1159 -1331 
L 581 -1331 
L 581 3500 
L 1159 3500 
L 1159 2969 
Q 1341 3281 1617 3432 
Q 1894 3584 2278 3584 
Q 2916 3584 3314 3078 
Q 3713 2572 3713 1747 
Q 3713 922 3314 415 
Q 2916 -91 2278 -91 
Q 1894 -91 1617 61 
Q 1341 213 1159 525 
z
M 3116 1747 
Q 3116 2381 2855 2742 
Q 2594 3103 2138 3103 
Q 1681 3103 1420 2742 
Q 1159 2381 1159 1747 
Q 1159 1113 1420 752 
Q 1681 391 2138 391 
Q 2594 391 2855 752 
Q 3116 1113 3116 1747 
z
" transform="scale(0.015625)"/>
     </defs>
     <use xlink:href="#DejaVuSans-66"/>
     <use xlink:href="#DejaVuSans-69" transform="translate(35.205078 0)"/>
     <use xlink:href="#DejaVuSans-6e" transform="translate(62.988281 0)"/>
     <use xlink:href="#DejaVuSans-69" transform="translate(126.367188 0)"/>
     <use xlink:href="#DejaVuSans-74" transform="translate(154.150391 0)"/>
     <use xlink:href="#DejaVuSans-65" transform="translate(193.359375 0)"/>
     <use xlink:href="#DejaVuSans-20" transform="translate(254.882812 0)"/>
     <use xlink:href="#DejaVuSans-63" transform="translate(286.669922 0)"/>
     <use xlink:href="#DejaVuSans-6f" transform="translate(341.650391 0)"/>
     <use xlink:href="#DejaVuSans-75" transform="translate(402.832031 0)"/>
     <use xlink:href="#DejaVuSans-70" transform="translate(466.210938 0)"/>
     <use xlink:href="#DejaVuSans-6c" transform="translate(529.6875 0)"/>
     <use xlink:href="#DejaVuSans-65" transform="translate(557.470703 0)"/>
     <use xlink:href="#DejaVuSans-64" transform="translate(618.994141 0)"/>
     <use xlink:href="#DejaVuSans-20" transform="translate(682.470703 0)"/>
     <use xlink:href="#DejaVuSans-73" transform="translate(714.257812 0)"/>
     <use xlink:href="#DejaVuSans-65" transform="translate(766.357422 0)"/>
     <use xlink:href="#DejaVuSans-63" transform="translate(827.880859 0)"/>
     <use xlink:href="#DejaVuSans-74" transform="translate(882.861328 0)"/>
     <use xlink:href="#DejaVuSans-69" transform="translate(922.070312 0)"/>
     <use xlink:href="#DejaVuSans-6f" transform="translate(949.853516 0)"/>
     <use xlink:href="#DejaVuSans-6e" transform="translate(1011.035156 0)"/>
    </g>
   </g>
   <g id="patch_2">
    <path d="M 62.576969 21.883837 
C 63.289884 21.883837 63.973697 21.600593 64.477804 21.096486 
C 64.981912 20.592378 65.265156 19.908566 65.265156 19.19565 
C 65.265156 18.482734 64.981912 17.798922 64.477804 17.294814 
C 63.973697 16.790707 63.289884 16.507462 62.576969 16.507462 
C 61.864053 16.507462 61.180241 16.790707 60.676133 17.294814 
C 60.172026 17.798922 59.888781 18.482734 59.888781 19.19565 
C 59.888781 19.908566 60.172026 20.592378 60.676133 21.096486 
C 61.180241 21.600593 61.864053 21.883837 62.576969 21.883837 
z
" clip-path="url(#p42edc517ae)" style="fill: #ffffff; stroke: #000000; stroke-width: 1.7; stroke-linejoin: miter"/>
   </g>
   <g id="text_7">
    <!-- readout in -->
    <g transform="translate(0 22.230962) scale(0.11 -0.11)">
     <use xlink:href="#DejaVuSans-72"/>
     <use xlink:href="#DejaVuSans-65" transform="translate(38.863281 0)"/>
     <use xlink:href="#DejaVuSans-61" transform="translate(100.386719 0)"/>
     <use xlink:href="#DejaVuSans-64" transform="translate(161.666016 0)"/>
     <use xlink:href="#DejaVuSans-6f" transform="translate(225.142578 0)"/>
     <use xlink:href="#DejaVuSans-75" transform="translate(286.324219 0)"/>
     <use xlink:href="#DejaVuSans-74" transform="translate(349.703125 0)"/>
     <use xlink:href="#DejaVuSans-20" transform="translate(388.912109 0)"/>
     <use xlink:href="#DejaVuSans-69" transform="translate(420.699219 0)"/>
     <use xlink:href="#DejaVuSans-6e" transform="translate(448.482422 0)"/>
    </g>
   </g>
   <g id="patch_3">
    <path d="M 105.587969 21.883837 
C 106.300884 21.883837 106.984697 21.600593 107.488804 21.096486 
C 107.992912 20.592378 108.276156 19.908566 108.276156 19.19565 
C 108.276156 18.482734 107.992912 17.798922 107.488804 17.294814 
C 106.984697 16.790707 106.300884 16.507462 105.587969 16.507462 
C 104.875053 16.507462 104.191241 16.790707 103.687133 17.294814 
C 103.183026 17.798922 102.899781 18.482734 102.899781 19.19565 
C 102.899781 19.908566 103.183026 20.592378 103.687133 21.096486 
C 104.191241 21.600593 104.875053 21.883837 105.587969 21.883837 
z
" clip-path="url(#p42edc517ae)" style="stroke: #000000; stroke-width: 1.7; stroke-linejoin: miter"/>
   </g>
   <g id="patch_4">
    <path d="M 184.441469 21.883837 
C 185.154384 21.883837 185.838197 21.600593 186.342304 21.096486 
C 186.846412 20.592378 187.129656 19.908566 187.129656 19.19565 
C 187.129656 18.482734 186.846412 17.798922 186.342304 17.294814 
C 185.838197 16.790707 185.154384 16.507462 184.441469 16.507462 
C 183.728553 16.507462 183.044741 16.790707 182.540633 17.294814 
C 182.036526 17.798922 181.753281 18.482734 181.753281 19.19565 
C 181.753281 19.908566 182.036526 20.592378 182.540633 21.096486 
C 183.044741 21.600593 183.728553 21.883837 184.441469 21.883837 
z
" clip-path="url(#p42edc517ae)" style="stroke: #000000; stroke-width: 1.7; stroke-linejoin: miter"/>
   </g>
   <g id="patch_5">
    <path d="M 227.452469 21.883837 
C 228.165384 21.883837 228.849197 21.600593 229.353304 21.096486 
C 229.857412 20.592378 230.140656 19.908566 230.140656 19.19565 
C 230.140656 18.482734 229.857412 17.798922 229.353304 17.294814 
C 228.849197 16.790707 228.165384 16.507462 227.452469 16.507462 
C 226.739553 16.507462 226.055741 16.790707 225.551633 17.294814 
C 225.047526 17.798922 224.764281 18.482734 224.764281 19.19565 
C 224.764281 19.908566 225.047526 20.592378 225.551633 21.096486 
C 226.055741 21.600593 226.739553 21.883837 227.452469 21.883837 
z
" clip-path="url(#p42edc517ae)" style="fill: #ffffff; stroke: #000000; stroke-width: 1.7; stroke-linejoin: miter"/>
   </g>
   <g id="text_8">
    <!-- readout out -->
    <g transform="translate(233.724906 22.230962) scale(0.11 -0.11)">
     <use xlink:href="#DejaVuSans-72"/>
     <use xlink:href="#DejaVuSans-65" transform="translate(38.863281 0)"/>
     <use xlink:href="#DejaVuSans-61" transform="translate(100.386719 0)"/>
     <use xlink:href="#DejaVuSans-64" transform="translate(161.666016 0)"/>
     <use xlink:href="#DejaVuSans-6f" transform="translate(225.142578 0)"/>
     <use xlink:href="#DejaVuSans-75" transform="translate(286.324219 0)"/>
     <use xlink:href="#DejaVuSans-74" transform="translate(349.703125 0)"/>
     <use xlink:href="#DejaVuSans-20" transform="translate(388.912109 0)"/>
     <use xlink:href="#DejaVuSans-6f" transform="translate(420.699219 0)"/>
     <use xlink:href="#DejaVuSans-75" transform="translate(481.880859 0)"/>
     <use xlink:href="#DejaVuSans-74" transform="translate(545.259766 0)"/>
    </g>
   </g>
   <g id="patch_6">
    <path d="M 105.587969 86.400337 
C 106.300884 86.400337 106.984697 86.117093 107.488804 85.612986 
C 107.992912 85.108878 108.276156 84.425066 108.276156 83.71215 
C 108.276156 82.999234 107.992912 82.315422 107.488804 81.811314 
C 106.984697 81.307207 106.300884 81.023962 105.587969 81.023962 
C 104.875053 81.023962 104.191241 81.307207 103.687133 81.811314 
C 103.183026 82.315422 102.899781 82.999234 102.899781 83.71215 
C 102.899781 84.425066 103.183026 85.108878 103.687133 85.612986 
C 104.191241 86.117093 104.875053 86.400337 105.587969 86.400337 
z
" clip-path="url(#p42edc517ae)" style="stroke: #000000; stroke-width: 1.7; stroke-linejoin: miter"/>
   </g>
   <g id="text_9">
    <!-- QWR head -->
    <g transform="translate(41.177094 86.747462) scale(0.11 -0.11)">
     <defs>
      <path id="DejaVuSans-51" d="M 2522 4238 
Q 1834 4238 1429 3725 
Q 1025 3213 1025 2328 
Q 1025 1447 1429 934 
Q 1834 422 2522 422 
Q 3209 422 3611 934 
Q 4013 1447 4013 2328 
Q 4013 3213 3611 3725 
Q 3209 4238 2522 4238 
z
M 3406 84 
L 4238 -825 
L 3475 -825 
L 2784 -78 
Q 2681 -84 2626 -87 
Q 2572 -91 2522 -91 
Q 1538 -91 948 567 
Q 359 1225 359 2328 
Q 359 3434 948 4092 
Q 1538 4750 2522 4750 
Q 3503 4750 4090 4092 
Q 4678 3434 4678 2328 
Q 4678 1516 4351 937 
Q 4025 359 3406 84 
z
" transform="scale(0.015625)"/>
      <path id="DejaVuSans-57" d="M 213 4666 
L 850 4666 
L 1831 722 
L 2809 4666 
L 3519 4666 
L 4500 722 
L 5478 4666 
L 6119 4666 
L 4947 0 
L 4153 0 
L 3169 4050 
L 2175 0 
L 1381 0 
L 213 4666 
z
" transform="scale(0.015625)"/>
      <path id="DejaVuSans-52" d="M 2841 2188 
Q 3044 2119 3236 1894 
Q 3428 1669 3622 1275 
L 4263 0 
L 3584 0 
L 2988 1197 
Q 2756 1666 2539 1819 
Q 2322 1972 1947 1972 
L 1259 1972 
L 1259 0 
L 628 0 
L 628 4666 
L 2053 4666 
Q 2853 4666 3247 4331 
Q 3641 3997 3641 3322 
Q 3641 2881 3436 2590 
Q 3231 2300 2841 2188 
z
M 1259 4147 
L 1259 2491 
L 2053 2491 
Q 2509 2491 2742 2702 
Q 2975 2913 2975 3322 
Q 2975 3731 2742 3939 
Q 2509 4147 2053 4147 
L 1259 4147 
z
" transform="scale(0.015625)"/>
      <path id="DejaVuSans-68" d="M 3513 2113 
L 3513 0 
L 2938 0 
L 2938 2094 
Q 2938 2591 2744 2837 
Q 2550 3084 2163 3084 
Q 1697 3084 1428 2787 
Q 1159 2491 1159 1978 
L 1159 0 
L 581 0 
L 581 4863 
L 1159 4863 
L 1159 2956 
Q 1366 3272 1645 3428 
Q 1925 3584 2291 3584 
Q 2894 3584 3203 3211 
Q 3513 2838 3513 2113 
z
" transform="scale(0.015625)"/>
     </defs>
     <use xlink:href="#DejaVuSans-51"/>
     <use xlink:href="#DejaVuSans-57" transform="translate(78.710938 0)"/>
     <use xlink:href="#DejaVuSans-52" transform="translate(177.587891 0)"/>
     <use xlink:href="#DejaVuSans-20" transform="translate(247.070312 0)"/>
     <use xlink:href="#DejaVuSans-68" transform="translate(278.857422 0)"/>
     <use xlink:href="#DejaVuSans-65" transform="translate(342.236328 0)"/>
     <use xlink:href="#DejaVuSans-61" transform="translate(403.759766 0)"/>
     <use xlink:href="#DejaVuSans-64" transform="translate(465.039062 0)"/>
    </g>
   </g>
   <g id="patch_7">
    <path d="M 184.441469 86.400337 
C 185.154384 86.400337 185.838197 86.117093 186.342304 85.612986 
C 186.846412 85.108878 187.129656 84.425066 187.129656 83.71215 
C 187.129656 82.999234 186.846412 82.315422 186.342304 81.811314 
C 185.838197 81.307207 185.154384 81.023962 184.441469 81.023962 
C 183.728553 81.023962 183.044741 81.307207 182.540633 81.811314 
C 182.036526 82.315422 181.753281 82.999234 181.753281 83.71215 
C 181.753281 84.425066 182.036526 85.108878 182.540633 85.612986 
C 183.044741 86.117093 183.728553 86.400337 184.441469 86.400337 
z
" clip-path="url(#p42edc517ae)" style="fill: #ffffff; stroke: #000000; stroke-width: 1.7; stroke-linejoin: miter"/>
   </g>
   <g id="text_10">
    <!-- open tail -->
    <g transform="translate(190.713906 86.747462) scale(0.11 -0.11)">
     <use xlink:href="#DejaVuSans-6f"/>
     <use xlink:href="#DejaVuSans-70" transform="translate(61.181641 0)"/>
     <use xlink:href="#DejaVuSans-65" transform="translate(124.658203 0)"/>
     <use xlink:href="#DejaVuSans-6e" transform="translate(186.181641 0)"/>
     <use xlink:href="#DejaVuSans-20" transform="translate(249.560547 0)"/>
     <use xlink:href="#DejaVuSans-74" transform="translate(281.347656 0)"/>
     <use xlink:href="#DejaVuSans-61" transform="translate(320.556641 0)"/>
     <use xlink:href="#DejaVuSans-69" transform="translate(381.835938 0)"/>
     <use xlink:href="#DejaVuSans-6c" transform="translate(409.619141 0)"/>
    </g>
   </g>
  </g>
 </g>
 <defs>
  <clipPath id="p42edc517ae">
   <rect x="2.098724" y="-0" width="292.928805" height="127.44"/>
  </clipPath>
 </defs>
</svg>
