<?xml version="1.0" encoding="utf-8" standalone="no"?>
<!DOCTYPE svg PUBLIC "-//W3C//DTD SVG 1.1//EN"
  "http://www.w3.org/Graphics/SVG/1.1/DTD/svg11.dtd">
<svg xmlns:xlink="http://www.w3.org/1999/xlink" width="427.878783pt" height="118.8pt" viewBox="0 0 427.878783 118.8" xmlns="http://www.w3.org/2000/svg" version="1.1">
 <metadata>
  <rdf:RDF xmlns:dc="http://purl.org/dc/elements/1.1/" xmlns:cc="http://creativecommons.org/ns#" xmlns:rdf="http://www.w3.org/1999/02/22-rdf-syntax-ns#">
   <cc:Work>
    <dc:type rdf:resource="http://purl.org/dc/dcmitype/StillImage"/>
    <dc:date>2026-05-30T19:10:36.168298</dc:date>
    <dc:format>image/svg+xml</dc:format>
    <dc:creator>
     <cc:Agent>
      <dc:title>Matplotlib v3.10.8, https://matplotlib.org/</dc:title>
     </cc:Agent>
    </dc:creator>
   </cc:Work>
  </rdf:RDF>
 </metadata>
 <defs>
  <style type="text/css">*{stroke-linejoin: round; stroke-linecap: butt}</style>
 </defs>
 <g id="figure_1">
  <g id="patch_1">
   <path d="M 0 118.8 
L 427.878783 118.8 
L 427.878783 0 
L 0 0 
L 0 118.8 
z
" style="fill: none"/>
  </g>
  <g id="axes_1">
   <g id="patch_2">
    <path d="M 170.41243 28.232471 
C 170.41243 27.041459 169.938798 25.89801 169.096626 25.055838 
C 168.254454 24.213666 167.111005 23.740034 165.919993 23.740034 
C 164.728982 23.740034 163.585533 24.213666 162.743361 25.055838 
C 161.901189 25.89801 161.427556 27.041459 161.427556 28.232471 
" clip-path="url(#p9f4ceaef9c)" style="fill: none; stroke: #000000; stroke-width: 1.7; stroke-linejoin: miter"/>
   </g>
   <g id="patch_3">
    <path d="M 179.397304 28.232471 
C 179.397304 27.041459 178.923672 25.89801 178.0815 25.055838 
C 177.239328 24.213666 176.095879 23.740034 174.904867 23.740034 
C 173.713856 23.740034 172.570407 24.213666 171.728235 25.055838 
C 170.886062 25.89801 170.41243 27.041459 170.41243 28.232471 
" clip-path="url(#p9f4ceaef9c)" style="fill: none; stroke: #000000; stroke-width: 1.7; stroke-linejoin: miter"/>
   </g>
   <g id="patch_4">
    <path d="M 188.382178 28.232471 
C 188.382178 27.041459 187.908546 25.89801 187.066374 25.055838 
C 186.224202 24.213666 185.080753 23.740034 183.889741 23.740034 
C 182.69873 23.740034 181.555281 24.213666 180.713109 25.055838 
C 179.870936 25.89801 179.397304 27.041459 179.397304 28.232471 
" clip-path="url(#p9f4ceaef9c)" style="fill: none; stroke: #000000; stroke-width: 1.7; stroke-linejoin: miter"/>
   </g>
   <g id="patch_5">
    <path d="M 197.367052 28.232471 
C 197.367052 27.041459 196.89342 25.89801 196.051248 25.055838 
C 195.209076 24.213666 194.065627 23.740034 192.874615 23.740034 
C 191.683604 23.740034 190.540155 24.213666 189.697983 25.055838 
C 188.85581 25.89801 188.382178 27.041459 188.382178 28.232471 
" clip-path="url(#p9f4ceaef9c)" style="fill: none; stroke: #000000; stroke-width: 1.7; stroke-linejoin: miter"/>
   </g>
   <g id="patch_6">
    <path d="M 231.509573 28.232471 
C 231.509573 27.041459 231.035941 25.89801 230.193769 25.055838 
C 229.351597 24.213666 228.208148 23.740034 227.017136 23.740034 
C 225.826125 23.740034 224.682676 24.213666 223.840504 25.055838 
C 222.998331 25.89801 222.524699 27.041459 222.524699 28.232471 
" clip-path="url(#p9f4ceaef9c)" style="fill: none; stroke: #000000; stroke-width: 1.7; stroke-linejoin: miter"/>
   </g>
   <g id="patch_7">
    <path d="M 240.494447 28.232471 
C 240.494447 27.041459 240.020815 25.89801 239.178643 25.055838 
C 238.336471 24.213666 237.193022 23.740034 236.00201 23.740034 
C 234.810999 23.740034 233.66755 24.213666 232.825378 25.055838 
C 231.983205 25.89801 231.509573 27.041459 231.509573 28.232471 
" clip-path="url(#p9f4ceaef9c)" style="fill: none; stroke: #000000; stroke-width: 1.7; stroke-linejoin: miter"/>
   </g>
   <g id="patch_8">
    <path d="M 249.479321 28.232471 
C 249.479321 27.041459 249.005689 25.89801 248.163517 25.055838 
C 247.321345 24.213666 246.177896 23.740034 244.986884 23.740034 
C 243.795873 23.740034 242.652424 24.213666 241.810252 25.055838 
C 240.968079 25.89801 240.494447 27.041459 240.494447 28.232471 
" clip-path="url(#p9f4ceaef9c)" style="fill: none; stroke: #000000; stroke-width: 1.7; stroke-linejoin: miter"/>
   </g>
   <g id="patch_9">
    <path d="M 258.464195 28.232471 
C 258.464195 27.041459 257.990563 25.89801 257.148391 25.055838 
C 256.306219 24.213666 255.16277 23.740034 253.971758 23.740034 
C 252.780747 23.740034 251.637298 24.213666 250.795125 25.055838 
C 249.952953 25.89801 249.479321 27.041459 249.479321 28.232471 
" clip-path="url(#p9f4ceaef9c)" style="fill: none; stroke: #000000; stroke-width: 1.7; stroke-linejoin: miter"/>
   </g>
   <g id="line2d_1">
    <path d="M 62.593943 28.232471 
L 75.172767 28.232471 
L 87.75159 28.232471 
" clip-path="url(#p9f4ceaef9c)" style="fill: none; stroke: #000000; stroke-width: 1.7; stroke-linecap: round"/>
   </g>
   <g id="line2d_2">
    <path d="M 87.75159 28.232471 
L 115.065607 28.232471 
M 115.065607 19.247597 
L 115.065607 37.217345 
M 121.534716 19.247597 
L 121.534716 37.217345 
M 121.534716 28.232471 
L 148.848733 28.232471 
" clip-path="url(#p9f4ceaef9c)" style="fill: none; stroke: #000000; stroke-width: 1.7; stroke-linecap: round"/>
   </g>
   <g id="line2d_3">
    <path d="M 148.848733 30.029445 
L 148.848733 57.343462 
M 157.833607 57.343462 
L 139.863859 57.343462 
M 157.833607 63.812571 
L 139.863859 63.812571 
M 148.848733 63.812571 
L 148.848733 91.126588 
" clip-path="url(#p9f4ceaef9c)" style="fill: none; stroke: #000000; stroke-width: 1.7; stroke-linecap: round"/>
   </g>
   <g id="line2d_4">
    <path d="M 148.848733 91.126588 
L 148.848733 105.502387 
L 139.863859 105.502387 
L 157.833607 105.502387 
M 142.559321 109.815126 
L 155.138145 109.815126 
M 147.051758 114.127866 
L 150.645708 114.127866 
" clip-path="url(#p9f4ceaef9c)" style="fill: none; stroke: #000000; stroke-width: 1.7; stroke-linecap: round"/>
   </g>
   <g id="line2d_5">
    <path d="M 148.848733 28.232471 
L 161.427556 28.232471 
M 197.367052 28.232471 
L 209.945876 28.232471 
" clip-path="url(#p9f4ceaef9c)" style="fill: none; stroke: #000000; stroke-width: 1.7; stroke-linecap: round"/>
   </g>
   <g id="line2d_6">
    <path d="M 209.945876 30.029445 
L 209.945876 57.343462 
M 218.93075 57.343462 
L 200.961002 57.343462 
M 218.93075 63.812571 
L 200.961002 63.812571 
M 209.945876 63.812571 
L 209.945876 91.126588 
" clip-path="url(#p9f4ceaef9c)" style="fill: none; stroke: #000000; stroke-width: 1.7; stroke-linecap: round"/>
   </g>
   <g id="line2d_7">
    <path d="M 209.945876 91.126588 
L 209.945876 105.502387 
L 200.961002 105.502387 
L 218.93075 105.502387 
M 203.656464 109.815126 
L 216.235288 109.815126 
M 208.148901 114.127866 
L 211.742851 114.127866 
" clip-path="url(#p9f4ceaef9c)" style="fill: none; stroke: #000000; stroke-width: 1.7; stroke-linecap: round"/>
   </g>
   <g id="line2d_8">
    <path d="M 209.945876 28.232471 
L 222.524699 28.232471 
M 258.464195 28.232471 
L 271.043019 28.232471 
" clip-path="url(#p9f4ceaef9c)" style="fill: none; stroke: #000000; stroke-width: 1.7; stroke-linecap: round"/>
   </g>
   <g id="line2d_9">
    <path d="M 271.043019 30.029445 
L 271.043019 57.343462 
M 280.027893 57.343462 
L 262.058145 57.343462 
M 280.027893 63.812571 
L 262.058145 63.812571 
M 271.043019 63.812571 
L 271.043019 91.126588 
" clip-path="url(#p9f4ceaef9c)" style="fill: none; stroke: #000000; stroke-width: 1.7; stroke-linecap: round"/>
   </g>
   <g id="line2d_10">
    <path d="M 271.043019 91.126588 
L 271.043019 105.502387 
L 262.058145 105.502387 
L 280.027893 105.502387 
M 264.753607 109.815126 
L 277.33243 109.815126 
M 269.246044 114.127866 
L 272.839993 114.127866 
" clip-path="url(#p9f4ceaef9c)" style="fill: none; stroke: #000000; stroke-width: 1.7; stroke-linecap: round"/>
   </g>
   <g id="line2d_11">
    <path d="M 271.043019 28.232471 
L 298.357035 28.232471 
M 298.357035 19.247597 
L 298.357035 37.217345 
M 304.826145 19.247597 
L 304.826145 37.217345 
M 304.826145 28.232471 
L 332.140162 28.232471 
" clip-path="url(#p9f4ceaef9c)" style="fill: none; stroke: #000000; stroke-width: 1.7; stroke-linecap: round"/>
   </g>
   <g id="line2d_12">
    <path d="M 332.140162 28.232471 
L 344.718985 28.232471 
L 357.297809 28.232471 
" clip-path="url(#p9f4ceaef9c)" style="fill: none; stroke: #000000; stroke-width: 1.7; stroke-linecap: round"/>
   </g>
   <g id="text_1">
    <!-- C_in -->
    <g transform="translate(106.696021 13.060053) scale(0.11 -0.11)">
     <defs>
      <path id="DejaVuSans-43" d="M 4122 4306 
L 4122 3641 
Q 3803 3938 3442 4084 
Q 3081 4231 2675 4231 
Q 1875 4231 1450 3742 
Q 1025 3253 1025 2328 
Q 1025 1406 1450 917 
Q 1875 428 2675 428 
Q 3081 428 3442 575 
Q 3803 722 4122 1019 
L 4122 359 
Q 3791 134 3420 21 
Q 3050 -91 2638 -91 
Q 1578 -91 968 557 
Q 359 1206 359 2328 
Q 359 3453 968 4101 
Q 1578 4750 2638 4750 
Q 3056 4750 3426 4639 
Q 3797 4528 4122 4306 
z
" transform="scale(0.015625)"/>
      <path id="DejaVuSans-5f" d="M 3263 -1063 
L 3263 -1509 
L -63 -1509 
L -63 -1063 
L 3263 -1063 
z
" transform="scale(0.015625)"/>
      <path id="DejaVuSans-69" d="M 603 3500 
L 1178 3500 
L 1178 0 
L 603 0 
L 603 3500 
z
M 603 4863 
L 1178 4863 
L 1178 4134 
L 603 4134 
L 603 4863 
z
" transform="scale(0.015625)"/>
      <path id="DejaVuSans-6e" d="M 3513 2113 
L 3513 0 
L 2938 0 
L 2938 2094 
Q 2938 2591 2744 2837 
Q 2550 3084 2163 3084 
Q 1697 3084 1428 2787 
Q 1159 2491 1159 1978 
L 1159 0 
L 581 0 
L 581 3500 
L 1159 3500 
L 1159 2956 
Q 1366 3272 1645 3428 
Q 1925 3584 2291 3584 
Q 2894 3584 3203 3211 
Q 3513 2838 3513 2113 
z
" transform="scale(0.015625)"/>
     </defs>
     <use xlink:href="#DejaVuSans-43"/>
     <use xlink:href="#DejaVuSans-5f" transform="translate(69.824219 0)"/>
     <use xlink:href="#DejaVuSans-69" transform="translate(119.824219 0)"/>
     <use xlink:href="#DejaVuSans-6e" transform="translate(147.607422 0)"/>
    </g>
   </g>
   <g id="text_2">
    <!-- C_f1 -->
    <g transform="translate(136.822639 23.841902) scale(0.11 -0.11)">
     <defs>
      <path id="DejaVuSans-66" d="M 2375 4863 
L 2375 4384 
L 1825 4384 
Q 1516 4384 1395 4259 
Q 1275 4134 1275 3809 
L 1275 3500 
L 2222 3500 
L 2222 3053 
L 1275 3053 
L 1275 0 
L 697 0 
L 697 3053 
L 147 3053 
L 147 3500 
L 697 3500 
L 697 3744 
Q 697 4328 969 4595 
Q 1241 4863 1831 4863 
L 2375 4863 
z
" transform="scale(0.015625)"/>
      <path id="DejaVuSans-31" d="M 794 531 
L 1825 531 
L 1825 4091 
L 703 3866 
L 703 4441 
L 1819 4666 
L 2450 4666 
L 2450 531 
L 3481 531 
L 3481 0 
L 794 0 
L 794 531 
z
" transform="scale(0.015625)"/>
     </defs>
     <use xlink:href="#DejaVuSans-43"/>
     <use xlink:href="#DejaVuSans-5f" transform="translate(69.824219 0)"/>
     <use xlink:href="#DejaVuSans-66" transform="translate(119.824219 0)"/>
     <use xlink:href="#DejaVuSans-31" transform="translate(155.029297 0)"/>
    </g>
   </g>
   <g id="text_3">
    <!-- L_f1 -->
    <g transform="translate(168.147226 17.552513) scale(0.11 -0.11)">
     <defs>
      <path id="DejaVuSans-4c" d="M 628 4666 
L 1259 4666 
L 1259 531 
L 3531 531 
L 3531 0 
L 628 0 
L 628 4666 
z
" transform="scale(0.015625)"/>
     </defs>
     <use xlink:href="#DejaVuSans-4c"/>
     <use xlink:href="#DejaVuSans-5f" transform="translate(55.712891 0)"/>
     <use xlink:href="#DejaVuSans-66" transform="translate(105.712891 0)"/>
     <use xlink:href="#DejaVuSans-31" transform="translate(140.917969 0)"/>
    </g>
   </g>
   <g id="text_4">
    <!-- C_f2 -->
    <g transform="translate(197.919782 23.841902) scale(0.11 -0.11)">
     <defs>
      <path id="DejaVuSans-32" d="M 1228 531 
L 3431 531 
L 3431 0 
L 469 0 
L 469 531 
Q 828 903 1448 1529 
Q 2069 2156 2228 2338 
Q 2531 2678 2651 2914 
Q 2772 3150 2772 3378 
Q 2772 3750 2511 3984 
Q 2250 4219 1831 4219 
Q 1534 4219 1204 4116 
Q 875 4013 500 3803 
L 500 4441 
Q 881 4594 1212 4672 
Q 1544 4750 1819 4750 
Q 2544 4750 2975 4387 
Q 3406 4025 3406 3419 
Q 3406 3131 3298 2873 
Q 3191 2616 2906 2266 
Q 2828 2175 2409 1742 
Q 1991 1309 1228 531 
z
" transform="scale(0.015625)"/>
     </defs>
     <use xlink:href="#DejaVuSans-43"/>
     <use xlink:href="#DejaVuSans-5f" transform="translate(69.824219 0)"/>
     <use xlink:href="#DejaVuSans-66" transform="translate(119.824219 0)"/>
     <use xlink:href="#DejaVuSans-32" transform="translate(155.029297 0)"/>
    </g>
   </g>
   <g id="text_5">
    <!-- L_f2 -->
    <g transform="translate(229.244369 17.552513) scale(0.11 -0.11)">
     <use xlink:href="#DejaVuSans-4c"/>
     <use xlink:href="#DejaVuSans-5f" transform="translate(55.712891 0)"/>
     <use xlink:href="#DejaVuSans-66" transform="translate(105.712891 0)"/>
     <use xlink:href="#DejaVuSans-32" transform="translate(140.917969 0)"/>
    </g>
   </g>
   <g id="text_6">
    <!-- C_f3 -->
    <g transform="translate(259.016925 23.841902) scale(0.11 -0.11)">
     <defs>
      <path id="DejaVuSans-33" d="M 2597 2516 
Q 3050 2419 3304 2112 
Q 3559 1806 3559 1356 
Q 3559 666 3084 287 
Q 2609 -91 1734 -91 
Q 1441 -91 1130 -33 
Q 819 25 488 141 
L 488 750 
Q 750 597 1062 519 
Q 1375 441 1716 441 
Q 2309 441 2620 675 
Q 2931 909 2931 1356 
Q 2931 1769 2642 2001 
Q 2353 2234 1838 2234 
L 1294 2234 
L 1294 2753 
L 1863 2753 
Q 2328 2753 2575 2939 
Q 2822 3125 2822 3475 
Q 2822 3834 2567 4026 
Q 2313 4219 1838 4219 
Q 1578 4219 1281 4162 
Q 984 4106 628 3988 
L 628 4550 
Q 988 4650 1302 4700 
Q 1616 4750 1894 4750 
Q 2613 4750 3031 4423 
Q 3450 4097 3450 3541 
Q 3450 3153 3228 2886 
Q 3006 2619 2597 2516 
z
" transform="scale(0.015625)"/>
     </defs>
     <use xlink:href="#DejaVuSans-43"/>
     <use xlink:href="#DejaVuSans-5f" transform="translate(69.824219 0)"/>
     <use xlink:href="#DejaVuSans-66" transform="translate(119.824219 0)"/>
     <use xlink:href="#DejaVuSans-33" transform="translate(155.029297 0)"/>
    </g>
   </g>
   <g id="text_7">
    <!-- C_out -->
    <g transform="translate(285.993934 13.060053) scale(0.11 -0.11)">
     <defs>
      <path id="DejaVuSans-6f" d="M 1959 3097 
Q 1497 3097 1228 2736 
Q 959 2375 959 1747 
Q 959 1119 1226 758 
Q 1494 397 1959 397 
Q 2419 397 2687 759 
Q 2956 1122 2956 1747 
Q 2956 2369 2687 2733 
Q 2419 3097 1959 3097 
z
M 1959 3584 
Q 2709 3584 3137 3096 
Q 3566 2609 3566 1747 
Q 3566 888 3137 398 
Q 2709 -91 1959 -91 
Q 1206 -91 779 398 
Q 353 888 353 1747 
Q 353 2609 779 3096 
Q 1206 3584 1959 3584 
z
" transform="scale(0.015625)"/>
      <path id="DejaVuSans-75" d="M 544 1381 
L 544 3500 
L 1119 3500 
L 1119 1403 
Q 1119 906 1312 657 
Q 1506 409 1894 409 
Q 2359 409 2629 706 
Q 2900 1003 2900 1516 
L 2900 3500 
L 3475 3500 
L 3475 0 
L 2900 0 
L 2900 538 
Q 2691 219 2414 64 
Q 2138 -91 1772 -91 
Q 1169 -91 856 284 
Q 544 659 544 1381 
z
M 1991 3584 
L 1991 3584 
z
" transform="scale(0.015625)"/>
      <path id="DejaVuSans-74" d="M 1172 4494 
L 1172 3500 
L 2356 3500 
L 2356 3053 
L 1172 3053 
L 1172 1153 
Q 1172 725 1289 603 
Q 1406 481 1766 481 
L 2356 481 
L 2356 0 
L 1766 0 
Q 1100 0 847 248 
Q 594 497 594 1153 
L 594 3053 
L 172 3053 
L 172 3500 
L 594 3500 
L 594 4494 
L 1172 4494 
z
" transform="scale(0.015625)"/>
     </defs>
     <use xlink:href="#DejaVuSans-43"/>
     <use xlink:href="#DejaVuSans-5f" transform="translate(69.824219 0)"/>
     <use xlink:href="#DejaVuSans-6f" transform="translate(119.824219 0)"/>
     <use xlink:href="#DejaVuSans-75" transform="translate(181.005859 0)"/>
     <use xlink:href="#DejaVuSans-74" transform="translate(244.384766 0)"/>
    </g>
   </g>
   <g id="patch_10">
    <path d="M 62.593943 30.927933 
C 63.308788 30.927933 63.994451 30.643922 64.499923 30.13845 
C 65.005394 29.632978 65.289405 28.947316 65.289405 28.232471 
C 65.289405 27.517626 65.005394 26.831963 64.499923 26.326491 
C 63.994451 25.821019 63.308788 25.537008 62.593943 25.537008 
C 61.879098 25.537008 61.193435 25.821019 60.687963 26.326491 
C 60.182492 26.831963 59.898481 27.517626 59.898481 28.232471 
C 59.898481 28.947316 60.182492 29.632978 60.687963 30.13845 
C 61.193435 30.643922 61.879098 30.927933 62.593943 30.927933 
z
" clip-path="url(#p9f4ceaef9c)" style="fill: #ffffff; stroke: #000000; stroke-width: 1.7; stroke-linejoin: miter"/>
   </g>
   <g id="text_8">
    <!-- readout in -->
    <g transform="translate(0 31.267783) scale(0.11 -0.11)">
     <defs>
      <path id="DejaVuSans-72" d="M 2631 2963 
Q 2534 3019 2420 3045 
Q 2306 3072 2169 3072 
Q 1681 3072 1420 2755 
Q 1159 2438 1159 1844 
L 1159 0 
L 581 0 
L 581 3500 
L 1159 3500 
L 1159 2956 
Q 1341 3275 1631 3429 
Q 1922 3584 2338 3584 
Q 2397 3584 2469 3576 
Q 2541 3569 2628 3553 
L 2631 2963 
z
" transform="scale(0.015625)"/>
      <path id="DejaVuSans-65" d="M 3597 1894 
L 3597 1613 
L 953 1613 
Q 991 1019 1311 708 
Q 1631 397 2203 397 
Q 2534 397 2845 478 
Q 3156 559 3463 722 
L 3463 178 
Q 3153 47 2828 -22 
Q 2503 -91 2169 -91 
Q 1331 -91 842 396 
Q 353 884 353 1716 
Q 353 2575 817 3079 
Q 1281 3584 2069 3584 
Q 2775 3584 3186 3129 
Q 3597 2675 3597 1894 
z
M 3022 2063 
Q 3016 2534 2758 2815 
Q 2500 3097 2075 3097 
Q 1594 3097 1305 2825 
Q 1016 2553 972 2059 
L 3022 2063 
z
" transform="scale(0.015625)"/>
      <path id="DejaVuSans-61" d="M 2194 1759 
Q 1497 1759 1228 1600 
Q 959 1441 959 1056 
Q 959 750 1161 570 
Q 1363 391 1709 391 
Q 2188 391 2477 730 
Q 2766 1069 2766 1631 
L 2766 1759 
L 2194 1759 
z
M 3341 1997 
L 3341 0 
L 2766 0 
L 2766 531 
Q 2569 213 2275 61 
Q 1981 -91 1556 -91 
Q 1019 -91 701 211 
Q 384 513 384 1019 
Q 384 1609 779 1909 
Q 1175 2209 1959 2209 
L 2766 2209 
L 2766 2266 
Q 2766 2663 2505 2880 
Q 2244 3097 1772 3097 
Q 1472 3097 1187 3025 
Q 903 2953 641 2809 
L 641 3341 
Q 956 3463 1253 3523 
Q 1550 3584 1831 3584 
Q 2591 3584 2966 3190 
Q 3341 2797 3341 1997 
z
" transform="scale(0.015625)"/>
      <path id="DejaVuSans-64" d="M 2906 2969 
L 2906 4863 
L 3481 4863 
L 3481 0 
L 2906 0 
L 2906 525 
Q 2725 213 2448 61 
Q 2172 -91 1784 -91 
Q 1150 -91 751 415 
Q 353 922 353 1747 
Q 353 2572 751 3078 
Q 1150 3584 1784 3584 
Q 2172 3584 2448 3432 
Q 2725 3281 2906 2969 
z
M 947 1747 
Q 947 1113 1208 752 
Q 1469 391 1925 391 
Q 2381 391 2643 752 
Q 2906 1113 2906 1747 
Q 2906 2381 2643 2742 
Q 2381 3103 1925 3103 
Q 1469 3103 1208 2742 
Q 947 2381 947 1747 
z
" transform="scale(0.015625)"/>
      <path id="DejaVuSans-20" transform="scale(0.015625)"/>
     </defs>
     <use xlink:href="#DejaVuSans-72"/>
     <use xlink:href="#DejaVuSans-65" transform="translate(38.863281 0)"/>
     <use xlink:href="#DejaVuSans-61" transform="translate(100.386719 0)"/>
     <use xlink:href="#DejaVuSans-64" transform="translate(161.666016 0)"/>
     <use xlink:href="#DejaVuSans-6f" transform="translate(225.142578 0)"/>
     <use xlink:href="#DejaVuSans-75" transform="translate(286.324219 0)"/>
     <use xlink:href="#DejaVuSans-74" transform="translate(349.703125 0)"/>
     <use xlink:href="#DejaVuSans-20" transform="translate(388.912109 0)"/>
     <use xlink:href="#DejaVuSans-69" transform="translate(420.699219 0)"/>
     <use xlink:href="#DejaVuSans-6e" transform="translate(448.482422 0)"/>
    </g>
   </g>
   <g id="patch_11">
    <path d="M 148.848733 30.927933 
C 149.563578 30.927933 150.249241 30.643922 150.754713 30.13845 
C 151.260184 29.632978 151.544195 28.947316 151.544195 28.232471 
C 151.544195 27.517626 151.260184 26.831963 150.754713 26.326491 
C 150.249241 25.821019 149.563578 25.537008 148.848733 25.537008 
C 148.133888 25.537008 147.448225 25.821019 146.942753 26.326491 
C 146.437282 26.831963 146.153271 27.517626 146.153271 28.232471 
C 146.153271 28.947316 146.437282 29.632978 146.942753 30.13845 
C 147.448225 30.643922 148.133888 30.927933 148.848733 30.927933 
z
" clip-path="url(#p9f4ceaef9c)" style="stroke: #000000; stroke-width: 1.7; stroke-linejoin: miter"/>
   </g>
   <g id="patch_12">
    <path d="M 209.945876 30.927933 
C 210.660721 30.927933 211.346384 30.643922 211.851855 30.13845 
C 212.357327 29.632978 212.641338 28.947316 212.641338 28.232471 
C 212.641338 27.517626 212.357327 26.831963 211.851855 26.326491 
C 211.346384 25.821019 210.660721 25.537008 209.945876 25.537008 
C 209.231031 25.537008 208.545368 25.821019 208.039896 26.326491 
C 207.534425 26.831963 207.250414 27.517626 207.250414 28.232471 
C 207.250414 28.947316 207.534425 29.632978 208.039896 30.13845 
C 208.545368 30.643922 209.231031 30.927933 209.945876 30.927933 
z
" clip-path="url(#p9f4ceaef9c)" style="stroke: #000000; stroke-width: 1.7; stroke-linejoin: miter"/>
   </g>
   <g id="text_9">
    <!-- Purcell filter -->
    <g transform="translate(177.097126 19.655403) scale(0.11 -0.11)">
     <defs>
      <path id="DejaVuSans-50" d="M 1259 4147 
L 1259 2394 
L 2053 2394 
Q 2494 2394 2734 2622 
Q 2975 2850 2975 3272 
Q 2975 3691 2734 3919 
Q 2494 4147 2053 4147 
L 1259 4147 
z
M 628 4666 
L 2053 4666 
Q 2838 4666 3239 4311 
Q 3641 3956 3641 3272 
Q 3641 2581 3239 2228 
Q 2838 1875 2053 1875 
L 1259 1875 
L 1259 0 
L 628 0 
L 628 4666 
z
" transform="scale(0.015625)"/>
      <path id="DejaVuSans-63" d="M 3122 3366 
L 3122 2828 
Q 2878 2963 2633 3030 
Q 2388 3097 2138 3097 
Q 1578 3097 1268 2742 
Q 959 2388 959 1747 
Q 959 1106 1268 751 
Q 1578 397 2138 397 
Q 2388 397 2633 464 
Q 2878 531 3122 666 
L 3122 134 
Q 2881 22 2623 -34 
Q 2366 -91 2075 -91 
Q 1284 -91 818 406 
Q 353 903 353 1747 
Q 353 2603 823 3093 
Q 1294 3584 2113 3584 
Q 2378 3584 2631 3529 
Q 2884 3475 3122 3366 
z
" transform="scale(0.015625)"/>
      <path id="DejaVuSans-6c" d="M 603 4863 
L 1178 4863 
L 1178 0 
L 603 0 
L 603 4863 
z
" transform="scale(0.015625)"/>
     </defs>
     <use xlink:href="#DejaVuSans-50"/>
     <use xlink:href="#DejaVuSans-75" transform="translate(58.552734 0)"/>
     <use xlink:href="#DejaVuSans-72" transform="translate(121.931641 0)"/>
     <use xlink:href="#DejaVuSans-63" transform="translate(160.794922 0)"/>
     <use xlink:href="#DejaVuSans-65" transform="translate(215.775391 0)"/>
     <use xlink:href="#DejaVuSans-6c" transform="translate(277.298828 0)"/>
     <use xlink:href="#DejaVuSans-6c" transform="translate(305.082031 0)"/>
     <use xlink:href="#DejaVuSans-20" transform="translate(332.865234 0)"/>
     <use xlink:href="#DejaVuSans-66" transform="translate(364.652344 0)"/>
     <use xlink:href="#DejaVuSans-69" transform="translate(399.857422 0)"/>
     <use xlink:href="#DejaVuSans-6c" transform="translate(427.640625 0)"/>
     <use xlink:href="#DejaVuSans-74" transform="translate(455.423828 0)"/>
     <use xlink:href="#DejaVuSans-65" transform="translate(494.632812 0)"/>
     <use xlink:href="#DejaVuSans-72" transform="translate(556.15625 0)"/>
    </g>
   </g>
   <g id="patch_13">
    <path d="M 271.043019 30.927933 
C 271.757864 30.927933 272.443527 30.643922 272.948998 30.13845 
C 273.45447 29.632978 273.738481 28.947316 273.738481 28.232471 
C 273.738481 27.517626 273.45447 26.831963 272.948998 26.326491 
C 272.443527 25.821019 271.757864 25.537008 271.043019 25.537008 
C 270.328174 25.537008 269.642511 25.821019 269.137039 26.326491 
C 268.631567 26.831963 268.347556 27.517626 268.347556 28.232471 
C 268.347556 28.947316 268.631567 29.632978 269.137039 30.13845 
C 269.642511 30.643922 270.328174 30.927933 271.043019 30.927933 
z
" clip-path="url(#p9f4ceaef9c)" style="stroke: #000000; stroke-width: 1.7; stroke-linejoin: miter"/>
   </g>
   <g id="patch_14">
    <path d="M 357.297809 30.927933 
C 358.012653 30.927933 358.698316 30.643922 359.203788 30.13845 
C 359.70926 29.632978 359.993271 28.947316 359.993271 28.232471 
C 359.993271 27.517626 359.70926 26.831963 359.203788 26.326491 
C 358.698316 25.821019 358.012653 25.537008 357.297809 25.537008 
C 356.582964 25.537008 355.897301 25.821019 355.391829 26.326491 
C 354.886357 26.831963 354.602346 27.517626 354.602346 28.232471 
C 354.602346 28.947316 354.886357 29.632978 355.391829 30.13845 
C 355.897301 30.643922 356.582964 30.927933 357.297809 30.927933 
z
" clip-path="url(#p9f4ceaef9c)" style="fill: #ffffff; stroke: #000000; stroke-width: 1.7; stroke-linejoin: miter"/>
   </g>
   <g id="text_10">
    <!-- readout out -->
    <g transform="translate(363.58722 31.267783) scale(0.11 -0.11)">
     <use xlink:href="#DejaVuSans-72"/>
     <use xlink:href="#DejaVuSans-65" transform="translate(38.863281 0)"/>
     <use xlink:href="#DejaVuSans-61" transform="translate(100.386719 0)"/>
     <use xlink:href="#DejaVuSans-64" transform="translate(161.666016 0)"/>
     <use xlink:href="#DejaVuSans-6f" transform="translate(225.142578 0)"/>
     <use xlink:href="#DejaVuSans-75" transform="translate(286.324219 0)"/>
     <use xlink:href="#DejaVuSans-74" transform="translate(349.703125 0)"/>
     <use xlink:href="#DejaVuSans-20" transform="translate(388.912109 0)"/>
     <use xlink:href="#DejaVuSans-6f" transform="translate(420.699219 0)"/>
     <use xlink:href="#DejaVuSans-75" transform="translate(481.880859 0)"/>
     <use xlink:href="#DejaVuSans-74" transform="translate(545.259766 0)"/>
    </g>
   </g>
  </g>
 </g>
 <defs>
  <clipPath id="p9f4ceaef9c">
   <rect x="1.952034" y="0" width="423.103704" height="118.8"/>
  </clipPath>
 </defs>
</svg>
