<?xml version="1.0" encoding="utf-8" standalone="no"?>
<!DOCTYPE svg PUBLIC "-//W3C//DTD SVG 1.1//EN"
  "http://www.w3.org/Graphics/SVG/1.1/DTD/svg11.dtd">
<svg xmlns:xlink="http://www.w3.org/1999/xlink" width="368.637481pt" height="114.479442pt" viewBox="0 0 368.637481 114.479442" xmlns="http://www.w3.org/2000/svg" version="1.1">
 <metadata>
  <rdf:RDF xmlns:dc="http://purl.org/dc/elements/1.1/" xmlns:cc="http://creativecommons.org/ns#" xmlns:rdf="http://www.w3.org/1999/02/22-rdf-syntax-ns#">
   <cc:Work>
    <dc:type rdf:resource="http://purl.org/dc/dcmitype/StillImage"/>
    <dc:date>2026-05-30T19:10:36.138969</dc:date>
    <dc:format>image/svg+xml</dc:format>
    <dc:creator>
     <cc:Agent>
      <dc:title>Matplotlib v3.10.8, https://matplotlib.org/</dc:title>
     </cc:Agent>
    </dc:creator>
   </cc:Work>
  </rdf:RDF>
 </metadata>
 <defs>
  <style type="text/css">*{stroke-linejoin: round; stroke-linecap: butt}</style>
 </defs>
 <g id="figure_1">
  <g id="patch_1">
   <path d="M 0 114.479442 
L 368.637481 114.479442 
L 368.637481 0 
L 0 0 
L 0 114.479442 
z
" style="fill: none"/>
  </g>
  <g id="axes_1">
   <g id="patch_2">
    <path d="M 79.687809 23.775713 
C 79.687809 22.58291 79.213464 21.437742 78.370025 20.594303 
C 77.526587 19.750864 76.381418 19.27652 75.188616 19.27652 
C 73.995813 19.27652 72.850645 19.750864 72.007206 20.594303 
C 71.163767 21.437742 70.689423 22.58291 70.689423 23.775713 
" clip-path="url(#pfef95c2664)" style="fill: none; stroke: #000000; stroke-width: 1.7; stroke-linejoin: miter"/>
   </g>
   <g id="patch_3">
    <path d="M 88.686194 23.775713 
C 88.686194 22.58291 88.21185 21.437742 87.368411 20.594303 
C 86.524972 19.750864 85.379804 19.27652 84.187001 19.27652 
C 82.994199 19.27652 81.84903 19.750864 81.005592 20.594303 
C 80.162153 21.437742 79.687809 22.58291 79.687809 23.775713 
" clip-path="url(#pfef95c2664)" style="fill: none; stroke: #000000; stroke-width: 1.7; stroke-linejoin: miter"/>
   </g>
   <g id="patch_4">
    <path d="M 97.68458 23.775713 
C 97.68458 22.58291 97.210236 21.437742 96.366797 20.594303 
C 95.523358 19.750864 94.37819 19.27652 93.185387 19.27652 
C 91.992585 19.27652 90.847416 19.750864 90.003977 20.594303 
C 89.160539 21.437742 88.686194 22.58291 88.686194 23.775713 
" clip-path="url(#pfef95c2664)" style="fill: none; stroke: #000000; stroke-width: 1.7; stroke-linejoin: miter"/>
   </g>
   <g id="patch_5">
    <path d="M 106.682966 23.775713 
C 106.682966 22.58291 106.208622 21.437742 105.365183 20.594303 
C 104.521744 19.750864 103.376576 19.27652 102.183773 19.27652 
C 100.990971 19.27652 99.845802 19.750864 99.002363 20.594303 
C 98.158924 21.437742 97.68458 22.58291 97.68458 23.775713 
" clip-path="url(#pfef95c2664)" style="fill: none; stroke: #000000; stroke-width: 1.7; stroke-linejoin: miter"/>
   </g>
   <g id="patch_6">
    <path d="M 140.876832 23.775713 
C 140.876832 22.58291 140.402488 21.437742 139.559049 20.594303 
C 138.71561 19.750864 137.570442 19.27652 136.377639 19.27652 
C 135.184837 19.27652 134.039668 19.750864 133.196229 20.594303 
C 132.352791 21.437742 131.878446 22.58291 131.878446 23.775713 
" clip-path="url(#pfef95c2664)" style="fill: none; stroke: #000000; stroke-width: 1.7; stroke-linejoin: miter"/>
   </g>
   <g id="patch_7">
    <path d="M 149.875218 23.775713 
C 149.875218 22.58291 149.400873 21.437742 148.557435 20.594303 
C 147.713996 19.750864 146.568827 19.27652 145.376025 19.27652 
C 144.183222 19.27652 143.038054 19.750864 142.194615 20.594303 
C 141.351176 21.437742 140.876832 22.58291 140.876832 23.775713 
" clip-path="url(#pfef95c2664)" style="fill: none; stroke: #000000; stroke-width: 1.7; stroke-linejoin: miter"/>
   </g>
   <g id="patch_8">
    <path d="M 158.873604 23.775713 
C 158.873604 22.58291 158.399259 21.437742 157.555821 20.594303 
C 156.712382 19.750864 155.567213 19.27652 154.374411 19.27652 
C 153.181608 19.27652 152.03644 19.750864 151.193001 20.594303 
C 150.349562 21.437742 149.875218 22.58291 149.875218 23.775713 
" clip-path="url(#pfef95c2664)" style="fill: none; stroke: #000000; stroke-width: 1.7; stroke-linejoin: miter"/>
   </g>
   <g id="patch_9">
    <path d="M 167.871989 23.775713 
C 167.871989 22.58291 167.397645 21.437742 166.554206 20.594303 
C 165.710768 19.750864 164.565599 19.27652 163.372797 19.27652 
C 162.179994 19.27652 161.034825 19.750864 160.191387 20.594303 
C 159.347948 21.437742 158.873604 22.58291 158.873604 23.775713 
" clip-path="url(#pfef95c2664)" style="fill: none; stroke: #000000; stroke-width: 1.7; stroke-linejoin: miter"/>
   </g>
   <g id="patch_10">
    <path d="M 202.065855 23.775713 
C 202.065855 22.58291 201.591511 21.437742 200.748072 20.594303 
C 199.904634 19.750864 198.759465 19.27652 197.566663 19.27652 
C 196.37386 19.27652 195.228692 19.750864 194.385253 20.594303 
C 193.541814 21.437742 193.06747 22.58291 193.06747 23.775713 
" clip-path="url(#pfef95c2664)" style="fill: none; stroke: #000000; stroke-width: 1.7; stroke-linejoin: miter"/>
   </g>
   <g id="patch_11">
    <path d="M 211.064241 23.775713 
C 211.064241 22.58291 210.589897 21.437742 209.746458 20.594303 
C 208.903019 19.750864 207.757851 19.27652 206.565048 19.27652 
C 205.372246 19.27652 204.227077 19.750864 203.383639 20.594303 
C 202.5402 21.437742 202.065855 22.58291 202.065855 23.775713 
" clip-path="url(#pfef95c2664)" style="fill: none; stroke: #000000; stroke-width: 1.7; stroke-linejoin: miter"/>
   </g>
   <g id="patch_12">
    <path d="M 220.062627 23.775713 
C 220.062627 22.58291 219.588283 21.437742 218.744844 20.594303 
C 217.901405 19.750864 216.756237 19.27652 215.563434 19.27652 
C 214.370632 19.27652 213.225463 19.750864 212.382024 20.594303 
C 211.538586 21.437742 211.064241 22.58291 211.064241 23.775713 
" clip-path="url(#pfef95c2664)" style="fill: none; stroke: #000000; stroke-width: 1.7; stroke-linejoin: miter"/>
   </g>
   <g id="patch_13">
    <path d="M 229.061013 23.775713 
C 229.061013 22.58291 228.586669 21.437742 227.74323 20.594303 
C 226.899791 19.750864 225.754623 19.27652 224.56182 19.27652 
C 223.369018 19.27652 222.223849 19.750864 221.38041 20.594303 
C 220.536971 21.437742 220.062627 22.58291 220.062627 23.775713 
" clip-path="url(#pfef95c2664)" style="fill: none; stroke: #000000; stroke-width: 1.7; stroke-linejoin: miter"/>
   </g>
   <g id="patch_14">
    <path d="M 263.254879 23.775713 
C 263.254879 22.58291 262.780535 21.437742 261.937096 20.594303 
C 261.093657 19.750864 259.948489 19.27652 258.755686 19.27652 
C 257.562884 19.27652 256.417715 19.750864 255.574276 20.594303 
C 254.730838 21.437742 254.256493 22.58291 254.256493 23.775713 
" clip-path="url(#pfef95c2664)" style="fill: none; stroke: #000000; stroke-width: 1.7; stroke-linejoin: miter"/>
   </g>
   <g id="patch_15">
    <path d="M 272.253265 23.775713 
C 272.253265 22.58291 271.77892 21.437742 270.935482 20.594303 
C 270.092043 19.750864 268.946874 19.27652 267.754072 19.27652 
C 266.561269 19.27652 265.416101 19.750864 264.572662 20.594303 
C 263.729223 21.437742 263.254879 22.58291 263.254879 23.775713 
" clip-path="url(#pfef95c2664)" style="fill: none; stroke: #000000; stroke-width: 1.7; stroke-linejoin: miter"/>
   </g>
   <g id="patch_16">
    <path d="M 281.251651 23.775713 
C 281.251651 22.58291 280.777306 21.437742 279.933868 20.594303 
C 279.090429 19.750864 277.94526 19.27652 276.752458 19.27652 
C 275.559655 19.27652 274.414487 19.750864 273.571048 20.594303 
C 272.727609 21.437742 272.253265 22.58291 272.253265 23.775713 
" clip-path="url(#pfef95c2664)" style="fill: none; stroke: #000000; stroke-width: 1.7; stroke-linejoin: miter"/>
   </g>
   <g id="patch_17">
    <path d="M 290.250036 23.775713 
C 290.250036 22.58291 289.775692 21.437742 288.932253 20.594303 
C 288.088815 19.750864 286.943646 19.27652 285.750844 19.27652 
C 284.558041 19.27652 283.412872 19.750864 282.569434 20.594303 
C 281.725995 21.437742 281.251651 22.58291 281.251651 23.775713 
" clip-path="url(#pfef95c2664)" style="fill: none; stroke: #000000; stroke-width: 1.7; stroke-linejoin: miter"/>
   </g>
   <g id="line2d_1">
    <path d="M 58.091683 23.775713 
L 70.689423 23.775713 
M 106.682966 23.775713 
L 119.280706 23.775713 
" clip-path="url(#pfef95c2664)" style="fill: none; stroke: #000000; stroke-width: 1.7; stroke-linecap: round"/>
   </g>
   <g id="line2d_2">
    <path d="M 119.280706 25.57539 
L 119.280706 52.930483 
M 128.279092 52.930483 
L 110.28232 52.930483 
M 128.279092 59.40932 
L 110.28232 59.40932 
M 119.280706 59.40932 
L 119.280706 86.764413 
" clip-path="url(#pfef95c2664)" style="fill: none; stroke: #000000; stroke-width: 1.7; stroke-linecap: round"/>
   </g>
   <g id="line2d_3">
    <path d="M 119.280706 86.764413 
L 119.280706 101.161831 
L 110.28232 101.161831 
L 128.279092 101.161831 
M 112.981836 105.481056 
L 125.579576 105.481056 
M 117.481029 109.800281 
L 121.080383 109.800281 
" clip-path="url(#pfef95c2664)" style="fill: none; stroke: #000000; stroke-width: 1.7; stroke-linecap: round"/>
   </g>
   <g id="line2d_4">
    <path d="M 119.280706 23.775713 
L 131.878446 23.775713 
M 167.871989 23.775713 
L 180.46973 23.775713 
" clip-path="url(#pfef95c2664)" style="fill: none; stroke: #000000; stroke-width: 1.7; stroke-linecap: round"/>
   </g>
   <g id="line2d_5">
    <path d="M 180.46973 25.57539 
L 180.46973 52.930483 
M 189.468115 52.930483 
L 171.471344 52.930483 
M 189.468115 59.40932 
L 171.471344 59.40932 
M 180.46973 59.40932 
L 180.46973 86.764413 
" clip-path="url(#pfef95c2664)" style="fill: none; stroke: #000000; stroke-width: 1.7; stroke-linecap: round"/>
   </g>
   <g id="line2d_6">
    <path d="M 180.46973 86.764413 
L 180.46973 101.161831 
L 171.471344 101.161831 
L 189.468115 101.161831 
M 174.170859 105.481056 
L 186.7686 105.481056 
M 178.670052 109.800281 
L 182.269407 109.800281 
" clip-path="url(#pfef95c2664)" style="fill: none; stroke: #000000; stroke-width: 1.7; stroke-linecap: round"/>
   </g>
   <g id="line2d_7">
    <path d="M 180.46973 23.775713 
L 193.06747 23.775713 
M 229.061013 23.775713 
L 241.658753 23.775713 
" clip-path="url(#pfef95c2664)" style="fill: none; stroke: #000000; stroke-width: 1.7; stroke-linecap: round"/>
   </g>
   <g id="line2d_8">
    <path d="M 241.658753 25.57539 
L 241.658753 52.930483 
M 250.657139 52.930483 
L 232.660367 52.930483 
M 250.657139 59.40932 
L 232.660367 59.40932 
M 241.658753 59.40932 
L 241.658753 86.764413 
" clip-path="url(#pfef95c2664)" style="fill: none; stroke: #000000; stroke-width: 1.7; stroke-linecap: round"/>
   </g>
   <g id="line2d_9">
    <path d="M 241.658753 86.764413 
L 241.658753 101.161831 
L 232.660367 101.161831 
L 250.657139 101.161831 
M 235.359883 105.481056 
L 247.957623 105.481056 
M 239.859076 109.800281 
L 243.45843 109.800281 
" clip-path="url(#pfef95c2664)" style="fill: none; stroke: #000000; stroke-width: 1.7; stroke-linecap: round"/>
   </g>
   <g id="line2d_10">
    <path d="M 241.658753 23.775713 
L 254.256493 23.775713 
M 290.250036 23.775713 
L 302.847777 23.775713 
" clip-path="url(#pfef95c2664)" style="fill: none; stroke: #000000; stroke-width: 1.7; stroke-linecap: round"/>
   </g>
   <g id="line2d_11">
    <path d="M 302.847777 25.57539 
L 302.847777 52.930483 
M 311.846162 52.930483 
L 293.849391 52.930483 
M 311.846162 59.40932 
L 293.849391 59.40932 
M 302.847777 59.40932 
L 302.847777 86.764413 
" clip-path="url(#pfef95c2664)" style="fill: none; stroke: #000000; stroke-width: 1.7; stroke-linecap: round"/>
   </g>
   <g id="line2d_12">
    <path d="M 302.847777 86.764413 
L 302.847777 101.161831 
L 293.849391 101.161831 
L 311.846162 101.161831 
M 296.548906 105.481056 
L 309.146647 105.481056 
M 301.048099 109.800281 
L 304.647454 109.800281 
" clip-path="url(#pfef95c2664)" style="fill: none; stroke: #000000; stroke-width: 1.7; stroke-linecap: round"/>
   </g>
   <g id="line2d_13">
    <path d="M 302.847777 23.775713 
L 311.846162 23.775713 
L 320.844548 23.775713 
" clip-path="url(#pfef95c2664)" style="fill: none; stroke: #000000; stroke-width: 1.7; stroke-linecap: round"/>
   </g>
   <g id="text_1">
    <!-- L1 -->
    <g transform="translate(82.122288 13.389531) scale(0.11 -0.11)">
     <defs>
      <path id="DejaVuSans-4c" d="M 628 4666 
L 1259 4666 
L 1259 531 
L 3531 531 
L 3531 0 
L 628 0 
L 628 4666 
z
" transform="scale(0.015625)"/>
      <path id="DejaVuSans-31" d="M 794 531 
L 1825 531 
L 1825 4091 
L 703 3866 
L 703 4441 
L 1819 4666 
L 2450 4666 
L 2450 531 
L 3481 531 
L 3481 0 
L 794 0 
L 794 531 
z
" transform="scale(0.015625)"/>
     </defs>
     <use xlink:href="#DejaVuSans-4c"/>
     <use xlink:href="#DejaVuSans-31" transform="translate(55.712891 0)"/>
    </g>
   </g>
   <g id="text_2">
    <!-- C1 -->
    <g transform="translate(111.940784 19.688379) scale(0.11 -0.11)">
     <defs>
      <path id="DejaVuSans-43" d="M 4122 4306 
L 4122 3641 
Q 3803 3938 3442 4084 
Q 3081 4231 2675 4231 
Q 1875 4231 1450 3742 
Q 1025 3253 1025 2328 
Q 1025 1406 1450 917 
Q 1875 428 2675 428 
Q 3081 428 3442 575 
Q 3803 722 4122 1019 
L 4122 359 
Q 3791 134 3420 21 
Q 3050 -91 2638 -91 
Q 1578 -91 968 557 
Q 359 1206 359 2328 
Q 359 3453 968 4101 
Q 1578 4750 2638 4750 
Q 3056 4750 3426 4639 
Q 3797 4528 4122 4306 
z
" transform="scale(0.015625)"/>
     </defs>
     <use xlink:href="#DejaVuSans-43"/>
     <use xlink:href="#DejaVuSans-31" transform="translate(69.824219 0)"/>
    </g>
   </g>
   <g id="text_3">
    <!-- L2 -->
    <g transform="translate(143.311312 13.389531) scale(0.11 -0.11)">
     <defs>
      <path id="DejaVuSans-32" d="M 1228 531 
L 3431 531 
L 3431 0 
L 469 0 
L 469 531 
Q 828 903 1448 1529 
Q 2069 2156 2228 2338 
Q 2531 2678 2651 2914 
Q 2772 3150 2772 3378 
Q 2772 3750 2511 3984 
Q 2250 4219 1831 4219 
Q 1534 4219 1204 4116 
Q 875 4013 500 3803 
L 500 4441 
Q 881 4594 1212 4672 
Q 1544 4750 1819 4750 
Q 2544 4750 2975 4387 
Q 3406 4025 3406 3419 
Q 3406 3131 3298 2873 
Q 3191 2616 2906 2266 
Q 2828 2175 2409 1742 
Q 1991 1309 1228 531 
z
" transform="scale(0.015625)"/>
     </defs>
     <use xlink:href="#DejaVuSans-4c"/>
     <use xlink:href="#DejaVuSans-32" transform="translate(55.712891 0)"/>
    </g>
   </g>
   <g id="text_4">
    <!-- C2 -->
    <g transform="translate(173.129808 19.688379) scale(0.11 -0.11)">
     <use xlink:href="#DejaVuSans-43"/>
     <use xlink:href="#DejaVuSans-32" transform="translate(69.824219 0)"/>
    </g>
   </g>
   <g id="text_5">
    <!-- L3 -->
    <g transform="translate(204.500335 13.389531) scale(0.11 -0.11)">
     <defs>
      <path id="DejaVuSans-33" d="M 2597 2516 
Q 3050 2419 3304 2112 
Q 3559 1806 3559 1356 
Q 3559 666 3084 287 
Q 2609 -91 1734 -91 
Q 1441 -91 1130 -33 
Q 819 25 488 141 
L 488 750 
Q 750 597 1062 519 
Q 1375 441 1716 441 
Q 2309 441 2620 675 
Q 2931 909 2931 1356 
Q 2931 1769 2642 2001 
Q 2353 2234 1838 2234 
L 1294 2234 
L 1294 2753 
L 1863 2753 
Q 2328 2753 2575 2939 
Q 2822 3125 2822 3475 
Q 2822 3834 2567 4026 
Q 2313 4219 1838 4219 
Q 1578 4219 1281 4162 
Q 984 4106 628 3988 
L 628 4550 
Q 988 4650 1302 4700 
Q 1616 4750 1894 4750 
Q 2613 4750 3031 4423 
Q 3450 4097 3450 3541 
Q 3450 3153 3228 2886 
Q 3006 2619 2597 2516 
z
" transform="scale(0.015625)"/>
     </defs>
     <use xlink:href="#DejaVuSans-4c"/>
     <use xlink:href="#DejaVuSans-33" transform="translate(55.712891 0)"/>
    </g>
   </g>
   <g id="text_6">
    <!-- C3 -->
    <g transform="translate(234.318831 19.688379) scale(0.11 -0.11)">
     <use xlink:href="#DejaVuSans-43"/>
     <use xlink:href="#DejaVuSans-33" transform="translate(69.824219 0)"/>
    </g>
   </g>
   <g id="text_7">
    <!-- L4 -->
    <g transform="translate(265.689359 13.389531) scale(0.11 -0.11)">
     <defs>
      <path id="DejaVuSans-34" d="M 2419 4116 
L 825 1625 
L 2419 1625 
L 2419 4116 
z
M 2253 4666 
L 3047 4666 
L 3047 1625 
L 3713 1625 
L 3713 1100 
L 3047 1100 
L 3047 0 
L 2419 0 
L 2419 1100 
L 313 1100 
L 313 1709 
L 2253 4666 
z
" transform="scale(0.015625)"/>
     </defs>
     <use xlink:href="#DejaVuSans-4c"/>
     <use xlink:href="#DejaVuSans-34" transform="translate(55.712891 0)"/>
    </g>
   </g>
   <g id="text_8">
    <!-- C4 -->
    <g transform="translate(295.507855 19.688379) scale(0.11 -0.11)">
     <use xlink:href="#DejaVuSans-43"/>
     <use xlink:href="#DejaVuSans-34" transform="translate(69.824219 0)"/>
    </g>
   </g>
   <g id="patch_18">
    <path d="M 58.091683 26.475228 
C 58.807603 26.475228 59.494297 26.19079 60.000528 25.684559 
C 60.50676 25.178327 60.791198 24.491633 60.791198 23.775713 
C 60.791198 23.059793 60.50676 22.373099 60.000528 21.866867 
C 59.494297 21.360635 58.807603 21.076197 58.091683 21.076197 
C 57.375763 21.076197 56.689069 21.360635 56.182837 21.866867 
C 55.676605 22.373099 55.392167 23.059793 55.392167 23.775713 
C 55.392167 24.491633 55.676605 25.178327 56.182837 25.684559 
C 56.689069 26.19079 57.375763 26.475228 58.091683 26.475228 
z
" clip-path="url(#pfef95c2664)" style="fill: #ffffff; stroke: #000000; stroke-width: 1.7; stroke-linejoin: miter"/>
   </g>
   <g id="text_9">
    <!-- head / P1 -->
    <g transform="translate(0 26.811025) scale(0.11 -0.11)">
     <defs>
      <path id="DejaVuSans-68" d="M 3513 2113 
L 3513 0 
L 2938 0 
L 2938 2094 
Q 2938 2591 2744 2837 
Q 2550 3084 2163 3084 
Q 1697 3084 1428 2787 
Q 1159 2491 1159 1978 
L 1159 0 
L 581 0 
L 581 4863 
L 1159 4863 
L 1159 2956 
Q 1366 3272 1645 3428 
Q 1925 3584 2291 3584 
Q 2894 3584 3203 3211 
Q 3513 2838 3513 2113 
z
" transform="scale(0.015625)"/>
      <path id="DejaVuSans-65" d="M 3597 1894 
L 3597 1613 
L 953 1613 
Q 991 1019 1311 708 
Q 1631 397 2203 397 
Q 2534 397 2845 478 
Q 3156 559 3463 722 
L 3463 178 
Q 3153 47 2828 -22 
Q 2503 -91 2169 -91 
Q 1331 -91 842 396 
Q 353 884 353 1716 
Q 353 2575 817 3079 
Q 1281 3584 2069 3584 
Q 2775 3584 3186 3129 
Q 3597 2675 3597 1894 
z
M 3022 2063 
Q 3016 2534 2758 2815 
Q 2500 3097 2075 3097 
Q 1594 3097 1305 2825 
Q 1016 2553 972 2059 
L 3022 2063 
z
" transform="scale(0.015625)"/>
      <path id="DejaVuSans-61" d="M 2194 1759 
Q 1497 1759 1228 1600 
Q 959 1441 959 1056 
Q 959 750 1161 570 
Q 1363 391 1709 391 
Q 2188 391 2477 730 
Q 2766 1069 2766 1631 
L 2766 1759 
L 2194 1759 
z
M 3341 1997 
L 3341 0 
L 2766 0 
L 2766 531 
Q 2569 213 2275 61 
Q 1981 -91 1556 -91 
Q 1019 -91 701 211 
Q 384 513 384 1019 
Q 384 1609 779 1909 
Q 1175 2209 1959 2209 
L 2766 2209 
L 2766 2266 
Q 2766 2663 2505 2880 
Q 2244 3097 1772 3097 
Q 1472 3097 1187 3025 
Q 903 2953 641 2809 
L 641 3341 
Q 956 3463 1253 3523 
Q 1550 3584 1831 3584 
Q 2591 3584 2966 3190 
Q 3341 2797 3341 1997 
z
" transform="scale(0.015625)"/>
      <path id="DejaVuSans-64" d="M 2906 2969 
L 2906 4863 
L 3481 4863 
L 3481 0 
L 2906 0 
L 2906 525 
Q 2725 213 2448 61 
Q 2172 -91 1784 -91 
Q 1150 -91 751 415 
Q 353 922 353 1747 
Q 353 2572 751 3078 
Q 1150 3584 1784 3584 
Q 2172 3584 2448 3432 
Q 2725 3281 2906 2969 
z
M 947 1747 
Q 947 1113 1208 752 
Q 1469 391 1925 391 
Q 2381 391 2643 752 
Q 2906 1113 2906 1747 
Q 2906 2381 2643 2742 
Q 2381 3103 1925 3103 
Q 1469 3103 1208 2742 
Q 947 2381 947 1747 
z
" transform="scale(0.015625)"/>
      <path id="DejaVuSans-20" transform="scale(0.015625)"/>
      <path id="DejaVuSans-2f" d="M 1625 4666 
L 2156 4666 
L 531 -594 
L 0 -594 
L 1625 4666 
z
" transform="scale(0.015625)"/>
      <path id="DejaVuSans-50" d="M 1259 4147 
L 1259 2394 
L 2053 2394 
Q 2494 2394 2734 2622 
Q 2975 2850 2975 3272 
Q 2975 3691 2734 3919 
Q 2494 4147 2053 4147 
L 1259 4147 
z
M 628 4666 
L 2053 4666 
Q 2838 4666 3239 4311 
Q 3641 3956 3641 3272 
Q 3641 2581 3239 2228 
Q 2838 1875 2053 1875 
L 1259 1875 
L 1259 0 
L 628 0 
L 628 4666 
z
" transform="scale(0.015625)"/>
     </defs>
     <use xlink:href="#DejaVuSans-68"/>
     <use xlink:href="#DejaVuSans-65" transform="translate(63.378906 0)"/>
     <use xlink:href="#DejaVuSans-61" transform="translate(124.902344 0)"/>
     <use xlink:href="#DejaVuSans-64" transform="translate(186.181641 0)"/>
     <use xlink:href="#DejaVuSans-20" transform="translate(249.658203 0)"/>
     <use xlink:href="#DejaVuSans-2f" transform="translate(281.445312 0)"/>
     <use xlink:href="#DejaVuSans-20" transform="translate(315.136719 0)"/>
     <use xlink:href="#DejaVuSans-50" transform="translate(346.923828 0)"/>
     <use xlink:href="#DejaVuSans-31" transform="translate(407.226562 0)"/>
    </g>
   </g>
   <g id="patch_19">
    <path d="M 119.280706 26.475228 
C 119.996626 26.475228 120.68332 26.19079 121.189552 25.684559 
C 121.695784 25.178327 121.980222 24.491633 121.980222 23.775713 
C 121.980222 23.059793 121.695784 22.373099 121.189552 21.866867 
C 120.68332 21.360635 119.996626 21.076197 119.280706 21.076197 
C 118.564786 21.076197 117.878092 21.360635 117.37186 21.866867 
C 116.865628 22.373099 116.58119 23.059793 116.58119 23.775713 
C 116.58119 24.491633 116.865628 25.178327 117.37186 25.684559 
C 117.878092 26.19079 118.564786 26.475228 119.280706 26.475228 
z
" clip-path="url(#pfef95c2664)" style="stroke: #000000; stroke-width: 1.7; stroke-linejoin: miter"/>
   </g>
   <g id="patch_20">
    <path d="M 180.46973 26.475228 
C 181.18565 26.475228 181.872344 26.19079 182.378575 25.684559 
C 182.884807 25.178327 183.169245 24.491633 183.169245 23.775713 
C 183.169245 23.059793 182.884807 22.373099 182.378575 21.866867 
C 181.872344 21.360635 181.18565 21.076197 180.46973 21.076197 
C 179.75381 21.076197 179.067116 21.360635 178.560884 21.866867 
C 178.054652 22.373099 177.770214 23.059793 177.770214 23.775713 
C 177.770214 24.491633 178.054652 25.178327 178.560884 25.684559 
C 179.067116 26.19079 179.75381 26.475228 180.46973 26.475228 
z
" clip-path="url(#pfef95c2664)" style="stroke: #000000; stroke-width: 1.7; stroke-linejoin: miter"/>
   </g>
   <g id="patch_21">
    <path d="M 241.658753 26.475228 
C 242.374673 26.475228 243.061367 26.19079 243.567599 25.684559 
C 244.073831 25.178327 244.358269 24.491633 244.358269 23.775713 
C 244.358269 23.059793 244.073831 22.373099 243.567599 21.866867 
C 243.061367 21.360635 242.374673 21.076197 241.658753 21.076197 
C 240.942833 21.076197 240.256139 21.360635 239.749907 21.866867 
C 239.243675 22.373099 238.959237 23.059793 238.959237 23.775713 
C 238.959237 24.491633 239.243675 25.178327 239.749907 25.684559 
C 240.256139 26.19079 240.942833 26.475228 241.658753 26.475228 
z
" clip-path="url(#pfef95c2664)" style="stroke: #000000; stroke-width: 1.7; stroke-linejoin: miter"/>
   </g>
   <g id="patch_22">
    <path d="M 302.847777 26.475228 
C 303.563696 26.475228 304.250391 26.19079 304.756622 25.684559 
C 305.262854 25.178327 305.547292 24.491633 305.547292 23.775713 
C 305.547292 23.059793 305.262854 22.373099 304.756622 21.866867 
C 304.250391 21.360635 303.563696 21.076197 302.847777 21.076197 
C 302.131857 21.076197 301.445163 21.360635 300.938931 21.866867 
C 300.432699 22.373099 300.148261 23.059793 300.148261 23.775713 
C 300.148261 24.491633 300.432699 25.178327 300.938931 25.684559 
C 301.445163 26.19079 302.131857 26.475228 302.847777 26.475228 
z
" clip-path="url(#pfef95c2664)" style="stroke: #000000; stroke-width: 1.7; stroke-linejoin: miter"/>
   </g>
   <g id="patch_23">
    <path d="M 320.844548 26.475228 
C 321.560468 26.475228 322.247162 26.19079 322.753394 25.684559 
C 323.259626 25.178327 323.544064 24.491633 323.544064 23.775713 
C 323.544064 23.059793 323.259626 22.373099 322.753394 21.866867 
C 322.247162 21.360635 321.560468 21.076197 320.844548 21.076197 
C 320.128628 21.076197 319.441934 21.360635 318.935702 21.866867 
C 318.42947 22.373099 318.145032 23.059793 318.145032 23.775713 
C 318.145032 24.491633 318.42947 25.178327 318.935702 25.684559 
C 319.441934 26.19079 320.128628 26.475228 320.844548 26.475228 
z
" clip-path="url(#pfef95c2664)" style="fill: #ffffff; stroke: #000000; stroke-width: 1.7; stroke-linejoin: miter"/>
   </g>
   <g id="text_10">
    <!-- tail / P2 -->
    <g transform="translate(327.143418 26.811025) scale(0.11 -0.11)">
     <defs>
      <path id="DejaVuSans-74" d="M 1172 4494 
L 1172 3500 
L 2356 3500 
L 2356 3053 
L 1172 3053 
L 1172 1153 
Q 1172 725 1289 603 
Q 1406 481 1766 481 
L 2356 481 
L 2356 0 
L 1766 0 
Q 1100 0 847 248 
Q 594 497 594 1153 
L 594 3053 
L 172 3053 
L 172 3500 
L 594 3500 
L 594 4494 
L 1172 4494 
z
" transform="scale(0.015625)"/>
      <path id="DejaVuSans-69" d="M 603 3500 
L 1178 3500 
L 1178 0 
L 603 0 
L 603 3500 
z
M 603 4863 
L 1178 4863 
L 1178 4134 
L 603 4134 
L 603 4863 
z
" transform="scale(0.015625)"/>
      <path id="DejaVuSans-6c" d="M 603 4863 
L 1178 4863 
L 1178 0 
L 603 0 
L 603 4863 
z
" transform="scale(0.015625)"/>
     </defs>
     <use xlink:href="#DejaVuSans-74"/>
     <use xlink:href="#DejaVuSans-61" transform="translate(39.208984 0)"/>
     <use xlink:href="#DejaVuSans-69" transform="translate(100.488281 0)"/>
     <use xlink:href="#DejaVuSans-6c" transform="translate(128.271484 0)"/>
     <use xlink:href="#DejaVuSans-20" transform="translate(156.054688 0)"/>
     <use xlink:href="#DejaVuSans-2f" transform="translate(187.841797 0)"/>
     <use xlink:href="#DejaVuSans-20" transform="translate(221.533203 0)"/>
     <use xlink:href="#DejaVuSans-50" transform="translate(253.320312 0)"/>
     <use xlink:href="#DejaVuSans-32" transform="translate(313.623047 0)"/>
    </g>
   </g>
  </g>
 </g>
 <defs>
  <clipPath id="pfef95c2664">
   <rect x="0.196068" y="-0" width="367.92" height="114.479442"/>
  </clipPath>
 </defs>
</svg>
