<?xml version="1.0" encoding="utf-8" standalone="no"?>
<!DOCTYPE svg PUBLIC "-//W3C//DTD SVG 1.1//EN"
  "http://www.w3.org/Graphics/SVG/1.1/DTD/svg11.dtd">
<svg xmlns:xlink="http://www.w3.org/1999/xlink" width="314.874pt" height="150.8pt" viewBox="0 0 314.874 150.8" xmlns="http://www.w3.org/2000/svg" version="1.1">
 <metadata>
  <rdf:RDF xmlns:dc="http://purl.org/dc/elements/1.1/" xmlns:cc="http://creativecommons.org/ns#" xmlns:rdf="http://www.w3.org/1999/02/22-rdf-syntax-ns#">
   <cc:Work>
    <dc:type rdf:resource="http://purl.org/dc/dcmitype/StillImage"/>
    <dc:date>normalized</dc:date>
    <dc:format>image/svg+xml</dc:format>
    <dc:creator>
     <cc:Agent>
      <dc:title>Matplotlib v3.10.9, https://matplotlib.org/</dc:title>
     </cc:Agent>
    </dc:creator>
   </cc:Work>
  </rdf:RDF>
 </metadata>
 <defs>
  <style type="text/css">*{stroke-linejoin: round; stroke-linecap: butt}</style>
 </defs>
 <g id="figure_1">
  <g id="patch_1">
   <path d="M 0 150.8
L 314.874 150.8
L 314.874 0
L 0 0
L 0 150.8
z
" style="fill: none"/>
  </g>
  <g id="axes_1">
   <g id="patch_2">
    <path d="M 140.406 31.28
L 140.406 77.18
M 149.406 68.18
L 149.406 68.18
L 131.406 86.18
M 149.406 86.18
L 149.406 86.18
L 131.406 68.18
M 140.406 77.18
L 140.406 77.18
L 140.406 123.08
L 140.406 31.28
" clip-path="url(#pNORMALIZED)" style="fill: none"/>
   </g>
   <g id="line2d_1">
    <path d="M 245.976 31.28
L 266.631 31.28
L 287.286 31.28
" clip-path="url(#pNORMALIZED)" style="fill: none; stroke: #111827; stroke-width: 2; stroke-linecap: round"/>
   </g>
   <g id="line2d_2">
    <path d="M 245.976 31.28
L 245.976 59.18
L 254.976 62.18
L 236.976 68.18
L 254.976 74.18
L 236.976 80.18
L 254.976 86.18
L 236.976 92.18
L 245.976 95.18
L 245.976 123.08
" clip-path="url(#pNORMALIZED)" style="fill: none; stroke: #111827; stroke-width: 2; stroke-linecap: round"/>
   </g>
   <g id="line2d_3">
    <path d="M 245.976 123.08
L 245.976 137.48
L 236.976 137.48
L 254.976 137.48
M 239.676 141.8
L 252.276 141.8
M 244.176 146.12
L 247.776 146.12
" clip-path="url(#pNORMALIZED)" style="fill: none; stroke: #111827; stroke-width: 2; stroke-linecap: round"/>
   </g>
   <g id="line2d_4">
    <path d="M 140.406 31.28
L 189.951 31.28
M 189.951 22.28
L 189.951 40.28
M 196.431 22.28
L 196.431 40.28
M 196.431 31.28
L 245.976 31.28
" clip-path="url(#pNORMALIZED)" style="fill: none; stroke: #111827; stroke-width: 2; stroke-linecap: round"/>
   </g>
   <g id="line2d_5">
    <path d="M 34.836 31.28
L 87.621 31.28
L 140.406 31.28
" clip-path="url(#pNORMALIZED)" style="fill: none; stroke: #111827; stroke-width: 2; stroke-linecap: round"/>
   </g>
   <g id="line2d_6">
    <path d="M 34.836 31.28
L 34.836 73.94
M 43.836 73.94
L 25.836 73.94
M 43.836 80.42
L 25.836 80.42
M 34.836 80.42
L 34.836 123.08
" clip-path="url(#pNORMALIZED)" style="fill: none; stroke: #111827; stroke-width: 2; stroke-linecap: round"/>
   </g>
   <g id="line2d_7">
    <path d="M 140.406 31.28
L 140.406 77.18
M 149.406 68.18
L 131.406 86.18
M 149.406 86.18
L 131.406 68.18
M 140.406 77.18
L 140.406 123.08
" clip-path="url(#pNORMALIZED)" style="fill: none; stroke: #111827; stroke-width: 2; stroke-linecap: round"/>
   </g>
   <g id="line2d_8">
    <path d="M 34.836 123.08
L 87.621 123.08
L 140.406 123.08
" clip-path="url(#pNORMALIZED)" style="fill: none; stroke: #111827; stroke-width: 2; stroke-linecap: round"/>
   </g>
   <g id="line2d_9">
    <path d="M 87.621 123.08
L 87.621 137.48
L 78.621 137.48
L 96.621 137.48
M 81.321 141.8
L 93.921 141.8
M 85.821 146.12
L 89.421 146.12
" clip-path="url(#pNORMALIZED)" style="fill: none; stroke: #111827; stroke-width: 2; stroke-linecap: round"/>
   </g>
   <g id="text_1">
    <!-- $R_{50}$ -->
    <g style="fill: #111827" transform="translate(258.576 81.043125) scale(0.14 -0.14)">
     <defs>
      <path id="DejaVuSans-Oblique-52" d="M 1613 4147
L 1294 2491
L 2106 2491
Q 2584 2491 2879 2755
Q 3175 3019 3175 3444
Q 3175 3784 2976 3965
Q 2778 4147 2406 4147
L 1613 4147
z
M 2772 2241
Q 2972 2194 3105 2009
Q 3238 1825 3413 1275
L 3809 0
L 3144 0
L 2778 1197
Q 2638 1659 2453 1815
Q 2269 1972 1888 1972
L 1191 1972
L 806 0
L 172 0
L 1081 4666
L 2503 4666
Q 3150 4666 3495 4373
Q 3841 4081 3841 3531
Q 3841 3044 3547 2687
Q 3253 2331 2772 2241
z
" transform="scale(0.015625)"/>
      <path id="DejaVuSans-35" d="M 691 4666
L 3169 4666
L 3169 4134
L 1269 4134
L 1269 2991
Q 1406 3038 1543 3061
Q 1681 3084 1819 3084
Q 2600 3084 3056 2656
Q 3513 2228 3513 1497
Q 3513 744 3044 326
Q 2575 -91 1722 -91
Q 1428 -91 1123 -41
Q 819 9 494 109
L 494 744
Q 775 591 1075 516
Q 1375 441 1709 441
Q 2250 441 2565 725
Q 2881 1009 2881 1497
Q 2881 1984 2565 2268
Q 2250 2553 1709 2553
Q 1456 2553 1204 2497
Q 953 2441 691 2322
L 691 4666
z
" transform="scale(0.015625)"/>
      <path id="DejaVuSans-30" d="M 2034 4250
Q 1547 4250 1301 3770
Q 1056 3291 1056 2328
Q 1056 1369 1301 889
Q 1547 409 2034 409
Q 2525 409 2770 889
Q 3016 1369 3016 2328
Q 3016 3291 2770 3770
Q 2525 4250 2034 4250
z
M 2034 4750
Q 2819 4750 3233 4129
Q 3647 3509 3647 2328
Q 3647 1150 3233 529
Q 2819 -91 2034 -91
Q 1250 -91 836 529
Q 422 1150 422 2328
Q 422 3509 836 4129
Q 1250 4750 2034 4750
z
" transform="scale(0.015625)"/>
     </defs>
     <use xlink:href="#DejaVuSans-Oblique-52" transform="translate(0 0.09375)"/>
     <use xlink:href="#DejaVuSans-35" transform="translate(69.482422 -16.3125) scale(0.7)"/>
     <use xlink:href="#DejaVuSans-30" transform="translate(114.018555 -16.3125) scale(0.7)"/>
    </g>
   </g>
   <g id="text_2">
    <!-- $C_c$ -->
    <g style="fill: #111827" transform="translate(185.351 15.768437) scale(0.14 -0.14)">
     <defs>
      <path id="DejaVuSans-Oblique-43" d="M 4447 4306
L 4319 3641
Q 4019 3944 3683 4091
Q 3347 4238 2956 4238
Q 2422 4238 2017 3981
Q 1613 3725 1319 3200
Q 1131 2863 1032 2486
Q 934 2109 934 1728
Q 934 1091 1264 756
Q 1594 422 2222 422
Q 2656 422 3056 561
Q 3456 700 3834 978
L 3688 231
Q 3316 72 2936 -9
Q 2556 -91 2175 -91
Q 1278 -91 773 396
Q 269 884 269 1753
Q 269 2309 461 2846
Q 653 3384 1013 3828
Q 1394 4300 1883 4525
Q 2372 4750 3022 4750
Q 3422 4750 3780 4639
Q 4138 4528 4447 4306
z
" transform="scale(0.015625)"/>
      <path id="DejaVuSans-Oblique-63" d="M 3431 3366
L 3316 2797
Q 3109 2947 2876 3022
Q 2644 3097 2394 3097
Q 2119 3097 1870 3000
Q 1622 2903 1453 2725
Q 1184 2453 1037 2087
Q 891 1722 891 1331
Q 891 859 1127 628
Q 1363 397 1844 397
Q 2081 397 2348 469
Q 2616 541 2906 684
L 2797 116
Q 2547 13 2283 -39
Q 2019 -91 1741 -91
Q 1044 -91 669 257
Q 294 606 294 1253
Q 294 1797 489 2255
Q 684 2713 1069 3078
Q 1331 3328 1684 3456
Q 2038 3584 2456 3584
Q 2700 3584 2940 3529
Q 3181 3475 3431 3366
z
" transform="scale(0.015625)"/>
     </defs>
     <use xlink:href="#DejaVuSans-Oblique-43" transform="translate(0 0.78125)"/>
     <use xlink:href="#DejaVuSans-Oblique-63" transform="translate(69.824219 -15.625) scale(0.7)"/>
    </g>
   </g>
   <g id="text_3">
    <!-- $C_r$ -->
    <g style="fill: #111827" transform="translate(7.956 81.043125) scale(0.14 -0.14)">
     <defs>
      <path id="DejaVuSans-Oblique-72" d="M 2853 2969
Q 2766 3016 2653 3041
Q 2541 3066 2413 3066
Q 1953 3066 1609 2717
Q 1266 2369 1153 1784
L 800 0
L 225 0
L 909 3500
L 1484 3500
L 1375 2956
Q 1603 3259 1920 3421
Q 2238 3584 2597 3584
Q 2691 3584 2781 3573
Q 2872 3563 2963 3538
L 2853 2969
z
" transform="scale(0.015625)"/>
     </defs>
     <use xlink:href="#DejaVuSans-Oblique-43" transform="translate(0 0.78125)"/>
     <use xlink:href="#DejaVuSans-Oblique-72" transform="translate(69.824219 -15.625) scale(0.7)"/>
    </g>
   </g>
   <g id="text_4">
    <!-- $JJ$ -->
    <g style="fill: #111827" transform="translate(153.006 81.014687) scale(0.14 -0.14)">
     <defs>
      <path id="DejaVuSans-Oblique-4a" d="M 1069 4666
L 1703 4666
L 856 325
Q 691 -522 298 -901
Q -94 -1281 -800 -1281
L -1050 -1281
L -947 -750
L -750 -750
Q -328 -750 -109 -509
Q 109 -269 225 325
L 1069 4666
z
" transform="scale(0.015625)"/>
     </defs>
     <use xlink:href="#DejaVuSans-Oblique-4a" transform="translate(0 0.09375)"/>
     <use xlink:href="#DejaVuSans-Oblique-4a" transform="translate(29.492188 0.09375)"/>
    </g>
   </g>
   <g id="patch_3">
    <path d="M 287.286 34.88
C 288.240731 34.88 289.156488 34.500681 289.831584 33.825584
C 290.506681 33.150488 290.886 32.234731 290.886 31.28
C 290.886 30.325269 290.506681 29.409512 289.831584 28.734416
C 289.156488 28.059319 288.240731 27.68 287.286 27.68
C 286.331269 27.68 285.415512 28.059319 284.740416 28.734416
C 284.065319 29.409512 283.686 30.325269 283.686 31.28
C 283.686 32.234731 284.065319 33.150488 284.740416 33.825584
C 285.415512 34.500681 286.331269 34.88 287.286 34.88
z
" clip-path="url(#pNORMALIZED)" style="fill: #ffffff; stroke: #111827; stroke-width: 2; stroke-linejoin: miter"/>
   </g>
   <g id="text_5">
    <!-- $P_1$ -->
    <g style="fill: #111827" transform="translate(294.486 35.143125) scale(0.14 -0.14)">
     <defs>
      <path id="DejaVuSans-Oblique-50" d="M 1081 4666
L 2541 4666
Q 3178 4666 3512 4369
Q 3847 4072 3847 3500
Q 3847 2731 3353 2303
Q 2859 1875 1966 1875
L 1172 1875
L 806 0
L 172 0
L 1081 4666
z
M 1613 4147
L 1275 2394
L 2069 2394
Q 2606 2394 2893 2669
Q 3181 2944 3181 3456
Q 3181 3784 2986 3965
Q 2791 4147 2438 4147
L 1613 4147
z
" transform="scale(0.015625)"/>
      <path id="DejaVuSans-31" d="M 794 531
L 1825 531
L 1825 4091
L 703 3866
L 703 4441
L 1819 4666
L 2450 4666
L 2450 531
L 3481 531
L 3481 0
L 794 0
L 794 531
z
" transform="scale(0.015625)"/>
     </defs>
     <use xlink:href="#DejaVuSans-Oblique-50" transform="translate(0 0.09375)"/>
     <use xlink:href="#DejaVuSans-31" transform="translate(60.302734 -16.3125) scale(0.7)"/>
    </g>
   </g>
   <g id="patch_4">
    <path d="M 245.976 34.88
C 246.930731 34.88 247.846488 34.500681 248.521584 33.825584
C 249.196681 33.150488 249.576 32.234731 249.576 31.28
C 249.576 30.325269 249.196681 29.409512 248.521584 28.734416
C 247.846488 28.059319 246.930731 27.68 245.976 27.68
C 245.021269 27.68 244.105512 28.059319 243.430416 28.734416
C 242.755319 29.409512 242.376 30.325269 242.376 31.28
C 242.376 32.234731 242.755319 33.150488 243.430416 33.825584
C 244.105512 34.500681 245.021269 34.88 245.976 34.88
z
" clip-path="url(#pNORMALIZED)" style="fill: #111827; stroke: #111827; stroke-width: 2; stroke-linejoin: miter"/>
   </g>
   <g id="patch_5">
    <path d="M 34.836 34.88
C 35.790731 34.88 36.706488 34.500681 37.381584 33.825584
C 38.056681 33.150488 38.436 32.234731 38.436 31.28
C 38.436 30.325269 38.056681 29.409512 37.381584 28.734416
C 36.706488 28.059319 35.790731 27.68 34.836 27.68
C 33.881269 27.68 32.965512 28.059319 32.290416 28.734416
C 31.615319 29.409512 31.236 30.325269 31.236 31.28
C 31.236 32.234731 31.615319 33.150488 32.290416 33.825584
C 32.965512 34.500681 33.881269 34.88 34.836 34.88
z
" clip-path="url(#pNORMALIZED)" style="fill: #111827; stroke: #111827; stroke-width: 2; stroke-linejoin: miter"/>
   </g>
   <g id="patch_6">
    <path d="M 140.406 34.88
C 141.360731 34.88 142.276488 34.500681 142.951584 33.825584
C 143.626681 33.150488 144.006 32.234731 144.006 31.28
C 144.006 30.325269 143.626681 29.409512 142.951584 28.734416
C 142.276488 28.059319 141.360731 27.68 140.406 27.68
C 139.451269 27.68 138.535512 28.059319 137.860416 28.734416
C 137.185319 29.409512 136.806 30.325269 136.806 31.28
C 136.806 32.234731 137.185319 33.150488 137.860416 33.825584
C 138.535512 34.500681 139.451269 34.88 140.406 34.88
z
" clip-path="url(#pNORMALIZED)" style="fill: #111827; stroke: #111827; stroke-width: 2; stroke-linejoin: miter"/>
   </g>
  </g>
 </g>
 <defs>
  <clipPath id="pNORMALIZED">
   <rect x="0" y="0" width="314.874" height="150.8"/>
  </clipPath>
 </defs>
</svg>
