<?xml version="1.0" encoding="utf-8" standalone="no"?>
<!DOCTYPE svg PUBLIC "-//W3C//DTD SVG 1.1//EN"
  "http://www.w3.org/Graphics/SVG/1.1/DTD/svg11.dtd">
<svg xmlns:xlink="http://www.w3.org/1999/xlink" width="292.73625pt" height="150.8pt" viewBox="0 0 292.73625 150.8" xmlns="http://www.w3.org/2000/svg" version="1.1">
 <metadata>
  <rdf:RDF xmlns:dc="http://purl.org/dc/elements/1.1/" xmlns:cc="http://creativecommons.org/ns#" xmlns:rdf="http://www.w3.org/1999/02/22-rdf-syntax-ns#">
   <cc:Work>
    <dc:type rdf:resource="http://purl.org/dc/dcmitype/StillImage"/>
    <dc:date>normalized</dc:date>
    <dc:format>image/svg+xml</dc:format>
    <dc:creator>
     <cc:Agent>
      <dc:title>Matplotlib v3.10.9, https://matplotlib.org/</dc:title>
     </cc:Agent>
    </dc:creator>
   </cc:Work>
  </rdf:RDF>
 </metadata>
 <defs>
  <style type="text/css">*{stroke-linejoin: round; stroke-linecap: butt}</style>
 </defs>
 <g id="figure_1">
  <g id="patch_1">
   <path d="M 0 150.8
L 292.73625 150.8
L 292.73625 0
L 0 0
L 0 150.8
z
" style="fill: none"/>
  </g>
  <g id="axes_1">
   <g id="patch_2">
    <path d="M 261.17625 31.28
L 261.17625 77.18
M 270.17625 68.18
L 270.17625 68.18
L 252.17625 86.18
M 270.17625 86.18
L 270.17625 86.18
L 252.17625 68.18
M 261.17625 77.18
L 261.17625 77.18
L 261.17625 123.08
L 261.17625 31.28
" clip-path="url(#pNORMALIZED)" style="fill: none"/>
   </g>
   <g id="line2d_1">
    <path d="M 26.85675 31.28
L 47.51175 31.28
L 68.16675 31.28
" clip-path="url(#pNORMALIZED)" style="fill: none; stroke: #f8fafc; stroke-width: 2; stroke-linecap: round"/>
   </g>
   <g id="line2d_2">
    <path d="M 68.16675 31.28
L 131.48175 31.28
M 131.48175 22.28
L 131.48175 40.28
M 137.96175 22.28
L 137.96175 40.28
M 137.96175 31.28
L 201.27675 31.28
" clip-path="url(#pNORMALIZED)" style="fill: none; stroke: #f8fafc; stroke-width: 2; stroke-linecap: round"/>
   </g>
   <g id="line2d_3">
    <path d="M 201.27675 31.28
L 231.2265 31.28
L 261.17625 31.28
" clip-path="url(#pNORMALIZED)" style="fill: none; stroke: #f8fafc; stroke-width: 2; stroke-linecap: round"/>
   </g>
   <g id="line2d_4">
    <path d="M 201.27675 31.28
L 201.27675 73.94
M 210.27675 73.94
L 192.27675 73.94
M 210.27675 80.42
L 192.27675 80.42
M 201.27675 80.42
L 201.27675 123.08
" clip-path="url(#pNORMALIZED)" style="fill: none; stroke: #f8fafc; stroke-width: 2; stroke-linecap: round"/>
   </g>
   <g id="line2d_5">
    <path d="M 261.17625 31.28
L 261.17625 77.18
M 270.17625 68.18
L 252.17625 86.18
M 270.17625 86.18
L 252.17625 68.18
M 261.17625 77.18
L 261.17625 123.08
" clip-path="url(#pNORMALIZED)" style="fill: none; stroke: #f8fafc; stroke-width: 2; stroke-linecap: round"/>
   </g>
   <g id="line2d_6">
    <path d="M 201.27675 123.08
L 231.2265 123.08
L 261.17625 123.08
" clip-path="url(#pNORMALIZED)" style="fill: none; stroke: #f8fafc; stroke-width: 2; stroke-linecap: round"/>
   </g>
   <g id="line2d_7">
    <path d="M 231.2265 123.08
L 231.2265 137.48
L 222.2265 137.48
L 240.2265 137.48
M 224.9265 141.8
L 237.5265 141.8
M 229.4265 146.12
L 233.0265 146.12
" clip-path="url(#pNORMALIZED)" style="fill: none; stroke: #f8fafc; stroke-width: 2; stroke-linecap: round"/>
   </g>
   <g id="text_1">
    <!-- $C_c$ -->
    <g style="fill: #f8fafc" transform="translate(126.88175 15.768437) scale(0.14 -0.14)">
     <defs>
      <path id="DejaVuSans-Oblique-43" d="M 4447 4306
L 4319 3641
Q 4019 3944 3683 4091
Q 3347 4238 2956 4238
Q 2422 4238 2017 3981
Q 1613 3725 1319 3200
Q 1131 2863 1032 2486
Q 934 2109 934 1728
Q 934 1091 1264 756
Q 1594 422 2222 422
Q 2656 422 3056 561
Q 3456 700 3834 978
L 3688 231
Q 3316 72 2936 -9
Q 2556 -91 2175 -91
Q 1278 -91 773 396
Q 269 884 269 1753
Q 269 2309 461 2846
Q 653 3384 1013 3828
Q 1394 4300 1883 4525
Q 2372 4750 3022 4750
Q 3422 4750 3780 4639
Q 4138 4528 4447 4306
z
" transform="scale(0.015625)"/>
      <path id="DejaVuSans-Oblique-63" d="M 3431 3366
L 3316 2797
Q 3109 2947 2876 3022
Q 2644 3097 2394 3097
Q 2119 3097 1870 3000
Q 1622 2903 1453 2725
Q 1184 2453 1037 2087
Q 891 1722 891 1331
Q 891 859 1127 628
Q 1363 397 1844 397
Q 2081 397 2348 469
Q 2616 541 2906 684
L 2797 116
Q 2547 13 2283 -39
Q 2019 -91 1741 -91
Q 1044 -91 669 257
Q 294 606 294 1253
Q 294 1797 489 2255
Q 684 2713 1069 3078
Q 1331 3328 1684 3456
Q 2038 3584 2456 3584
Q 2700 3584 2940 3529
Q 3181 3475 3431 3366
z
" transform="scale(0.015625)"/>
     </defs>
     <use xlink:href="#DejaVuSans-Oblique-43" transform="translate(0 0.78125)"/>
     <use xlink:href="#DejaVuSans-Oblique-63" transform="translate(69.824219 -15.625) scale(0.7)"/>
    </g>
   </g>
   <g id="text_2">
    <!-- $C_{\mathrm{res}}$ -->
    <g style="fill: #f8fafc" transform="translate(163.33675 81.043125) scale(0.14 -0.14)">
     <defs>
      <path id="DejaVuSans-72" d="M 2631 2963
Q 2534 3019 2420 3045
Q 2306 3072 2169 3072
Q 1681 3072 1420 2755
Q 1159 2438 1159 1844
L 1159 0
L 581 0
L 581 3500
L 1159 3500
L 1159 2956
Q 1341 3275 1631 3429
Q 1922 3584 2338 3584
Q 2397 3584 2469 3576
Q 2541 3569 2628 3553
L 2631 2963
z
" transform="scale(0.015625)"/>
      <path id="DejaVuSans-65" d="M 3597 1894
L 3597 1613
L 953 1613
Q 991 1019 1311 708
Q 1631 397 2203 397
Q 2534 397 2845 478
Q 3156 559 3463 722
L 3463 178
Q 3153 47 2828 -22
Q 2503 -91 2169 -91
Q 1331 -91 842 396
Q 353 884 353 1716
Q 353 2575 817 3079
Q 1281 3584 2069 3584
Q 2775 3584 3186 3129
Q 3597 2675 3597 1894
z
M 3022 2063
Q 3016 2534 2758 2815
Q 2500 3097 2075 3097
Q 1594 3097 1305 2825
Q 1016 2553 972 2059
L 3022 2063
z
" transform="scale(0.015625)"/>
      <path id="DejaVuSans-73" d="M 2834 3397
L 2834 2853
Q 2591 2978 2328 3040
Q 2066 3103 1784 3103
Q 1356 3103 1142 2972
Q 928 2841 928 2578
Q 928 2378 1081 2264
Q 1234 2150 1697 2047
L 1894 2003
Q 2506 1872 2764 1633
Q 3022 1394 3022 966
Q 3022 478 2636 193
Q 2250 -91 1575 -91
Q 1294 -91 989 -36
Q 684 19 347 128
L 347 722
Q 666 556 975 473
Q 1284 391 1588 391
Q 1994 391 2212 530
Q 2431 669 2431 922
Q 2431 1156 2273 1281
Q 2116 1406 1581 1522
L 1381 1569
Q 847 1681 609 1914
Q 372 2147 372 2553
Q 372 3047 722 3315
Q 1072 3584 1716 3584
Q 2034 3584 2315 3537
Q 2597 3491 2834 3397
z
" transform="scale(0.015625)"/>
     </defs>
     <use xlink:href="#DejaVuSans-Oblique-43" transform="translate(0 0.78125)"/>
     <use xlink:href="#DejaVuSans-72" transform="translate(69.824219 -15.625) scale(0.7)"/>
     <use xlink:href="#DejaVuSans-65" transform="translate(98.603516 -15.625) scale(0.7)"/>
     <use xlink:href="#DejaVuSans-73" transform="translate(141.669922 -15.625) scale(0.7)"/>
    </g>
   </g>
   <g id="text_3">
    <!-- $JJ$ -->
    <g style="fill: #f8fafc" transform="translate(273.77625 81.014687) scale(0.14 -0.14)">
     <defs>
      <path id="DejaVuSans-Oblique-4a" d="M 1069 4666
L 1703 4666
L 856 325
Q 691 -522 298 -901
Q -94 -1281 -800 -1281
L -1050 -1281
L -947 -750
L -750 -750
Q -328 -750 -109 -509
Q 109 -269 225 325
L 1069 4666
z
" transform="scale(0.015625)"/>
     </defs>
     <use xlink:href="#DejaVuSans-Oblique-4a" transform="translate(0 0.09375)"/>
     <use xlink:href="#DejaVuSans-Oblique-4a" transform="translate(29.492188 0.09375)"/>
    </g>
   </g>
   <g id="patch_3">
    <path d="M 26.85675 34.14875
C 27.617551 34.14875 28.347295 33.84648 28.885263 33.308513
C 29.42323 32.770545 29.7255 32.040801 29.7255 31.28
C 29.7255 30.519199 29.42323 29.789455 28.885263 29.251487
C 28.347295 28.71352 27.617551 28.41125 26.85675 28.41125
C 26.095949 28.41125 25.366205 28.71352 24.828237 29.251487
C 24.29027 29.789455 23.988 30.519199 23.988 31.28
C 23.988 32.040801 24.29027 32.770545 24.828237 33.308513
C 25.366205 33.84648 26.095949 34.14875 26.85675 34.14875
z
" clip-path="url(#pNORMALIZED)" style="fill: #ffffff; stroke: #f8fafc; stroke-width: 2; stroke-linejoin: miter"/>
   </g>
   <g id="text_4">
    <!-- $P_1$ -->
    <g style="fill: #f8fafc" transform="translate(5.268 35.143125) scale(0.14 -0.14)">
     <defs>
      <path id="DejaVuSans-Oblique-50" d="M 1081 4666
L 2541 4666
Q 3178 4666 3512 4369
Q 3847 4072 3847 3500
Q 3847 2731 3353 2303
Q 2859 1875 1966 1875
L 1172 1875
L 806 0
L 172 0
L 1081 4666
z
M 1613 4147
L 1275 2394
L 2069 2394
Q 2606 2394 2893 2669
Q 3181 2944 3181 3456
Q 3181 3784 2986 3965
Q 2791 4147 2438 4147
L 1613 4147
z
" transform="scale(0.015625)"/>
      <path id="DejaVuSans-31" d="M 794 531
L 1825 531
L 1825 4091
L 703 3866
L 703 4441
L 1819 4666
L 2450 4666
L 2450 531
L 3481 531
L 3481 0
L 794 0
L 794 531
z
" transform="scale(0.015625)"/>
     </defs>
     <use xlink:href="#DejaVuSans-Oblique-50" transform="translate(0 0.09375)"/>
     <use xlink:href="#DejaVuSans-31" transform="translate(60.302734 -16.3125) scale(0.7)"/>
    </g>
   </g>
   <g id="patch_4">
    <path d="M 201.27675 34.14875
C 202.037551 34.14875 202.767295 33.84648 203.305263 33.308513
C 203.84323 32.770545 204.1455 32.040801 204.1455 31.28
C 204.1455 30.519199 203.84323 29.789455 203.305263 29.251487
C 202.767295 28.71352 202.037551 28.41125 201.27675 28.41125
C 200.515949 28.41125 199.786205 28.71352 199.248237 29.251487
C 198.71027 29.789455 198.408 30.519199 198.408 31.28
C 198.408 32.040801 198.71027 32.770545 199.248237 33.308513
C 199.786205 33.84648 200.515949 34.14875 201.27675 34.14875
z
" clip-path="url(#pNORMALIZED)" style="fill: #f8fafc; stroke: #f8fafc; stroke-width: 2; stroke-linejoin: miter"/>
   </g>
   <g id="patch_5">
    <path d="M 261.17625 34.14875
C 261.937051 34.14875 262.666795 33.84648 263.204763 33.308513
C 263.74273 32.770545 264.045 32.040801 264.045 31.28
C 264.045 30.519199 263.74273 29.789455 263.204763 29.251487
C 262.666795 28.71352 261.937051 28.41125 261.17625 28.41125
C 260.415449 28.41125 259.685705 28.71352 259.147737 29.251487
C 258.60977 29.789455 258.3075 30.519199 258.3075 31.28
C 258.3075 32.040801 258.60977 32.770545 259.147737 33.308513
C 259.685705 33.84648 260.415449 34.14875 261.17625 34.14875
z
" clip-path="url(#pNORMALIZED)" style="fill: #f8fafc; stroke: #f8fafc; stroke-width: 2; stroke-linejoin: miter"/>
   </g>
  </g>
 </g>
 <defs>
  <clipPath id="pNORMALIZED">
   <rect x="0" y="0" width="292.73625" height="150.8"/>
  </clipPath>
 </defs>
</svg>
