<?xml version="1.0" encoding="utf-8" standalone="no"?>
<!DOCTYPE svg PUBLIC "-//W3C//DTD SVG 1.1//EN"
  "http://www.w3.org/Graphics/SVG/1.1/DTD/svg11.dtd">
<svg xmlns:xlink="http://www.w3.org/1999/xlink" width="180.324pt" height="166.8pt" viewBox="0 0 180.324 166.8" xmlns="http://www.w3.org/2000/svg" version="1.1">
 <metadata>
  <rdf:RDF xmlns:dc="http://purl.org/dc/elements/1.1/" xmlns:cc="http://creativecommons.org/ns#" xmlns:rdf="http://www.w3.org/1999/02/22-rdf-syntax-ns#">
   <cc:Work>
    <dc:type rdf:resource="http://purl.org/dc/dcmitype/StillImage"/>
    <dc:date>normalized</dc:date>
    <dc:format>image/svg+xml</dc:format>
    <dc:creator>
     <cc:Agent>
      <dc:title>Matplotlib v3.10.9, https://matplotlib.org/</dc:title>
     </cc:Agent>
    </dc:creator>
   </cc:Work>
  </rdf:RDF>
 </metadata>
 <defs>
  <style type="text/css">*{stroke-linejoin: round; stroke-linecap: butt}</style>
 </defs>
 <g id="figure_1">
  <g id="patch_1">
   <path d="M 0 166.8
L 180.324 166.8
L 180.324 0
L 0 0
L 0 166.8
z
" style="fill: none"/>
  </g>
  <g id="axes_1">
   <g id="line2d_1">
    <path d="M 24.444 85.08
L 38.844 85.08
L 53.244 85.08
" clip-path="url(#pNORMALIZED)" style="fill: none; stroke: #111827; stroke-width: 1.8; stroke-linecap: round"/>
   </g>
   <g id="line2d_2">
    <path d="M 53.244 85.08
L 83.304 85.08
M 83.304 76.08
L 83.304 94.08
M 89.784 76.08
L 89.784 94.08
M 89.784 85.08
L 119.844 85.08
" clip-path="url(#pNORMALIZED)" style="fill: none; stroke: #111827; stroke-width: 1.8; stroke-linecap: round"/>
   </g>
   <g id="line2d_3">
    <path d="M 119.844 85.08
L 119.844 112.08
M 128.844 103.08
L 110.844 121.08
M 128.844 121.08
L 110.844 103.08
M 119.844 112.08
L 119.844 139.08
" clip-path="url(#pNORMALIZED)" style="fill: none; stroke: #111827; stroke-width: 1.8; stroke-linecap: round"/>
   </g>
   <g id="line2d_4">
    <path d="M 119.844 139.08
L 119.844 153.48
L 110.844 153.48
L 128.844 153.48
M 113.544 157.8
L 126.144 157.8
M 118.044 162.12
L 121.644 162.12
" clip-path="url(#pNORMALIZED)" style="fill: none; stroke: #111827; stroke-width: 1.8; stroke-linecap: round"/>
   </g>
   <g id="line2d_5">
    <path d="M 119.844 85.08
L 143.244 85.08
L 166.644 85.08
" clip-path="url(#pNORMALIZED)" style="fill: none; stroke: #111827; stroke-width: 1.8; stroke-linecap: round"/>
   </g>
   <g id="line2d_6">
    <path d="M 166.644 85.08
L 166.644 108.84
M 175.644 108.84
L 157.644 108.84
M 175.644 115.32
L 157.644 115.32
M 166.644 115.32
L 166.644 139.08
" clip-path="url(#pNORMALIZED)" style="fill: none; stroke: #111827; stroke-width: 1.8; stroke-linecap: round"/>
   </g>
   <g id="line2d_7">
    <path d="M 166.644 139.08
L 166.644 153.48
L 157.644 153.48
L 175.644 153.48
M 160.344 157.8
L 172.944 157.8
M 164.844 162.12
L 168.444 162.12
" clip-path="url(#pNORMALIZED)" style="fill: none; stroke: #111827; stroke-width: 1.8; stroke-linecap: round"/>
   </g>
   <g id="line2d_8">
    <path d="M 91.044 20.28
L 105.444 20.28
L 119.844 20.28
" clip-path="url(#pNORMALIZED)" style="fill: none; stroke: #111827; stroke-width: 1.8; stroke-linecap: round"/>
   </g>
   <g id="line2d_9">
    <path d="M 119.844 20.28
L 134.244 20.28
L 148.644 20.28
" clip-path="url(#pNORMALIZED)" style="fill: none; stroke: #111827; stroke-width: 1.8; stroke-linecap: round"/>
   </g>
   <g id="line2d_10">
    <path d="M 119.844 20.28
L 119.844 49.44
M 128.844 49.44
L 110.844 49.44
M 128.844 55.92
L 110.844 55.92
M 119.844 55.92
L 119.844 85.08
" clip-path="url(#pNORMALIZED)" style="fill: none; stroke: #111827; stroke-width: 1.8; stroke-linecap: round"/>
   </g>
   <g id="text_1">
    <!-- $C_c$ -->
    <g style="fill: #111827" transform="translate(79.824 69.984375) scale(0.12 -0.12)">
     <defs>
      <path id="DejaVuSans-Oblique-43" d="M 4447 4306
L 4319 3641
Q 4019 3944 3683 4091
Q 3347 4238 2956 4238
Q 2422 4238 2017 3981
Q 1613 3725 1319 3200
Q 1131 2863 1032 2486
Q 934 2109 934 1728
Q 934 1091 1264 756
Q 1594 422 2222 422
Q 2656 422 3056 561
Q 3456 700 3834 978
L 3688 231
Q 3316 72 2936 -9
Q 2556 -91 2175 -91
Q 1278 -91 773 396
Q 269 884 269 1753
Q 269 2309 461 2846
Q 653 3384 1013 3828
Q 1394 4300 1883 4525
Q 2372 4750 3022 4750
Q 3422 4750 3780 4639
Q 4138 4528 4447 4306
z
" transform="scale(0.015625)"/>
      <path id="DejaVuSans-Oblique-63" d="M 3431 3366
L 3316 2797
Q 3109 2947 2876 3022
Q 2644 3097 2394 3097
Q 2119 3097 1870 3000
Q 1622 2903 1453 2725
Q 1184 2453 1037 2087
Q 891 1722 891 1331
Q 891 859 1127 628
Q 1363 397 1844 397
Q 2081 397 2348 469
Q 2616 541 2906 684
L 2797 116
Q 2547 13 2283 -39
Q 2019 -91 1741 -91
Q 1044 -91 669 257
Q 294 606 294 1253
Q 294 1797 489 2255
Q 684 2713 1069 3078
Q 1331 3328 1684 3456
Q 2038 3584 2456 3584
Q 2700 3584 2940 3529
Q 3181 3475 3431 3366
z
" transform="scale(0.015625)"/>
     </defs>
     <use xlink:href="#DejaVuSans-Oblique-43" transform="translate(0 0.78125)"/>
     <use xlink:href="#DejaVuSans-Oblique-63" transform="translate(69.824219 -15.625) scale(0.7)"/>
    </g>
   </g>
   <g id="text_2">
    <!-- $L_J$ -->
    <g style="fill: #111827" transform="translate(115.044 77.76) scale(0.12 -0.12)">
     <defs>
      <path id="DejaVuSans-Oblique-4c" d="M 1075 4666
L 1709 4666
L 909 525
L 3181 525
L 3078 0
L 172 0
L 1075 4666
z
" transform="scale(0.015625)"/>
      <path id="DejaVuSans-Oblique-4a" d="M 1069 4666
L 1703 4666
L 856 325
Q 691 -522 298 -901
Q -94 -1281 -800 -1281
L -1050 -1281
L -947 -750
L -750 -750
Q -328 -750 -109 -509
Q 109 -269 225 325
L 1069 4666
z
" transform="scale(0.015625)"/>
     </defs>
     <use xlink:href="#DejaVuSans-Oblique-4c" transform="translate(0 0.09375)"/>
     <use xlink:href="#DejaVuSans-Oblique-4a" transform="translate(55.712891 -16.3125) scale(0.7)"/>
    </g>
   </g>
   <g id="text_3">
    <!-- $C_J$ -->
    <g style="fill: #111827" transform="translate(161.004 77.76) scale(0.12 -0.12)">
     <use xlink:href="#DejaVuSans-Oblique-43" transform="translate(0 0.78125)"/>
     <use xlink:href="#DejaVuSans-Oblique-4a" transform="translate(69.824219 -15.625) scale(0.7)"/>
    </g>
   </g>
   <g id="text_4">
    <!-- $C_p$ -->
    <g style="fill: #111827" transform="translate(112.824 12.96) scale(0.12 -0.12)">
     <defs>
      <path id="DejaVuSans-Oblique-70" d="M 3175 2156
Q 3175 2616 2975 2859
Q 2775 3103 2400 3103
Q 2144 3103 1911 2972
Q 1678 2841 1497 2591
Q 1319 2344 1212 1994
Q 1106 1644 1106 1300
Q 1106 863 1306 627
Q 1506 391 1875 391
Q 2147 391 2380 519
Q 2613 647 2778 891
Q 2956 1147 3065 1494
Q 3175 1841 3175 2156
z
M 1394 2969
Q 1625 3272 1939 3428
Q 2253 3584 2638 3584
Q 3175 3584 3472 3232
Q 3769 2881 3769 2247
Q 3769 1728 3584 1258
Q 3400 788 3053 416
Q 2822 169 2531 39
Q 2241 -91 1919 -91
Q 1547 -91 1294 64
Q 1041 219 916 525
L 556 -1331
L -19 -1331
L 922 3500
L 1497 3500
L 1394 2969
z
" transform="scale(0.015625)"/>
     </defs>
     <use xlink:href="#DejaVuSans-Oblique-43" transform="translate(0 0.78125)"/>
     <use xlink:href="#DejaVuSans-Oblique-70" transform="translate(69.824219 -15.625) scale(0.7)"/>
    </g>
   </g>
   <g id="patch_2">
    <path d="M 24.444 87.78
C 25.160048 87.78 25.846866 87.495511 26.353188 86.989188
C 26.859511 86.482866 27.144 85.796048 27.144 85.08
C 27.144 84.363952 26.859511 83.677134 26.353188 83.170812
C 25.846866 82.664489 25.160048 82.38 24.444 82.38
C 23.727952 82.38 23.041134 82.664489 22.534812 83.170812
C 22.028489 83.677134 21.744 84.363952 21.744 85.08
C 21.744 85.796048 22.028489 86.482866 22.534812 86.989188
C 23.041134 87.495511 23.727952 87.78 24.444 87.78
z
" clip-path="url(#pNORMALIZED)" style="fill: #ffffff; stroke: #111827; stroke-width: 1.8; stroke-linejoin: miter"/>
   </g>
   <g id="text_5">
    <!-- $P_1$ -->
    <g style="fill: #111827" transform="translate(5.184 88.39125) scale(0.12 -0.12)">
     <defs>
      <path id="DejaVuSans-Oblique-50" d="M 1081 4666
L 2541 4666
Q 3178 4666 3512 4369
Q 3847 4072 3847 3500
Q 3847 2731 3353 2303
Q 2859 1875 1966 1875
L 1172 1875
L 806 0
L 172 0
L 1081 4666
z
M 1613 4147
L 1275 2394
L 2069 2394
Q 2606 2394 2893 2669
Q 3181 2944 3181 3456
Q 3181 3784 2986 3965
Q 2791 4147 2438 4147
L 1613 4147
z
" transform="scale(0.015625)"/>
      <path id="DejaVuSans-31" d="M 794 531
L 1825 531
L 1825 4091
L 703 3866
L 703 4441
L 1819 4666
L 2450 4666
L 2450 531
L 3481 531
L 3481 0
L 794 0
L 794 531
z
" transform="scale(0.015625)"/>
     </defs>
     <use xlink:href="#DejaVuSans-Oblique-50" transform="translate(0 0.09375)"/>
     <use xlink:href="#DejaVuSans-31" transform="translate(60.302734 -16.3125) scale(0.7)"/>
    </g>
   </g>
   <g id="patch_3">
    <path d="M 119.844 87.78
C 120.560048 87.78 121.246866 87.495511 121.753188 86.989188
C 122.259511 86.482866 122.544 85.796048 122.544 85.08
C 122.544 84.363952 122.259511 83.677134 121.753188 83.170812
C 121.246866 82.664489 120.560048 82.38 119.844 82.38
C 119.127952 82.38 118.441134 82.664489 117.934812 83.170812
C 117.428489 83.677134 117.144 84.363952 117.144 85.08
C 117.144 85.796048 117.428489 86.482866 117.934812 86.989188
C 118.441134 87.495511 119.127952 87.78 119.844 87.78
z
" clip-path="url(#pNORMALIZED)" style="fill: #111827; stroke: #111827; stroke-width: 1.8; stroke-linejoin: miter"/>
   </g>
   <g id="patch_4">
    <path d="M 166.644 87.78
C 167.360048 87.78 168.046866 87.495511 168.553188 86.989188
C 169.059511 86.482866 169.344 85.796048 169.344 85.08
C 169.344 84.363952 169.059511 83.677134 168.553188 83.170812
C 168.046866 82.664489 167.360048 82.38 166.644 82.38
C 165.927952 82.38 165.241134 82.664489 164.734812 83.170812
C 164.228489 83.677134 163.944 84.363952 163.944 85.08
C 163.944 85.796048 164.228489 86.482866 164.734812 86.989188
C 165.241134 87.495511 165.927952 87.78 166.644 87.78
z
" clip-path="url(#pNORMALIZED)" style="fill: #111827; stroke: #111827; stroke-width: 1.8; stroke-linejoin: miter"/>
   </g>
   <g id="patch_5">
    <path d="M 91.044 22.98
C 91.760048 22.98 92.446866 22.695511 92.953188 22.189188
C 93.459511 21.682866 93.744 20.996048 93.744 20.28
C 93.744 19.563952 93.459511 18.877134 92.953188 18.370812
C 92.446866 17.864489 91.760048 17.58 91.044 17.58
C 90.327952 17.58 89.641134 17.864489 89.134812 18.370812
C 88.628489 18.877134 88.344 19.563952 88.344 20.28
C 88.344 20.996048 88.628489 21.682866 89.134812 22.189188
C 89.641134 22.695511 90.327952 22.98 91.044 22.98
z
" clip-path="url(#pNORMALIZED)" style="fill: #ffffff; stroke: #111827; stroke-width: 1.8; stroke-linejoin: miter"/>
   </g>
   <g id="text_6">
    <!-- pump -->
    <g style="fill: #111827" transform="translate(50.214 23.59125) scale(0.12 -0.12)">
     <defs>
      <path id="DejaVuSans-70" d="M 1159 525
L 1159 -1331
L 581 -1331
L 581 3500
L 1159 3500
L 1159 2969
Q 1341 3281 1617 3432
Q 1894 3584 2278 3584
Q 2916 3584 3314 3078
Q 3713 2572 3713 1747
Q 3713 922 3314 415
Q 2916 -91 2278 -91
Q 1894 -91 1617 61
Q 1341 213 1159 525
z
M 3116 1747
Q 3116 2381 2855 2742
Q 2594 3103 2138 3103
Q 1681 3103 1420 2742
Q 1159 2381 1159 1747
Q 1159 1113 1420 752
Q 1681 391 2138 391
Q 2594 391 2855 752
Q 3116 1113 3116 1747
z
" transform="scale(0.015625)"/>
      <path id="DejaVuSans-75" d="M 544 1381
L 544 3500
L 1119 3500
L 1119 1403
Q 1119 906 1312 657
Q 1506 409 1894 409
Q 2359 409 2629 706
Q 2900 1003 2900 1516
L 2900 3500
L 3475 3500
L 3475 0
L 2900 0
L 2900 538
Q 2691 219 2414 64
Q 2138 -91 1772 -91
Q 1169 -91 856 284
Q 544 659 544 1381
z
M 1991 3584
L 1991 3584
z
" transform="scale(0.015625)"/>
      <path id="DejaVuSans-6d" d="M 3328 2828
Q 3544 3216 3844 3400
Q 4144 3584 4550 3584
Q 5097 3584 5394 3201
Q 5691 2819 5691 2113
L 5691 0
L 5113 0
L 5113 2094
Q 5113 2597 4934 2840
Q 4756 3084 4391 3084
Q 3944 3084 3684 2787
Q 3425 2491 3425 1978
L 3425 0
L 2847 0
L 2847 2094
Q 2847 2600 2669 2842
Q 2491 3084 2119 3084
Q 1678 3084 1418 2786
Q 1159 2488 1159 1978
L 1159 0
L 581 0
L 581 3500
L 1159 3500
L 1159 2956
Q 1356 3278 1631 3431
Q 1906 3584 2284 3584
Q 2666 3584 2933 3390
Q 3200 3197 3328 2828
z
" transform="scale(0.015625)"/>
     </defs>
     <use xlink:href="#DejaVuSans-70"/>
     <use xlink:href="#DejaVuSans-75" transform="translate(63.476562 0)"/>
     <use xlink:href="#DejaVuSans-6d" transform="translate(126.855469 0)"/>
     <use xlink:href="#DejaVuSans-70" transform="translate(224.267578 0)"/>
    </g>
   </g>
   <g id="patch_6">
    <path d="M 119.844 22.98
C 120.560048 22.98 121.246866 22.695511 121.753188 22.189188
C 122.259511 21.682866 122.544 20.996048 122.544 20.28
C 122.544 19.563952 122.259511 18.877134 121.753188 18.370812
C 121.246866 17.864489 120.560048 17.58 119.844 17.58
C 119.127952 17.58 118.441134 17.864489 117.934812 18.370812
C 117.428489 18.877134 117.144 19.563952 117.144 20.28
C 117.144 20.996048 117.428489 21.682866 117.934812 22.189188
C 118.441134 22.695511 119.127952 22.98 119.844 22.98
z
" clip-path="url(#pNORMALIZED)" style="fill: #111827; stroke: #111827; stroke-width: 1.8; stroke-linejoin: miter"/>
   </g>
   <g id="patch_7">
    <path d="M 148.644 22.98
C 149.360048 22.98 150.046866 22.695511 150.553188 22.189188
C 151.059511 21.682866 151.344 20.996048 151.344 20.28
C 151.344 19.563952 151.059511 18.877134 150.553188 18.370812
C 150.046866 17.864489 149.360048 17.58 148.644 17.58
C 147.927952 17.58 147.241134 17.864489 146.734812 18.370812
C 146.228489 18.877134 145.944 19.563952 145.944 20.28
C 145.944 20.996048 146.228489 21.682866 146.734812 22.189188
C 147.241134 22.695511 147.927952 22.98 148.644 22.98
z
" clip-path="url(#pNORMALIZED)" style="fill: #ffffff; stroke: #111827; stroke-width: 1.8; stroke-linejoin: miter"/>
   </g>
  </g>
 </g>
 <defs>
  <clipPath id="pNORMALIZED">
   <rect x="0" y="0" width="180.324" height="166.8"/>
  </clipPath>
 </defs>
</svg>
