<?xml version="1.0" encoding="utf-8" standalone="no"?>
<!DOCTYPE svg PUBLIC "-//W3C//DTD SVG 1.1//EN"
  "http://www.w3.org/Graphics/SVG/1.1/DTD/svg11.dtd">
<svg xmlns:xlink="http://www.w3.org/1999/xlink" width="338.559375pt" height="175.8pt" viewBox="0 0 338.559375 175.8" xmlns="http://www.w3.org/2000/svg" version="1.1">
 <metadata>
  <rdf:RDF xmlns:dc="http://purl.org/dc/elements/1.1/" xmlns:cc="http://creativecommons.org/ns#" xmlns:rdf="http://www.w3.org/1999/02/22-rdf-syntax-ns#">
   <cc:Work>
    <dc:type rdf:resource="http://purl.org/dc/dcmitype/StillImage"/>
    <dc:date>normalized</dc:date>
    <dc:format>image/svg+xml</dc:format>
    <dc:creator>
     <cc:Agent>
      <dc:title>Matplotlib v3.10.9, https://matplotlib.org/</dc:title>
     </cc:Agent>
    </dc:creator>
   </cc:Work>
  </rdf:RDF>
 </metadata>
 <defs>
  <style type="text/css">*{stroke-linejoin: round; stroke-linecap: butt}</style>
 </defs>
 <g id="figure_1">
  <g id="patch_1">
   <path d="M 0 175.8
L 338.559375 175.8
L 338.559375 0
L 0 0
L 0 175.8
z
" style="fill: none"/>
  </g>
  <g id="axes_1">
   <g id="line2d_1">
    <path d="M 67.723125 67.08
L 85.723125 67.08
L 103.723125 67.08
" clip-path="url(#pNORMALIZED)" style="fill: none; stroke: #f8fafc; stroke-width: 1.8; stroke-linecap: round"/>
   </g>
   <g id="line2d_2">
    <path d="M 103.723125 67.08
L 164.923125 67.08
L 226.123125 67.08
" clip-path="url(#pNORMALIZED)" style="fill: none; stroke: #f8fafc; stroke-width: 1.8; stroke-linecap: round"/>
   </g>
   <g id="line2d_3">
    <path d="M 226.123125 67.08
L 244.123125 67.08
L 262.123125 67.08
" clip-path="url(#pNORMALIZED)" style="fill: none; stroke: #f8fafc; stroke-width: 1.8; stroke-linecap: round"/>
   </g>
   <g id="line2d_4">
    <path d="M 103.723125 131.88
L 103.723125 139.98
L 103.723125 148.08
" clip-path="url(#pNORMALIZED)" style="fill: none; stroke: #f8fafc; stroke-width: 1.8; stroke-linecap: round"/>
   </g>
   <g id="line2d_5">
    <path d="M 103.723125 148.08
L 103.723125 162.48
L 94.723125 162.48
L 112.723125 162.48
M 97.423125 166.8
L 110.023125 166.8
M 101.923125 171.12
L 105.523125 171.12
" clip-path="url(#pNORMALIZED)" style="fill: none; stroke: #f8fafc; stroke-width: 1.8; stroke-linecap: round"/>
   </g>
   <g id="line2d_6">
    <path d="M 103.723125 131.88
L 164.923125 131.88
L 226.123125 131.88
" clip-path="url(#pNORMALIZED)" style="fill: none; stroke: #f8fafc; stroke-width: 1.8; stroke-linecap: round"/>
   </g>
   <g id="line2d_7">
    <path d="M 139.723125 67.08
L 139.723125 71.58
L 139.723125 76.08
" clip-path="url(#pNORMALIZED)" style="fill: none; stroke: #f8fafc; stroke-width: 1.8; stroke-linecap: round"/>
   </g>
   <g id="line2d_8">
    <path d="M 139.723125 76.08
L 139.723125 100.74
M 148.723125 100.74
L 130.723125 100.74
M 148.723125 107.22
L 130.723125 107.22
M 139.723125 107.22
L 139.723125 131.88
" clip-path="url(#pNORMALIZED)" style="fill: none; stroke: #f8fafc; stroke-width: 1.8; stroke-linecap: round"/>
   </g>
   <g id="line2d_9">
    <path d="M 188.323125 67.08
L 188.323125 71.58
L 188.323125 76.08
" clip-path="url(#pNORMALIZED)" style="fill: none; stroke: #f8fafc; stroke-width: 1.8; stroke-linecap: round"/>
   </g>
   <g id="line2d_10">
    <path d="M 188.323125 76.08
L 188.323125 66.18
L 170.323125 48.18
L 188.323125 30.18
L 206.323125 48.18
L 188.323125 66.18
M 188.323125 30.18
L 188.323125 20.28
" clip-path="url(#pNORMALIZED)" style="fill: none; stroke: #f8fafc; stroke-width: 1.8; stroke-linecap: round"/>
   </g>
   <g id="line2d_11">
    <path d="M 191.923125 57.18
L 184.723125 57.18
" clip-path="url(#pNORMALIZED)" style="fill: none; stroke: #f8fafc; stroke-width: 1.8; stroke-linecap: round"/>
   </g>
   <g id="line2d_12">
    <path d="M 188.323125 42.78
L 188.323125 35.58
" clip-path="url(#pNORMALIZED)" style="fill: none; stroke: #f8fafc; stroke-width: 1.8; stroke-linecap: round"/>
   </g>
   <g id="line2d_13">
    <path d="M 191.923125 39.18
L 184.723125 39.18
" clip-path="url(#pNORMALIZED)" style="fill: none; stroke: #f8fafc; stroke-width: 1.8; stroke-linecap: round"/>
   </g>
   <g id="text_1">
    <!-- quarter-wave resonator -->
    <g style="fill: #f8fafc" transform="translate(94.351875 144.598125) scale(0.12 -0.12)">
     <defs>
      <path id="DejaVuSans-71" d="M 947 1747
Q 947 1113 1208 752
Q 1469 391 1925 391
Q 2381 391 2643 752
Q 2906 1113 2906 1747
Q 2906 2381 2643 2742
Q 2381 3103 1925 3103
Q 1469 3103 1208 2742
Q 947 2381 947 1747
z
M 2906 525
Q 2725 213 2448 61
Q 2172 -91 1784 -91
Q 1150 -91 751 415
Q 353 922 353 1747
Q 353 2572 751 3078
Q 1150 3584 1784 3584
Q 2172 3584 2448 3432
Q 2725 3281 2906 2969
L 2906 3500
L 3481 3500
L 3481 -1331
L 2906 -1331
L 2906 525
z
" transform="scale(0.015625)"/>
      <path id="DejaVuSans-75" d="M 544 1381
L 544 3500
L 1119 3500
L 1119 1403
Q 1119 906 1312 657
Q 1506 409 1894 409
Q 2359 409 2629 706
Q 2900 1003 2900 1516
L 2900 3500
L 3475 3500
L 3475 0
L 2900 0
L 2900 538
Q 2691 219 2414 64
Q 2138 -91 1772 -91
Q 1169 -91 856 284
Q 544 659 544 1381
z
M 1991 3584
L 1991 3584
z
" transform="scale(0.015625)"/>
      <path id="DejaVuSans-61" d="M 2194 1759
Q 1497 1759 1228 1600
Q 959 1441 959 1056
Q 959 750 1161 570
Q 1363 391 1709 391
Q 2188 391 2477 730
Q 2766 1069 2766 1631
L 2766 1759
L 2194 1759
z
M 3341 1997
L 3341 0
L 2766 0
L 2766 531
Q 2569 213 2275 61
Q 1981 -91 1556 -91
Q 1019 -91 701 211
Q 384 513 384 1019
Q 384 1609 779 1909
Q 1175 2209 1959 2209
L 2766 2209
L 2766 2266
Q 2766 2663 2505 2880
Q 2244 3097 1772 3097
Q 1472 3097 1187 3025
Q 903 2953 641 2809
L 641 3341
Q 956 3463 1253 3523
Q 1550 3584 1831 3584
Q 2591 3584 2966 3190
Q 3341 2797 3341 1997
z
" transform="scale(0.015625)"/>
      <path id="DejaVuSans-72" d="M 2631 2963
Q 2534 3019 2420 3045
Q 2306 3072 2169 3072
Q 1681 3072 1420 2755
Q 1159 2438 1159 1844
L 1159 0
L 581 0
L 581 3500
L 1159 3500
L 1159 2956
Q 1341 3275 1631 3429
Q 1922 3584 2338 3584
Q 2397 3584 2469 3576
Q 2541 3569 2628 3553
L 2631 2963
z
" transform="scale(0.015625)"/>
      <path id="DejaVuSans-74" d="M 1172 4494
L 1172 3500
L 2356 3500
L 2356 3053
L 1172 3053
L 1172 1153
Q 1172 725 1289 603
Q 1406 481 1766 481
L 2356 481
L 2356 0
L 1766 0
Q 1100 0 847 248
Q 594 497 594 1153
L 594 3053
L 172 3053
L 172 3500
L 594 3500
L 594 4494
L 1172 4494
z
" transform="scale(0.015625)"/>
      <path id="DejaVuSans-65" d="M 3597 1894
L 3597 1613
L 953 1613
Q 991 1019 1311 708
Q 1631 397 2203 397
Q 2534 397 2845 478
Q 3156 559 3463 722
L 3463 178
Q 3153 47 2828 -22
Q 2503 -91 2169 -91
Q 1331 -91 842 396
Q 353 884 353 1716
Q 353 2575 817 3079
Q 1281 3584 2069 3584
Q 2775 3584 3186 3129
Q 3597 2675 3597 1894
z
M 3022 2063
Q 3016 2534 2758 2815
Q 2500 3097 2075 3097
Q 1594 3097 1305 2825
Q 1016 2553 972 2059
L 3022 2063
z
" transform="scale(0.015625)"/>
      <path id="DejaVuSans-2d" d="M 313 2009
L 1997 2009
L 1997 1497
L 313 1497
L 313 2009
z
" transform="scale(0.015625)"/>
      <path id="DejaVuSans-77" d="M 269 3500
L 844 3500
L 1563 769
L 2278 3500
L 2956 3500
L 3675 769
L 4391 3500
L 4966 3500
L 4050 0
L 3372 0
L 2619 2869
L 1863 0
L 1184 0
L 269 3500
z
" transform="scale(0.015625)"/>
      <path id="DejaVuSans-76" d="M 191 3500
L 800 3500
L 1894 563
L 2988 3500
L 3597 3500
L 2284 0
L 1503 0
L 191 3500
z
" transform="scale(0.015625)"/>
      <path id="DejaVuSans-20" transform="scale(0.015625)"/>
      <path id="DejaVuSans-73" d="M 2834 3397
L 2834 2853
Q 2591 2978 2328 3040
Q 2066 3103 1784 3103
Q 1356 3103 1142 2972
Q 928 2841 928 2578
Q 928 2378 1081 2264
Q 1234 2150 1697 2047
L 1894 2003
Q 2506 1872 2764 1633
Q 3022 1394 3022 966
Q 3022 478 2636 193
Q 2250 -91 1575 -91
Q 1294 -91 989 -36
Q 684 19 347 128
L 347 722
Q 666 556 975 473
Q 1284 391 1588 391
Q 1994 391 2212 530
Q 2431 669 2431 922
Q 2431 1156 2273 1281
Q 2116 1406 1581 1522
L 1381 1569
Q 847 1681 609 1914
Q 372 2147 372 2553
Q 372 3047 722 3315
Q 1072 3584 1716 3584
Q 2034 3584 2315 3537
Q 2597 3491 2834 3397
z
" transform="scale(0.015625)"/>
      <path id="DejaVuSans-6f" d="M 1959 3097
Q 1497 3097 1228 2736
Q 959 2375 959 1747
Q 959 1119 1226 758
Q 1494 397 1959 397
Q 2419 397 2687 759
Q 2956 1122 2956 1747
Q 2956 2369 2687 2733
Q 2419 3097 1959 3097
z
M 1959 3584
Q 2709 3584 3137 3096
Q 3566 2609 3566 1747
Q 3566 888 3137 398
Q 2709 -91 1959 -91
Q 1206 -91 779 398
Q 353 888 353 1747
Q 353 2609 779 3096
Q 1206 3584 1959 3584
z
" transform="scale(0.015625)"/>
      <path id="DejaVuSans-6e" d="M 3513 2113
L 3513 0
L 2938 0
L 2938 2094
Q 2938 2591 2744 2837
Q 2550 3084 2163 3084
Q 1697 3084 1428 2787
Q 1159 2491 1159 1978
L 1159 0
L 581 0
L 581 3500
L 1159 3500
L 1159 2956
Q 1366 3272 1645 3428
Q 1925 3584 2291 3584
Q 2894 3584 3203 3211
Q 3513 2838 3513 2113
z
" transform="scale(0.015625)"/>
     </defs>
     <use xlink:href="#DejaVuSans-71"/>
     <use xlink:href="#DejaVuSans-75" transform="translate(63.476562 0)"/>
     <use xlink:href="#DejaVuSans-61" transform="translate(126.855469 0)"/>
     <use xlink:href="#DejaVuSans-72" transform="translate(188.134766 0)"/>
     <use xlink:href="#DejaVuSans-74" transform="translate(229.248047 0)"/>
     <use xlink:href="#DejaVuSans-65" transform="translate(268.457031 0)"/>
     <use xlink:href="#DejaVuSans-72" transform="translate(329.980469 0)"/>
     <use xlink:href="#DejaVuSans-2d" transform="translate(364.71875 0)"/>
     <use xlink:href="#DejaVuSans-77" transform="translate(400.802734 0)"/>
     <use xlink:href="#DejaVuSans-61" transform="translate(482.589844 0)"/>
     <use xlink:href="#DejaVuSans-76" transform="translate(543.869141 0)"/>
     <use xlink:href="#DejaVuSans-65" transform="translate(603.048828 0)"/>
     <use xlink:href="#DejaVuSans-20" transform="translate(664.572266 0)"/>
     <use xlink:href="#DejaVuSans-72" transform="translate(696.359375 0)"/>
     <use xlink:href="#DejaVuSans-65" transform="translate(735.222656 0)"/>
     <use xlink:href="#DejaVuSans-73" transform="translate(796.746094 0)"/>
     <use xlink:href="#DejaVuSans-6f" transform="translate(848.845703 0)"/>
     <use xlink:href="#DejaVuSans-6e" transform="translate(910.027344 0)"/>
     <use xlink:href="#DejaVuSans-61" transform="translate(973.40625 0)"/>
     <use xlink:href="#DejaVuSans-74" transform="translate(1034.685547 0)"/>
     <use xlink:href="#DejaVuSans-6f" transform="translate(1073.894531 0)"/>
     <use xlink:href="#DejaVuSans-72" transform="translate(1135.076172 0)"/>
    </g>
   </g>
   <g id="text_2">
    <!-- $C_{12}$ -->
    <g style="fill: #f8fafc" transform="translate(130.003125 69.984375) scale(0.12 -0.12)">
     <defs>
      <path id="DejaVuSans-Oblique-43" d="M 4447 4306
L 4319 3641
Q 4019 3944 3683 4091
Q 3347 4238 2956 4238
Q 2422 4238 2017 3981
Q 1613 3725 1319 3200
Q 1131 2863 1032 2486
Q 934 2109 934 1728
Q 934 1091 1264 756
Q 1594 422 2222 422
Q 2656 422 3056 561
Q 3456 700 3834 978
L 3688 231
Q 3316 72 2936 -9
Q 2556 -91 2175 -91
Q 1278 -91 773 396
Q 269 884 269 1753
Q 269 2309 461 2846
Q 653 3384 1013 3828
Q 1394 4300 1883 4525
Q 2372 4750 3022 4750
Q 3422 4750 3780 4639
Q 4138 4528 4447 4306
z
" transform="scale(0.015625)"/>
      <path id="DejaVuSans-31" d="M 794 531
L 1825 531
L 1825 4091
L 703 3866
L 703 4441
L 1819 4666
L 2450 4666
L 2450 531
L 3481 531
L 3481 0
L 794 0
L 794 531
z
" transform="scale(0.015625)"/>
      <path id="DejaVuSans-32" d="M 1228 531
L 3431 531
L 3431 0
L 469 0
L 469 531
Q 828 903 1448 1529
Q 2069 2156 2228 2338
Q 2531 2678 2651 2914
Q 2772 3150 2772 3378
Q 2772 3750 2511 3984
Q 2250 4219 1831 4219
Q 1534 4219 1204 4116
Q 875 4013 500 3803
L 500 4441
Q 881 4594 1212 4672
Q 1544 4750 1819 4750
Q 2544 4750 2975 4387
Q 3406 4025 3406 3419
Q 3406 3131 3298 2873
Q 3191 2616 2906 2266
Q 2828 2175 2409 1742
Q 1991 1309 1228 531
z
" transform="scale(0.015625)"/>
     </defs>
     <use xlink:href="#DejaVuSans-Oblique-43" transform="translate(0 0.78125)"/>
     <use xlink:href="#DejaVuSans-31" transform="translate(69.824219 -15.625) scale(0.7)"/>
     <use xlink:href="#DejaVuSans-32" transform="translate(114.360352 -15.625) scale(0.7)"/>
    </g>
   </g>
   <g id="text_3">
    <!-- $K_{12}$ -->
    <g style="fill: #f8fafc" transform="translate(178.843125 14.184375) scale(0.12 -0.12)">
     <defs>
      <path id="DejaVuSans-Oblique-4b" d="M 1081 4666
L 1716 4666
L 1331 2700
L 3781 4666
L 4622 4666
L 1850 2438
L 3878 0
L 3109 0
L 1247 2272
L 806 0
L 172 0
L 1081 4666
z
" transform="scale(0.015625)"/>
     </defs>
     <use xlink:href="#DejaVuSans-Oblique-4b" transform="translate(0 0.09375)"/>
     <use xlink:href="#DejaVuSans-31" transform="translate(65.576172 -16.3125) scale(0.7)"/>
     <use xlink:href="#DejaVuSans-32" transform="translate(110.112305 -16.3125) scale(0.7)"/>
    </g>
   </g>
   <g id="patch_2">
    <path d="M 67.723125 69.78
C 68.439173 69.78 69.125991 69.495511 69.632313 68.989188
C 70.138636 68.482866 70.423125 67.796048 70.423125 67.08
C 70.423125 66.363952 70.138636 65.677134 69.632313 65.170812
C 69.125991 64.664489 68.439173 64.38 67.723125 64.38
C 67.007077 64.38 66.320259 64.664489 65.813937 65.170812
C 65.307614 65.677134 65.023125 66.363952 65.023125 67.08
C 65.023125 67.796048 65.307614 68.482866 65.813937 68.989188
C 66.320259 69.495511 67.007077 69.78 67.723125 69.78
z
" clip-path="url(#pNORMALIZED)" style="fill: #ffffff; stroke: #f8fafc; stroke-width: 1.8; stroke-linejoin: miter"/>
   </g>
   <g id="text_4">
    <!-- readout in -->
    <g style="fill: #f8fafc" transform="translate(0 70.39125) scale(0.12 -0.12)">
     <defs>
      <path id="DejaVuSans-64" d="M 2906 2969
L 2906 4863
L 3481 4863
L 3481 0
L 2906 0
L 2906 525
Q 2725 213 2448 61
Q 2172 -91 1784 -91
Q 1150 -91 751 415
Q 353 922 353 1747
Q 353 2572 751 3078
Q 1150 3584 1784 3584
Q 2172 3584 2448 3432
Q 2725 3281 2906 2969
z
M 947 1747
Q 947 1113 1208 752
Q 1469 391 1925 391
Q 2381 391 2643 752
Q 2906 1113 2906 1747
Q 2906 2381 2643 2742
Q 2381 3103 1925 3103
Q 1469 3103 1208 2742
Q 947 2381 947 1747
z
" transform="scale(0.015625)"/>
      <path id="DejaVuSans-69" d="M 603 3500
L 1178 3500
L 1178 0
L 603 0
L 603 3500
z
M 603 4863
L 1178 4863
L 1178 4134
L 603 4134
L 603 4863
z
" transform="scale(0.015625)"/>
     </defs>
     <use xlink:href="#DejaVuSans-72"/>
     <use xlink:href="#DejaVuSans-65" transform="translate(38.863281 0)"/>
     <use xlink:href="#DejaVuSans-61" transform="translate(100.386719 0)"/>
     <use xlink:href="#DejaVuSans-64" transform="translate(161.666016 0)"/>
     <use xlink:href="#DejaVuSans-6f" transform="translate(225.142578 0)"/>
     <use xlink:href="#DejaVuSans-75" transform="translate(286.324219 0)"/>
     <use xlink:href="#DejaVuSans-74" transform="translate(349.703125 0)"/>
     <use xlink:href="#DejaVuSans-20" transform="translate(388.912109 0)"/>
     <use xlink:href="#DejaVuSans-69" transform="translate(420.699219 0)"/>
     <use xlink:href="#DejaVuSans-6e" transform="translate(448.482422 0)"/>
    </g>
   </g>
   <g id="patch_3">
    <path d="M 103.723125 69.78
C 104.439173 69.78 105.125991 69.495511 105.632313 68.989188
C 106.138636 68.482866 106.423125 67.796048 106.423125 67.08
C 106.423125 66.363952 106.138636 65.677134 105.632313 65.170812
C 105.125991 64.664489 104.439173 64.38 103.723125 64.38
C 103.007077 64.38 102.320259 64.664489 101.813937 65.170812
C 101.307614 65.677134 101.023125 66.363952 101.023125 67.08
C 101.023125 67.796048 101.307614 68.482866 101.813937 68.989188
C 102.320259 69.495511 103.007077 69.78 103.723125 69.78
z
" clip-path="url(#pNORMALIZED)" style="fill: #f8fafc; stroke: #f8fafc; stroke-width: 1.8; stroke-linejoin: miter"/>
   </g>
   <g id="patch_4">
    <path d="M 226.123125 69.78
C 226.839173 69.78 227.525991 69.495511 228.032313 68.989188
C 228.538636 68.482866 228.823125 67.796048 228.823125 67.08
C 228.823125 66.363952 228.538636 65.677134 228.032313 65.170812
C 227.525991 64.664489 226.839173 64.38 226.123125 64.38
C 225.407077 64.38 224.720259 64.664489 224.213937 65.170812
C 223.707614 65.677134 223.423125 66.363952 223.423125 67.08
C 223.423125 67.796048 223.707614 68.482866 224.213937 68.989188
C 224.720259 69.495511 225.407077 69.78 226.123125 69.78
z
" clip-path="url(#pNORMALIZED)" style="fill: #f8fafc; stroke: #f8fafc; stroke-width: 1.8; stroke-linejoin: miter"/>
   </g>
   <g id="patch_5">
    <path d="M 262.123125 69.78
C 262.839173 69.78 263.525991 69.495511 264.032313 68.989188
C 264.538636 68.482866 264.823125 67.796048 264.823125 67.08
C 264.823125 66.363952 264.538636 65.677134 264.032313 65.170812
C 263.525991 64.664489 262.839173 64.38 262.123125 64.38
C 261.407077 64.38 260.720259 64.664489 260.213937 65.170812
C 259.707614 65.677134 259.423125 66.363952 259.423125 67.08
C 259.423125 67.796048 259.707614 68.482866 260.213937 68.989188
C 260.720259 69.495511 261.407077 69.78 262.123125 69.78
z
" clip-path="url(#pNORMALIZED)" style="fill: #ffffff; stroke: #f8fafc; stroke-width: 1.8; stroke-linejoin: miter"/>
   </g>
   <g id="text_5">
    <!-- readout out -->
    <g style="fill: #f8fafc" transform="translate(268.423125 70.39125) scale(0.12 -0.12)">
     <use xlink:href="#DejaVuSans-72"/>
     <use xlink:href="#DejaVuSans-65" transform="translate(38.863281 0)"/>
     <use xlink:href="#DejaVuSans-61" transform="translate(100.386719 0)"/>
     <use xlink:href="#DejaVuSans-64" transform="translate(161.666016 0)"/>
     <use xlink:href="#DejaVuSans-6f" transform="translate(225.142578 0)"/>
     <use xlink:href="#DejaVuSans-75" transform="translate(286.324219 0)"/>
     <use xlink:href="#DejaVuSans-74" transform="translate(349.703125 0)"/>
     <use xlink:href="#DejaVuSans-20" transform="translate(388.912109 0)"/>
     <use xlink:href="#DejaVuSans-6f" transform="translate(420.699219 0)"/>
     <use xlink:href="#DejaVuSans-75" transform="translate(481.880859 0)"/>
     <use xlink:href="#DejaVuSans-74" transform="translate(545.259766 0)"/>
    </g>
   </g>
   <g id="patch_6">
    <path d="M 103.723125 134.58
C 104.439173 134.58 105.125991 134.295511 105.632313 133.789188
C 106.138636 133.282866 106.423125 132.596048 106.423125 131.88
C 106.423125 131.163952 106.138636 130.477134 105.632313 129.970812
C 105.125991 129.464489 104.439173 129.18 103.723125 129.18
C 103.007077 129.18 102.320259 129.464489 101.813937 129.970812
C 101.307614 130.477134 101.023125 131.163952 101.023125 131.88
C 101.023125 132.596048 101.307614 133.282866 101.813937 133.789188
C 102.320259 134.295511 103.007077 134.58 103.723125 134.58
z
" clip-path="url(#pNORMALIZED)" style="fill: #f8fafc; stroke: #f8fafc; stroke-width: 1.8; stroke-linejoin: miter"/>
   </g>
   <g id="text_6">
    <!-- QWR head -->
    <g style="fill: #f8fafc" transform="translate(33.999375 135.19125) scale(0.12 -0.12)">
     <defs>
      <path id="DejaVuSans-51" d="M 2522 4238
Q 1834 4238 1429 3725
Q 1025 3213 1025 2328
Q 1025 1447 1429 934
Q 1834 422 2522 422
Q 3209 422 3611 934
Q 4013 1447 4013 2328
Q 4013 3213 3611 3725
Q 3209 4238 2522 4238
z
M 3406 84
L 4238 -825
L 3475 -825
L 2784 -78
Q 2681 -84 2626 -87
Q 2572 -91 2522 -91
Q 1538 -91 948 567
Q 359 1225 359 2328
Q 359 3434 948 4092
Q 1538 4750 2522 4750
Q 3503 4750 4090 4092
Q 4678 3434 4678 2328
Q 4678 1516 4351 937
Q 4025 359 3406 84
z
" transform="scale(0.015625)"/>
      <path id="DejaVuSans-57" d="M 213 4666
L 850 4666
L 1831 722
L 2809 4666
L 3519 4666
L 4500 722
L 5478 4666
L 6119 4666
L 4947 0
L 4153 0
L 3169 4050
L 2175 0
L 1381 0
L 213 4666
z
" transform="scale(0.015625)"/>
      <path id="DejaVuSans-52" d="M 2841 2188
Q 3044 2119 3236 1894
Q 3428 1669 3622 1275
L 4263 0
L 3584 0
L 2988 1197
Q 2756 1666 2539 1819
Q 2322 1972 1947 1972
L 1259 1972
L 1259 0
L 628 0
L 628 4666
L 2053 4666
Q 2853 4666 3247 4331
Q 3641 3997 3641 3322
Q 3641 2881 3436 2590
Q 3231 2300 2841 2188
z
M 1259 4147
L 1259 2491
L 2053 2491
Q 2509 2491 2742 2702
Q 2975 2913 2975 3322
Q 2975 3731 2742 3939
Q 2509 4147 2053 4147
L 1259 4147
z
" transform="scale(0.015625)"/>
      <path id="DejaVuSans-68" d="M 3513 2113
L 3513 0
L 2938 0
L 2938 2094
Q 2938 2591 2744 2837
Q 2550 3084 2163 3084
Q 1697 3084 1428 2787
Q 1159 2491 1159 1978
L 1159 0
L 581 0
L 581 4863
L 1159 4863
L 1159 2956
Q 1366 3272 1645 3428
Q 1925 3584 2291 3584
Q 2894 3584 3203 3211
Q 3513 2838 3513 2113
z
" transform="scale(0.015625)"/>
     </defs>
     <use xlink:href="#DejaVuSans-51"/>
     <use xlink:href="#DejaVuSans-57" transform="translate(78.710938 0)"/>
     <use xlink:href="#DejaVuSans-52" transform="translate(177.587891 0)"/>
     <use xlink:href="#DejaVuSans-20" transform="translate(247.070312 0)"/>
     <use xlink:href="#DejaVuSans-68" transform="translate(278.857422 0)"/>
     <use xlink:href="#DejaVuSans-65" transform="translate(342.236328 0)"/>
     <use xlink:href="#DejaVuSans-61" transform="translate(403.759766 0)"/>
     <use xlink:href="#DejaVuSans-64" transform="translate(465.039062 0)"/>
    </g>
   </g>
   <g id="patch_7">
    <path d="M 226.123125 134.58
C 226.839173 134.58 227.525991 134.295511 228.032313 133.789188
C 228.538636 133.282866 228.823125 132.596048 228.823125 131.88
C 228.823125 131.163952 228.538636 130.477134 228.032313 129.970812
C 227.525991 129.464489 226.839173 129.18 226.123125 129.18
C 225.407077 129.18 224.720259 129.464489 224.213937 129.970812
C 223.707614 130.477134 223.423125 131.163952 223.423125 131.88
C 223.423125 132.596048 223.707614 133.282866 224.213937 133.789188
C 224.720259 134.295511 225.407077 134.58 226.123125 134.58
z
" clip-path="url(#pNORMALIZED)" style="fill: #ffffff; stroke: #f8fafc; stroke-width: 1.8; stroke-linejoin: miter"/>
   </g>
   <g id="text_7">
    <!-- open tail -->
    <g style="fill: #f8fafc" transform="translate(232.423125 135.19125) scale(0.12 -0.12)">
     <defs>
      <path id="DejaVuSans-70" d="M 1159 525
L 1159 -1331
L 581 -1331
L 581 3500
L 1159 3500
L 1159 2969
Q 1341 3281 1617 3432
Q 1894 3584 2278 3584
Q 2916 3584 3314 3078
Q 3713 2572 3713 1747
Q 3713 922 3314 415
Q 2916 -91 2278 -91
Q 1894 -91 1617 61
Q 1341 213 1159 525
z
M 3116 1747
Q 3116 2381 2855 2742
Q 2594 3103 2138 3103
Q 1681 3103 1420 2742
Q 1159 2381 1159 1747
Q 1159 1113 1420 752
Q 1681 391 2138 391
Q 2594 391 2855 752
Q 3116 1113 3116 1747
z
" transform="scale(0.015625)"/>
      <path id="DejaVuSans-6c" d="M 603 4863
L 1178 4863
L 1178 0
L 603 0
L 603 4863
z
" transform="scale(0.015625)"/>
     </defs>
     <use xlink:href="#DejaVuSans-6f"/>
     <use xlink:href="#DejaVuSans-70" transform="translate(61.181641 0)"/>
     <use xlink:href="#DejaVuSans-65" transform="translate(124.658203 0)"/>
     <use xlink:href="#DejaVuSans-6e" transform="translate(186.181641 0)"/>
     <use xlink:href="#DejaVuSans-20" transform="translate(249.560547 0)"/>
     <use xlink:href="#DejaVuSans-74" transform="translate(281.347656 0)"/>
     <use xlink:href="#DejaVuSans-61" transform="translate(320.556641 0)"/>
     <use xlink:href="#DejaVuSans-69" transform="translate(381.835938 0)"/>
     <use xlink:href="#DejaVuSans-6c" transform="translate(409.619141 0)"/>
    </g>
   </g>
  </g>
 </g>
 <defs>
  <clipPath id="pNORMALIZED">
   <rect x="2.455125" y="0" width="332.712" height="175.8"/>
  </clipPath>
 </defs>
</svg>
