<?xml version="1.0" encoding="utf-8" standalone="no"?>
<!DOCTYPE svg PUBLIC "-//W3C//DTD SVG 1.1//EN"
  "http://www.w3.org/Graphics/SVG/1.1/DTD/svg11.dtd">
<svg xmlns:xlink="http://www.w3.org/1999/xlink" width="335.181882pt" height="150.91pt" viewBox="0 0 335.181882 150.91" xmlns="http://www.w3.org/2000/svg" version="1.1">
 <metadata>
  <rdf:RDF xmlns:dc="http://purl.org/dc/elements/1.1/" xmlns:cc="http://creativecommons.org/ns#" xmlns:rdf="http://www.w3.org/1999/02/22-rdf-syntax-ns#">
   <cc:Work>
    <dc:type rdf:resource="http://purl.org/dc/dcmitype/StillImage"/>
    <dc:date>normalized</dc:date>
    <dc:format>image/svg+xml</dc:format>
    <dc:creator>
     <cc:Agent>
      <dc:title>Matplotlib v3.10.9, https://matplotlib.org/</dc:title>
     </cc:Agent>
    </dc:creator>
   </cc:Work>
  </rdf:RDF>
 </metadata>
 <defs>
  <style type="text/css">*{stroke-linejoin: round; stroke-linecap: butt}</style>
 </defs>
 <g id="figure_1">
  <g id="patch_1">
   <path d="M 0 150.91
L 335.181882 150.91
L 335.181882 0
L 0 0
L 0 150.91
z
" style="fill: none"/>
  </g>
  <g id="axes_1">
   <g id="line2d_1">
    <path d="M 25.840941 11.68
L 40.015941 11.68
L 54.190941 11.68
" clip-path="url(#pNORMALIZED)" style="fill: none; stroke: #f8fafc; stroke-width: 2; stroke-linecap: round"/>
   </g>
   <g id="line2d_2">
    <path d="M 280.990941 11.68
L 295.165941 11.68
L 309.340941 11.68
" clip-path="url(#pNORMALIZED)" style="fill: none; stroke: #f8fafc; stroke-width: 2; stroke-linecap: round"/>
   </g>
   <g id="line2d_3">
    <path d="M 54.190941 11.68
L 167.590941 11.68
L 280.990941 11.68
" clip-path="url(#pNORMALIZED)" style="fill: none; stroke: #f8fafc; stroke-width: 2; stroke-linecap: round"/>
   </g>
   <g id="line2d_4">
    <path d="M 54.190941 96.73
L 167.590941 96.73
L 280.990941 96.73
" clip-path="url(#pNORMALIZED)" style="fill: none; stroke: #f8fafc; stroke-width: 2; stroke-linecap: round"/>
   </g>
   <g id="line2d_5">
    <path d="M 54.190941 96.73
L 54.190941 109.96
L 54.190941 123.19
" clip-path="url(#pNORMALIZED)" style="fill: none; stroke: #f8fafc; stroke-width: 2; stroke-linecap: round"/>
   </g>
   <g id="line2d_6">
    <path d="M 54.190941 123.19
L 54.190941 137.59
L 45.190941 137.59
L 63.190941 137.59
M 47.890941 141.91
L 60.490941 141.91
M 52.390941 146.23
L 55.990941 146.23
" clip-path="url(#pNORMALIZED)" style="fill: none; stroke: #f8fafc; stroke-width: 2; stroke-linecap: round"/>
   </g>
   <g id="line2d_7">
    <path d="M 157.069941 11.68
L 157.069941 50.965
M 166.069941 50.965
L 148.069941 50.965
M 166.069941 57.445
L 148.069941 57.445
M 157.069941 57.445
L 157.069941 96.73
" clip-path="url(#pNORMALIZED)" style="fill: none; stroke: #f8fafc; stroke-width: 2; stroke-linecap: round"/>
   </g>
   <g id="line2d_8">
    <path d="M 178.804941 21.76
L 178.804941 54.205
L 178.804941 86.65
" clip-path="url(#pNORMALIZED)" style="fill: none; stroke-dasharray: 7.4,3.2; stroke-dashoffset: 0; stroke: #f8fafc; stroke-width: 2"/>
   </g>
   <g id="text_1">
    <!-- $\lambda/4\ \mathrm{QWR}$ -->
    <g style="fill: #f8fafc" transform="translate(137.000941 110.967813) scale(0.14 -0.14)">
     <defs>
      <path id="DejaVuSans-Oblique-3bb" d="M 2350 4316
L 3125 0
L 2516 0
L 2038 2588
L 328 0
L -281 0
L 1903 3356
L 1794 3975
Q 1725 4369 1391 4369
L 1091 4369
L 1184 4863
L 1550 4856
Q 2253 4847 2350 4316
z
" transform="scale(0.015625)"/>
      <path id="DejaVuSans-2f" d="M 1625 4666
L 2156 4666
L 531 -594
L 0 -594
L 1625 4666
z
" transform="scale(0.015625)"/>
      <path id="DejaVuSans-34" d="M 2419 4116
L 825 1625
L 2419 1625
L 2419 4116
z
M 2253 4666
L 3047 4666
L 3047 1625
L 3713 1625
L 3713 1100
L 3047 1100
L 3047 0
L 2419 0
L 2419 1100
L 313 1100
L 313 1709
L 2253 4666
z
" transform="scale(0.015625)"/>
      <path id="DejaVuSans-51" d="M 2522 4238
Q 1834 4238 1429 3725
Q 1025 3213 1025 2328
Q 1025 1447 1429 934
Q 1834 422 2522 422
Q 3209 422 3611 934
Q 4013 1447 4013 2328
Q 4013 3213 3611 3725
Q 3209 4238 2522 4238
z
M 3406 84
L 4238 -825
L 3475 -825
L 2784 -78
Q 2681 -84 2626 -87
Q 2572 -91 2522 -91
Q 1538 -91 948 567
Q 359 1225 359 2328
Q 359 3434 948 4092
Q 1538 4750 2522 4750
Q 3503 4750 4090 4092
Q 4678 3434 4678 2328
Q 4678 1516 4351 937
Q 4025 359 3406 84
z
" transform="scale(0.015625)"/>
      <path id="DejaVuSans-57" d="M 213 4666
L 850 4666
L 1831 722
L 2809 4666
L 3519 4666
L 4500 722
L 5478 4666
L 6119 4666
L 4947 0
L 4153 0
L 3169 4050
L 2175 0
L 1381 0
L 213 4666
z
" transform="scale(0.015625)"/>
      <path id="DejaVuSans-52" d="M 2841 2188
Q 3044 2119 3236 1894
Q 3428 1669 3622 1275
L 4263 0
L 3584 0
L 2988 1197
Q 2756 1666 2539 1819
Q 2322 1972 1947 1972
L 1259 1972
L 1259 0
L 628 0
L 628 4666
L 2053 4666
Q 2853 4666 3247 4331
Q 3641 3997 3641 3322
Q 3641 2881 3436 2590
Q 3231 2300 2841 2188
z
M 1259 4147
L 1259 2491
L 2053 2491
Q 2509 2491 2742 2702
Q 2975 2913 2975 3322
Q 2975 3731 2742 3939
Q 2509 4147 2053 4147
L 1259 4147
z
" transform="scale(0.015625)"/>
     </defs>
     <use xlink:href="#DejaVuSans-Oblique-3bb" transform="translate(0 0.015625)"/>
     <use xlink:href="#DejaVuSans-2f" transform="translate(59.179688 0.015625)"/>
     <use xlink:href="#DejaVuSans-34" transform="translate(92.871094 0.015625)"/>
     <use xlink:href="#DejaVuSans-51" transform="translate(188.964519 0.015625)"/>
     <use xlink:href="#DejaVuSans-57" transform="translate(267.675457 0.015625)"/>
     <use xlink:href="#DejaVuSans-52" transform="translate(366.55241 0.015625)"/>
    </g>
   </g>
   <g id="text_2">
    <!-- $C_{12}$ -->
    <g style="fill: #f8fafc" transform="translate(121.789941 58.068125) scale(0.14 -0.14)">
     <defs>
      <path id="DejaVuSans-Oblique-43" d="M 4447 4306
L 4319 3641
Q 4019 3944 3683 4091
Q 3347 4238 2956 4238
Q 2422 4238 2017 3981
Q 1613 3725 1319 3200
Q 1131 2863 1032 2486
Q 934 2109 934 1728
Q 934 1091 1264 756
Q 1594 422 2222 422
Q 2656 422 3056 561
Q 3456 700 3834 978
L 3688 231
Q 3316 72 2936 -9
Q 2556 -91 2175 -91
Q 1278 -91 773 396
Q 269 884 269 1753
Q 269 2309 461 2846
Q 653 3384 1013 3828
Q 1394 4300 1883 4525
Q 2372 4750 3022 4750
Q 3422 4750 3780 4639
Q 4138 4528 4447 4306
z
" transform="scale(0.015625)"/>
      <path id="DejaVuSans-31" d="M 794 531
L 1825 531
L 1825 4091
L 703 3866
L 703 4441
L 1819 4666
L 2450 4666
L 2450 531
L 3481 531
L 3481 0
L 794 0
L 794 531
z
" transform="scale(0.015625)"/>
      <path id="DejaVuSans-32" d="M 1228 531
L 3431 531
L 3431 0
L 469 0
L 469 531
Q 828 903 1448 1529
Q 2069 2156 2228 2338
Q 2531 2678 2651 2914
Q 2772 3150 2772 3378
Q 2772 3750 2511 3984
Q 2250 4219 1831 4219
Q 1534 4219 1204 4116
Q 875 4013 500 3803
L 500 4441
Q 881 4594 1212 4672
Q 1544 4750 1819 4750
Q 2544 4750 2975 4387
Q 3406 4025 3406 3419
Q 3406 3131 3298 2873
Q 3191 2616 2906 2266
Q 2828 2175 2409 1742
Q 1991 1309 1228 531
z
" transform="scale(0.015625)"/>
     </defs>
     <use xlink:href="#DejaVuSans-Oblique-43" transform="translate(0 0.78125)"/>
     <use xlink:href="#DejaVuSans-31" transform="translate(69.824219 -15.625) scale(0.7)"/>
     <use xlink:href="#DejaVuSans-32" transform="translate(114.360352 -15.625) scale(0.7)"/>
    </g>
   </g>
   <g id="text_3">
    <!-- $M_{12}$ -->
    <g style="fill: #f8fafc" transform="translate(182.404941 58.068125) scale(0.14 -0.14)">
     <defs>
      <path id="DejaVuSans-Oblique-4d" d="M 1081 4666
L 2028 4666
L 2572 1522
L 4378 4666
L 5350 4666
L 4441 0
L 3828 0
L 4622 4091
L 2791 897
L 2175 897
L 1581 4103
L 788 0
L 172 0
L 1081 4666
z
" transform="scale(0.015625)"/>
     </defs>
     <use xlink:href="#DejaVuSans-Oblique-4d" transform="translate(0 0.09375)"/>
     <use xlink:href="#DejaVuSans-31" transform="translate(86.279297 -16.3125) scale(0.7)"/>
     <use xlink:href="#DejaVuSans-32" transform="translate(130.81543 -16.3125) scale(0.7)"/>
    </g>
   </g>
   <g id="patch_2">
    <path d="M 25.840941 13.532941
C 26.332347 13.532941 26.803692 13.337704 27.151168 12.990227
C 27.498645 12.642751 27.693882 12.171406 27.693882 11.68
C 27.693882 11.188594 27.498645 10.717249 27.151168 10.369773
C 26.803692 10.022296 26.332347 9.827059 25.840941 9.827059
C 25.349535 9.827059 24.87819 10.022296 24.530714 10.369773
C 24.183238 10.717249 23.988 11.188594 23.988 11.68
C 23.988 12.171406 24.183238 12.642751 24.530714 12.990227
C 24.87819 13.337704 25.349535 13.532941 25.840941 13.532941
z
" clip-path="url(#pNORMALIZED)" style="fill: #ffffff; stroke: #f8fafc; stroke-width: 2; stroke-linejoin: miter"/>
   </g>
   <g id="text_4">
    <!-- $P_1$ -->
    <g style="fill: #f8fafc" transform="translate(5.268 15.543125) scale(0.14 -0.14)">
     <defs>
      <path id="DejaVuSans-Oblique-50" d="M 1081 4666
L 2541 4666
Q 3178 4666 3512 4369
Q 3847 4072 3847 3500
Q 3847 2731 3353 2303
Q 2859 1875 1966 1875
L 1172 1875
L 806 0
L 172 0
L 1081 4666
z
M 1613 4147
L 1275 2394
L 2069 2394
Q 2606 2394 2893 2669
Q 3181 2944 3181 3456
Q 3181 3784 2986 3965
Q 2791 4147 2438 4147
L 1613 4147
z
" transform="scale(0.015625)"/>
     </defs>
     <use xlink:href="#DejaVuSans-Oblique-50" transform="translate(0 0.09375)"/>
     <use xlink:href="#DejaVuSans-31" transform="translate(60.302734 -16.3125) scale(0.7)"/>
    </g>
   </g>
   <g id="patch_3">
    <path d="M 309.340941 13.532941
C 309.832347 13.532941 310.303692 13.337704 310.651168 12.990227
C 310.998645 12.642751 311.193882 12.171406 311.193882 11.68
C 311.193882 11.188594 310.998645 10.717249 310.651168 10.369773
C 310.303692 10.022296 309.832347 9.827059 309.340941 9.827059
C 308.849535 9.827059 308.37819 10.022296 308.030714 10.369773
C 307.683238 10.717249 307.488 11.188594 307.488 11.68
C 307.488 12.171406 307.683238 12.642751 308.030714 12.990227
C 308.37819 13.337704 308.849535 13.532941 309.340941 13.532941
z
" clip-path="url(#pNORMALIZED)" style="fill: #ffffff; stroke: #f8fafc; stroke-width: 2; stroke-linejoin: miter"/>
   </g>
   <g id="text_5">
    <!-- $P_2$ -->
    <g style="fill: #f8fafc" transform="translate(314.793882 15.543125) scale(0.14 -0.14)">
     <use xlink:href="#DejaVuSans-Oblique-50" transform="translate(0 0.09375)"/>
     <use xlink:href="#DejaVuSans-32" transform="translate(60.302734 -16.3125) scale(0.7)"/>
    </g>
   </g>
   <g id="patch_4">
    <path d="M 280.990941 98.582941
C 281.482347 98.582941 281.953692 98.387704 282.301168 98.040227
C 282.648645 97.692751 282.843882 97.221406 282.843882 96.73
C 282.843882 96.238594 282.648645 95.767249 282.301168 95.419773
C 281.953692 95.072296 281.482347 94.877059 280.990941 94.877059
C 280.499535 94.877059 280.02819 95.072296 279.680714 95.419773
C 279.333238 95.767249 279.138 96.238594 279.138 96.73
C 279.138 97.221406 279.333238 97.692751 279.680714 98.040227
C 280.02819 98.387704 280.499535 98.582941 280.990941 98.582941
z
" clip-path="url(#pNORMALIZED)" style="fill: #ffffff; stroke: #f8fafc; stroke-width: 2; stroke-linejoin: miter"/>
   </g>
   <g id="patch_5">
    <path d="M 54.190941 13.532941
C 54.682347 13.532941 55.153692 13.337704 55.501168 12.990227
C 55.848645 12.642751 56.043882 12.171406 56.043882 11.68
C 56.043882 11.188594 55.848645 10.717249 55.501168 10.369773
C 55.153692 10.022296 54.682347 9.827059 54.190941 9.827059
C 53.699535 9.827059 53.22819 10.022296 52.880714 10.369773
C 52.533238 10.717249 52.338 11.188594 52.338 11.68
C 52.338 12.171406 52.533238 12.642751 52.880714 12.990227
C 53.22819 13.337704 53.699535 13.532941 54.190941 13.532941
z
" clip-path="url(#pNORMALIZED)" style="fill: #f8fafc; stroke: #f8fafc; stroke-width: 2; stroke-linejoin: miter"/>
   </g>
   <g id="patch_6">
    <path d="M 280.990941 13.532941
C 281.482347 13.532941 281.953692 13.337704 282.301168 12.990227
C 282.648645 12.642751 282.843882 12.171406 282.843882 11.68
C 282.843882 11.188594 282.648645 10.717249 282.301168 10.369773
C 281.953692 10.022296 281.482347 9.827059 280.990941 9.827059
C 280.499535 9.827059 280.02819 10.022296 279.680714 10.369773
C 279.333238 10.717249 279.138 11.188594 279.138 11.68
C 279.138 12.171406 279.333238 12.642751 279.680714 12.990227
C 280.02819 13.337704 280.499535 13.532941 280.990941 13.532941
z
" clip-path="url(#pNORMALIZED)" style="fill: #f8fafc; stroke: #f8fafc; stroke-width: 2; stroke-linejoin: miter"/>
   </g>
   <g id="patch_7">
    <path d="M 54.190941 98.582941
C 54.682347 98.582941 55.153692 98.387704 55.501168 98.040227
C 55.848645 97.692751 56.043882 97.221406 56.043882 96.73
C 56.043882 96.238594 55.848645 95.767249 55.501168 95.419773
C 55.153692 95.072296 54.682347 94.877059 54.190941 94.877059
C 53.699535 94.877059 53.22819 95.072296 52.880714 95.419773
C 52.533238 95.767249 52.338 96.238594 52.338 96.73
C 52.338 97.221406 52.533238 97.692751 52.880714 98.040227
C 53.22819 98.387704 53.699535 98.582941 54.190941 98.582941
z
" clip-path="url(#pNORMALIZED)" style="fill: #f8fafc; stroke: #f8fafc; stroke-width: 2; stroke-linejoin: miter"/>
   </g>
   <g id="patch_8">
    <path d="M 126.640941 13.532941
C 127.132347 13.532941 127.603692 13.337704 127.951168 12.990227
C 128.298645 12.642751 128.493882 12.171406 128.493882 11.68
C 128.493882 11.188594 128.298645 10.717249 127.951168 10.369773
C 127.603692 10.022296 127.132347 9.827059 126.640941 9.827059
C 126.149535 9.827059 125.67819 10.022296 125.330714 10.369773
C 124.983238 10.717249 124.788 11.188594 124.788 11.68
C 124.788 12.171406 124.983238 12.642751 125.330714 12.990227
C 125.67819 13.337704 126.149535 13.532941 126.640941 13.532941
z
" clip-path="url(#pNORMALIZED)" style="fill: #f8fafc; stroke: #f8fafc; stroke-width: 2; stroke-linejoin: miter"/>
   </g>
   <g id="patch_9">
    <path d="M 199.090941 13.532941
C 199.582347 13.532941 200.053692 13.337704 200.401168 12.990227
C 200.748645 12.642751 200.943882 12.171406 200.943882 11.68
C 200.943882 11.188594 200.748645 10.717249 200.401168 10.369773
C 200.053692 10.022296 199.582347 9.827059 199.090941 9.827059
C 198.599535 9.827059 198.12819 10.022296 197.780714 10.369773
C 197.433238 10.717249 197.238 11.188594 197.238 11.68
C 197.238 12.171406 197.433238 12.642751 197.780714 12.990227
C 198.12819 13.337704 198.599535 13.532941 199.090941 13.532941
z
" clip-path="url(#pNORMALIZED)" style="fill: #f8fafc; stroke: #f8fafc; stroke-width: 2; stroke-linejoin: miter"/>
   </g>
  </g>
 </g>
 <defs>
  <clipPath id="pNORMALIZED">
   <rect x="0" y="0" width="335.181882" height="150.91"/>
  </clipPath>
 </defs>
</svg>
